<?xml version="1.0" encoding="utf-8"?>
<!-- Generator: Adobe Illustrator 23.0.1, SVG Export Plug-In . SVG Version: 6.00 Build 0)  -->
<svg version="1.1" id="Camada_1" xmlns="http://www.w3.org/2000/svg" xmlns:xlink="http://www.w3.org/1999/xlink" x="0px" y="0px"
	 viewBox="0 0 671 665" style="enable-background:new 0 0 671 665;" xml:space="preserve">
<style type="text/css">
	.st0{opacity:0.3;}
	.st1{fill:#271F20;}
	.st2{fill:#B0191A;}
	.st3{fill:#100C0D;}
	.st4{fill:#1C1B1B;}
	.st5{fill:#A11A19;}
	.st6{fill:#8F1917;}
</style>
<g class="st0">
	<g>
		<path class="st1" d="M659.6,150c-6.5-2.9-12.9-5.9-19.3-9c-11.5-5.5-22.8-11-34.3-16.4c-9.5-4.5-19.2-8.6-28.6-13.3
			c-15.2-7.6-30.2-15.7-45.3-23.5c-6.9-3.5-13.4-7.7-20.9-9.9l0,0c-0.6-1.5-2-0.8-3-1c-0.1-0.6,0-1.4-0.7-1.8
			c-4.4-2.3-8.5-5-13.5-6.2c-6.3-1.5-12.8-2.1-19.1-3.6c-10.7-2.6-21.6-4.5-32.4-6.6c-7.1-1.3-14.2-3.1-21.4-3.8
			c-7.2-2-14.5-3.5-22-4.3c-3.1-0.3-6.5-1-8.8-3.6c-4.3-4.9-9.5-8.4-15.3-11.1c-2.3,0-4.7,0-7,0c-2.1,3.3-5.8,4-8.8,5.8
			c-9.3,5.5-19.2,9.6-29.8,12.2c-2.6,0.6-5-0.6-7.3,0.2c-4.3,1.6-8.5,0.8-12.7,0.2c-9.2-1.3-18-4-26.7-7c-2.9-1-5.6-2.8-9-2.6
			c-5.9,0.4-10.1,3.6-13,8.2c-4,6.3-9.4,10.3-16.3,12.6c-0.5,0.2-1,0.3-1.4,0.4c-5.3,1.9-10.6,3.7-15.8,5.8
			c-20.6,8.1-41.1,16.3-61.6,24.4c-5.8,2.3-11.8,4.1-16.2,9c-0.4,0.3-0.9,0.5-1.3,0.8c-10.5,8.1-21,16.1-31.5,24.2
			c-5.5,4.2-11.2,8.2-15.8,13.5c-1.5-0.2-2.6,0.3-3.3,1.6l0.1,0.2l-0.2,0.1c-0.2,0.2-0.5,0.5-0.7,0.7c-0.1,0.2-0.3,0.3-0.5,0.1
			c-9.4,6.9-18.8,13.8-28.2,20.7c-1.5,0.3-2.2,1.5-3,2.6l0,0c-1.2,0.4-2.4,0.9-3,2.2c-3.7,2.1-7.5,4.2-10.8,7c-0.8,0.4-1.5,1-1.6,2
			c0.1,0.3,0,0.5-0.1,0.8c-0.3,0-0.5,0-0.8,0.1c-2.3,0.1-4,1.5-5.7,2.8c-10.6,7.7-21.2,15.5-31.7,23.3c-3.9,2.9-3.9,3-0.9,7.2
			c6.6,9.1,13.3,18.1,20,27.1C44.1,260.8,58,279.4,71.8,298c1.2,1.7,2.3,1.6,3.8,1c0.9-0.3,1.7-1,2.5-1.5
			c12.1-7.5,24.2-15,36.3-22.5c7.9-4.9,15.6-9.9,23.5-14.8c3.6-2.2,4.1-2.2,5.8,1.7c1.4,3.2,2.6,6.5,3.6,9.8c3.1,10,6.4,20,7.8,30.5
			c0.9,6.5,3,12.8,3,19.5c0,1.3,0.4,2.6,0.8,3.9s1,2.5,1,3.8c-0.2,11,1.9,21.8,2,32.8c0.1,10.4,1.3,20.8,1.5,31.2
			c0.1,6.8,0.6,13.5,1,20.2c0.4,5.4-0.7,11,1.1,16.3c0.1,0.3,0.1,0.7,0,1c-2,6.4,0.6,12.7,0.2,19.1c-0.3,4.1,0.5,8.2,0.5,12.4
			c0,5.8,0.4,11.5,0.9,17.3c0.5,6.6-0.5,13.3,1.2,19.8c0,0.2,0,0.3,0,0.5c-1.1,6.4,0,12.9,0.3,19.3c0.3,8.4,0.9,16.8,0.8,25.2
			c0,1.4-0.2,3,0.9,4.3c-0.1,9,0.3,18.1,0.8,27.1c0.6,9.2,1,18.5,1,27.8c0,7.1,1.4,14.2,0.7,21.3c-0.2,1.8,0.4,3.6,0.4,5.5
			c0,2.4,1.1,3.7,3.2,4.4c9.6,3.1,19.3,5.9,29.2,7.9c13.4,2.7,27,4.5,40.6,6.2c17.6,2.1,35.3,2.8,52.9,3.4c11.3,0.4,22.7,0,34-0.4
			c6.6-0.3,13.2-1.1,19.8-1.1c9.3-0.1,18.6-1.8,27.9-2.3c12.4-0.6,24.7-2.8,37-4.3c6.4-0.8,12.7-2.2,19.1-2.9
			c8.5-1.1,16.8-3.3,25.2-4.5c8.4-1.2,16.5-3.9,24.8-5.9c10.7-2.6,21.3-5.8,31.8-9.3c18.4-6.1,36.1-13.5,53.3-22.3
			c2-1,2.8-2.5,2.8-4.8c-0.1-3.4-1-6.6-2.5-9.6c-0.1-0.6-0.2-1.3-0.3-1.9c0.1-2.1,0.5-4.2,0.3-6.3c-0.1-1.8,0-3.8-2-4.9
			c-0.1-2.3-0.2-4.6-0.3-6.9c0.5-2.6,0.7-5.2-1.7-7.1c-0.1-3-0.2-5.9-0.3-8.9c0-1.9-0.2-3.8-2-5c0-2.7-0.1-5.3-0.1-8
			c-0.7-2.3-0.5-4.7-0.7-7.1c-0.1-0.8,0-1.7-1-2c-0.1-1.7-0.1-3.3-0.2-4.9c0.5-0.5,0.4-1.1,0.3-1.8c-1.1-6.8-2.5-13.7-3-20.6
			c-0.5-6.1-1.7-12.1-2.5-18.2c-1-8.7-3-17.2-3.6-25.9c-0.1-1.8-0.5-3.5-2.1-4.8c-0.2,0.1-0.4,0.2-0.5,0.3c-0.3,0.2-0.5,0.5-0.6,0.8
			c0.1-0.3,0.3-0.6,0.6-0.8c0.2-0.1,0.3-0.2,0.5-0.3c0-1.3-0.1-2.6-0.1-3.8c0.2-0.4,0.6-0.9,0.5-1.3c0-2.6-0.8-5.2-1-7.8
			c-0.7-7.6-2.9-15-2.9-22.7c0-0.7-0.1-1.3-0.2-2c-1.9-8.1-2.8-16.3-3.6-24.5c-0.3-2.6-0.1-5.3-2.7-7c0-0.3,0-0.5-0.2-0.7
			c0.6-7.4-1.3-14.7-1.2-22.1c0-0.5-0.1-1-0.3-1.5c-2.4-6.3-2.1-13.1-3-19.6c-1.1-7.3-2.2-14.8-2.9-22.2c-1.1-11.7-2-23.5-2.4-35.2
			c-0.3-10.3-0.4-20.7,0.5-31c0.7-8,1.5-16,3.9-23.7c1.1-3.7,1.4-3.8,4.8-2.5c6.9,2.8,13.7,5.7,20.5,8.4c3.2,1.3,6.3,3,9.8,3.6
			c5.6,3.3,11.9,4.9,17.8,7.3c6.6,2.7,13.3,5,19.9,7.7c1.4,0.5,2.8,1,3.4-0.5c1.6-4,4.5-7.3,5.3-11.6c2.2-2.6,3.4-5.7,3.9-9
			c0.2-0.2,0.2-0.5,0.1-0.7c0.6-0.2,1-0.5,0.9-1.3c0.2-0.2,0.3-0.4,0.1-0.7c0.9-1,3.1-1.2,1.9-3.3c0.2-0.2,0.2-0.4,0.1-0.7
			c0.5-0.1,1.2-0.1,1.4-0.4c4-8.7,9-17,12.6-25.9c0.3-0.2,0.6-0.3,0.7-0.6c6.8-13.8,13.5-27.5,20.3-41.3
			C662.1,152.1,661.8,150.9,659.6,150z M31.1,203.7c0.3-1-0.1-2.1,0.9-2.9c2.4-0.6,3.7-2.9,6.1-3.6c1.1-0.4,2.2-0.8,3.3-1.1
			c1.2-0.4,2.3-0.4,3,0.9c-1.4,1.8-3.9,1.6-5.5,2.8c-0.3-0.1-0.6,0-0.7,0.3c-1.6,0.8-1.4,1.6,0.1,2c0.9,0.3,1.9,0,2.8,0
			c0,0.9,0.1,1.9,0.1,2.8c1.7,0.3,3.1-1.4,4.8-0.5c0.4,0.5,0.7,0.9,1.1,1.4c-0.8-0.2-1.1,1-2.1,0.5c-1.6-0.8-2.2,0.5-2.8,1.7
			c-0.4,0-0.7-0.1-1.1-0.1c0-1,0-2-0.1-3c-2.9-1.8-6-2.7-9.3-1.2C31.5,203.8,31.3,203.7,31.1,203.7z M174,294.1
			c0.1,0.3,0.3,0.7,0.4,1C174.3,294.8,174.1,294.5,174,294.1L174,294.1z M151.4,241.3L151.4,241.3c-0.1,0.2-0.3,0.5-0.4,0.7
			C151.1,241.8,151.3,241.5,151.4,241.3z M484.9,467.8c-0.1,0.3-0.2,0.5-0.3,0.8l0,0C484.7,468.3,484.8,468.1,484.9,467.8z
			 M510.3,497L510.3,497c-0.4,0-0.7-0.2-0.9-0.4C509.6,496.8,509.9,497,510.3,497z M358.6,619.4c-0.3-0.1-0.5-0.2-0.8-0.3
			C358.1,619.2,358.3,619.3,358.6,619.4L358.6,619.4z M355.1,218.9c-2.3,0-4.7,0-7,0c-7.1,0.5-14.2,0.8-21.2,2
			c7-1.1,14.1-1.5,21.2-2C350.4,218.9,352.8,218.9,355.1,218.9z M162,242L162,242c0,0.3-0.1,0.5-0.2,0.7
			C161.9,242.5,162,242.3,162,242z M165,236c-0.3,0-0.6,0-0.9,0C164.5,236,164.8,236,165,236L165,236z M511,78L511,78
			C510.9,78.1,511,78,511,78z M124,127.9l0.1,0.1L124,127.9L124,127.9z M43,187.5c0.3,0.7-0.8,2.2,1,1.9c0.9-0.2,1.6-0.2,2.3,0.3
			c1.3,1,4.2,0.7,3.5,3.3c-0.5,2-1.8,3.8-4.4,3.6c0.3-1.8,1.5-3.8-1.6-4.6c-1.1-0.3-1.9-1.6-2.9-2.4C41.6,188.9,42.3,188.2,43,187.5
			z"/>
		<path class="st1" d="M41,205C41,205,41,205,41,205C41.1,205,41.1,205,41,205C41,204.9,41,204.9,41,205C41,205,41,205,41,205z"/>
	</g>
	<g>
		<path class="st1" d="M659.6,150c-6.5-2.9-12.9-5.9-19.3-9c-11.5-5.5-22.8-11-34.3-16.4c-9.5-4.5-19.2-8.6-28.6-13.3
			c-15.2-7.6-30.2-15.7-45.3-23.5c-6.9-3.5-13.4-7.7-20.9-9.9l0,0c-0.6-1.5-2-0.8-3-1c-0.1-0.6,0-1.4-0.7-1.8
			c-4.4-2.3-8.5-5-13.5-6.2c-6.3-1.5-12.8-2.1-19.1-3.6c-10.7-2.6-21.6-4.5-32.4-6.6c-7.1-1.3-14.2-3.1-21.4-3.8
			c-7.2-2-14.5-3.5-22-4.3c-3.1-0.3-6.5-1-8.8-3.6c-4.3-4.9-9.5-8.4-15.3-11.1c-2.3,0-4.7,0-7,0c-2.1,3.3-5.8,4-8.8,5.8
			c-9.3,5.5-19.2,9.6-29.8,12.2c-2.6,0.6-5-0.6-7.3,0.2c-4.3,1.6-8.5,0.8-12.7,0.2c-9.2-1.3-18-4-26.7-7c-2.9-1-5.6-2.8-9-2.6
			c-5.9,0.4-10.1,3.6-13,8.2c-4,6.3-9.4,10.3-16.3,12.6c-0.5,0.2-1,0.3-1.4,0.4c-5.3,1.9-10.6,3.7-15.8,5.8
			c-20.6,8.1-41.1,16.3-61.6,24.4c-5.8,2.3-11.8,4.1-16.2,9c-0.4,0.3-0.9,0.5-1.3,0.8c-10.5,8.1-21,16.1-31.5,24.2
			c-5.5,4.2-11.2,8.2-15.8,13.5c-1.5-0.2-2.6,0.3-3.3,1.6l0.1,0.2l-0.2,0.1c-0.2,0.2-0.5,0.5-0.7,0.7c-0.1,0.2-0.3,0.3-0.5,0.1
			c-9.4,6.9-18.8,13.8-28.2,20.7c-1.5,0.3-2.2,1.5-3,2.6l0,0c-1.2,0.4-2.4,0.9-3,2.2c-3.7,2.1-7.5,4.2-10.8,7c-0.8,0.4-1.5,1-1.6,2
			c0.1,0.3,0,0.5-0.1,0.8c-0.3,0-0.5,0-0.8,0.1c-2.3,0.1-4,1.5-5.7,2.8c-10.6,7.7-21.2,15.5-31.7,23.3c-3.9,2.9-3.9,3-0.9,7.2
			c6.6,9.1,13.3,18.1,20,27.1C44.1,260.8,58,279.4,71.8,298c1.2,1.7,2.3,1.6,3.8,1c0.9-0.3,1.7-1,2.5-1.5
			c12.1-7.5,24.2-15,36.3-22.5c7.9-4.9,15.6-9.9,23.5-14.8c3.6-2.2,4.1-2.2,5.8,1.7c1.4,3.2,2.6,6.5,3.6,9.8c3.1,10,6.4,20,7.8,30.5
			c0.9,6.5,3,12.8,3,19.5c0,1.3,0.4,2.6,0.8,3.9s1,2.5,1,3.8c-0.2,11,1.9,21.8,2,32.8c0.1,10.4,1.3,20.8,1.5,31.2
			c0.1,6.8,0.6,13.5,1,20.2c0.4,5.4-0.7,11,1.1,16.3c0.1,0.3,0.1,0.7,0,1c-2,6.4,0.6,12.7,0.2,19.1c-0.3,4.1,0.5,8.2,0.5,12.4
			c0,5.8,0.4,11.5,0.9,17.3c0.5,6.6-0.5,13.3,1.2,19.8c0,0.2,0,0.3,0,0.5c-1.1,6.4,0,12.9,0.3,19.3c0.3,8.4,0.9,16.8,0.8,25.2
			c0,1.4-0.2,3,0.9,4.3c-0.1,9,0.3,18.1,0.8,27.1c0.6,9.2,1,18.5,1,27.8c0,7.1,1.4,14.2,0.7,21.3c-0.2,1.8,0.4,3.6,0.4,5.5
			c0,2.4,1.1,3.7,3.2,4.4c9.6,3.1,19.3,5.9,29.2,7.9c13.4,2.7,27,4.5,40.6,6.2c17.6,2.1,35.3,2.8,52.9,3.4c11.3,0.4,22.7,0,34-0.4
			c6.6-0.3,13.2-1.1,19.8-1.1c9.3-0.1,18.6-1.8,27.9-2.3c12.4-0.6,24.7-2.8,37-4.3c6.4-0.8,12.7-2.2,19.1-2.9
			c8.5-1.1,16.8-3.3,25.2-4.5c8.4-1.2,16.5-3.9,24.8-5.9c10.7-2.6,21.3-5.8,31.8-9.3c18.4-6.1,36.1-13.5,53.3-22.3
			c2-1,2.8-2.5,2.8-4.8c-0.1-3.4-1-6.6-2.5-9.6c-0.1-0.6-0.2-1.3-0.3-1.9c0.1-2.1,0.5-4.2,0.3-6.3c-0.1-1.8,0-3.8-2-4.9
			c-0.1-2.3-0.2-4.6-0.3-6.9c0.5-2.6,0.7-5.2-1.7-7.1c-0.1-3-0.2-5.9-0.3-8.9c0-1.9-0.2-3.8-2-5c0-2.7-0.1-5.3-0.1-8
			c-0.7-2.3-0.5-4.7-0.7-7.1c-0.1-0.8,0-1.7-1-2c-0.1-1.7-0.1-3.3-0.2-4.9c0.5-0.5,0.4-1.1,0.3-1.8c-1.1-6.8-2.5-13.7-3-20.6
			c-0.5-6.1-1.7-12.1-2.5-18.2c-1-8.7-3-17.2-3.6-25.9c-0.1-1.8-0.5-3.5-2.1-4.8c-0.2,0.1-0.4,0.2-0.5,0.3c-0.3,0.2-0.5,0.5-0.6,0.8
			c0.1-0.3,0.3-0.6,0.6-0.8c0.2-0.1,0.3-0.2,0.5-0.3c0-1.3-0.1-2.6-0.1-3.8c0.2-0.4,0.6-0.9,0.5-1.3c0-2.6-0.8-5.2-1-7.8
			c-0.7-7.6-2.9-15-2.9-22.7c0-0.7-0.1-1.3-0.2-2c-1.9-8.1-2.8-16.3-3.6-24.5c-0.3-2.6-0.1-5.3-2.7-7c0-0.3,0-0.5-0.2-0.7
			c0.6-7.4-1.3-14.7-1.2-22.1c0-0.5-0.1-1-0.3-1.5c-2.4-6.3-2.1-13.1-3-19.6c-1.1-7.3-2.2-14.8-2.9-22.2c-1.1-11.7-2-23.5-2.4-35.2
			c-0.3-10.3-0.4-20.7,0.5-31c0.7-8,1.5-16,3.9-23.7c1.1-3.7,1.4-3.8,4.8-2.5c6.9,2.8,13.7,5.7,20.5,8.4c3.2,1.3,6.3,3,9.8,3.6
			c5.6,3.3,11.9,4.9,17.8,7.3c6.6,2.7,13.3,5,19.9,7.7c1.4,0.5,2.8,1,3.4-0.5c1.6-4,4.5-7.3,5.3-11.6c2.2-2.6,3.4-5.7,3.9-9
			c0.2-0.2,0.2-0.5,0.1-0.7c0.6-0.2,1-0.5,0.9-1.3c0.2-0.2,0.3-0.4,0.1-0.7c0.9-1,3.1-1.2,1.9-3.3c0.2-0.2,0.2-0.4,0.1-0.7
			c0.5-0.1,1.2-0.1,1.4-0.4c4-8.7,9-17,12.6-25.9c0.3-0.2,0.6-0.3,0.7-0.6c6.8-13.8,13.5-27.5,20.3-41.3
			C662.1,152.1,661.8,150.9,659.6,150z M31.1,203.7c0.3-1-0.1-2.1,0.9-2.9c2.4-0.6,3.7-2.9,6.1-3.6c1.1-0.4,2.2-0.8,3.3-1.1
			c1.2-0.4,2.3-0.4,3,0.9c-1.4,1.8-3.9,1.6-5.5,2.8c-0.3-0.1-0.6,0-0.7,0.3c-1.6,0.8-1.4,1.6,0.1,2c0.9,0.3,1.9,0,2.8,0
			c0,0.9,0.1,1.9,0.1,2.8c1.7,0.3,3.1-1.4,4.8-0.5c0.4,0.5,0.7,0.9,1.1,1.4c-0.8-0.2-1.1,1-2.1,0.5c-1.6-0.8-2.2,0.5-2.8,1.7
			c-0.4,0-0.7-0.1-1.1-0.1c0-1,0-2-0.1-3c-2.9-1.8-6-2.7-9.3-1.2C31.5,203.8,31.3,203.7,31.1,203.7z M174,294.1
			c0.1,0.3,0.3,0.7,0.4,1C174.3,294.8,174.1,294.5,174,294.1L174,294.1z M151.4,241.3L151.4,241.3c-0.1,0.2-0.3,0.5-0.4,0.7
			C151.1,241.8,151.3,241.5,151.4,241.3z M484.9,467.8c-0.1,0.3-0.2,0.5-0.3,0.8l0,0C484.7,468.3,484.8,468.1,484.9,467.8z
			 M510.3,497L510.3,497c-0.4,0-0.7-0.2-0.9-0.4C509.6,496.8,509.9,497,510.3,497z M358.6,619.4c-0.3-0.1-0.5-0.2-0.8-0.3
			C358.1,619.2,358.3,619.3,358.6,619.4L358.6,619.4z M355.1,218.9c-2.3,0-4.7,0-7,0c-7.1,0.5-14.2,0.8-21.2,2
			c7-1.1,14.1-1.5,21.2-2C350.4,218.9,352.8,218.9,355.1,218.9z M162,242L162,242c0,0.3-0.1,0.5-0.2,0.7
			C161.9,242.5,162,242.3,162,242z M165,236c-0.3,0-0.6,0-0.9,0C164.5,236,164.8,236,165,236L165,236z M511,78L511,78
			C510.9,78.1,511,78,511,78z M124,127.9l0.1,0.1L124,127.9L124,127.9z M43,187.5c0.3,0.7-0.8,2.2,1,1.9c0.9-0.2,1.6-0.2,2.3,0.3
			c1.3,1,4.2,0.7,3.5,3.3c-0.5,2-1.8,3.8-4.4,3.6c0.3-1.8,1.5-3.8-1.6-4.6c-1.1-0.3-1.9-1.6-2.9-2.4C41.6,188.9,42.3,188.2,43,187.5
			z"/>
		<path class="st2" d="M41,205C41,205,41,205,41,205C41.1,205,41.1,205,41,205C41,204.9,41,204.9,41,205C41,205,41,205,41,205z"/>
	</g>
</g>
<g>
	<path class="st3" d="M246.3,37.8c0.5-0.1,1-0.3,1.4-0.4c6.9-2.3,12.3-6.3,16.3-12.6c2.9-4.6,7.1-7.8,13-8.2c3.3-0.2,6.1,1.6,9,2.6
		c8.8,3,17.5,5.7,26.7,7c4.2,0.6,8.4,1.3,12.7-0.2c2.3-0.8,4.8,0.4,7.3-0.2c10.6-2.5,20.4-6.7,29.8-12.2c3-1.8,6.8-2.6,8.8-5.8
		c2.3,0,4.7,0,7,0c5.8,2.7,11,6.2,15.3,11.1c2.3,2.6,5.7,3.3,8.8,3.6c7.5,0.8,14.8,2.2,22,4.3c0,0.4,0,0.8,0,1.2c-1,0-2,0.1-3-0.1
		c-6-1.2-12.1-2.5-18.1-3.5c-2.7-0.5-5.3-1.4-8.1-1.4c-1.3,0-1.8,0.6-1.5,1.8c-0.8,0.1-1.6,0.2-2.3,0.7c-4.1,3.3-9.3,4.6-13.7,7.5
		c-3,2-6.9,3-10.4,4.3c-4.4,1.6-8.7,3.6-13.4,4.7c-7.4,1.8-14.8,3.6-22.4,4.8c-3.1,0.5-1.9,2.5-2,4.1c-0.2,2,1.3,1.8,2.6,2
		c2.9,0.5,5.5-1,8.3-1c5.7,0,11.3,0,16.9,0c0.8,0,1.7,0,2.1,0.9c-8-0.2-15.9,0.7-23.8,1.3c-7.4,0.6-14.7,1.9-22.2,1.8
		c3.5-1.8,7.4-2,11.3-2c3.3,0,4-1.1,3.8-4.8c-0.3-3.4-2.1-2-3.7-1.3c-0.3,0.1-0.7,0.1-1,0c-4.7-1.4-9.5,0.2-14.1-0.2
		c-5.7-0.5-11.4-1-17-1.9c-8.7-1.5-17.3-4.1-25.8-6.8c-2.2-0.7-4-2.5-6.5-2c-1.7-1.8-3.4-1-5.3-0.3c-2.9,1-5.6,2.7-8.7,3.2
		C246.3,39,246.3,38.5,246.3,37.8z M392.8,21.2c-2.3-2.1-4-3.7-5.7-5.2c-2.8-2.4-5.1-2.7-7.9-0.6c-7.5,5.5-15.8,9.3-24.3,13.1
		c-8.7,3.8-18.3,3.2-27.2,6.1c-0.9,0.3-2,0-2.9-0.2c-0.8-0.2-1.4-0.6-2.3-0.4c-8.1,1.9-16.3,0.7-24.2-0.7c-8.9-1.5-17.7-4.5-25.8-9
		c-1.9-1-3.3-1-4.9,0.5c-1.9,1.7-3.2,3.8-4.7,5.7c-2,2.6-2,3,1,4c6,2,11.7,4.8,18.2,5.1c0.5,0,0.9,0.3,1.4,0.5
		c6.8,2,13.8,2.9,20.8,3.3c11.1,0.6,22.2,0.4,33.3-0.8c0.3,0,0.7,0,1-0.1c8.2-3.5,17.3-3.4,25.5-6.8
		C373.6,31.7,383.1,27.3,392.8,21.2z M380.3,11.2c-3.1-0.4-5.8-2.1-8.5-0.2c-7.3,5-15.3,8.4-23.2,12.3c-9.8,4.8-20.3,5.6-30.7,6.2
		c-4.8,0.3-10.1-0.9-15-2.3c-7.2-2.2-14.5-4.1-21.6-6.8c-3.3-1.3-6.7-2-9.5,1.3C305.1,39.4,353.2,33.7,380.3,11.2z"/>
	<path class="st4" d="M260.2,36.7c2.5-0.4,4.3,1.4,6.5,2c8.5,2.6,17,5.3,25.8,6.8c5.6,1,11.3,1.5,17,1.9c4.7,0.4,9.4-1.1,14.1,0.2
		c0.3,0.1,0.7,0.1,1,0c1.7-0.7,3.5-2.1,3.7,1.3c0.3,3.7-0.4,4.8-3.8,4.8c-3.9,0-7.7,0.3-11.3,2c-0.8,0.3-1.5,0.8-2.3,0.9
		c-7.8,0.8-15.5,2.5-23.2,3.9c-17.2,3.3-33.6,8.7-49.3,16.5c-1.3,0.7-2.5,1.6-4.1,1.6c-4.1-0.5-7,2.1-10.1,4
		c-0.8,0.1-1.7-0.1-2.5,0.2c-6.6,2.7-13.1,5.6-19.6,8.3c-8.4,3.5-16.8,7-25.2,10.4c-1.9,0.8-3.6,1.6-5.1,2.9
		c-4.2,3.5-8.5,6.8-12.8,10.2c-7,5.6-14,11.1-21,16.7c-9.3,7.4-18.8,14.7-27.9,22.4c-4.7,3.9-10,7.1-14.1,11.8c-3.9,2-7.2,4.5-9.9,8
		c-4.3,1.8-7.1,5.5-10.9,8.1c-1.8,0.8-3.1,2.2-4.1,3.8c-0.9,0.1-1.6,0.4-2.2,1c-8.5,6.8-17,13.6-25.5,20.5c-2.1,1.7-4.1,3.3-6.1,5
		c-1.1,0.9-1.2,1.7-0.3,3c3.3,4.3,6.3,8.8,9.7,13.2c1.7,2.3,3.9,3.9,7.2,3.5c2.3-0.3,4.6-0.1,7-0.1c2.1,0,4.3,0.1,6.4,0.1l0,0
		c0.1,0.6,0.4,0.9,1,1l0,0c0.4,1.8,0.3,3.9,3,4l0,0c0,0.8-0.1,1.8,1.1,1.9l0,0c-0.2,1.6,0.4,2.6,2,3l0,0c0.1,0.7,0.5,1,1.2,1
		c4.8,4.4,8.2,9.9,12.1,15c2.7,3.4,2.5,3.6,6,1.5c6.5-3.9,13.2-7.6,19.4-11.9c6.1-4.3,12.7-7.8,18.8-12c6.3-4.3,13-8.5,20.5-10.6
		c0.1,2.3-2,2.5-3.4,2.9c-1.8,0.6-2,1.4-1.2,2.9c3.3,6.3,5.3,13.1,7.4,19.9c4.3,13.3,7.1,26.9,8.2,40.9c0,0.7,0,1.4,0.3,2
		c2.5,5.9,1.7,12.4,2.4,18.5c0.6,5.4,1,10.9,1.6,16.3c0.3,3-0.9,5.9-0.2,8.7c1.8,7.8,1.2,15.8,1.5,23.7c0.5,12.4,1.5,24.8,1.4,37.3
		c0,4.4-0.1,8.9,0.3,13.2c0.4,4,0.8,7.9,0.6,11.8c-0.2,4.7,0.2,9.5,0.5,14.2c0.3,5.6,0,11.3,0.7,16.8c0.4,3.4-0.1,6.9,0.3,10.1
		c1.1,8.6,0.1,17.2,1.3,25.7c0.8,5.6,0.3,11.5,0.5,17.2c0.2,4.3,0.6,8.5,0.8,12.8c-0.6,0.3-1.3,0.7-1.9,1c-1.1-1.3-0.9-2.9-0.9-4.3
		c0.1-8.4-0.5-16.8-0.8-25.2c-0.2-6.4-1.4-12.8-0.3-19.3c0-0.2,0-0.3,0-0.5c-1.7-6.5-0.6-13.2-1.2-19.8c-0.5-5.7-0.8-11.5-0.9-17.3
		c0-4.2-0.8-8.3-0.5-12.4c0.4-6.4-2.2-12.8-0.2-19.1c0.1-0.3,0.1-0.7,0-1c-1.8-5.3-0.7-10.9-1.1-16.3c-0.5-6.7-0.9-13.5-1-20.2
		c-0.2-10.4-1.4-20.8-1.5-31.2c-0.1-11-2.2-21.8-2-32.8c0-1.4-0.6-2.6-1-3.8c-0.4-1.3-0.8-2.6-0.8-3.9c0-6.7-2.2-13-3-19.5
		c-1.4-10.5-4.6-20.5-7.8-30.5c-1-3.3-2.2-6.6-3.6-9.8c-1.7-3.9-2.3-3.9-5.8-1.7c-7.8,4.9-15.6,9.9-23.5,14.8
		c-12.1,7.5-24.2,15-36.3,22.5c-0.8,0.5-1.6,1.1-2.5,1.5c-1.4,0.6-2.5,0.7-3.8-1c-13.8-18.7-27.7-37.2-41.5-55.8
		c-6.7-9-13.4-18.1-20-27.1c-3.1-4.2-3-4.3,0.9-7.2c10.6-7.8,21.1-15.5,31.7-23.3c1.7-1.3,3.4-2.7,5.7-2.8c-0.9,2.8-3.2,4.3-5.6,5.6
		c-0.7,0.7-1.5,1.5-2.2,2.2c-2.5,1.2-5.4,1.8-6,5.1c-2.1-0.8-3.3,0.1-4,2.1c-3.3,1.1-6.1,3-7.8,6.1c-1.1,1.1-3.1,0.7-4.1,2.5
		c5.6,3,11.1,5.2,17.4,3.6c1.6-0.4,3-1.4,4.7-1.1c0.4,0,0.7,0.1,1.1,0.1c2.1-0.5,1.7,2.6,3.6,2.5c0.9-1.5,1.6-3,1.3-4.7
		c-0.4-0.5-0.7-0.9-1.1-1.4c0-0.5,0.1-1,0.1-1.5c1.8,0.2,2.5-1.5,3.7-2.1c5.2-2.5,6.1-6.8,5.3-11.9c1.8,1.4,1.1,4,2.8,5.7
		c0.3-3,0.4-5.6-1-8.2c-1.2-2.3-2.1-4.8-3.1-7.2c3.3-0.2,5.2-3,7.8-4.4c0.9-0.5,0.4-1.8,0.5-2.8c0.5-1.3,1.7-1.8,3-2.2
		c0.3,0.6-0.4,1.7,0.8,1.7c0.2,0,0.7-0.7,0.7-1c-0.1-0.9-0.9-0.5-1.5-0.6c0.8-1.1,1.6-2.2,3-2.6c0,0.7,0.1,1.7,0.8,1.5
		c1.4-0.3,3,0,4.3-1.3c5.7-5.4,12.3-9.6,18.5-14.4c2.1-1.7,4.9-3.1,4.6-6.5c0.2,0.2,0.4,0.1,0.5-0.1c0.9,0.5,1.1,0.1,0.7-0.7
		l0.2-0.1l-0.1-0.2c1.9,1.1,2.8,0.2,3.3-1.6c4.6-5.3,10.3-9.3,15.8-13.5c10.5-8.1,21-16.2,31.5-24.2c0.4-0.3,0.9-0.5,1.3-0.8
		c0.2,0.3,0.4,0.5,0.7,0.8c-0.1,0.6-0.2,1.2-0.2,1.8c-0.4,0.3-0.7,0.6-1.1,0.9c-0.3,0.2-0.9,0.5-0.5,0.9c0.4,0.4,0.7-0.1,0.9-0.5
		c0.3-0.3,0.7-0.7,1-1c0.6-0.2,1.3-0.3,1.8-0.7c5.2-4.2,11.4-6.3,17.5-8.5c1.9-0.7,4.3-0.7,5.5-2.8c8.2-2.4,16.1-5.4,23.9-8.8
		c3.1-1.3,6.6-1.8,9.1-4.4l0,0c1.8,0.2,3.4,0,4-2l0,0c1.7,0.1,3.3,0.1,4.9-0.5c6.6-2.6,13.1-5.3,19.8-7.8
		C246.7,41.8,253.2,38.7,260.2,36.7z M127.2,99.7c-0.2,0.1-0.5,0.2-0.7,0.4c0.1,0.1,0.3,0.3,0.4,0.4c0.1-0.2,0.3-0.5,0.4-0.7
		c0.3-0.2,1.2-0.1,0.4-0.8C127.6,99.2,127.4,99.4,127.2,99.7z M124.3,101.7c-0.6,0.1-1,0.4-1,1c-0.3,0-0.6,0-0.9,0
		c-0.5,0.1-0.9,0.3-0.9,0.8c0,0.2,0.2,0.5,0.4,0.7c0.4-0.3,0.8-0.5,1.1-0.8c0.2-0.2,0.3-0.5,0.4-0.8
		C123.9,102.6,124.3,102.4,124.3,101.7c0.4-0.1,1.2,0,0.5-0.8C124.6,101.2,124.4,101.5,124.3,101.7z M143.4,87.8
		c1.3,0,2-0.6,2.1-1.9c1.7-0.5,3.6-0.8,4-3c0.3-0.2,0.9-0.4,0.5-0.8c-0.4-0.4-0.6,0.2-0.8,0.5c-2,0.2-3,1.6-4,3c-1.2,0.1-2,0.7-2,2
		c-0.8,0.1-1.6,0.1-1.9,1.1c-1.3,0-2.1,0.5-2,2c-0.6,0.1-1.2,0-1.6,0.7c0,0,0.2,0.3,0.3,0.3c0.7,0.2,1.2-0.1,1.4-0.8
		c1.3,0,2-0.6,2-2C142.2,88.8,143,88.7,143.4,87.8z M14.6,183.4c2.4-1.3,5.6-1.7,6.5-4.9c0-0.1-0.6-0.6-0.7-0.5
		C18.1,179.4,15.6,180.5,14.6,183.4z M119.8,105c-0.4,0.1-0.4,0.3,0,0.5c0,0,0.2-0.2,0.3-0.2C120,105.2,119.9,105.1,119.8,105z"/>
	<path class="st4" d="M359.3,52.6c-0.5-0.9-1.3-0.9-2.1-0.9c-5.7,0-11.3,0-16.9,0c-2.8,0-5.4,1.5-8.3,1c-1.3-0.2-2.8,0-2.6-2
		c0.2-1.6-1-3.6,2-4.1c7.5-1.2,15-3.1,22.4-4.8c4.7-1.1,8.9-3.1,13.4-4.7c3.5-1.3,7.3-2.2,10.4-4.3c4.4-3,9.6-4.3,13.7-7.5
		c0.7-0.6,1.5-0.6,2.3-0.7c1.5,0.1,3,0.2,4.5,0.5c6.1,1.2,12.3,2.3,18.3,3.7c8.2,1.9,16.5,2.7,24.7,4.7c7,1.7,14.2,2.8,21.3,4.1
		c6.6,1.4,13.1,2.9,19.7,4c9.6,1.7,19.2,3.3,27.6,8.7c1,0.6,2.1,1.1,3.2,1.3c1.5,0.3,1.4-0.9,1.5-1.9l0.2-0.2
		c7.5,2.3,14,6.4,20.9,9.9c15.2,7.8,30.1,15.8,45.3,23.5c9.4,4.7,19.1,8.8,28.6,13.3c11.5,5.4,22.9,11,34.3,16.4
		c6.4,3,12.8,6.1,19.3,9c2.2,1,2.5,2.2,1.5,4.2c-6.8,13.7-13.5,27.5-20.3,41.3c-0.1,0.3-0.5,0.4-0.7,0.6c-0.4,0-0.7,0-1.1,0
		c0.4-2.7,1.6-5,2.7-7.4c0.8-1.7,0.5-3-1.4-4c-11.7-6.2-23.3-12.5-34.9-18.9c-1.1-0.6-2.2-0.8-3.3-0.9c-1.4-2.3-4-2.5-6-3.8
		c-3.5-1.3-6.2-4.3-10-5c-3-2.1-5.8-4.7-9.8-5.1c-0.6-1.1-1.6-1.6-2.7-2.1c-6.1-3.2-12.2-6.5-18.4-9.8c-5.8-3.1-11.8-6-17.5-9.2
		c-15.6-8.9-31.6-17.2-47.5-25.7c-1.6-0.8-3.2-1.7-5-2.1c-11.7-2.4-23.4-5.1-35.2-7.5c-5-1-9.8-2.8-15-2.6l0,0
		c-0.7-1.5-1.4-1.4-2.1,0c-0.7,0-1.3,0-2,0c-2.6,0.2-4.8-0.5-6.8-2c1.4-1.4-0.3-1.7-0.8-1.8c-1.4-0.2-2.9-0.1-4.3-0.2l0,0
		c-0.6-1.5-2-1.7-3.2-2c-6-1.4-12.1-2.9-18.2-4c-1.8-0.3-3.9-1-5.6,0.7c-0.7-0.1-1.4-0.1-2.1-0.2c-0.1-0.9-0.3-1.5-1.4-1.7
		c-6.3-0.7-12.7-1.3-19.1-1c-0.9,0-2-0.3-2.5,0.9C366.6,52.6,363,52.6,359.3,52.6z M536.2,62.8c0.1,0.6,0.5,0.9,1,1
		c1.2,1.6,3,1.9,4.8,2.3c-1.1-2-2.8-2.5-4.8-2.3C537.3,63.1,536.9,62.8,536.2,62.8c-0.3-1.2-1.2-1-2-1c-0.2-1.1-1.2-1-2-1
		c-0.2-0.7-0.7-1-1.5-0.8c-0.1,0-0.3,0.3-0.3,0.3c0.4,0.6,1.1,0.6,1.7,0.5c0.3,1.1,1.2,1,2,1C534.5,62.8,535.4,62.7,536.2,62.8z
		 M520.2,54.8c0.3,0.7,0.8,1,1.5,0.8c0.1,0,0.3-0.3,0.3-0.3c-0.4-0.7-1-0.5-1.6-0.6c-0.3-1-1.2-1-2-1c-0.4-0.5-0.8-1-1.3-1.3
		c-0.5-0.3-1.2-0.8-1.6,0c-0.4,0.7,0.1,1.2,0.8,1.3c0.6,0.2,1.3,0.2,1.9,0.2C518.6,54.8,519.4,54.8,520.2,54.8z M629.6,109
		c0.1,1,0.9,1.3,1.5,1.7c5.6,2.8,11.3,5.6,16.9,8.4c4.1,2,8.3,3.9,12.4,5.8c0.8,0.4,1.5,0.8,2.1-0.1c0.7-1.1-0.4-1.4-1-1.8
		c-0.4-0.3-0.9-0.4-1.3-0.6c-8.9-4-17.8-8-26.5-12.3C632.5,109.4,631.3,108,629.6,109z M543.9,67.1c3.3,1.5,6,4.2,9.9,4.3
		C550.6,69.7,547.7,67.3,543.9,67.1z"/>
	<path class="st5" d="M546.3,352.7c0.2,0.2,0.3,0.5,0.2,0.7c-0.8,0.4-1.3,0.9-0.8,1.9c1.6,3.4,1.7,7,1.7,10.6c0,1.1,0,2.4,0.4,3.4
		c2.6,7,1.9,14.5,3.3,21.8c1.7,9.2,1.7,18.7,5.3,27.5c0,1.3,0.1,2.6,0.1,3.8c-1.7,0.8-1.4,2.4-0.9,3.4c0.8,1.6,0.5,3.3,1,4.7
		c1.2,3.5,0.6,7.1,1.5,10.7c1.3,5,1.6,10.3,2.3,15.5c1.1,7.8,1.7,15.6,3.3,23.3c0.6,2.6-0.3,3.9-1.4,5.7l0,0c-1,0.3-1.2,1-1.1,1.9
		l0,0c-0.7,0-1,0.3-1,1l0,0c-0.7,0-1,0.3-1,1l0,0c-0.7,0-1,0.4-1,1l0,0c-2.4,0.3-3.1,1.9-3,4l0,0c-0.8,0-1.6,0.1-1.8,1.1
		c-0.8,1.4-1.3,3.1-2.3,4.3c-4.2,4.5-6.6,10.1-9.6,15.3c-0.7,1.2-1.6,2.6-1.3,4.2c-0.6,0.5-1.3,0.9-1.9,1.4
		c-1.6-2.8-3.1-5.7-4.4-8.6c-1.6-3.8-2.8-7.8-5.4-11.2c-1.9-2.6-3.1-5.8-4.2-8.9c-1.5-4.2-4-7.9-6-11.8c-0.2-0.4-1.2-0.5-1.8-0.7
		c-0.1-2.2-0.1-4.3-0.4-6.4c-1.1-7.2-1.9-14.3-2-21.6c0-0.8,0-1.7-0.1-2.5c-1.3-10.8-2.7-21.6-2.8-32.5c2.6,0.1,2.6,2.3,3.8,3.9
		c2.7,3.9,5.3,7.8,7.5,12c2.9,5.6,6.5,10.6,10.2,15.6c3.5,4.8,6.6,10.1,11.2,14.2c0.6-1,0.6-2.2,0.2-3c-1.3-2.5-1.4-5.3-2.5-7.9
		c-1.1-2.6-2.2-5.2-3.3-7.8c-1-2.4,0.1-5.5-2.7-7.3c1.1-2.5-2-3-2.4-4.9c-0.9-4.7-5.3-8-5.1-13.1c-5-7.1-7.1-15.6-11.3-23
		c-1-1.8-2.8-3.3-3.1-5.3c-0.3-2.3-1.4-3-3.3-3.4c-0.3-12.9-0.5-25.8,0.4-38.7c0.6-9.1,2.2-18,3.6-26.9c1-6.7,1.7-13.3,2.5-20
		c0.7-5.4,0.9-11,1-16.5c0.3-11,0-21.9-0.1-32.9c0-1,0-2,0-3c-0.7-10.7-1.3-21.3-2-32c-0.4-5.1-0.8-10.3-1.2-15.4
		c0-0.2-0.4-0.4-0.7-0.6c-0.2-3.6-0.2-7.2-0.7-10.9c-0.6-4.5-0.9-9.2-1.2-13.8c-0.2-2.2,1.3,0,1.9-0.3c0,2,1.3,3.2,2.9,4.1
		c0.1,0.8,0.3,1.5,1.1,1.9c0.3,1,1,1,1.8,1c0.2,2,1.5,2.3,3.2,2c0,0.7,0.3,1,1,1c0.8,1.8,2.3,2.8,4,3.4c3.6,1.3,7.1,3.2,11.1,3.4
		c0,1.7,0,3.3-0.4,4.9c-3.1,10.5-4.1,21.3-4.6,32.2c-0.1,3.2-0.1,6.5,0,9.7c0.2,10.3-0.6,20.5,0.9,30.8c1.6,11,0.9,22.4,3.9,33.3
		c0.3,1.1,0.2,2.3,0.1,3.5c-0.2,3,0.3,6,1.2,8.8c0.6,1.8,0.9,3.5,0.8,5.3c-0.2,3.2,0.5,6.3,1.4,9.2c0.3,1.1,0.7,2.2,0.6,3.4
		c-0.6,6.3,2.6,12.2,2.3,18.5C545.5,352.3,546,352.5,546.3,352.7z"/>
	<path class="st3" d="M511.3,416.7c0.1,10.9,1.6,21.7,2.8,32.5c0.1,0.8,0.1,1.7,0.1,2.5c0.1,7.2,0.8,14.4,2,21.6
		c0.3,2.1,0.3,4.3,0.4,6.4c-0.6,1.7,1,3.1,0.8,4.8c-0.6,5.6,1.5,11.1,1,16.7c-0.1,0.7,0.3,1.3,0.9,1.6c-0.2,4.3,0.9,8.6,1.4,12.8
		c0.4,3.3,0.1,6.7,0.8,9.9c2.1,9.5,2.6,19.2,4,28.8c0.4,2.7,0,5.9,2.8,8.7c-0.3-3.9,0.6-6.9,1.2-9.9c1.2-6.2,1.8-12.7,4.8-18.4
		l0.1,0.1c-0.1,1.2,0.1,2.4-0.2,3.5c-2.4,9-4,18.2-4.7,27.4c-0.4,6-1.4,12-0.2,18.2c0.8,4.4,0.4,4.5,4.6,3.2
		c0.8-0.3,1.6-0.3,2.4-0.7c11.8-4.9,23.5-10.1,35-15.9c4.6-2.3,4.6-2.5,4.3-7.6c-0.1-1.2-0.9-2.1-1-3.3c-0.1-1.1-0.4-2.4,1.2-2.9
		c1.5,3,2.5,6.1,2.5,9.6c0,2.3-0.8,3.8-2.8,4.8c-17.2,8.8-35,16.3-53.3,22.3c-10.5,3.4-21,6.7-31.8,9.3c-8.3,2-16.4,4.7-24.8,5.9
		c-8.5,1.2-16.7,3.5-25.2,4.5c-6.3,0.8-12.7,2.2-19.1,2.9c-12.3,1.5-24.6,3.7-37,4.3c-9.3,0.5-18.6,2.2-27.9,2.3
		c-6.7,0.1-13.2,0.9-19.8,1.1c-11.3,0.5-22.7,0.8-34,0.4c-17.7-0.6-35.3-1.3-52.9-3.4c-13.6-1.7-27.2-3.4-40.6-6.2
		c-9.9-2-19.6-4.8-29.2-7.9c-2.1-0.7-3.3-2-3.2-4.4c0-1.8-0.5-3.7-0.4-5.5c0.7-7.1-0.7-14.2-0.7-21.3c0-9.3-0.4-18.5-1-27.8
		c-0.5-9-0.9-18-0.8-27.1c0.6-0.3,1.3-0.7,1.9-1c2.2,0.7,4.6,1,5,3.9c-1.4,0.7-2.4-1-3.8-0.8c-0.7,0.1-1.4,0.5-1.1,1.2
		c1.5,3.9-0.6,7.9,0.6,11.9c0.7,2.4-0.1,5.2-0.2,7.8c-0.2,4.6,2,9.2,0.4,14c-0.1,0.3,0,0.7,0,1c1.9,7.6,0.6,15.4,1.8,23.1
		c0.7,4.7,0.1,9.6,0.1,14.4c0,2.3-0.7,5.5,0.5,6.7c1.9,2,5.1,2.7,7.8,3.8c0.7,0.3,1.6,0.2,2.4,0.4c12.7,3.9,25.7,6.5,39.3,8.4
		c-0.1-6.6-1.7-12.6-2.6-18.7c-0.2-1.7,0.2-2.8,0.6-4.2c0.8-7.6-1-15.2-1-22.8c0.1-7.9-1.3-15.8-1-23.8c0-0.2,0-0.3,0-0.5
		c-2-8.3-0.3-16.8-1.8-25.2c-1.2-7.1-1.3-14.4-1.9-21.6c0.5,0,1.1,0,1.6,0c0.1,2,0,4,0.3,6c1.6,9,2.1,18.1,2.5,27.1
		c0.4,10.8,2,21.5,1.4,32.3c0,0.3-0.1,0.7,0,1c2.2,6.8-0.2,13.9,1.7,20.7c-1.7,5.3,1.2,10.5,0.3,15.7c-0.3,1.7,0.6,3.3,1.4,4.6
		c0.7,1.2,2.6,0.2,3.7,0.8c1.7,0.9,3.5,0.8,5.4,0.8c3.6,0,7.2,0.9,10.8,1.3c6.2,0.6,12.4,1.4,18.7,1.6c0.7,0,1.4,0.1,2,0.1
		c4.7,0.3,9.3,0.8,14,0.9c7.1,0.2,14.3,0,21.5,0.2c7.2,0.2,14.4-0.3,21.6-0.3c3.5,0,7.2-0.9,10.8-0.7c6.3,0.3,12.6-0.8,18.8-1.3
		c3.8-0.3,7.7-0.1,11.3-0.9c5.2-1.2,10.5-1,15.7-1.5c5.4-0.6,10.9-1.1,16.3-1.5c4.1-0.3,8.4,0.1,12.3-1.1c7.5-2.1,15.3-1.8,22.9-3.4
		c7.9-1.6,16-1.9,23.9-3.5c12.8-2.6,25.6-5.6,38.3-8.8c8.9-2.3,17.6-5.2,26.4-8c2.9-0.9,3.7-1.9,2.9-4.7c-0.9-3-0.6-6.3-1.7-9.2
		c0-4.8-1.1-9.4-1.4-14.2c-0.1-2.2,0.4-5-1.5-7c-0.8-6.9-1.1-13.8-2.4-20.6c-0.7-3.6-0.5-7.2-1-10.8c-1-7.1-2-14.3-2.9-21.4
		c0.8-2.5-1.1-4.7-0.8-7.2c0.5-5.4-1.5-10.7-1.2-16.1c0-0.2-0.4-0.5-0.6-0.7c-0.1-3.3,0.1-6.7-0.5-9.9c-1-5.9-1.3-11.8-1.7-17.7
		c-0.4-5.3-0.7-10.6-1.4-15.8c-1-7.2,0.4-14.5-1.7-21.6c1.5-2.7,0.1-5.4,0.1-8.1c-0.1-5.3-0.1-10.6-0.2-15.9c0-3.8,0.3-7.6,0.1-11.5
		c-0.3-9.1,0.4-18.2,1.2-27.3c0.7-8,2.7-15.8,4.1-23.7c1.5-8.5,1.6-17,2.5-25.5c0.9-8.4,0.6-17,0.8-25.5c0.1-4.7,0.7-9.7-0.4-14.5
		c0.5,0,1,0,1.6,0c0.1,11,0.4,21.9,0.1,32.9c-0.2,5.5-0.4,11-1,16.5c-0.8,6.7-1.5,13.3-2.5,20c-1.4,8.9-3,17.8-3.6,26.9
		c-0.9,12.9-0.8,25.8-0.4,38.7c-0.1,2.2-0.4,4.3-0.2,6.5C511,401,511.3,408.8,511.3,416.7z M527.3,582c-1.8,0.6-3,1-4.3,1.4
		c-7.7,2.3-15.3,4.8-23,6.9c-6.1,1.7-12.3,3.2-18.6,4.3c-2.2,0.4-3.7,1.8-5.8,2.3c-7.4,1.9-15.3,1.2-22.3,4.7c-0.8,0.4-2,0.1-3,0.1
		c-1.3,0-2.8-0.3-4,0.1c-10,3.3-20.7,2.2-31,4.6c-7.2,1.7-15,1.6-22.5,2.2c-6.9,0.6-13.7,1.4-20.6,2c-7.4,0.6-14.7,1.4-22.1,2
		c-7,0.6-14,0.2-21,1.1c-5.1,0.6-10.3-0.8-15.3,1c-0.7,0.3-1.7,0.1-2.4-0.4c-1.1-0.7-2.2-0.7-3.3,0c-1.1,0.7-2.3,0.7-3.3,0.2
		c-1.5-0.8-2.7-0.6-4.2,0c-1.1,0.5-2.6,0.3-3.9,0.2c-4.3-0.4-8.6-1.1-12.9-0.9c-4.4,0.2-9,0.4-13.2-0.3c-5.4-1-10.8-0.8-16.2-1.4
		c-7.8-0.8-15.6-1.8-23.4-3c-0.8-0.1-1.4-0.1-1.6,0.6c-0.7,1.8,2,7,3.9,7c3.5-0.1,6.8,1.5,10.3,1.2c4.8-0.4,9.6,0.7,14.3,1.2
		c6.7,0.8,13.5,1.3,20.3,1.6c8.2,0.4,16.4,0.5,24.5,1.1c8,0.7,16.1-1.3,24.1,0c0.2,0,0.3,0,0.5-0.1c7.6-2.2,15.4-0.3,23.1-1.7
		c4.3-0.8,9-0.3,13.6-0.3c3,0,5.9,0.1,8.8-0.8c3.9-1.3,8.1-1.3,12.3-1.2c1.3,0.1,2.6-0.1,4-0.2c7.1-1,14.3-1.8,21.5-2.5
		c6.7-0.6,13.5-1.4,20-2.6c6.9-1.2,14-1.5,20.7-3.6c4.4-1.3,9.1-1.3,13.5-2.4c6.6-1.8,13.3-3.4,20-4.9c13-3,25.9-6.8,38.6-11.2
		c4.2-1.4,4.2-1.4,4.2-5.9C527.3,583.8,527.3,583.1,527.3,582z"/>
	<path class="st4" d="M575.5,556.6c-1.6,0.5-1.2,1.8-1.2,2.9c0.1,1.2,0.9,2.1,1,3.3c0.4,5.1,0.3,5.2-4.3,7.6
		c-11.4,5.8-23.1,11.1-35,15.9c-0.8,0.3-1.6,0.4-2.4,0.7c-4.2,1.3-3.8,1.3-4.6-3.2c-1.2-6.1-0.2-12.2,0.2-18.2
		c0.7-9.3,2.3-18.4,4.7-27.4c0.3-1.1,0.2-2.3,0.2-3.5c3.7-2.5,3.8-2.5,5.6,1.3c2.7,5.6,6.8,10.4,10,15.7c0.6,1,1.5,2.2,3.6,1.5
		c-1.7-3.1-3.4-5.8-4.8-8.7c-2.4-5-4.3-10.3-7.2-14.9c-2.2-3.5-2.5-6.5-1.3-10.1c-0.3-1.6,0.5-2.9,1.3-4.2c3-5.2,5.5-10.8,9.6-15.3
		c1.1-1.2,1.6-2.8,2.3-4.3c0.8,0,1.6,0.1,1.8-1.1l0,0c1.7-0.8,3.3-1.7,3-4l0,0c0.6,0,1-0.4,1-1l0,0c0.6,0,1-0.4,1-1l0,0
		c0.6,0,1-0.4,1-1l0,0c1.2-0.2,1-1.1,1.1-1.9l0,0c2-0.1,2,1.2,2,2.6c0,2.3-0.1,4.7,3,5.3c0.1,1.7,0.1,3.3,0.2,4.9
		c-2.3,2.8-1.2,5.6,0,8.4c0.3,0.7,1.1,0.6,1.7,0.7c0,2.7,0.1,5.3,0.1,8c-1.7,3-1.4,3.9,2,5c0.1,3,0.2,5.9,0.3,8.9
		c-1.8,3-1.2,5.3,1.7,7.1c0.1,2.3,0.2,4.6,0.3,6.9c-0.6,0.2-1.4,0.7-1.1,1.3c1.2,2.8,0.8,5.7,1,8.6c0.1,1,1,1.1,1.8,1.2
		C575.3,555.3,575.4,556,575.5,556.6z"/>
	<path class="st4" d="M627.4,198c0.1,0.3,0.1,0.5-0.1,0.7c-0.7,0.2-0.9,0.6-0.9,1.3c0.1,0.3,0.1,0.5-0.1,0.7
		c-3.2,0.4-2.2,3.9-4.1,5.4c-0.8,0.7-1.4,1.9-0.6,3.1c0.2,0.2,0.5,0.4,0.8,0.5c-0.8,4.3-3.7,7.7-5.3,11.6c-0.6,1.5-2,1-3.4,0.5
		c-6.6-2.6-13.3-5-19.9-7.7c-6-2.4-12.2-4-17.8-7.3c0.9-0.1,1.7-0.2,2.6-0.3c1,0.1,1.9,0.2,2.9,0.6c5.5,2.2,11.1,4.2,16.5,6.5
		c2.3,1,3.5,0.8,4.6-1.6c2.1-4.6,4.5-9.2,6.8-13.7c2.4-4.7,4.6-9.5,7.7-13.8c1.3-0.1,1.2-1.1,1.1-2l0,0c1.9-1.1,3.7-2.9,6.2-1
		c0.3,0.2,1-0.2,1.4-0.1c2.8,0.4,5.5-0.7,8.8-0.5c-1.4,2.9-2.7,5.4-3.9,7.8c-0.8,1.6-1.8,3.2-1.3,5.1c0.1,0.3,0.1,0.5-0.1,0.7
		C626.6,194.7,627.3,196.5,627.4,198z"/>
	<path class="st3" d="M578.5,206.6c-0.9,0.1-1.7,0.2-2.6,0.3c-3.5-0.7-6.5-2.4-9.8-3.6c-6.9-2.7-13.7-5.6-20.5-8.4
		c-3.3-1.3-3.6-1.2-4.8,2.5c-2.4,7.7-3.2,15.7-3.9,23.7c-0.9,10.3-0.8,20.7-0.5,31c0.3,11.8,1.3,23.5,2.4,35.2
		c0.7,7.4,1.8,14.9,2.9,22.2c1,6.5,0.6,13.3,3,19.6c0.2,0.5,0.3,1,0.3,1.5c-0.1,7.4,1.8,14.7,1.2,22.1c-0.3-0.2-0.7-0.4-0.7-0.6
		c0.3-6.3-2.9-12.2-2.3-18.5c0.1-1.2-0.3-2.2-0.6-3.4c-0.9-3-1.6-6-1.4-9.2c0.1-1.8-0.2-3.6-0.8-5.3c-0.9-2.8-1.4-5.8-1.2-8.8
		c0.1-1.2,0.2-2.4-0.1-3.5c-3.1-10.9-2.4-22.2-3.9-33.3c-1.4-10.2-0.7-20.5-0.9-30.8c-0.1-3.2-0.1-6.5,0-9.7
		c0.5-10.9,1.5-21.7,4.6-32.2c0.5-1.6,0.5-3.3,0.4-4.9c0-0.3,0-0.6,0-0.9c2,0,4,0.1,5.9,0.2h0c0.1,0.5,0.5,0.8,0.9,1
		c7.2,3.2,14.4,6.4,21.8,9C571.6,203.1,575.3,204.5,578.5,206.6z"/>
	<path class="st4" d="M246.3,37.8c0,0.6,0,1.2,0,1.8c-4.9,2.7-10.3,4.1-15.4,6.1c-5.3,2.1-10.9,3.5-15.6,7l0,0c-1.7-0.1-3.4,0-4,2
		l0,0c-2.9-0.7-5,1.2-7.5,2c-8.7,2.9-17.1,6.5-25.5,10c-8,3.3-16.7,5-23.5,10.8c-0.3,0.3-1,0.2-1.4,0.3c-0.3-0.2-0.5-0.5-0.7-0.8
		c4.4-4.8,10.4-6.7,16.2-9c20.6-8.1,41.1-16.3,61.6-24.4C235.7,41.6,241,39.8,246.3,37.8z"/>
	<path class="st4" d="M424.3,27.8c0-0.4,0-0.8,0-1.2c7.2,0.7,14.3,2.4,21.4,3.8c10.8,2,21.7,4,32.4,6.6c6.3,1.5,12.8,2.2,19.1,3.6
		c4.9,1.1,9.1,3.9,13.5,6.2c0.7,0.3,0.6,1.1,0.7,1.8l-0.2,0.2c-3.5-0.7-6.5-2.6-9.3-4.4c-2.4-1.5-4.9-2.1-7.4-2.5
		c-10.9-1.4-21.5-4.2-32.3-6.1c-8-1.5-16-3-23.9-4.7C433.6,30.2,428.8,29.7,424.3,27.8z"/>
	<path class="st3" d="M567.2,493.7c-3-0.6-3-3-3-5.3c0-1.4,0-2.8-2-2.6c1.1-1.7,1.9-3,1.4-5.7c-1.6-7.6-2.3-15.5-3.3-23.3
		c-0.7-5.2-1.1-10.4-2.3-15.5c-0.9-3.6-0.3-7.2-1.5-10.7c-0.5-1.5-0.2-3.2-1-4.7c-0.5-1-0.7-2.7,0.9-3.4c1.5,1.2,2,2.9,2.1,4.8
		c0.6,8.7,2.5,17.3,3.6,25.9c0.7,6.1,1.9,12.1,2.5,18.2c0.6,6.9,1.9,13.7,3,20.6C567.6,492.6,567.8,493.2,567.2,493.7z"/>
	<path class="st4" d="M556.3,418.7c-3.6-8.8-3.6-18.3-5.3-27.5c-1.3-7.2-0.7-14.8-3.3-21.8c-0.4-1-0.4-2.3-0.4-3.4
		c0.1-3.6,0-7.2-1.7-10.6c-0.5-1,0-1.5,0.8-1.9c2.6,1.7,2.5,4.4,2.7,7c0.8,8.2,1.7,16.4,3.6,24.5c0.2,0.6,0.2,1.3,0.2,2
		c0,7.7,2.2,15.1,2.9,22.7c0.2,2.6,1,5.1,1,7.8C556.8,417.8,556.5,418.2,556.3,418.7z"/>
	<path class="st2" d="M58.3,160.7c0.8,5.1-0.1,9.4-5.3,11.9c-1.3,0.6-2,2.3-3.7,2.1c-0.1-0.6-0.4-0.9-1-1.1c0-1.6-0.1-3.2-0.1-4.8
		c0.1-0.2,0.3-0.3,0.4-0.5c2.6,0.2,3.9-1.7,4.4-3.6c0.7-2.6-2.2-2.3-3.5-3.3c-0.7-0.6-1.4-0.5-2.3-0.3c-1.8,0.4-0.7-1.2-1-1.9
		c2.4-1.3,4.7-2.8,5.6-5.6c0.3-0.1,0.5-0.1,0.8-0.1c0.5,0.1,1,0.2,1.6,0.2c0.1,0.5,0.4,0.9,1,1l0,0c0,0.8,0,1.6,1,2l0,0
		c0.1,0.8,0,1.7,1,2l0,0C57.3,159.5,57.2,160.4,58.3,160.7L58.3,160.7z"/>
	<path class="st3" d="M629.4,194c-0.5-2,0.5-3.5,1.3-5.1c1.2-2.5,2.4-5,3.9-7.8c-3.3-0.2-6,0.9-8.8,0.5c-0.5-0.1-1.1,0.3-1.4,0.1
		c-2.5-1.9-4.2,0-6.2,1c0.3-1.7-0.7-2.8-2.1-2.8c-2.2,0.1-4.2-0.7-6.3-1.2c-4.3-1-8.8-0.7-12.8-2.8c2.3,0,4.5,0,6.8,0.5
		c3.1,0.7,6.3,2,9.7,1.3c5,2,10.3,2.5,15.5,2c3.9-0.4,7.5-1.4,9.5-5.8c0.9-2,1.2-4.9,3.8-6.1c0.4,0,0.7,0,1.1,0
		c-3.6,8.9-8.5,17.2-12.6,25.9C630.6,193.9,629.9,193.9,629.4,194z"/>
	<path class="st3" d="M99.5,118.3c0.2,3.4-2.5,4.8-4.6,6.5c-6.2,4.8-12.8,9-18.5,14.4c-1.4,1.3-2.9,1-4.3,1.3
		c-0.6,0.1-0.8-0.9-0.8-1.5C80.7,132,90.1,125.2,99.5,118.3z"/>
	<path class="st3" d="M575.2,554.7c-0.8,0-1.8-0.2-1.8-1.2c-0.2-2.9,0.2-5.8-1-8.6c-0.3-0.7,0.5-1.1,1.1-1.3c1.9,1.1,1.9,3.1,2,4.9
		C575.7,550.5,575.3,552.6,575.2,554.7z"/>
	<path class="st3" d="M65.3,143.7c-0.1,1,0.4,2.3-0.5,2.8c-2.6,1.5-4.5,4.2-7.8,4.4c-0.5,0-1,0-1.5-0.1c-0.4,0-0.7-0.1-1.1-0.1
		C57.7,147.9,61.5,145.8,65.3,143.7z"/>
	<path class="st3" d="M622.3,209.7c-0.3-0.2-0.6-0.3-0.8-0.5c-0.7-1.2-0.2-2.4,0.6-3.1c1.8-1.5,0.9-5,4.1-5.4
		C625.8,204.1,624.6,207.1,622.3,209.7z"/>
	<path class="st3" d="M573.2,536.7c-2.9-1.8-3.4-4.1-1.7-7.1C573.8,531.6,573.7,534.1,573.2,536.7z"/>
	<path class="st3" d="M569.2,507.7c-0.6-0.1-1.4,0-1.7-0.7c-1.3-2.8-2.4-5.6,0-8.4c1,0.3,1,1.2,1,2
		C568.7,503,568.4,505.4,569.2,507.7z"/>
	<path class="st3" d="M571.2,520.7c-3.3-1.1-3.7-2-2-5C571,516.9,571.3,518.8,571.2,520.7z"/>
	<path class="st3" d="M627.4,198c0-1.5-0.8-3.4,1.9-3.3C630.5,196.8,628.3,197.1,627.4,198z"/>
	<path class="st4" d="M54.4,150.7c0.4,0,0.7,0.1,1.1,0.1c-0.1,1.3-0.2,2.6-0.3,3.9c-0.6-0.1-0.9-0.5-1-1c-0.2-0.8-0.7-1-1.5-1
		C52.9,151.7,53.6,151.2,54.4,150.7z"/>
	<path class="st3" d="M104.2,115.5c-0.5,1.8-1.4,2.7-3.3,1.6C101.6,115.8,102.8,115.3,104.2,115.5z"/>
	<path class="st3" d="M68.3,141.5c0.5,0.2,1.4-0.2,1.5,0.6c0,0.3-0.5,1-0.7,1C67.8,143.2,68.5,142.1,68.3,141.5L68.3,141.5z"/>
	<path class="st4" d="M511.4,48.6c1,0.3,2.4-0.4,3,1l-0.2,0.2c-1.1-0.1-2.3,0.4-3-1L511.4,48.6z"/>
	<path class="st3" d="M52.8,152.7c0.7,0,1.3,0.2,1.5,1c-0.5-0.1-1-0.2-1.6-0.2C52.8,153.2,52.9,153,52.8,152.7z"/>
	<path class="st3" d="M100.8,117.4c0.4,0.8,0.2,1.2-0.7,0.7C100.3,117.9,100.5,117.7,100.8,117.4z"/>
	<path class="st3" d="M626.4,200c0-0.7,0.2-1.1,0.9-1.3C627.4,199.5,627,199.8,626.4,200z"/>
	<path class="st2" d="M268.3,610.6c-6.3-0.2-12.5-1-18.7-1.6c-3.6-0.3-7.1-1.3-10.8-1.3c-1.8,0-3.6,0.1-5.4-0.8
		c-1.1-0.6-3,0.4-3.7-0.8c-0.8-1.4-1.7-3-1.4-4.6c1-5.3-1.9-10.5-0.3-15.7c-2-6.8,0.5-13.9-1.7-20.7c-0.1-0.3,0-0.7,0-1
		c0.6-10.8-0.9-21.5-1.4-32.3c-0.4-9-0.9-18.1-2.5-27.1c-0.4-1.9-0.2-4-0.3-6c0.6-6.3-0.7-12.5-1.2-18.8c-0.8-9.2-2-18.3-2.7-27.5
		c-0.5-5.5-2.5-10.8-2.5-16.4c0-0.1-0.3-0.2-0.4-0.3c0-0.4-0.1-0.9-0.1-1.4c0.8-4.6-1.5-8.9-1-13.5c0-1.2,0.7-2.6-0.9-3.2
		c0.2-1.5-1.1-2.7-1-4.3c0.2-4.8-1-9.4-2-14.1c-0.9-4.2-1.9-8.3-2.1-12.6c1.8-0.6,1.2-2.2,1.2-3.4c0-8.1,0-16.3,0-24.4
		c0-2.9,0-5.9,0-9.2c-0.8,0.6-1.5,0.8-1.6,1.2c-0.9,4-1.7,8-2.4,12c-0.4,2.4-0.8,4.7-2,6.8c-1.9-3.5-2.3-7.5-3.7-11.2
		c-4-10.5-7.5-21.1-10.4-32c-3.9-14.8-6.5-29.8-9.1-44.8c-0.6-2.4-0.9-4.8-0.9-7.3c0-3-0.8-5.8-2-8.6c0-0.8,0-1.5,0-2.3
		c0-1.7,0.1-3.3-0.1-5c-0.9-8.8-2.3-17.5-2.8-26.4c-0.5-9.2-1.9-18.3-2.3-27.5c0-0.7,0-1.4,0-2c0.4-3-1.6-5.9-0.7-9
		c2.6-1.1,2.6-1.8,0-4c0.1-0.7,0.2-1.3,0.2-2c2.2-1,2.2-1.4,0.5-3.1c0-2.6,0.1-5.3,0.1-7.9c0-0.3,0-0.7,0.1-1
		c0.6-3.2,1.4-6.4,1.6-9.6c0.3-5.2,2.2-10.2,2.5-15.4l0,0c2.7-3.7,2.9-8.4,4.8-12.5c1.2-2.7,3.3-5.3,3.2-8.6l0,0.1
		c1.2-0.4,1.6-1.5,2.1-2.5c2.1-4.4,4.8-8.5,7.5-12.5c0.6-0.9,1.6-1.7,1.5-3l0,0.1c2.4-1.4,3.9-3.6,5-6l0,0c1.1-0.3,1.3-1.1,1-2.1
		l0,0c3.4-1.5,6.6-4.7,8-8l0,0.1c0.8,0.1,1.1-0.3,1.1-1.1l-0.1,0c1,0.2,1.8,0.1,2.1-1l-0.1,0c2.4-0.4,3.8-2.2,5.1-4l-0.1,0
		c2.8-1,5.3-2.5,7.1-5l-0.1,0c3.9-1,6.9-3.7,10.1-6c1.6,0,2.8-1,4.1-1.6c15.6-7.8,32.1-13.3,49.3-16.5c7.7-1.5,15.4-3.1,23.2-3.9
		c0.8-0.1,1.5-0.6,2.3-0.9c7.5,0.1,14.8-1.2,22.2-1.8c7.9-0.6,15.8-1.5,23.8-1.3c3.7,0,7.3,0,11,0c7.7,0.1,15.3,1,23,1.7
		c0.7,0.1,1.4,0.1,2.1,0.2c3.4,0.6,6.8,1.2,10.2,1.7c5.7,0.8,11,3,16.8,3.5l0,0c1.4,1.5,3.1,2.1,5.1,1.9c2,1.5,4.3,2.3,6.8,2
		c0.7,1.8,2.5,2.1,3.9,2.7c6.4,2.5,12.4,5.8,18.2,9.6c3,1.9,5.5,4.6,9,5.8l-0.1,0c0.3,1.1,1.1,1.2,2.1,1l-0.1,0
		c0.5,2.9,2.4,4.3,5,5.1l-0.1,0c2.2,3.8,4.8,7.2,9.1,9l0-0.1c-0.3,2.3,0.6,3.8,3,4.1l0-0.1c0.2,3.4,2.4,5.4,5,7.1l0-0.1
		c-0.2,2.6,1.1,4.5,3,6.1l0,0c0.1,0.6,0.3,1,1,1.1l0,0c0,0.8,0,1.7,1,2l0,0c0,0.8,0,1.7,1,2l0,0c0.6,4.2,2.9,7.6,5,11l0,0
		c0,0.8-0.1,1.7,1,2l0,0c0.1,0.6,0.1,1.3,0.2,1.9c1.7,5.3,3.4,10.7,5.1,16c1.6,8,2.8,16,3.9,24.1c1.3,9.3,1.5,18.6,3.1,27.8
		c-0.5,5.4,1.2,10.6,1.2,16c0.8,8.3,1.8,16.7,1.7,25.1c0,2,0.2,4,0.3,5.9c0,1-0.1,2-0.1,3c1.1,4.8,0.5,9.8,0.4,14.5
		c-0.2,8.5,0.1,17-0.8,25.5c-0.9,8.5-1.1,17-2.5,25.5c-1.4,7.9-3.3,15.8-4.1,23.7c-0.8,9-1.5,18.1-1.2,27.3
		c0.1,3.8-0.1,7.6-0.1,11.5c-2-6.4-5.5-12.1-8.5-18c-3.1-6.2-6-12.4-9.5-18.4c-3.3-5.6-5.7-11.7-9.5-16.9c1.6,10.2,4.4,20,7.4,29.8
		c2.5,8.3,5.7,16.3,8.8,24.4c2.5,6.6,5.4,13,8.3,19.4c0.7,1.5,0.7,3.8,3.3,3.7c2.1,7.1,0.8,14.4,1.7,21.6c0.7,5.2,1,10.5,1.4,15.8
		c0.4,5.9,0.7,11.8,1.7,17.7c0.6,3.2,0.3,6.6,0.5,9.9c-1-0.1-1.3-0.9-1.6-1.7c-6.7-15.6-13.8-30.9-20.5-46.4
		c-5.6-13.1-10.6-26.5-15.7-39.8c-2.9-7.6-5.8-15.3-8-23.2c-1.3-4.7-2.1-9.5-3.2-14.3c-2.1-9.1-4.2-18.1-6.3-27.2
		c-0.3-1.5,0.6-4-1.8-3.8c-2,0.2-1.2,2.8-1.3,4.3c-0.3,6.6,1.2,13.1,1.9,19.6c0.8,7.2,2.4,14.2,3.6,21.3c0.9,5.3,2.4,10.5,3.3,15.8
		c1.4,8.1,3.4,16,5,23.9c1.7,8.3,3.4,16.6,5.2,24.9c1.9,8.8,3.9,17.5,5.8,26.3c1.1,4.8,2.2,9.6,3.1,14.4c1.5,8.2,3.4,16.3,5.8,24.3
		c5,16.7,11.3,32.8,17.9,48.9c4.1,10.1,9.1,19.7,15.3,28.7c0.8,1.2,1.5,2.1,3.1,2c1.2,2.9,0.9,6.2,1.7,9.2c0.8,2.8,0,3.8-2.9,4.7
		c-8.8,2.7-17.5,5.7-26.4,8c-12.7,3.3-25.5,6.2-38.3,8.8c-7.9,1.6-16,1.9-23.9,3.5c-7.6,1.6-15.4,1.3-22.9,3.4
		c-4,1.1-8.2,0.7-12.3,1.1c-5.4,0.5-10.9,0.9-16.3,1.5c-5.2,0.6-10.5,0.3-15.7,1.5c-3.7,0.8-7.6,0.7-11.3,0.9
		c-6.3,0.5-12.5,1.6-18.8,1.3c-3.6-0.2-7.3,0.7-10.8,0.7c-7.2,0.1-14.4,0.5-21.6,0.3c-7.1-0.2-14.3,0-21.5-0.2
		c-4.7-0.1-9.3-0.6-14-0.9c-0.7-8.6,1-17.2,1-25.8c-0.1-22.1,0.6-44.2-1-66.3c-0.6-8.1,0.1-16.2-0.8-24.3
		c-0.9-7.8-0.6-15.8-1.1-23.8c-0.4-5.1-1.1-10.2-1.4-15.3c-0.2-3.2-0.2-6.6-0.9-9.8c-1.3-5.6-1.9-11.3-2.6-16.9
		c-0.9-7.2-2.6-14.1-3.9-21.2c-1.3-7.1-3.6-13.9-5.5-20.8c-1.2-4.3-2.7-8.6-5.7-13c0,3.8-0.4,6.8,0.1,9.7c1,6.7,1.6,13.4,1.9,20.1
		c0,0.8-0.2,1.7,0.1,2.5c1.9,5.1,0.9,10.4,1.6,15.6c0.7,5.3,1.3,10.8,1.5,16.3c0.1,3.5,0,7.3,0.9,10.8c1.5,5.7,0.8,11.4,1.6,17.2
		c0.8,5.6,1.1,11.5,1.4,17.3c0.4,7.4,1.9,14.7,1.8,22.1c0,0.5-0.1,1.1,0.1,1.5c2,5.2,1,10.8,1.7,16.1c1,7.6,1.4,15.4,2.1,23.1
		c0.7,7.9,1.5,15.7,1.9,23.6c0.3,6.3,1.8,12.5,1.2,18.8c0,0.5,0,1,0,1.5C267.6,596.5,268,603.6,268.3,610.6z M409.3,262.3
		c-0.1-3.3-0.5-6.2-0.9-9.1c-1.6-10.8-3-21.6-4.1-32.4c-1.2-12-3.2-23.9-4.3-35.9c-0.3-3.4-0.2-7-1-10.3c-1.2-4.9-0.9-9.8-1.6-14.7
		c-0.7-5.2-1.6-10.5-1.2-15.8c0.1-0.8-0.3-1.6-0.6-2.4c-1.5-4-3.3-7.9-5.6-11.5c-7.6-12.1-24-18.7-38-15.6c-2,0.5-4,1.3-6.3,1.2
		c-6.2-0.3-12.2,1-18.3,1.3c-3.9,0.2-8,0.3-11.9,1c-5.9,0.9-11.8,1.5-17.7,1.7c-6.3,0.2-10.1,3.2-13.2,8.2c-3.8,6.2-2.8,13-2.1,19.5
		c0.9,8.7,1.3,17.4,2.6,26.1c0.8,5.6,0.4,11.3,1.4,16.8c0.8,4.9,0.5,9.9,1.8,14.7c5.2,19.9,22.6,28.1,39.3,27.5
		c4.3-0.2,8.6-0.6,12.9-0.8c1.2-0.1,2.3-0.2,3.5-0.3c6.2-0.7,12.5-1.6,18.7-1.7c1.8,0,2.5,0.4,3,2.3c0.4,1.8,0.6,3.6,0.7,5.4
		c0.1,1.8-0.2,3.7,0.2,5.5c1.2,5.5,1.2,11.2,1.7,16.7c0.5,6.6,0.2,6.9-6.6,7c-5.3,0.1-10.5,1-15.8,1.4c-4.1,0.3-8.3,0.2-12.3,1
		c-5.2,1-10.5,1.1-15.7,1.6c-7.2,0.7-14.4,1.6-21.7,2.1c-1.6,0.1-1.8,1-1.8,2.3c0.1,4,0.6,7.9,0.9,11.9c0.5,7.3,1.4,14.5,2.1,21.7
		c0.1,1.7,0.8,2.2,2.5,2.3c2.9,0.2,5.5-1.1,8.4-1c6.5,0.3,12.9-1,19.3-1.4c3.9-0.2,8-0.3,11.9-1c5.9-1,11.8-1.2,17.8-1.7
		c4.9-0.5,9.9-0.8,14.8-1.4c3.6-0.4,7.2-0.3,10.8-1.2c8.9-2.3,15-8.3,20.4-15.1c2.5-3.2,4.6-7,5.2-11.1
		C408.8,271.9,409,267,409.3,262.3z M237.4,605.5c1.6-0.7,1.5-2.6,1.7-3.7c2.1-10.3,3.1-20.7,4.1-31.2c0.5-5.1,0.3-10.2,0.9-15.3
		c0.9-7.7,0.2-15.5,1-23.3c1.1-10.4,0.2-20.8,0.9-31.3c1.2-18.4,0.3-36.8,1-55.3c0.9-22.7,0.5-45.5-0.7-68.3
		c-0.4-8.1-1.8-16.2-1.1-24.3c0-0.3,0-0.7,0-1c-1.9-5.4-1.1-11.1-1.7-16.6c-0.6-5.2-1-10.5-1.5-15.7c-0.8-7.3-1.6-14.6-2.6-21.9
		c-1.1-8.1-2.4-16.2-3.4-24.3c-0.4-2.9-0.3-6.4-3-9.8c1,7.7-0.8,14.3-0.8,21.1c0,25.3,0.1,50.7-0.1,76c0,6.5,1.7,12.8,1.1,19.3
		c0,0.2,0,0.3,0,0.5c2.2,6.4,0.7,13.1,1.7,19.6c1.3,8.1,0.6,16.5,1,24.8c1,21.4,0.4,42.9,1,64.4c0.6,20.9,0.8,41.8-0.5,62.8
		c-1,16.9-0.2,34-0.2,51C236.3,603.8,235.9,604.9,237.4,605.5z M480.6,580.1c-1.1-11.5,0.4-21.9-1-32.4c-0.7-5.5-1.8-11.1-1.3-16.8
		c0.1-0.8,0-1.7-0.1-2.5c-1.3-7.1-2.3-14.2-2.9-21.4c-0.2-3.3-0.9-6.5-1.3-9.8c-0.6-6.2-1.8-12.3-2.7-18.4
		c-0.8-5.5-1.1-11.1-2.3-16.5c-1.7-7.8-2.3-15.8-3.7-23.7c-0.9-5-1.5-10.1-2.3-15.1c-0.8-5-1.9-10-2.5-14.9
		c-0.7-5.4-1.7-10.7-2.4-16c-1.2-8.9-3.2-17.7-4.8-26.5c-1-5.5-2.6-10.8-3.1-16.4c0-0.4-0.5-0.9-1.1-0.7c-0.3,0.1-0.6,0.4-0.7,0.7
		c-0.1,0.8-0.3,1.7-0.1,2.5c0.7,2.1,1,4.1,0.9,6.3c-0.7,14.8,1,29.5,1,44.3c0,0.5-0.1,1,0,1.5c2.1,6.2,0.9,12.8,1.7,19.1
		c0.7,6,1.8,12.1,1.3,18.3c0,0.5,0,1,0.2,1.5c1.4,4.4,1.1,9.1,1.7,13.7c0.5,4.2,0.8,8.6,1.4,12.7c1,6.1,1.8,12.3,2.5,18.4
		c0.9,7.3,2.1,14.6,3.5,21.8c1.7,9.1,3.6,18.2,5.5,27.3c2.9,13.9,6.9,27.6,10.6,41.3C478.8,578.7,479.3,579,480.6,580.1z
		 M369.5,605.9c5.8-2.9,11.2-2.9,16.8-1.3c0.8,0.2,2.3,0,2.3-0.1c0.3-2.6,3.4-2.8,4.1-4.9c0.7-2,1.2-4.1,1.5-6.2
		c0.7-5.4,0.6-5.4,5.6-6c-0.9-1.3-2.4-1.7-3.7-2.2c-3-1.3-5.4,0.8-5.1,4.1c0.2,1.6,0.2,3.3,0.2,4.9c0,1.1,0.2,2.5-1.6,2.4
		c-1.4-0.1-1.4-1.2-1.3-2.2c0.1-1.8,0-3.5,0.7-5.3c1.1-3-0.2-4.1-3.3-4.2c-3.7,0-7.5-0.9-10.9,1.4c-0.2,0.1-0.6-0.2-0.9-0.3
		c-5-1.3-9.8,0.7-14.7,0.8c-1.1,0-2.2,0.7-3.2,1.1c-0.2,0.1-0.5,0.5-0.4,0.8c0,0.5,0.4,1,1,0.8c4-1.9,8.4-0.6,12.5-1.5
		c0.1,2.7-3.1,1.7-3.3,3.9c-0.1,1.8-3.7,0.6-3.1,3.6c2.1-0.3,4.3-0.5,6.5-0.3c-0.2,2.7-3.4,0.4-3.6,2.7
		C369.3,600,370.2,601.7,369.5,605.9z M361.9,591.2c-0.3-0.1-0.5-0.2-0.8-0.3c-0.1,0-0.2,0.2-0.3,0.3c0.2,0.2,0.3,0.5,0.5,0.5
		C361.5,591.6,361.7,591.3,361.9,591.2z"/>
	<path class="st4" d="M392.8,21.2c-9.7,6.1-19.2,10.5-28.9,14.6c-8.2,3.4-17.3,3.3-25.5,6.8c-0.3,0.1-0.7,0-1,0.1
		c-11.1,1.2-22.2,1.5-33.3,0.8c-7-0.4-14-1.3-20.8-3.3c-0.5-0.1-0.9-0.5-1.4-0.5c-6.5-0.3-12.2-3.1-18.2-5.1c-3-1-3-1.4-1-4
		c1.5-2,2.8-4,4.7-5.7c1.6-1.5,3-1.5,4.9-0.5c8.1,4.5,16.9,7.5,25.8,9c7.9,1.3,16.1,2.6,24.2,0.7c1-0.2,1.5,0.2,2.3,0.4
		c1,0.2,2.1,0.5,2.9,0.2c8.8-3,18.5-2.3,27.2-6.1c8.4-3.8,16.8-7.6,24.3-13.1c2.8-2.1,5.2-1.8,7.9,0.6
		C388.8,17.5,390.5,19.1,392.8,21.2z"/>
	<path class="st2" d="M380.3,11.2c-27.1,22.5-75.2,28.2-108.5,10.4c2.8-3.4,6.1-2.6,9.5-1.3c7.1,2.7,14.4,4.7,21.6,6.8
		c5,1.5,10.2,2.6,15,2.3c10.4-0.5,20.9-1.3,30.7-6.2c7.9-3.9,16-7.2,23.2-12.3C374.5,9.1,377.3,10.8,380.3,11.2z"/>
	<path class="st5" d="M424.3,27.8c4.5,1.8,9.3,2.4,14.1,3.3c8,1.6,16,3.1,23.9,4.7c0,0.6,0,1.2,0,1.8c-7.1-1.3-14.3-2.4-21.3-4.1
		c-8.2-2-16.5-2.8-24.7-4.7c-6.1-1.4-12.2-2.5-18.3-3.7c-1.5-0.3-3-0.3-4.5-0.5c-0.2-1.2,0.2-1.8,1.5-1.8c2.8,0,5.4,0.9,8.1,1.4
		c6.1,1.1,12.1,2.4,18.1,3.5C422.3,27.9,423.3,27.8,424.3,27.8z"/>
	<path class="st5" d="M215.3,52.7c4.7-3.4,10.3-4.9,15.6-7c5.2-2,10.6-3.4,15.4-6.1c3.1-0.6,5.8-2.2,8.7-3.2
		c1.9-0.7,3.6-1.5,5.3,0.3c-7,2-13.5,5.2-20.3,7.7c-6.6,2.5-13.2,5.2-19.8,7.8C218.5,52.8,216.9,52.9,215.3,52.7z"/>
	<path class="st5" d="M177.2,263.6c0,0.8,0,1.5,0,2.3c-0.8,0.2-1.1,0.8-0.9,1.5c1.1,3.2,0.8,6.4,1.1,9.6c0.2,1.6,0.4,3.5,1.8,4.8
		c0,2.2-0.3,4.4,0.2,6.5c2.6,11.5,4,23.2,7.1,34.6c0.5,1.7,1.4,3.4,1.7,5.1c1.8,10.4,5.5,20.3,9.3,30c2.5,6.4,5,12.8,5.9,19.7
		c-1.6,6.8-2.6,13.8-3.1,20.8c-0.2,4-0.7,8.1-1.2,12.1c-0.9,7.8-2.6,15.4-2.9,23.3c-0.1,3-0.2,6.1-1.1,8.9c-1.7,5.3-1,10.8-1.6,16.1
		c-0.9,8.4-1.2,16.9-2.5,25.2c-1.3,8.4-1.4,16.9-2.4,25.3c-0.6,5.1-0.3,10.3-0.4,15.4c0,1.1,0.5,2.4-1.1,3c-0.6,0-1.2-0.1-1.9-0.1v0
		c0-0.7-0.3-1-1-1l0,0c-0.3-2.4-1.8-3.2-4-3l0-0.1c-0.5-2.9-2.9-3.2-5-3.9c-0.2-4.3-0.6-8.6-0.8-12.8c-0.3-5.7,0.2-11.6-0.5-17.2
		c-1.1-8.6-0.2-17.1-1.3-25.7c-0.4-3.2,0.1-6.7-0.3-10.1c-0.6-5.6-0.4-11.2-0.7-16.8c-0.3-4.6-0.7-9.4-0.5-14.2
		c0.2-3.9-0.2-7.9-0.6-11.8c-0.4-4.3-0.3-8.8-0.3-13.2c0-12.5-0.9-24.9-1.4-37.3c-0.3-7.9,0.3-15.9-1.5-23.7
		c-0.7-2.9,0.5-5.7,0.2-8.7c-0.5-5.4-1-10.9-1.6-16.3c-0.7-6.2,0.1-12.6-2.4-18.5c-0.3-0.6-0.2-1.3-0.3-2c-1.1-14-3.9-27.6-8.2-40.9
		c-2.2-6.7-4.2-13.5-7.4-19.9c-0.8-1.5-0.5-2.3,1.2-2.9c1.4-0.5,3.5-0.6,3.4-2.9l0,0c3.2,0.2,5-2,7-4c1-0.4,1.7-1,2-2l0,0
		c1.1-0.3,1.7-1,2-2l0,0c1.1-0.3,1.2-1.1,1-2.1l0,0c0.7,0,1-0.4,1-1l0,0c1.9-0.8,2.3-2.3,2-4.1l0,0.1c1.3-0.2,1-1.2,1.1-2
		c0.7-0.5,1.4-0.9,2.1-1.4c0.8,8.4,2,16.7,2,25.2c0,0.5,0,1,0.1,1.5c1.4,4.6,1.1,9.5,1.6,14.2c0.5,4.9,1.7,9.8,1.3,14.8
		C175.3,263.2,176,263.8,177.2,263.6z"/>
	<path class="st2" d="M96.1,165.7c4-4.7,9.4-7.8,14.1-11.8c9.1-7.7,18.6-15,27.9-22.4c7-5.6,14-11.1,21-16.7
		c4.3-3.4,8.6-6.7,12.8-10.2c1.6-1.3,3.3-2.1,5.1-2.9c8.4-3.4,16.8-6.9,25.2-10.4c6.5-2.7,13.1-5.6,19.6-8.3
		c0.7-0.3,1.6-0.2,2.5-0.2c0,0.7,0,1.3,0.1,2l0.1,0c-3.5,0.1-5.5,2.2-7.1,5l0.1,0c-2.9-0.2-4.5,1.3-5.1,4l0.1,0c-1-0.2-1.7,0-2.1,1
		l0.1,0c-0.6,0.1-1,0.4-1.1,1.1l0-0.1c-3.4,2-6.5,4.3-8,8l0,0c-1.1,0.3-1.3,1.1-1,2.1l0,0c-3,0.9-5.1,2.6-5,6l0-0.1
		c-1.2-0.3-1.9,0.4-2.5,1.2c-2.9,4.5-5.8,9.1-8.2,14c-0.5,0.9-0.5,1.9-0.4,2.9l0-0.1c-2.7,1.2-3,4.1-3.9,6.4
		c-0.8,1.8-1.8,3.3-3.2,4.6c-5.7,4.6-11.4,9.3-17.3,13.6c-3.3,2.4-5.8,5.8-9.7,7.4c-2.2-1.9-4.3,0.3-6.6,0.1
		c-4.9-0.6-9.8,0.8-14.8,1.2c-3.8,0.3-7.6,0.3-11.3,0.8C110.5,164.8,103.3,166,96.1,165.7z"/>
	<path class="st2" d="M60.9,231.6c-2.3,0-4.7-0.1-7,0.1c-3.2,0.3-5.4-1.3-7.2-3.5c-3.3-4.3-6.4-8.8-9.7-13.2c-0.9-1.2-0.8-2.1,0.3-3
		c2-1.7,4.1-3.4,6.1-5c8.5-6.8,17-13.6,25.5-20.5c0.7-0.5,1.4-0.9,2.2-1c1.1,1.7,2.8,2.1,4.7,2.1c6.8,0,13.6,0,20.5,0
		c0.9,0,1.7-0.2,1.6-1.4c-1.1-1-2.5-0.4-3.8-0.7c-5.9-1.4-11.7-3.1-17.9-3c-0.4,0-0.7-0.6-1.1-0.9c3.7-2.6,6.5-6.4,10.9-8.1
		c3.1,0,6.4,0.5,9.4-0.1c8.4-1.5,16.9-1.3,25.3-2.8c5.6-1,11.3-1.3,16.8-2.8c1.5-0.4,3.2-1.1,4.5,0.7c-2.8,2.3-5.6,4.7-8.4,7
		c-9.6,7.9-19.1,15.8-28.8,23.6c-11,8.8-22.1,17.5-32.8,26.7c-2.5,1.8-5,3.4-8.1,4C63.1,230.1,61.7,230.5,60.9,231.6z"/>
	<path class="st5" d="M152.3,224.7c-7.6,2.1-14.2,6.3-20.5,10.6c-6.1,4.2-12.7,7.7-18.8,12c-6.2,4.3-12.9,8-19.4,11.9
		c-3.5,2.1-3.3,2-6-1.5c-3.9-5.1-7.3-10.6-12.1-15c-0.2-0.5-0.5-1-1.2-1l0,0c0-1.5,0-2.9-2-3l0,0c0-0.8-0.2-1.6-1.1-1.9l0,0
		c-0.9-1.4-1.2-3.3-3-4l0,0c-0.1-0.6-0.5-0.9-1-1l0,0c0.3-1.3,1.2-1.7,2.3-2c2.1-0.7,4.1-1.4,5.9-2.8c0.3,0,0.5,0,0.8-0.1
		c0.8,0,1.7,0.1,2-0.9l0,0c0.9,0,1.8,0,2.2-1c2.9-0.1,5.3-1.8,7.8-3c0.8-0.1,1.8,0.1,2-1.1l0,0c5.6-0.4,10.5-3.2,15.6-5.2
		c0.2-0.1,0.3-0.5,0.4-0.8l0,0c3.4,0.3,6.4-0.7,9-3l0,0c3.4,0.1,6.4-0.8,9-3l0,0c1.5-0.1,2.9-0.3,4.4-0.8c7-2.3,14-4.7,21.1-6.6
		c5.1-1.3,10.1-2.9,15.3-3.6c4.1-0.6,4.1-0.4,4.3,4.1c-1.5,1.7-1.3,3.9-1.9,5.9c-0.1,0.7-0.1,1.3-0.2,2l0-0.1
		c-1.9,0.8-2.2,2.3-2,4.1l0,0c-0.7,0-1,0.4-1,1l0,0c-1.2,0.3-1.2,1.1-1,2.1l0,0c-1.6-0.3-2.2,0.5-2,2l0,0c-0.9-0.2-1.7,0-2.1,1
		C157.2,221.7,154,222.2,152.3,224.7L152.3,224.7z M154.3,213.7c-10.8,1.2-21.1,4.7-31.6,6.9c-1,0.2-1.9,0.8-2.2,1.8
		c-1.6,5-6.4,6.7-10.2,8.6c-5.1,2.5-10,5.6-15.8,6.8c-1.2,0.2-2.1,0.9-1.9,2.4c1.5,1.1,2.8-0.4,4.1-0.6c5.8-1,11.6-1.8,17.1-3.8
		c5-1.8,10.1-3.6,15.1-5.5c8.8-3.5,16.9-8.5,24.5-14.3C154.2,215.4,154.3,214.6,154.3,213.7c0.3-0.2,1.1,0,0.4-0.7
		C154.6,213.2,154.4,213.5,154.3,213.7z"/>
	<path class="st6" d="M142.3,168.7c-1.3-1.8-3-1.1-4.5-0.7c-5.5,1.5-11.3,1.8-16.8,2.8c-8.4,1.5-16.9,1.3-25.3,2.8
		c-3,0.6-6.3,0.1-9.4,0.1c2.6-3.5,6-6,9.9-8c7.3,0.3,14.4-0.8,21.6-1.8c3.7-0.5,7.5-0.5,11.3-0.8c4.9-0.4,9.8-1.8,14.8-1.2
		c2.3,0.3,4.4-2,6.6-0.1C148.3,164.8,144.9,166.3,142.3,168.7z"/>
	<path class="st6" d="M75.3,181.8c0.4,0.3,0.7,0.9,1.1,0.9c6.1-0.2,12,1.5,17.9,3c1.2,0.3,2.7-0.3,3.8,0.7c0,1.2-0.8,1.4-1.6,1.4
		c-6.8,0-13.6,0-20.5,0c-1.9,0-3.6-0.4-4.7-2.1C72.3,184,73.6,182.6,75.3,181.8z"/>
	<path class="st5" d="M44.3,179.7c-1.7-0.3-3.2,0.7-4.7,1.1c-6.3,1.5-11.8-0.7-17.4-3.6c1-1.8,3.1-1.4,4.1-2.5c1.6,0,2.7,1.1,4,1.6
		c1.6,0.6,3.1,1.3,4.1-0.8c0.2,0,0.4,0.1,0.5,0.1c3.4-1.5,6.5-0.6,9.4,1.3l-0.1-0.1C44.3,177.7,44.3,178.7,44.3,179.7z"/>
	<path class="st5" d="M178.3,66.8c8.4-3.5,16.9-7.1,25.5-10c2.4-0.8,4.6-2.7,7.5-2c-2.5,2.6-6,3.1-9.1,4.4
		c-7.8,3.4-15.7,6.4-23.9,8.8C178.3,67.5,178.3,67.2,178.3,66.8z"/>
	<path class="st6" d="M178.3,66.8c0,0.4,0,0.8,0,1.2c-1.2,2.1-3.6,2.1-5.5,2.8c-6.1,2.2-12.3,4.2-17.5,8.5c-0.5,0.4-1.2,0.5-1.8,0.7
		l-0.3-0.3c0.1-0.6,0.2-1.2,0.2-1.8c0.5-0.1,1.1,0,1.4-0.3C161.6,71.7,170.3,70,178.3,66.8z"/>
	<path class="st2" d="M38.1,166.5c0.6-3.3,3.5-4,6-5.1c1,0.8,1.8,2.2,2.9,2.4c3.1,0.8,1.9,2.8,1.6,4.6c-0.1,0.2-0.3,0.3-0.4,0.5
		c-0.2-0.1-0.4-0.1-0.6-0.1c-0.7-1.3-1.8-1.3-3-0.9c-1.1,0.4-2.2,0.8-3.3,1.1C41.6,166.3,39.5,166.9,38.1,166.5z"/>
	<path class="st2" d="M34.4,175.4c-1,2.1-2.6,1.4-4.1,0.8c-1.4-0.5-2.5-1.6-4-1.6c1.7-3.2,4.5-5,7.8-6.1c0.4,1.3,0.8,2.7,1.2,4
		C34.3,173.3,34.7,174.4,34.4,175.4z"/>
	<path class="st6" d="M55.3,154.7c0.1-1.3,0.2-2.6,0.3-3.9c0.5,0,1,0,1.5,0.1c1,2.4,1.9,4.9,3.1,7.2c1.4,2.6,1.3,5.3,1,8.2
		c-1.7-1.7-1-4.3-2.8-5.7l0,0c0-0.8,0.2-1.7-1-2l0,0c0-0.8,0.2-1.7-1-2l0,0C56.3,155.9,56.4,155,55.3,154.7L55.3,154.7z"/>
	<path class="st5" d="M35.3,172.5c-0.4-1.3-0.8-2.7-1.2-4c0.7-1.9,1.9-2.9,4-2.1c1.4,0.4,3.5-0.1,3.2,2.5
		C39,169.6,37.7,171.9,35.3,172.5z"/>
	<path class="st3" d="M75.5,226.8c-1.7,1.4-3.8,2.2-5.9,2.8c-1.1,0.4-2.1,0.8-2.3,2c-2.1,0-4.3-0.1-6.4-0.1c0.9-1.1,2.2-1.5,3.4-1.7
		c3.1-0.6,5.6-2.2,8.1-4C73,227.3,74.4,226.5,75.5,226.8z"/>
	<path class="st3" d="M224.3,84.7c0-0.7,0-1.3-0.1-2c3.1-1.9,6-4.5,10.1-4C231.1,81,228.2,83.7,224.3,84.7z"/>
	<path class="st6" d="M48.3,173.6c0.5,0.2,0.9,0.5,1,1.1c0,0.5-0.1,1-0.1,1.5c-1.8-0.9-3.2,0.9-4.9,0.5l0.1,0.1c0-1-0.1-1.9-0.1-2.9
		c-0.1-1.9-2.5-0.5-2.9-2c0.1-0.3,0.4-0.4,0.7-0.3c1.8,0.4,4.5-0.6,4.5,2.7C47.1,174,47.7,173.8,48.3,173.6z"/>
	<path class="st6" d="M14.6,183.4c1-2.9,3.6-4,5.8-5.4c0.1-0.1,0.7,0.4,0.7,0.5C20.1,181.7,17,182,14.6,183.4z"/>
	<path class="st5" d="M50.2,177.5c0.3,1.7-0.4,3.2-1.3,4.7c-1.9,0.2-1.5-3-3.6-2.5c0.5-1.2,1.2-2.5,2.8-1.7
		C49.2,178.5,49.5,177.3,50.2,177.5z"/>
	<path class="st6" d="M149.5,82.9c-0.4,2.2-2.3,2.5-4,3l-0.3-0.3c1-1.4,2.1-2.8,4-3L149.5,82.9z"/>
	<path class="st5" d="M211.3,54.7c0.7-2,2.3-2.1,4-2C214.6,54.8,213,54.9,211.3,54.7z"/>
	<path class="st3" d="M68.3,232.7c1.8,0.8,2.1,2.6,3,4C68.6,236.6,68.7,234.5,68.3,232.7z"/>
	<path class="st3" d="M72.4,238.6c2.1,0.1,2,1.6,2,3C72.8,241.3,72.1,240.2,72.4,238.6z"/>
	<path class="st6" d="M139.2,90.6c0-1.4,0.8-1.9,2-2l0.1,0.2c0,1.3-0.7,1.9-2,2L139.2,90.6z"/>
	<path class="st6" d="M145.4,85.9c-0.1,1.3-0.8,1.9-2.1,1.9l-0.2-0.2c0-1.3,0.8-1.9,2-2L145.4,85.9z"/>
	<path class="st6" d="M123.3,102.7c-0.1,0.3-0.2,0.6-0.4,0.8c-0.3,0.3-0.7,0.5-1.1,0.8c-0.1-0.2-0.4-0.5-0.4-0.7
		c0-0.5,0.4-0.8,0.9-0.8C122.7,102.7,123,102.7,123.3,102.7C123.3,102.7,123.3,102.7,123.3,102.7z"/>
	<path class="st3" d="M71.3,236.7c0.9,0.3,1.1,1.1,1.1,1.9C71.1,238.5,71.3,237.6,71.3,236.7z"/>
	<path class="st6" d="M139.4,90.8c-0.3,0.7-0.7,1-1.4,0.8c-0.1,0-0.3-0.3-0.3-0.3c0.3-0.7,1-0.6,1.6-0.7L139.4,90.8z"/>
	<path class="st6" d="M143.4,87.8c-0.4,0.9-1.1,1-2,1l-0.1-0.2c0.3-1,1.1-1,1.9-1.1L143.4,87.8z"/>
	<path class="st3" d="M67.3,231.7c0.5,0.1,0.9,0.4,1,1C67.7,232.6,67.4,232.3,67.3,231.7z"/>
	<path class="st6" d="M119.8,105c0.1,0.1,0.2,0.2,0.3,0.3c-0.1,0.1-0.2,0.3-0.3,0.2C119.4,105.3,119.4,105.1,119.8,105z"/>
	<path class="st6" d="M152.5,80.9c-0.2,0.4-0.5,0.9-0.9,0.5c-0.4-0.4,0.1-0.7,0.5-0.9C152.2,80.6,152.3,80.7,152.5,80.9z"/>
	<path class="st6" d="M124.3,101.7c0,0.6-0.4,0.9-1,1l0,0C123.3,102.1,123.7,101.8,124.3,101.7L124.3,101.7z"/>
	<path class="st6" d="M124.3,101.7c0.2-0.3,0.3-0.5,0.5-0.8C125.5,101.8,124.6,101.6,124.3,101.7L124.3,101.7z"/>
	<path class="st6" d="M127.3,99.8c-0.1,0.2-0.3,0.5-0.4,0.7c-0.1-0.1-0.3-0.3-0.4-0.4c0.2-0.1,0.5-0.2,0.7-0.4
		C127.2,99.7,127.3,99.8,127.3,99.8z"/>
	<path class="st6" d="M127.2,99.7c0.2-0.2,0.4-0.5,0.5-0.7c0.7,0.7-0.1,0.6-0.4,0.8L127.2,99.7z"/>
	<path class="st6" d="M149.2,82.6c0.2-0.3,0.5-0.9,0.8-0.5c0.4,0.4-0.2,0.6-0.5,0.8L149.2,82.6z"/>
	<path class="st6" d="M153.5,79.9c-0.3,0.3-0.7,0.7-1,1c-0.1-0.1-0.3-0.3-0.4-0.4c0.4-0.3,0.7-0.6,1.1-0.9L153.5,79.9z"/>
	<path class="st3" d="M74.3,241.6c0.7,0,0.9,0.5,1.2,1C74.8,242.7,74.4,242.3,74.3,241.6z"/>
	<path class="st2" d="M438.3,63.7c5.2-0.2,10,1.6,15,2.6c11.8,2.4,23.5,5,35.2,7.5c1.8,0.4,3.4,1.2,5,2.1
		c15.8,8.5,31.8,16.8,47.5,25.7c5.7,3.3,11.7,6.1,17.5,9.2c6.1,3.3,12.2,6.6,18.4,9.8c1,0.5,2.1,1,2.7,2.1
		c-5.6-0.5-11.2,0.6-16.7,1.4c-5.7,0.8-11.4,0.6-17.1,1.4c-6.1,0.9-12.4,2-18.7,1.3c-1.1-0.1-1.8,0.8-2.8,1c-0.3,0-0.7,0-1-0.2
		c-8.9-4.9-17.8-9.8-26.7-14.7c-1.3-0.7-2.6-1.4-4.2-1.3c-1.1-1.2-1.3-3.2-3.1-3.8l0,0.1c-0.6-3.1-2.4-5.4-5-7.1l0,0.1
		c-0.1-2-1.4-3.2-3-4.1l0,0.1c-2-4.1-4.8-7.3-9.1-9l0.1,0c-0.5-2.9-2.5-4.3-5-5.1l0.1,0c-0.3-1.1-1.1-1.2-2.1-1l0.1,0
		c0.3-1.4-0.7-2.1-1.6-2.8c-4.8-3.5-9.8-6.5-14.9-9.5C445.3,67.4,441.2,66.6,438.3,63.7z"/>
	<path class="st2" d="M642.3,167.7c-2.6,1.1-2.9,4-3.8,6.1c-1.9,4.4-5.5,5.5-9.5,5.8c-5.3,0.5-10.5,0-15.5-2
		c-0.6-0.6-1.1-1.3-1.8-1.7c-11.6-6.3-23.1-12.6-34.7-18.9c-11.9-6.5-23.8-12.8-35.6-19.4c-2.5-1.4-5.5-2.3-7.3-4.8
		c7.8-0.4,15.5,0,23.3-0.8c5.7-0.6,11.5-1.2,17.3-1.4c2.5-0.1,5.3-0.4,7.8-1c2.3-0.6,4.9,0,6.9-1.8c3.8,0.7,6.5,3.6,10,5
		c-0.2,1-1.2,1.2-1.9,1.4c-6.2,1.9-12,4.9-18.3,6.8c-2.6,0.8-5.4,1.4-7.5,3.8c2,0,3.8,0.3,5.6,0c6-1.2,12.2-2.2,18-4.1
		c3.4-1.1,7.6-0.7,10.2-3.9c1.2,0.1,2.2,0.3,3.3,0.9c11.6,6.3,23.2,12.7,34.9,18.9c2,1,2.2,2.3,1.4,4
		C643.8,162.7,642.6,165,642.3,167.7z"/>
	<path class="st6" d="M589.3,127.7c-2,1.8-4.6,1.3-6.9,1.8c-2.5,0.6-5.2,0.9-7.8,1c-5.8,0.2-11.6,0.9-17.3,1.4
		c-7.8,0.8-15.5,0.4-23.3,0.8c-4-0.4-6.7-3-9.8-5c1-0.3,1.7-1.2,2.8-1c6.3,0.7,12.6-0.4,18.7-1.3c5.7-0.8,11.4-0.7,17.1-1.4
		c5.5-0.8,11.1-1.8,16.7-1.4C583.4,123.1,586.3,125.6,589.3,127.7z"/>
	<path class="st6" d="M605.3,136.6c-2.6,3.2-6.8,2.8-10.2,3.9c-5.8,1.9-12,2.9-18,4.1c-1.7,0.3-3.6,0-5.6,0c2.1-2.4,4.9-3,7.5-3.8
		c6.3-1.9,12.1-4.9,18.3-6.8c0.7-0.2,1.7-0.4,1.9-1.4C601.3,134,603.9,134.3,605.3,136.6z"/>
	<path class="st6" d="M462.3,37.6c0-0.6,0-1.2,0-1.8c10.8,1.9,21.4,4.7,32.3,6.1c2.5,0.3,5,1,7.4,2.5c2.9,1.8,5.9,3.6,9.3,4.4
		c0.6,1.4,1.9,1,3,1c0,1,0.1,2.2-1.5,1.9c-1.1-0.3-2.2-0.7-3.2-1.3c-8.4-5.3-18-7-27.6-8.7C475.4,40.5,468.8,39,462.3,37.6z"/>
	<path class="st6" d="M629.6,109c1.7-1,2.9,0.4,4.1,1c8.7,4.3,17.6,8.4,26.5,12.3c0.5,0.2,0.9,0.3,1.3,0.6c0.6,0.4,1.7,0.7,1,1.8
		c-0.6,1-1.3,0.5-2.1,0.1c-4.1-2-8.3-3.8-12.4-5.8c-5.7-2.7-11.3-5.6-16.9-8.4C630.5,110.3,629.7,110,629.6,109z"/>
	<path class="st3" d="M438.3,63.7c3,2.9,7.1,3.7,10.5,5.8c5.1,3,10.1,6.1,14.9,9.5c0.9,0.7,1.9,1.3,1.6,2.8c-3.5-1.1-6-3.8-9-5.8
		c-5.8-3.7-11.8-7-18.2-9.6c-1.4-0.6-3.3-0.8-3.9-2.7c0.7,0,1.3,0,2,0C436.9,63.7,437.6,63.7,438.3,63.7L438.3,63.7z"/>
	<path class="st3" d="M422.3,59.8c-5.7-0.5-11.1-2.8-16.8-3.5c-3.4-0.5-6.8-1.1-10.2-1.7c1.7-1.7,3.8-1.1,5.6-0.7
		c6.1,1.1,12.1,2.5,18.2,4C420.3,58.1,421.7,58.3,422.3,59.8z"/>
	<path class="st3" d="M393.3,54.4c-7.7-0.7-15.3-1.7-23-1.7c0.5-1.2,1.6-0.9,2.5-0.9c6.4-0.3,12.7,0.3,19.1,1
		C393,52.8,393.2,53.5,393.3,54.4z"/>
	<path class="st6" d="M543.9,67.1c3.8,0.3,6.7,2.6,9.9,4.3C549.9,71.3,547.2,68.5,543.9,67.1z"/>
	<path class="st3" d="M427.3,61.7c-2,0.2-3.8-0.4-5.1-1.9c1.4,0,2.9-0.1,4.3,0.2C427,60,428.7,60.3,427.3,61.7z"/>
	<path class="st6" d="M537.3,63.7c2-0.2,3.7,0.3,4.8,2.3C540.3,65.6,538.5,65.3,537.3,63.7L537.3,63.7z"/>
	<path class="st6" d="M518.2,53.8c-0.6-0.1-1.3-0.1-1.9-0.2c-0.6-0.2-1.2-0.6-0.8-1.3c0.4-0.8,1.1-0.4,1.6,0
		c0.5,0.4,0.8,0.9,1.3,1.3L518.2,53.8z"/>
	<path class="st6" d="M518.4,53.6c0.8,0.1,1.7,0,2,1l-0.1,0.2c-0.8,0-1.7,0-2-1L518.4,53.6z"/>
	<path class="st6" d="M520.4,54.6c0.6,0.1,1.3-0.1,1.6,0.6c0,0-0.2,0.3-0.3,0.3c-0.7,0.2-1.2-0.1-1.5-0.8L520.4,54.6z"/>
	<path class="st6" d="M532.3,60.7c-0.6,0-1.3,0.1-1.7-0.5c0,0,0.2-0.3,0.3-0.3C531.6,59.7,532.1,60,532.3,60.7L532.3,60.7z"/>
	<path class="st6" d="M534.3,61.7c-0.8,0-1.7,0.2-2-1l0,0C533.1,60.7,534,60.6,534.3,61.7L534.3,61.7z"/>
	<path class="st6" d="M536.2,62.8c-0.8,0-1.7,0-2-1l0,0C535.1,61.7,536,61.6,536.2,62.8L536.2,62.8z"/>
	<path class="st2" d="M438.3,63.7c-0.7,0-1.4,0-2.1,0C436.9,62.3,437.6,62.2,438.3,63.7z"/>
	<path class="st6" d="M537.3,63.7c-0.6-0.1-1-0.3-1-1l0.1-0.1C536.9,62.8,537.3,63.1,537.3,63.7L537.3,63.7z"/>
	<path class="st6" d="M511.3,416.7c0-7.9-0.3-15.7-1-23.6c-0.2-2.1,0.1-4.3,0.2-6.5c1.9,0.4,3,1.1,3.3,3.4c0.2,2,2,3.5,3.1,5.3
		c4.2,7.5,6.3,15.9,11.3,23c-0.2,5.1,4.2,8.5,5.1,13.1c0.4,1.9,3.5,2.4,2.4,4.9c2.8,1.7,1.7,4.9,2.7,7.3c1.1,2.6,2.2,5.2,3.3,7.8
		c1,2.6,1.2,5.4,2.5,7.9c0.4,0.8,0.4,1.9-0.2,3c-4.6-4-7.7-9.3-11.2-14.2c-3.6-5-7.3-10-10.2-15.6c-2.1-4.2-4.8-8.1-7.5-12
		C513.9,419,513.9,416.8,511.3,416.7z"/>
	<path class="st6" d="M520.1,182.7c-0.8,0-1.6,0-1.8-1c1.2-0.2,1-1.1,0.9-2c3.8-0.6,7.4,1.4,11.3,1c1.8-0.2,3.6-1.2,5.3-0.8
		c6.3,1.3,12.7,1.9,19.1,1.7c1,0,2-0.2,2.5,1.1c1.2,3.2,3.4,5,6.9,5.4c1.2,0.1,1.4,2,3.1,2c4.7,0,9.1,1.9,13.8,2.5
		c1.4,0.2,2.5,1.2,2.9,2.8c-10.7,0.7-20.8-1-30.8-3.1c-2.7-0.6-5.2-0.6-7.8-0.7h0c-1.5-1.9-4.1-1.5-5.9-2.6
		c-3.1-1.9-6.5-2.7-10.1-2.4l0,0c-1.1-2.9-3.4-3.4-6.1-3C522.2,183.4,521.3,182.4,520.1,182.7z"/>
	<path class="st6" d="M519.2,502.8c-0.6-0.4-1-0.9-0.9-1.6c0.5-5.6-1.6-11.1-1-16.7c0.2-1.7-1.3-3.1-0.8-4.8
		c0.6,0.2,1.5,0.3,1.8,0.7c2.1,3.9,4.5,7.6,6,11.8c1.1,3.1,2.3,6.3,4.2,8.9c2.6,3.4,3.8,7.4,5.4,11.2c1.3,3,2.8,5.8,4.4,8.6
		c-0.8,2.4-1,5-3,6.9c-0.3-0.1-0.7-0.2-0.9-0.4c-2.7-3.4-4-7.8-6.9-11.1c0.8-3-2.8-3.2-3.3-5.5c-0.7-3.3-3.4-5.8-4.2-9.2
		c-0.2-0.9-0.6,0-0.8,0.3C519.2,502.2,519.3,502.5,519.2,502.8z"/>
	<path class="st3" d="M513.5,201.7c-1.6-9.2-1.8-18.6-3.1-27.8c-1.1-8.1-2.3-16.1-3.9-24.1c0.8,0,1.4,0.2,1.9,1.1
		c1.2,2.5,0.5,5.4,2,7.8c0,0.8-0.1,1.7,0.1,2.5c0.6,3.3,1,3.6,4.6,3.6c3.1,0,6.3,0,9.4,0c5.9-0.6,11.8,0.6,17.6,1.3
		c6.1,0.7,12.2,1.5,18.3,2.5c4.6,0.8,9.2,2,13.9,2.2c1.1,0.1,1.1,1,1.2,1.8c-3.4-0.6-6.7-1.4-10.1-1.8c-8.6-0.9-17.1-2.5-25.7-3.4
		c-7.6-0.8-15.2-1.7-22.9-1.8c-1.8,0-3.6,0.2-4.7,1.4c0,3.3,2.8,5.5,2.4,8.6l0,0c-0.7,0.2-2.1-1.9-1.9,0.3c0.3,4.6,0.6,9.3,1.2,13.8
		c0.5,3.7,0.5,7.2,0.7,10.9C514.2,201.2,514,201.6,513.5,201.7z"/>
	<path class="st3" d="M535.3,527.7c2-1.9,2.3-4.5,3-6.9c0.6-0.5,1.3-0.9,1.9-1.4c-1.2,3.6-0.9,6.6,1.3,10.1c3,4.6,4.8,10,7.2,14.9
		c1.4,2.9,3.1,5.6,4.8,8.7c-2.1,0.6-3-0.6-3.6-1.5c-3.2-5.3-7.2-10.1-10-15.7c-1.8-3.8-1.9-3.7-5.6-1.3l-0.1-0.1
		C534.1,532.2,535.8,530.2,535.3,527.7z"/>
	<path class="st3" d="M516.6,248.7c-0.1-2-0.3-4-0.3-5.9c0.1-8.4-1-16.7-1.7-25.1c0.5-0.3,1-0.6,1.5-0.9c0.7,10.7,1.3,21.3,2,32
		C517.6,248.7,517.1,248.7,516.6,248.7z"/>
	<path class="st4" d="M516.1,216.7c-0.5,0.3-1,0.6-1.5,0.9c0.1-5.4-1.6-10.6-1.2-16c0.5-0.1,0.8-0.5,0.8-1c0.2,0.2,0.7,0.4,0.7,0.6
		C515.4,206.5,515.8,211.6,516.1,216.7z"/>
	<path class="st4" d="M539.3,191.6c0,0.3,0,0.6,0,0.9c-4-0.2-7.5-2.1-11.1-3.4c-1.7-0.6-3.2-1.6-4-3.4l0-0.1
		c1.8-0.1,3.1,1.6,4.9,1.1l0,0c0.4,1.2,1.4,1.6,2.5,2C534.3,189.7,537,190,539.3,191.6z"/>
	<path class="st3" d="M558.2,490.6c0.3,2.3-1.3,3.2-3,4C555.1,492.5,555.8,490.9,558.2,490.6z"/>
	<path class="st3" d="M517.2,179.8c-1.6-0.9-2.9-2.1-2.9-4.1l0,0c2.5,0.1,2.5,2.2,3.1,3.9L517.2,179.8z"/>
	<path class="st4" d="M516.6,248.7c0.5,0,1,0,1.5,0c0,1,0,2,0,3c-0.5,0-1,0-1.6,0C516.5,250.7,516.6,249.7,516.6,248.7z"/>
	<path class="st4" d="M520.1,182.7c1.2-0.3,2,0.7,3,1.1c0.1,0.3,0.1,0.6,0.1,1l0,0C521.6,185,520.3,184.7,520.1,182.7z"/>
	<path class="st3" d="M519.2,179.8c0.1,0.8,0.3,1.7-0.9,2c-0.8-0.4-1-1.1-1.1-1.9l0.2-0.2C518,179.7,518.6,179.7,519.2,179.8z"/>
	<path class="st3" d="M562.3,485.7c0,0.8,0.1,1.8-1.1,1.9C561.1,486.8,561.3,486,562.3,485.7z"/>
	<path class="st3" d="M555.2,494.6c-0.1,1.1-1,1.1-1.8,1.1C553.6,494.7,554.4,494.6,555.2,494.6z"/>
	<path class="st3" d="M559.2,489.6c0,0.6-0.4,1-1,1C558.3,490,558.5,489.7,559.2,489.6z"/>
	<path class="st4" d="M524.3,185.7c-0.6,0-1-0.3-1-1l0,0C523.9,184.8,524.2,185.1,524.3,185.7L524.3,185.7z"/>
	<path class="st3" d="M560.2,488.6c0,0.6-0.4,1-1,1C559.2,489,559.6,488.7,560.2,488.6z"/>
	<path class="st3" d="M561.2,487.6c0,0.6-0.4,1-1,1C560.2,488,560.6,487.7,561.2,487.6z"/>
	<path class="st6" d="M525.3,566.7c-1.6,0.2-2.3-0.8-3.1-2c-6.2-9-11.2-18.6-15.3-28.7c-6.6-16.1-13-32.2-17.9-48.9
		c-2.4-8-4.3-16.1-5.8-24.3c-0.9-4.8-2-9.6-3.1-14.4c-1.9-8.8-4-17.5-5.8-26.3c-1.8-8.3-3.5-16.6-5.2-24.9c-1.6-8-3.6-15.9-5-24
		c-0.9-5.3-2.4-10.5-3.3-15.8c-1.2-7.1-2.8-14.1-3.6-21.3c-0.7-6.5-2.2-13-1.9-19.6c0.1-1.6-0.7-4.1,1.3-4.3
		c2.3-0.3,1.4,2.3,1.8,3.8c2.1,9.1,4.2,18.1,6.3,27.2c1.1,4.8,1.9,9.6,3.2,14.3c2.2,7.9,5.1,15.5,8,23.2
		c5.1,13.3,10.1,26.7,15.7,39.8c6.7,15.6,13.8,30.9,20.5,46.4c0.3,0.8,0.5,1.6,1.6,1.7c0.2,0.2,0.6,0.5,0.6,0.7
		c-0.3,5.4,1.6,10.7,1.2,16.1c-0.2,2.5,1.6,4.7,0.8,7.2c-2.2-0.1-2.3-2.1-3-3.4c-7.3-14.4-14.5-28.9-21.8-43.3
		c-0.7-1.4-0.8-3.3-2.7-3.9c-0.5,1.2-0.3,2.3,0,3.4c3.8,14.7,8.8,29,13.4,43.5c3.6,11.5,7.5,23,11.3,34.5c2.3,7,4.8,13.9,7.2,20.8
		c0.2,0.7,0.8,1.1,1.9,1.3c1.9,2,1.3,4.8,1.5,7C524.2,557.3,525.3,561.9,525.3,566.7z M487.8,440.3c0.1-0.3,0.2-0.5,0.3-0.8
		c0-0.1-0.2-0.2-0.3-0.3c-0.2,0.2-0.5,0.3-0.5,0.5C487.5,439.9,487.7,440.1,487.8,440.3z"/>
	<path class="st4" d="M226.2,592.6c-0.4,1.4-0.8,2.5-0.6,4.2c0.9,6.1,2.5,12.1,2.6,18.7c-13.6-1.9-26.6-4.5-39.3-8.4
		c-0.8-0.2-1.7-0.1-2.4-0.4c-2.7-1.1-5.9-1.8-7.8-3.8c-1.2-1.2-0.5-4.4-0.5-6.7c0-4.8,0.6-9.7-0.1-14.4c-1.2-7.7,0.1-15.5-1.8-23.1
		c-0.1-0.3-0.1-0.7,0-1c1.6-4.7-0.6-9.3-0.4-14c0.1-2.6,1-5.4,0.2-7.8c-1.2-4,0.9-8-0.6-11.9c-0.3-0.7,0.4-1.1,1.1-1.2
		c1.4-0.2,2.3,1.4,3.8,0.8l0,0.1c0.9,1.7,1.7,3.3,4,3l0,0c0,0.6,0.4,1,1,1v0c0.4,1.6,1.4,2.2,3,2.1l0,0c0,0.8-0.2,1.8,1.1,2l0,0
		c0,0.6,0.4,1,1,1l0,0c0.2,1.2,1.1,1,2,1.1l0,0c0,0.8-0.2,1.8,1.1,2l0,0c0,0.6,0.4,1,1,1l0,0c0.2,1.1,0.9,1.8,2,2l0,0
		c0,0.6,0.4,1,1,1l0,0c0.1,0.6,0.4,1,1,1l0,0c0.1,0.6,0.4,0.9,1,1l0,0c0,0.8-0.2,1.8,1,2l0,0c0.1,0.7,0.5,1,1.2,1
		c0.5,0.4,1.1,0.8,1.5,1.3c7.3,9.4,12.9,19.8,17.4,30.8C222.6,582,223.7,587.5,226.2,592.6z"/>
	<path class="st5" d="M226.2,592.6c-2.5-5.1-3.7-10.7-5.8-15.9c-4.5-11-10.1-21.4-17.4-30.8c-0.4-0.5-1-0.9-1.5-1.3
		c-0.3-0.5-0.6-0.9-1.2-1l0,0c0-0.8-0.1-1.7-1-2l0,0c-0.1-0.6-0.5-0.9-1-1l0,0c-0.1-0.6-0.5-0.9-1-1l0,0c-0.1-0.5-0.4-1-1-1l0,0
		c-0.1-0.6-0.1-1.3-0.2-1.9c1.5-0.8,2.1-2.3,2-3.7c-0.5-5.3,2.4-10.1,2-15.3c-0.3-4.4,1.7-8.3,2-12.5c0.5-6.7,2.8-13.2,2.1-20
		c0-0.2,0-0.4,0-0.5c2.4-4.3-0.9-9.7,2.6-13.7c-1-6.8-0.5-13.5,0.3-20.3c0.9-8.2,0-16.4,1-24.7c0.7-6,0.1-12.1,0.2-18.2
		c0-1.1-0.6-2.4,0.9-3.1c1.7,3.6,0.8,7.6,2.1,11.3c0.4,1.1,0.8,1.7,2,1.6c1.7,0.7,0.9,2.1,0.9,3.2c-2.1,0.7-2.1,2.5-1.8,4.1
		c0.5,2.9,1.1,5.8,1.2,8.8c0,0.9,0.9,0.8,1.6,0.7c0,0.4,0.1,0.9,0.1,1.4c-1,0.4-1,1.2-1,2c-0.1,2.3,0.8,4.5,1,6.8
		c1.1,9.5,2.1,19,3,28.5c0.8,8.5,1.5,17.1,2.3,25.6c0.6,7.2,0.7,14.5,1.9,21.6c1.4,8.4-0.3,16.9,1.8,25.2c0,0.2,0,0.3,0,0.5
		c-0.3,8,1.1,15.9,1,23.8C225.2,577.4,227,585,226.2,592.6z"/>
	<path class="st4" d="M527.3,582c0,1.1,0,1.8,0,2.4c0,4.4,0,4.4-4.2,5.9c-12.7,4.4-25.5,8.2-38.6,11.2c-6.7,1.5-13.3,3.2-20,4.9
		c-4.4,1.2-9.1,1.1-13.5,2.4c-6.8,2.1-13.8,2.4-20.7,3.6c-6.6,1.1-13.3,1.9-20,2.6c-7.1,0.7-14.3,1.6-21.5,2.5
		c-1.3,0.2-2.6,0.3-4,0.2c-4.2-0.2-8.3-0.1-12.3,1.2c-3,0.9-5.9,0.9-8.8,0.8c-4.5-0.1-9.3-0.5-13.6,0.3c-7.7,1.4-15.6-0.5-23.1,1.7
		c-0.2,0.1-0.3,0.1-0.5,0.1c-8-1.2-16,0.7-24.1,0c-8.1-0.7-16.3-0.7-24.5-1.1c-6.8-0.3-13.5-0.8-20.3-1.6c-4.7-0.6-9.5-1.6-14.3-1.2
		c-3.5,0.3-6.8-1.3-10.3-1.2c-1.9,0.1-4.6-5.2-3.9-7c0.3-0.7,0.9-0.7,1.6-0.6c7.8,1.2,15.6,2.1,23.4,3c5.4,0.6,10.8,0.4,16.2,1.4
		c4.1,0.8,8.8,0.6,13.2,0.3c4.3-0.2,8.6,0.5,12.9,0.9c1.3,0.1,2.8,0.3,3.9-0.2c1.5-0.6,2.7-0.9,4.2,0c1,0.6,2.3,0.5,3.3-0.2
		c1.1-0.7,2.2-0.7,3.3,0c0.7,0.5,1.7,0.6,2.4,0.4c5-1.8,10.2-0.3,15.3-1c7-0.9,14-0.5,21-1.1c7.4-0.6,14.7-1.4,22.1-2
		c6.9-0.5,13.7-1.4,20.6-2c7.5-0.6,15.3-0.5,22.5-2.2c10.3-2.4,21-1.2,31-4.6c1.2-0.4,2.7-0.1,4-0.1c1,0,2.2,0.3,3-0.1
		c7-3.5,15-2.8,22.3-4.7c2.1-0.6,3.6-1.9,5.8-2.3c6.3-1.1,12.5-2.6,18.6-4.3c7.7-2.1,15.3-4.6,23-6.9
		C524.3,583,525.5,582.6,527.3,582z"/>
	<path class="st6" d="M268.3,610.6c-0.2-7.1-0.6-14.1-1.9-21.1c-0.1-0.5-0.1-1,0-1.5c0.6-6.3-0.9-12.5-1.2-18.8
		c-0.4-7.9-1.2-15.7-1.9-23.6c-0.7-7.7-1.1-15.4-2.1-23.1c-0.7-5.4,0.3-10.9-1.7-16.1c-0.2-0.4-0.1-1-0.1-1.5
		c0-7.4-1.4-14.7-1.8-22.1c-0.3-5.8-0.6-11.6-1.4-17.3c-0.8-5.7-0.1-11.5-1.6-17.2c-0.9-3.4-0.8-7.2-0.9-10.8
		c-0.2-5.5-0.8-10.9-1.5-16.3c-0.7-5.2,0.3-10.6-1.6-15.6c-0.3-0.7-0.1-1.7-0.1-2.5c-0.3-6.7-0.9-13.4-1.9-20.1
		c-0.5-2.9-0.1-6-0.1-9.7c3,4.4,4.5,8.8,5.7,13c1.9,6.9,4.3,13.7,5.5,20.8c1.3,7.1,2.9,14,3.9,21.2c0.7,5.6,1.3,11.3,2.6,16.9
		c0.8,3.2,0.7,6.6,0.9,9.8c0.3,5.1,1,10.2,1.4,15.3c0.6,7.9,0.3,15.9,1.1,23.8c0.9,8.2,0.2,16.2,0.8,24.3c1.5,22.1,0.8,44.2,1,66.3
		c0.1,8.6-1.7,17.2-1,25.8C269.6,610.7,268.9,610.7,268.3,610.6z"/>
	<path class="st2" d="M522.4,545.6c-1-0.2-1.6-0.6-1.9-1.3c-2.4-6.9-4.9-13.9-7.2-20.8c-3.8-11.5-7.7-22.9-11.3-34.5
		c-4.5-14.5-9.5-28.8-13.4-43.5c-0.3-1.2-0.5-2.2,0-3.4c1.9,0.6,2,2.5,2.7,3.9c7.3,14.4,14.5,28.9,21.8,43.3c0.7,1.4,0.8,3.4,3,3.4
		c1,7.2,1.9,14.3,2.9,21.4c0.5,3.6,0.3,7.2,1,10.8C521.3,531.8,521.7,538.7,522.4,545.6z"/>
	<path class="st6" d="M508.3,403.7c-2.6,0.1-2.6-2.2-3.3-3.7c-2.8-6.4-5.7-12.9-8.3-19.4c-3.1-8.1-6.3-16.1-8.8-24.4
		c-2.9-9.8-5.8-19.6-7.4-29.8c3.9,5.3,6.3,11.4,9.5,16.9c3.5,6,6.4,12.2,9.5,18.4c3,5.9,6.4,11.6,8.5,18c0.1,5.3,0.1,10.6,0.2,15.9
		C508.4,398.3,509.8,401,508.3,403.7z"/>
	<path class="st5" d="M535.3,527.7c0.5,2.4-1.2,4.5-1.2,6.9c-3,5.8-3.6,12.2-4.8,18.4c-0.6,3-1.5,6.1-1.2,9.9
		c-2.8-2.8-2.4-6-2.8-8.7c-1.4-9.6-1.9-19.3-4-28.8c-0.7-3.2-0.5-6.6-0.8-9.9c-0.5-4.3-1.6-8.5-1.4-12.8c0-0.3,0-0.7,0.1-1
		c0.1-0.3,0.5-1.3,0.8-0.3c0.8,3.3,3.5,5.8,4.2,9.2c0.5,2.3,4.1,2.5,3.3,5.5c2.9,3.3,4.2,7.7,6.9,11.1
		C534.6,527.5,535,527.6,535.3,527.7z"/>
	<path class="st4" d="M220.5,498.7c-0.8-8.5-1.5-17.1-2.3-25.6c-0.9-9.5-1.9-19-3-28.5c-0.3-2.3-1.1-4.5-1-6.8c0-0.9,0-1.7,1-2
		c0.1,0.1,0.4,0.2,0.4,0.3c0,5.6,2.1,10.8,2.5,16.4c0.7,9.2,1.9,18.3,2.7,27.5c0.5,6.2,1.8,12.4,1.2,18.8
		C221.6,498.7,221.1,498.7,220.5,498.7z"/>
	<path class="st5" d="M519.2,179.8c-0.6-0.1-1.2-0.1-1.8-0.2c-0.6-1.7-0.6-3.8-3.1-3.9c0.4-3.2-2.4-5.4-2.4-8.6
		c1.1-1.2,2.8-1.4,4.7-1.4c7.7,0.1,15.3,1,22.9,1.8c8.6,0.8,17.1,2.5,25.7,3.4c3.4,0.4,6.7,1.2,10.1,1.8c1.3,0,2.6,0.1,3.9,0.1
		c5.5,2,11.3,2.5,17.1,3c0.2,0.1,0.5,0.1,0.7,0.1c4,2.1,8.5,1.8,12.8,2.8c2,0.5,4,1.3,6.3,1.2c1.4,0,2.4,1.1,2.1,2.8l0,0
		c-1.1,0.3-1,1.2-1.1,2c-3.1,4.3-5.3,9.1-7.7,13.8c-2.3,4.5-4.7,9-6.8,13.7c-1.1,2.4-2.3,2.6-4.6,1.6c-5.4-2.3-11-4.3-16.5-6.5
		c-1-0.4-1.9-0.5-2.9-0.6c-3.3-2.2-6.9-3.5-10.6-4.8c-7.4-2.6-14.6-5.8-21.8-9c-0.5-0.2-0.8-0.5-0.9-1c2.6,0.1,5.1,0.1,7.8,0.7
		c10,2.2,20.2,3.8,30.8,3.1c-0.4-1.7-1.4-2.6-2.9-2.8c-4.6-0.6-9-2.6-13.8-2.5c-1.7,0-1.9-1.9-3.1-2c-3.5-0.4-5.7-2.2-6.9-5.4
		c-0.5-1.3-1.5-1.1-2.5-1.1c-6.4,0.2-12.8-0.4-19.1-1.7c-1.6-0.3-3.5,0.6-5.3,0.8C526.6,181.2,523,179.2,519.2,179.8z M586.3,194.7
		c0.2,0.3,0.1,1.1,0.8,0.4C586.8,195,586.5,194.8,586.3,194.7c-0.2-0.3,0-1.1-0.7-0.4C585.8,194.4,586,194.6,586.3,194.7z"/>
	<path class="st3" d="M617.1,184.7c0.2-0.8,0-1.7,1.1-2C618.3,183.6,618.4,184.5,617.1,184.7z"/>
	<path class="st5" d="M539.3,191.6c-2.2-1.7-5-1.9-7.5-2.8c-1.1-0.4-2.1-0.8-2.5-2c3.6-0.3,7,0.5,10.1,2.4c1.8,1.1,4.4,0.8,5.9,2.6
		C543.3,191.7,541.3,191.7,539.3,191.6z"/>
	<path class="st5" d="M48.3,173.6c-0.6,0.2-1.2,0.4-1.8,0.7c0-3.3-2.7-2.3-4.5-2.7c1.7-1.3,4.2-1,5.5-2.8c0.2,0,0.4,0,0.6,0.1
		C48.2,170.4,48.3,172,48.3,173.6z"/>
	<path class="st4" d="M57.3,158.7c1.2,0.2,1,1.2,1,2C57.2,160.4,57.4,159.5,57.3,158.7z"/>
	<path class="st4" d="M56.3,156.7c1.2,0.3,1,1.2,1,2C56.3,158.4,56.3,157.5,56.3,156.7z"/>
	<path class="st4" d="M55.3,154.7c1.1,0.3,1,1.2,1,2C55.3,156.4,55.3,155.5,55.3,154.7z"/>
	<path class="st4" d="M597,175.8c-0.2,0-0.5,0-0.7-0.1c-0.3-0.3-0.6-0.9-1-1c-5.3-1.5-10.6-2.5-16.2-2c-1.3,0-2.6-0.1-3.9-0.1
		c0-0.8-0.1-1.8-1.2-1.8c-4.7-0.2-9.3-1.4-13.9-2.2c-6.1-1-12.2-1.9-18.3-2.5c-5.8-0.7-11.7-1.9-17.6-1.3c-0.3-0.4-0.4-1.1-0.8-1.2
		c-4.4-1.6-8.5-4.1-13.3-4.9c-1.4-2.4-0.8-5.3-2-7.8c-0.4-0.9-1-1.1-1.9-1.1c-1.7-5.3-3.4-10.7-5.1-16c1.3-0.8,1.2-1.4-0.2-1.9l0,0
		c0-0.9,0.2-1.8-1-2l0,0c0.1-4.5-1.8-8-5-11l0,0c0-0.9,0.2-1.8-1-2l0,0c0-0.9,0.2-1.8-1-2l0,0c0-0.6-0.4-1-1-1.1l0,0
		c0-0.8,0.1-1.5,0.1-2.2c1.6-0.1,2.9,0.6,4.2,1.3c8.9,4.9,17.8,9.8,26.7,14.7c0.3,0.2,0.7,0.1,1,0.2c3.1,2,5.9,4.7,9.8,5
		c1.8,2.6,4.8,3.4,7.3,4.8c11.8,6.6,23.7,13,35.6,19.4c11.6,6.3,23.2,12.6,34.7,18.9c0.7,0.4,1.2,1.1,1.8,1.7
		c-3.3,0.7-6.5-0.6-9.7-1.3C601.5,175.8,599.3,175.8,597,175.8z"/>
	<path class="st4" d="M409.3,262.3c-0.4,4.7-0.5,9.7-1.2,14.6c-0.6,4.1-2.7,7.9-5.2,11.1c-5.3,6.9-11.5,12.8-20.4,15.1
		c-3.6,0.9-7.2,0.8-10.8,1.2c-4.9,0.6-9.9,0.9-14.8,1.4c-5.9,0.5-11.9,0.7-17.8,1.7c-3.9,0.7-7.9,0.7-11.9,1
		c-6.5,0.3-12.9,1.7-19.4,1.4c-2.9-0.1-5.5,1.2-8.4,1c-1.6-0.1-2.3-0.5-2.5-2.3c-0.6-7.2-1.6-14.4-2.1-21.7
		c-0.3-3.9-0.9-7.9-0.9-11.9c0-1.3,0.2-2.2,1.8-2.3c7.2-0.6,14.4-1.4,21.7-2.1c5.2-0.5,10.5-0.5,15.7-1.6c4-0.8,8.2-0.7,12.3-1
		c5.3-0.3,10.5-1.3,15.8-1.4c6.8-0.1,7.1-0.4,6.6-7c-0.5-5.6-0.5-11.2-1.7-16.7c-0.4-1.8-0.1-3.7-0.2-5.5c-0.1-1.8-0.3-3.6-0.7-5.4
		c-0.4-1.9-1.2-2.3-3-2.3c-6.3,0.1-12.5,1-18.7,1.7c-1.2,0.1-2.3,0.2-3.5,0.3c-4.3,0.2-8.6,0.7-12.9,0.8
		c-16.7,0.6-34.1-7.7-39.3-27.5c-1.3-4.9-1-9.8-1.8-14.7c-0.9-5.5-0.5-11.3-1.4-16.8c-1.3-8.7-1.6-17.4-2.6-26.1
		c-0.7-6.5-1.7-13.3,2.1-19.5c3.1-5,6.9-8,13.2-8.2c5.9-0.2,11.9-0.7,17.7-1.7c3.9-0.6,7.9-0.8,11.9-1c6.1-0.3,12.2-1.7,18.3-1.3
		c2.3,0.1,4.2-0.7,6.3-1.2c14-3.1,30.4,3.5,38,15.6c2.3,3.7,4.1,7.5,5.6,11.5c0.3,0.8,0.6,1.6,0.6,2.4c-0.4,5.3,0.5,10.6,1.2,15.8
		c0.7,4.9,0.4,9.9,1.6,14.7c0.8,3.3,0.7,6.9,1,10.3c1,12,3.1,23.9,4.3,35.9c1.1,10.8,2.5,21.6,4.1,32.4
		C408.9,256.1,409.3,259,409.3,262.3z M351.4,190.6c2.3,0,4.7,0,7,0c2.1,0,3-1.1,2.8-3.2c-0.1-0.8,0-1.7-0.1-2.5
		c-1.5-9.3-1.7-18.7-2.8-28c-0.4-3.1-0.2-3.1-3.5-3.2c-10.3-0.5-20.4,1.9-30.6,2c-2,0-2,1.4-1.8,2.8c1.4,9.9,2.1,20,2.8,30
		c0.3,3.9,1.1,4.6,4.9,4C337.2,191.5,344.3,191.1,351.4,190.6z"/>
	<path class="st6" d="M237.4,605.5c-1.5-0.6-1-1.7-1.1-2.6c0-17-0.8-34.1,0.2-51c1.3-20.9,1.1-41.9,0.5-62.8
		c-0.6-21.5,0-42.9-1-64.4c-0.4-8.3,0.3-16.7-1-24.8c-1-6.6,0.5-13.3-1.7-19.6c0-0.2,0-0.3,0-0.5c0.6-6.5-1.1-12.8-1.1-19.3
		c0.2-25.3,0.1-50.7,0.1-76c0-6.8,1.8-13.4,0.8-21.1c2.7,3.4,2.7,6.8,3,9.8c1,8.1,2.3,16.2,3.4,24.3c1,7.3,1.8,14.6,2.6,21.9
		c0.5,5.2,0.9,10.5,1.5,15.7c0.6,5.5-0.2,11.2,1.7,16.6c0.1,0.3,0.1,0.7,0,1c-0.7,8.1,0.7,16.2,1.1,24.3c1.1,22.8,1.6,45.6,0.7,68.3
		c-0.7,18.4,0.2,36.9-1,55.3c-0.7,10.5,0.1,20.9-0.9,31.3c-0.8,7.8-0.1,15.6-1,23.3c-0.6,5.1-0.4,10.2-0.9,15.3
		c-1,10.4-2.1,20.9-4.1,31.2C238.9,602.9,238.9,604.9,237.4,605.5z"/>
	<path class="st4" d="M75.5,226.8c-1.1-0.3-2.5,0.5-3.2-0.9c10.7-9.2,21.8-17.9,32.8-26.7c9.7-7.8,19.2-15.7,28.8-23.6
		c2.8-2.3,5.6-4.6,8.4-7c2.6-2.4,6-3.9,8-7c3.9-1.6,6.4-5,9.7-7.4c5.9-4.3,11.5-9.1,17.3-13.6c1.5,0.6,1.1,1.7,0.6,2.8
		c-0.9,2.3-2,4.7-1.6,7.3l0,0c-0.4,0.3-0.9,0.5-1,0.9c-1.4,6-2.9,12-3.9,18c-0.3,1.9-1.1,4.3,0.9,6c0,0.3,0,0.7-0.1,1
		c-2.3,0.9-1.8,2.8-1.9,4.6c-0.2,2.7,0.7,5.6-0.9,8.2c-4.4,2.5-9.1,4.7-13,8.2c-0.4,0.2-0.9,0.5-1.3,0.7c-9.1,2.4-18.1,5.3-27.1,8.3
		c-1.4,0.5-2.9,0.6-3.7,2.1l0,0c-3.3,0-6.5,0.5-9,3l0,0c-3.4-0.1-6.5,0.5-9,3l0,0c-5.8,0.7-10.9,3.3-16,6l0,0
		c-0.9-0.1-1.8-0.2-2,1.1c-2.5,1.2-4.9,2.8-7.8,3c-0.9,0-1.9-0.3-2.2,1l0,0c-0.8,0-1.7-0.2-2,0.9C76,226.8,75.8,226.8,75.5,226.8z"
		/>
	<path class="st6" d="M480.6,580.1c-1.3-1.1-1.8-1.3-1.9-1.7c-3.7-13.7-7.7-27.3-10.6-41.3c-1.9-9.1-3.8-18.2-5.5-27.3
		c-1.3-7.2-2.5-14.5-3.5-21.8c-0.8-6.1-1.6-12.3-2.5-18.4c-0.6-4.2-0.9-8.5-1.4-12.7c-0.6-4.5-0.3-9.2-1.7-13.7
		c-0.1-0.5-0.2-1-0.2-1.5c0.5-6.2-0.6-12.3-1.3-18.3c-0.8-6.4,0.4-12.9-1.7-19.1c-0.2-0.4,0-1,0-1.5c0-14.8-1.7-29.5-1-44.3
		c0.1-2.2-0.2-4.3-0.9-6.3c-0.3-0.7,0-1.7,0.1-2.5c0-0.3,0.4-0.5,0.7-0.7c0.6-0.2,1.1,0.3,1.1,0.7c0.6,5.5,2.1,10.9,3.1,16.4
		c1.6,8.8,3.6,17.6,4.8,26.5c0.7,5.4,1.7,10.7,2.4,16c0.6,5,1.7,10,2.5,14.9c0.8,5,1.5,10.1,2.3,15.1c1.4,7.9,2,15.9,3.7,23.7
		c1.2,5.4,1.5,11,2.3,16.5c0.9,6.2,2.1,12.3,2.7,18.4c0.3,3.3,1,6.5,1.3,9.8c0.5,7.2,1.6,14.3,2.9,21.4c0.2,0.8,0.2,1.7,0.1,2.5
		c-0.5,5.7,0.5,11.3,1.3,16.8C481,558.2,479.5,568.6,480.6,580.1z"/>
	<path class="st5" d="M369.5,605.9c0.7-4.2-0.3-5.9-4-8c0.2-2.3,3.4-0.1,3.6-2.7c-2.2-0.2-4.4,0-6.5,0.3c-0.5-3.1,3-1.9,3.1-3.6
		c0.2-2.2,3.4-1.2,3.3-3.9c-4.2,0.9-8.5-0.3-12.5,1.5c-0.5,0.3-0.9-0.3-1-0.8c0-0.3,0.2-0.7,0.4-0.8c1-0.4,2.1-1.1,3.2-1.1
		c4.9-0.1,9.7-2.1,14.7-0.8c0.3,0.1,0.7,0.4,0.9,0.3c3.4-2.3,7.2-1.4,10.9-1.4c3.1,0,4.4,1.2,3.3,4.2c-0.7,1.8-0.6,3.5-0.7,5.3
		c0,1-0.1,2.1,1.3,2.2c1.8,0.1,1.6-1.3,1.6-2.4c0-1.7-0.1-3.3-0.2-4.9c-0.3-3.3,2.1-5.3,5.1-4.1c1.3,0.5,2.8,0.9,3.7,2.2
		c-5,0.6-4.9,0.6-5.6,6c-0.3,2.1-0.8,4.2-1.5,6.2c-0.7,2.1-3.9,2.3-4.1,4.9c0,0.1-1.6,0.3-2.3,0.1C380.7,603,375.3,603,369.5,605.9z
		"/>
	<path class="st3" d="M213.2,417.7c-1.1,0-1.6-0.5-2-1.6c-1.3-3.7-0.5-7.7-2.1-11.3c0.2-2.1-0.1-4.1-0.8-6.2c-1-3.2-1.7-6.5-2.3-9.9
		c-0.7-3.7-0.8-7.6-2.8-11c-0.9-6.9-3.4-13.3-5.9-19.7c-3.8-9.8-7.5-19.6-9.3-30c-0.3-1.8-1.2-3.4-1.7-5.1
		c-3-11.4-4.5-23.1-7.1-34.6c-0.5-2.1-0.1-4.3-0.2-6.5l0.4,0l0.4,0c2.6,15,5.3,30,9.1,44.8c2.8,10.9,6.4,21.5,10.4,32
		c1.4,3.7,1.9,7.7,3.7,11.2c1.2,5.8,3,11.4,4.8,17.1c0.3,4.3,1.2,8.4,2.1,12.6c1,4.6,2.3,9.3,2,14.1
		C212.1,415,213.4,416.2,213.2,417.7z"/>
	<path class="st6" d="M208.1,386.8c-1.7-5.7-3.6-11.3-4.8-17.1c1.3-2.1,1.6-4.4,2-6.8c0.6-4,1.5-8,2.4-12c0.1-0.3,0.7-0.6,1.6-1.2
		c0,3.3,0,6.3,0,9.2c0,8.1,0,16.3,0,24.4C209.2,384.6,209.9,386.2,208.1,386.8z"/>
	<path class="st3" d="M177.2,263.6c-1.3,0.2-1.9-0.3-1.8-1.6c0.4-5-0.7-9.9-1.3-14.8c-0.5-4.7-0.2-9.6-1.6-14.2
		c-0.1-0.5-0.1-1-0.1-1.5c0-8.4-1.2-16.8-2-25.2c0.3-0.8,0.9-1.3,1.7-1.6c0.4,9.2,1.8,18.3,2.3,27.5c0.5,8.8,1.9,17.6,2.8,26.4
		C177.3,260.3,177.2,261.9,177.2,263.6z"/>
	<path class="st3" d="M124.3,208.8c0.8-1.5,2.3-1.6,3.7-2.1c8.9-3.1,17.9-6,27.1-8.3c0.5-0.1,0.9-0.4,1.3-0.7c2.8,0,5.4-0.9,8.1-1.2
		c2-0.3,5-0.3,5.9-3.3c0.1-0.4,0.8,0.1,1,0.5c-0.9,3.1,1,6,0.7,9c-1.2,0.5-2.7,2.1-2.8-0.9c-0.1-4.5-0.2-4.7-4.3-4.1
		c-5.2,0.8-10.2,2.3-15.3,3.6c-7.1,1.9-14.1,4.3-21.1,6.6C127.2,208.5,125.8,208.7,124.3,208.8z"/>
	<path class="st5" d="M171.4,193.7c-0.2-0.5-0.9-0.9-1-0.5c-0.9,3-3.8,3-5.9,3.3c-2.7,0.3-5.4,1.2-8.1,1.2c3.8-3.5,8.5-5.6,13-8.2
		c0.7,0.1,1.3,0.2,2,0.2C174,191.9,174,192.7,171.4,193.7z"/>
	<path class="st3" d="M184.3,129.8c-0.1-1-0.1-1.9,0.4-2.9c2.4-4.8,5.3-9.4,8.2-14c0.5-0.8,1.3-1.5,2.5-1.2c0.1,1.3-0.9,2-1.5,3
		c-2.7,4.1-5.4,8.1-7.5,12.5C185.8,128.2,185.5,129.3,184.3,129.8z"/>
	<path class="st3" d="M172.3,175.7c-2-1.7-1.2-4.1-0.9-6c1-6.1,2.5-12,3.9-18c0.1-0.4,0.7-0.6,1-0.9c-0.3,5.2-2.2,10.2-2.5,15.4
		C173.7,169.3,172.8,172.5,172.3,175.7z"/>
	<path class="st3" d="M176.3,150.8c-0.4-2.6,0.7-4.9,1.6-7.3c0.4-1.1,0.8-2.2-0.6-2.8c1.4-1.3,2.4-2.8,3.2-4.6
		c0.9-2.3,1.1-5.2,3.9-6.4c0.1,3.3-2,5.8-3.2,8.6C179.2,142.3,179.1,147,176.3,150.8z"/>
	<path class="st4" d="M180.1,281.7l-0.4,0l-0.4,0c-1.4-1.3-1.6-3.2-1.8-4.8c-0.3-3.2,0-6.5-1.1-9.6c-0.2-0.7,0.1-1.3,0.9-1.5
		c1.2,2.7,2,5.6,2,8.6C179.2,276.9,179.5,279.3,180.1,281.7z"/>
	<path class="st4" d="M215.1,434.4c-0.7,0.1-1.5,0.2-1.6-0.7c-0.1-3-0.7-5.9-1.2-8.8c-0.3-1.6-0.3-3.4,1.8-4.1
		C213.6,425.5,215.9,429.9,215.1,434.4z"/>
	<path class="st3" d="M472.3,87.7c4.3,1.8,7.1,5,9.1,9C477.1,94.9,474.5,91.5,472.3,87.7z"/>
	<path class="st3" d="M171.4,189.7c-0.7-0.1-1.3-0.2-2-0.2c1.6-2.6,0.7-5.5,0.9-8.2c0.1-1.8-0.3-3.7,1.9-4.6c0,2.6-0.1,5.3-0.1,7.9
		c-1.1,0.9-0.7,2-0.5,3.1C171.5,188.4,171.4,189.1,171.4,189.7z"/>
	<path class="st3" d="M201.3,103.7c1.6-3.8,4.7-6.1,8-8C207.9,99.1,204.6,102.3,201.3,103.7z"/>
	<path class="st3" d="M495.2,118.8c3.2,3,5.1,6.5,5,11C498.1,126.3,495.8,122.9,495.2,118.8z"/>
	<path class="st3" d="M484.3,100.7c2.6,1.7,4.5,3.9,5,7.1C486.6,106.1,484.5,104.1,484.3,100.7z"/>
	<path class="st4" d="M169.3,201.8c0,3,1.6,1.4,2.8,0.9c0,0.7,0,1.4,0,2c-0.8,0.3-1.3,0.8-1.7,1.6c-0.7,0.5-1.4,0.9-2.1,1.4
		c-0.3,0-0.6,0-0.9,0C168,205.7,167.9,203.5,169.3,201.8z"/>
	<path class="st3" d="M217.3,89.7c1.5-2.8,3.6-5,7.1-5C222.6,87.3,220.1,88.7,217.3,89.7z"/>
	<path class="st3" d="M467.3,82.7c2.6,0.8,4.6,2.2,5,5.1C469.7,87,467.8,85.5,467.3,82.7z"/>
	<path class="st3" d="M195.3,111.8c0-3.5,2-5.1,5-6C199.1,108.1,197.7,110.4,195.3,111.8z"/>
	<path class="st3" d="M212.3,93.7c0.6-2.8,2.1-4.3,5.1-4C216.1,91.6,214.7,93.3,212.3,93.7z"/>
	<path class="st3" d="M492.4,111.5c0,0.8-0.1,1.5-0.1,2.2c-1.9-1.6-3.2-3.5-3-6.1C491.1,108.3,491.3,110.3,492.4,111.5z"/>
	<path class="st3" d="M481.3,96.7c1.7,0.8,3,2,3,4.1C481.9,100.5,481,99,481.3,96.7z"/>
	<path class="st5" d="M171.6,187.7c-0.2-1.1-0.7-2.2,0.5-3.1C173.8,186.3,173.8,186.7,171.6,187.7z"/>
	<path class="st3" d="M494.2,116.8c1.3,0.2,1.1,1.2,1,2C494.2,118.5,494.2,117.6,494.2,116.8z"/>
	<path class="st3" d="M493.2,114.8c1.3,0.2,1.1,1.1,1,2C493.2,116.5,493.2,115.6,493.2,114.8z"/>
	<path class="st3" d="M200.3,105.8c-0.3-1-0.1-1.8,1-2.1C201.5,104.7,201.4,105.4,200.3,105.8z"/>
	<path class="st3" d="M210.3,94.7c0.3-1.1,1.1-1.2,2.1-1C212,94.8,211.2,94.9,210.3,94.7z"/>
	<path class="st3" d="M465.3,81.7c1-0.2,1.8-0.1,2.1,1C466.3,82.9,465.5,82.8,465.3,81.7z"/>
	<path class="st3" d="M501.2,131.8c1.4,0.5,1.4,1.2,0.2,1.9C501.3,133,501.2,132.4,501.2,131.8z"/>
	<path class="st5" d="M361.9,591.2c-0.2,0.2-0.4,0.4-0.6,0.4c-0.2,0-0.3-0.3-0.5-0.5c0.1-0.1,0.3-0.3,0.3-0.3
		C361.3,590.9,361.6,591,361.9,591.2z"/>
	<path class="st3" d="M500.2,129.8c1.3,0.2,1.1,1.2,1,2C500.1,131.5,500.2,130.6,500.2,129.8z"/>
	<path class="st3" d="M492.2,113.7c0.6,0.1,1,0.4,1,1.1C492.6,114.7,492.3,114.3,492.2,113.7z"/>
	<path class="st3" d="M209.3,95.7c0-0.7,0.4-1,1.1-1.1C210.4,95.4,210,95.8,209.3,95.7z"/>
	<path class="st6" d="M203.3,377.6c2,3.4,2.1,7.3,2.8,11c0.6,3.3,1.3,6.7,2.3,9.9c0.6,2.1,1,4.1,0.8,6.2c-1.4,0.7-0.9,2-0.9,3.1
		c0,6.1,0.5,12.2-0.2,18.2c-1,8.2-0.1,16.5-1,24.7c-0.8,6.8-1.2,13.5-0.3,20.3c-3.5,4.1-0.1,9.5-2.6,13.7c-0.1,0.1-0.1,0.3,0,0.5
		c0.7,6.8-1.6,13.3-2.1,20c-0.3,4.2-2.4,8.2-2,12.5c0.4,5.2-2.5,10-2,15.3c0.1,1.4-0.5,2.9-2,3.7c-0.6,0-1.2-0.1-1.9-0.1l0,0
		c-0.1-0.6-0.4-1-1-1l0,0c0.1-0.9-0.1-1.7-1.1-2l0,0c-0.3-1-1.1-1.2-2-1.1l0,0c0-0.6-0.4-1-1-1l0,0c0.1-0.9,0-1.7-1.1-2l0,0
		c-0.4-0.7-0.7-1.3-1.1-1.9c1.5-0.6,1-1.9,1.1-3c0.1-5.1-0.2-10.3,0.4-15.4c0.9-8.4,1.1-16.9,2.4-25.3c1.3-8.3,1.6-16.8,2.5-25.2
		c0.6-5.3,0-10.8,1.6-16.1c0.9-2.8,1-5.9,1.1-8.9c0.2-7.9,1.9-15.6,2.9-23.3c0.5-4,1-8,1.2-12.1
		C200.7,391.4,201.8,384.5,203.3,377.6z"/>
	<path class="st4" d="M152.3,224.7c1.7-2.6,4.9-3,7-5.1c0,0.4,0,0.7,0,1.1C157.3,222.7,155.5,225,152.3,224.7z"/>
	<path class="st3" d="M184.4,526.6c-2.3,0.3-3.2-1.3-4-3C182.6,523.4,184,524.3,184.4,526.6z"/>
	<path class="st3" d="M165.3,213.7c-0.2-1.8,0.2-3.3,2-4.1C167.5,211.5,167.1,213,165.3,213.7z"/>
	<path class="st3" d="M187.2,527.8c0.4,0.7,0.7,1.3,1.1,1.9c-1.5,0.1-2.6-0.5-3-2.1C186,527.7,186.6,527.7,187.2,527.8z"/>
	<path class="st3" d="M161.3,218.7c-0.1-1.5,0.4-2.3,2-2C163,217.7,162.3,218.4,161.3,218.7z"/>
	<path class="st3" d="M159.3,220.7c0-0.4,0-0.7,0-1.1c0.4-1,1.1-1.1,2.1-1C161,219.8,160.3,220.4,159.3,220.7z"/>
	<path class="st3" d="M167.5,207.7c0.3,0,0.6,0,0.9,0c-0.1,0.8,0.2,1.8-1.1,2C167.3,209.1,167.4,208.4,167.5,207.7z"/>
	<path class="st3" d="M163.3,216.7c-0.2-1-0.1-1.8,1-2.1C164.4,215.6,164.4,216.4,163.3,216.7z"/>
	<path class="st3" d="M164.3,214.7c0-0.7,0.4-1,1-1C165.3,214.4,165,214.8,164.3,214.7z"/>
	<path class="st3" d="M185.4,527.6c-0.6,0-1-0.4-1-1C185,526.7,185.3,527,185.4,527.6z"/>
	<path class="st6" d="M154.3,213.7c0,0.8-0.1,1.7-0.8,2.2c-7.6,5.8-15.7,10.8-24.5,14.3c-5,2-10.1,3.7-15.1,5.5
		c-5.6,2-11.4,2.9-17.1,3.8c-1.3,0.2-2.6,1.7-4.1,0.6c-0.3-1.6,0.7-2.2,1.9-2.4c5.7-1.2,10.6-4.3,15.8-6.8c3.8-1.9,8.6-3.5,10.2-8.6
		c0.3-1,1.2-1.6,2.2-1.8C133.2,218.4,143.5,214.9,154.3,213.7L154.3,213.7z"/>
	<path class="st3" d="M90.3,220.8c5.1-2.7,10.2-5.3,16-6c-0.1,0.3-0.2,0.7-0.4,0.8C100.8,217.6,96,220.4,90.3,220.8z"/>
	<path class="st3" d="M115.3,211.8c2.5-2.6,5.7-3,9-3C121.7,211,118.7,211.9,115.3,211.8z"/>
	<path class="st3" d="M106.3,214.8c2.5-2.5,5.6-3.1,9-3C112.8,214,109.8,215.1,106.3,214.8z"/>
	<path class="st3" d="M88.3,221.8c0.2-1.3,1.1-1.1,2-1.1C90.1,221.9,89.1,221.7,88.3,221.8z"/>
	<path class="st3" d="M78.3,225.8c0.3-1.3,1.3-1,2.2-1C80.1,225.8,79.2,225.7,78.3,225.8z"/>
	<path class="st3" d="M76.3,226.7c0.3-1.1,1.2-1,2-0.9C78,226.8,77.1,226.7,76.3,226.7z"/>
	<path class="st6" d="M154.3,213.7c0.1-0.2,0.3-0.5,0.4-0.7C155.4,213.7,154.6,213.5,154.3,213.7
		C154.3,213.7,154.3,213.7,154.3,213.7z"/>
	<path class="st5" d="M44.2,173.9c-0.9,0-2,0.3-2.8,0c-1.5-0.4-1.8-1.2-0.1-2C41.7,173.4,44.1,172,44.2,173.9z"/>
	<path class="st5" d="M524.3,185.7c-0.1-0.6-0.5-0.9-1-1c0-0.3-0.1-0.6-0.1-1c2.7-0.3,5,0.1,6.1,3
		C527.4,187.3,526.1,185.5,524.3,185.7z"/>
	<path class="st5" d="M510.3,158.6c4.7,0.8,8.8,3.3,13.3,4.9c0.3,0.1,0.5,0.8,0.8,1.2c-3.1,0-6.3,0-9.4,0c-3.6,0-3.9-0.3-4.6-3.6
		C510.2,160.3,510.3,159.4,510.3,158.6z"/>
	<path class="st2" d="M487.8,440.3c-0.2-0.2-0.4-0.4-0.4-0.6c0-0.2,0.3-0.3,0.5-0.5c0.1,0.1,0.3,0.3,0.3,0.3
		C488.1,439.8,488,440,487.8,440.3z"/>
	<path class="st3" d="M194.3,536.6c0.6,0,1.2,0.1,1.9,0.1c0.1,0.6,0.1,1.3,0.2,1.9C195.2,538.4,194.6,537.8,194.3,536.6z"/>
	<path class="st3" d="M190.3,532.6c0.9-0.1,1.7,0,2,1.1C191.5,533.7,190.5,533.9,190.3,532.6z"/>
	<path class="st3" d="M188.3,529.7c1,0.3,1.1,1.1,1.1,2C188.1,531.5,188.3,530.5,188.3,529.7z"/>
	<path class="st3" d="M192.3,533.7c1,0.3,1.1,1.1,1.1,2C192.1,535.5,192.3,534.5,192.3,533.7z"/>
	<path class="st3" d="M199.3,541.7c1,0.3,1,1.2,1,2C199.1,543.5,199.3,542.5,199.3,541.7z"/>
	<path class="st3" d="M189.4,531.7c0.6,0,1,0.3,1,1C189.7,532.6,189.4,532.3,189.4,531.7z"/>
	<path class="st3" d="M193.4,535.7c0.6,0,0.9,0.4,1,1C193.7,536.6,193.4,536.3,193.4,535.7z"/>
	<path class="st3" d="M196.3,538.6c0.6,0.1,0.9,0.5,1,1C196.7,539.6,196.4,539.3,196.3,538.6z"/>
	<path class="st3" d="M197.3,539.7c0.6,0.1,0.9,0.5,1,1C197.7,540.6,197.4,540.3,197.3,539.7z"/>
	<path class="st3" d="M198.3,540.7c0.5,0.2,0.9,0.4,1,1C198.7,541.6,198.4,541.3,198.3,540.7z"/>
	<path class="st3" d="M200.3,543.6c0.6,0.1,1,0.5,1.2,1C200.8,544.7,200.4,544.4,200.3,543.6z"/>
	<path class="st3" d="M579.2,172.8c5.5-0.5,10.9,0.5,16.2,2c0.4,0.1,0.6,0.7,1,1C590.5,175.3,584.7,174.8,579.2,172.8z"/>
	<path class="st6" d="M586.3,194.7c-0.2-0.2-0.5-0.3-0.7-0.4C586.2,193.6,586.1,194.4,586.3,194.7L586.3,194.7z"/>
	<path class="st6" d="M586.3,194.7c0.2,0.2,0.5,0.3,0.7,0.4C586.3,195.8,586.4,195,586.3,194.7L586.3,194.7z"/>
	<path class="st2" d="M351.4,190.6c-7.1,0.5-14.2,0.8-21.2,2c-3.8,0.6-4.6-0.2-4.9-4c-0.8-10-1.4-20-2.8-30
		c-0.2-1.3-0.3-2.8,1.8-2.8c10.2-0.1,20.3-2.5,30.6-2c3.2,0.1,3.1,0.1,3.5,3.2c1.1,9.3,1.3,18.8,2.8,28c0.1,0.8,0,1.7,0.1,2.5
		c0.2,2.1-0.8,3.1-2.8,3.2C356,190.6,353.7,190.6,351.4,190.6z"/>
</g>
</svg>
