<svg id="Camada_1" data-name="Camada 1" xmlns="http://www.w3.org/2000/svg" viewBox="0 0 581.27 938.56"><title>ibisdoibis</title><path d="M170.24,262.73s4.18-20.15,17.29-22.7,22.69,14.3,22.69,14.3S190.79,236.5,170.24,262.73Z" transform="translate(-16.76 -15.15)" style="fill:#271f20"/><path d="M190.24,239.77c11.71,0,20,14.56,20,14.56a25.42,25.42,0,0,0-15.85-5.92c-6.92,0-15.42,3.2-24.13,14.32,0,0,4.18-20.15,17.29-22.7a14.12,14.12,0,0,1,2.71-.26m0-3a16.5,16.5,0,0,0-3.28.32c-14.9,2.89-19.47,24.13-19.66,25l-2.6,12.54,7.9-10.08c6.84-8.74,14.17-13.17,21.77-13.17a22.34,22.34,0,0,1,13.82,5.13l14.05,12.9-9.41-16.59c-.38-.66-9.29-16.08-22.59-16.08Z" transform="translate(-16.76 -15.15)" style="fill:#e52e29"/><path d="M370.77,430l6.92,41.84a38.4,38.4,0,0,1-.75,13.26l-39,159.85c-.86,3.66-7.13,6.1-10.86,5.71l-64.17-6.74-7,11.05a1.75,1.75,0,0,0,1.71,2.68l28.94-3.91a7.32,7.32,0,0,1,2.09,0l25.21,3.73a1.42,1.42,0,0,1,.41,2.68l-43.78,21-9.62,24.94h1.23a26.1,26.1,0,0,0,20.49-9.95l5.08-6.46a35,35,0,0,1,10.78-9.07l26.74-14.46a1.42,1.42,0,0,1,1.87,2l-34.16,53.34L297,733.12a2.83,2.83,0,0,0,4.63,1.09l12.94-12.43a1.65,1.65,0,0,0,.32-.46L338,667.05a4.23,4.23,0,0,1,2.38-2.3l24.19-9.35a4.51,4.51,0,0,1,1.3-.28l16.11-.87a1.42,1.42,0,0,0,1.34-1.53l-.8-9.26L369.9,642a1.49,1.49,0,0,0-.69.1l-21.54,8.71,35.38-149.65a54.37,54.37,0,0,1,2.5-7.89L394,472.13a2.81,2.81,0,0,0,.18-1.4l-6.12-49.48Z" transform="translate(-16.76 -15.15)" style="fill:#ef532f"/><path d="M388.09,421.25l6.13,49.48a2.93,2.93,0,0,1-.19,1.4l-8.48,21.16a54.37,54.37,0,0,0-2.5,7.89L347.67,650.83l21.54-8.71a1.4,1.4,0,0,1,.53-.11h.16l12.57,1.44.8,9.26a1.42,1.42,0,0,1-1.34,1.53l-16.11.87a4.51,4.51,0,0,0-1.3.28l-24.19,9.35a4.23,4.23,0,0,0-2.38,2.3l-23.1,54.27a1.65,1.65,0,0,1-.32.46l-12.94,12.43a2.8,2.8,0,0,1-1.95.8,2.83,2.83,0,0,1-2.68-1.9l-4.11-11.64L327,668.13a1.42,1.42,0,0,0-1.18-2.19,1.48,1.48,0,0,0-.69.18L298.4,680.58a35,35,0,0,0-10.78,9.07l-5.08,6.46a26.1,26.1,0,0,1-20.49,9.95h-1.23l9.61-24.94,43.79-21a1.42,1.42,0,0,0-.41-2.68l-25.21-3.73a8,8,0,0,0-1.09-.08,6.63,6.63,0,0,0-1,.07l-28.94,3.91-.24,0a1.75,1.75,0,0,1-1.47-2.7l7-11.05,64.17,6.74a7.27,7.27,0,0,0,.82,0c3.77,0,9.24-2.35,10-5.75l39-159.85a38.65,38.65,0,0,0,.75-13.26L370.77,430l17.32-8.74m2.45-4.6-3.8,1.92-17.32,8.74-2,1,.36,2.17,6.91,41.78a35.54,35.54,0,0,1-.7,12.16L335,644.23c-.34,1.45-4.07,3.46-7.12,3.46a4.18,4.18,0,0,1-.51,0l-64.17-6.74-1.85-.2-1,1.57-7,11.05a4.75,4.75,0,0,0,4,7.31,4.87,4.87,0,0,0,.65,0l28.93-3.91a4,4,0,0,1,.6,0,3.63,3.63,0,0,1,.65.05l20.09,3-39.11,18.73-1.08.52-.42,1.11L258,705l-1.57,4.08h5.6A28.94,28.94,0,0,0,284.9,698l5.08-6.46a31.68,31.68,0,0,1,9.84-8.29l21.35-11.54-30.84,48.18-.79,1.23.48,1.38,4.11,11.64a5.85,5.85,0,0,0,5.51,3.9,5.78,5.78,0,0,0,4-1.63L316.61,724a4.58,4.58,0,0,0,1-1.46l23.1-54.27a1.28,1.28,0,0,1,.7-.67l24.19-9.35a1,1,0,0,1,.39-.08l16.1-.87a4.42,4.42,0,0,0,4.17-4.79l-.8-9.26-.21-2.44-2.44-.28L370.24,639a4.07,4.07,0,0,0-.5,0,4.31,4.31,0,0,0-1.66.33l-16.15,6.53,34-144a52.14,52.14,0,0,1,2.36-7.46l8.49-21.17a5.9,5.9,0,0,0,.37-2.88l-6.12-49.48-.53-4.23Z" transform="translate(-16.76 -15.15)" style="fill:#271f20"/><path d="M547.74,179.18l40-37.27c14.56-19,4.37-26.9-5-30.15-12.92,12.79-32.08,31.65-37.49,36.35-8.4,7.29-19.37,5-19.37,5l44.64-42a24.12,24.12,0,0,0,3-3.33c27.31-37.41,7-60.48,7-60.48C530.29,115.05,464,170,464,170L438.8,258c-50.22,3.15-76.58,22.7-76.58,22.7l-23.64,8.54s7.42-32.36-14.76-51c42.06-6.42,51.3,30.73,51.3,30.73s-1-36.83-30.48-42.65c-13.95-2.76-23.83,1-30.37,5.76-8.54-4.15-19.84-6.74-34.76-6.69-73.8.22-66.71,64.46-66.71,64.46s-36,19.06-34.89,40.26,18.42,10.24,18.42,10.24c14.95,21.56,43,21.18,43,21.18s-13.24,103.45,21.47,109.27,41.6-27.36,41.6-27.36C539.9,466.52,581.47,312.51,580.5,259.61s-33-29.63-35-19.41-23,28.42-23,28.42,3.22-8.54-61.48-10.93c-1.15,0-2.27-.06-3.39-.08L464,247.14s47.63-2,75.11-23.22c18-13.88,14.77-27.54,10.41-35.3-13.46,6.89-24.75,12.52-28.87,14.16C507.77,208,500,205.37,500,205.37L540.88,184A31.71,31.71,0,0,0,547.74,179.18Z" transform="translate(-16.76 -15.15)" style="fill:#271f20"/><path d="M580.51,47.28s20.26,23.07-7,60.48a24.12,24.12,0,0,1-3,3.33l-44.64,42a22.28,22.28,0,0,0,4.17.35,23.06,23.06,0,0,0,15.2-5.33c5.41-4.7,24.57-23.56,37.49-36.35,9.41,3.25,19.6,11.16,5,30.15l-40,37.27a31.71,31.71,0,0,1-6.86,4.86L500,205.37a19.1,19.1,0,0,0,5.48.64,41,41,0,0,0,15.17-3.23c4.12-1.64,15.41-7.27,28.87-14.16,4.36,7.76,7.59,21.42-10.41,35.3C511.66,245.12,464,247.14,464,247.14l-6.32,10.47c1.12,0,2.24,0,3.39.08,64.7,2.39,61.48,10.93,61.48,10.93s21-18.21,23-28.42c1-5.27,10-14,18.59-14,8.11,0,15.89,7.74,16.37,33.39.9,49.25-35,186.13-231.67,186.13-14.56,0-30-.75-46.41-2.34,0,0-5.83,28.05-33.73,28.05a47.56,47.56,0,0,1-7.87-.69c-34.71-5.82-21.47-109.27-21.47-109.27h-.1c-1.84,0-28.49-.37-42.92-21.18,0,0-4.47,2.83-9,2.83-4.39,0-8.86-2.65-9.4-13.07-1.09-21.2,34.89-40.26,34.89-40.26s-7.09-64.24,66.71-64.46h.38c14.73,0,25.91,2.57,34.38,6.69a35.43,35.43,0,0,1,21.23-6.69,46.76,46.76,0,0,1,9.14.93c29.5,5.82,30.48,42.65,30.48,42.65s-7.82-31.48-41.87-31.48a62.69,62.69,0,0,0-9.43.75c22.18,18.65,14.76,51,14.76,51l23.64-8.54s26.36-19.55,76.58-22.7L464,170s66.26-55,116.48-122.73m-.2-4.78-2.21,3c-49.41,66.69-115.32,121.66-116,122.21l-.71.59-.26.89L436.5,255.12c-26.13,1.89-45.66,8.08-58.39,13.59a65.67,65.67,0,0,0-4.38-20c-5.54-14-15.4-22.76-28.51-25.35a50.78,50.78,0,0,0-9.72-1A38.5,38.5,0,0,0,314,228.59c-9.28-4.14-20.73-6.24-34.09-6.24h-.39c-24.35.07-42.81,7-54.86,20.45-15,16.86-15.3,38.61-15,45.32-7.45,4.26-35.8,21.83-34.75,42.1.72,13.85,8.07,15.92,12.39,15.92a20.54,20.54,0,0,0,8.13-2C208.23,360.58,228,363.75,236,364.35a366.46,366.46,0,0,0-1.94,49.71c1.43,36.9,10.26,57,26.25,59.66a51.13,51.13,0,0,0,8.37.73c15.7,0,24.86-8.32,29.78-15.3a46.14,46.14,0,0,0,6.18-12.53c15.21,1.41,30.07,2.12,44.18,2.12,42,0,79.44-6.27,111.35-18.64,27.61-10.7,51.34-26,70.54-45.6a185.08,185.08,0,0,0,42.53-68.38c9.68-27.28,10.39-48.64,10.25-56.56-.59-31.62-12.39-36.34-19.37-36.34-10.16,0-20.3,9.93-21.53,16.42S529.74,258,523.1,264.12c-2.35-1.8-6.39-3.3-12.43-4.63-10.51-2.31-26.56-3.9-47.74-4.73l2.85-4.72c8.78-.56,49.83-4.18,75.19-23.74,20.15-15.55,15.66-31.2,11.19-39.15l-1.41-2.52L548.18,186c-15.42,7.89-25,12.62-28.61,14.05a45.62,45.62,0,0,1-6.94,2.17l29.64-15.48a34,34,0,0,0,7.51-5.31l40-37.28.18-.17.15-.2c6.73-8.77,9.18-16.42,7.29-22.72-1.61-5.36-6.36-9.54-13.73-12.09l-1.76-.61-1.33,1.32c-20,19.83-33.29,32.69-37.35,36.22a18.91,18.91,0,0,1-10,4.36l39.27-36.93a27.49,27.49,0,0,0,3.34-3.75C590.6,89.37,591.79,73.11,590.19,63c-1.77-11.17-7.19-17.46-7.42-17.72l-2.46-2.8Zm-249.83,198c.94-.05,1.86-.08,2.77-.08,31.34,0,38.88,28.91,39,29.2l.39,1.59A88.09,88.09,0,0,0,360.81,278l-18.49,6.68a71.23,71.23,0,0,0,.18-14.23c-1-11.92-5.17-22.13-12-29.91Z" transform="translate(-16.76 -15.15)" style="fill:#e52e29"/><path d="M228.83,342,264,355s-33.18,26.47-50.77,53.95-69.51,47.63-69.51,47.63c-4.66-25.65,13.56-51.44,34.77-51.58S228.83,342,228.83,342m-3.67-8.88-2.75,5.9a307.17,307.17,0,0,1-16.83,30.71c-16.89,26.69-25.55,28.09-27.11,28.1-11,.07-21.9,5.72-30,15.49a55,55,0,0,0-11.68,44.43l1.53,8.44,8-3.1c2.21-.86,54.3-21.32,72.91-50.41,16.73-26.15,48.9-52,49.22-52.24l9.83-7.84-11.8-4.33-35.2-12.91-6.11-2.24Z" transform="translate(-16.76 -15.15)" style="fill:#ef532f"/><path d="M137.17,468.28l-1.86-10.22a56.56,56.56,0,0,1,12-45.66c8.39-10.11,19.74-15.95,31.15-16,.88,0,9-.82,25.85-27.4a302.58,302.58,0,0,0,16.74-30.54l3.33-7.16,56.91,20.88-11.91,9.51c-.32.25-32.26,25.88-48.89,51.86-18.87,29.48-71.41,50.14-73.64,51ZM225.94,335l-2.17,4.66a310.3,310.3,0,0,1-16.93,30.87c-16.87,26.66-26,28.78-28.36,28.8-10.52.07-21,5.52-28.86,14.95a53.5,53.5,0,0,0-11.36,43.21l1.21,6.64,6.3-2.44c2.19-.85,53.85-21.16,72.19-49.82,16.9-26.41,49.23-52.34,49.55-52.6l7.74-6.18ZM142.6,458.58l-.32-1.78a49.34,49.34,0,0,1,10.48-39.88c7.05-8.5,16.43-13.41,25.75-13.47,20-.13,48.68-61.42,49-62l.58-1.25,39,14.3L265,356.12c-.33.27-33.2,26.64-50.44,53.59-17.65,27.57-68.1,47.39-70.24,48.22Zm87-114.66c-4.37,9.17-30.63,62.39-51.08,62.53-8.43.05-17,4.57-23.46,12.38a46.43,46.43,0,0,0-10.14,35.6c9.12-3.78,51.74-22.39,67.07-46.34,15-23.43,41.52-46.36,49.05-52.63Z" transform="translate(-16.76 -15.15)" style="fill:#271f20"/><path d="M142.7,458.74s52.84-20.93,70.74-49.47,51.66-56,51.66-56l-35.82-13.41s-29.62,65.19-51.2,65.34S138,432.1,142.7,458.74Z" transform="translate(-16.76 -15.15)" style="fill:#e52e29"/><path d="M229.28,339.83l35.82,13.41s-33.77,27.49-51.66,56-70.74,49.47-70.74,49.47c-4.75-26.64,13.8-53.43,35.38-53.57s51.2-65.34,51.2-65.34m-1.05-2.52-.77,1.7c-8.09,17.8-32.75,64-49.4,64.16-9.59.06-18.9,4.94-26.22,13.74a52.32,52.32,0,0,0-11.11,42.18l.43,2.41,2.27-.9c2.18-.87,53.66-21.5,71.7-50.27,17.52-27.93,50.9-55.27,51.23-55.54l2.71-2.2-3.27-1.22L230,338l-1.75-.65Z" transform="translate(-16.76 -15.15)" style="fill:#e52e29"/><path d="M218.09,297.94c0,21.17-12,34.52-26.84,34.52s-26.85-13.35-26.85-34.52,12-38.33,26.85-38.33S218.09,276.77,218.09,297.94Z" transform="translate(-16.76 -15.15)" style="fill:#ffeeeb"/><path d="M270.44,317.1c-8.61,3.21-11.43,12-6.46,20.64A31.48,31.48,0,0,0,275.42,349c2.76,1.64,4.16,2.51,1.08,6-8.26,9.33-19,12.34-30.27,7.28a12.07,12.07,0,0,0-6.88-.78c-25.47,2.48-49.84,9.29-72.28,21.41-8.9,4.8-16,13-23.87,19.61l-28.44,22.34c-4.14,3.06-8.54,5.84-12.35,9.25-4.3,3.85-5.1,1.44-6-2.48-2.79-12.61.39-23.76,8.23-33.67,10.85-13.7,25.68-21.67,41.39-28.33,12.95-5.49,26.72-9,39.05-16,5.92-3.34,11.89-6.79,15-13.33,4.37-7.13,6.4-15.05,8-23.13l1.78-8.11c3.34-8.2,4.7-17.14,9.58-24.77,5.09-8,11.45-11.09,20.81-9.58a79.19,79.19,0,0,1,23.2,8c5.49,2.79,9.11,6.47,7.48,13.55a37.14,37.14,0,0,0-.32,14Q270.54,313.69,270.44,317.1Z" transform="translate(-16.76 -15.15)" style="fill:#ef532f"/><path d="M236,274.35a28,28,0,0,1,4.34.37,79.19,79.19,0,0,1,23.2,8c5.49,2.79,9.11,6.47,7.48,13.55a37.14,37.14,0,0,0-.32,14c-.08,2.27-.15,4.54-.23,6.82-8.6,3.21-11.42,12-6.45,20.64A31.48,31.48,0,0,0,275.42,349c2.75,1.63,4.16,2.51,1.08,6-5.57,6.29-12.28,9.72-19.51,9.72a26.28,26.28,0,0,1-10.76-2.44,10.87,10.87,0,0,0-4.59-.95,16.15,16.15,0,0,0-2.29.17c-25.47,2.48-49.84,9.29-72.28,21.41-8.9,4.8-16,13-23.87,19.61l-28.44,22.34c-4.14,3.06-8.53,5.84-12.35,9.25-1.53,1.37-2.62,1.95-3.42,1.95-1.46,0-2-1.9-2.55-4.43-2.79-12.61.39-23.76,8.23-33.67,10.85-13.7,25.68-21.67,41.39-28.33,12.95-5.49,26.72-9,39.05-16,5.92-3.34,11.89-6.79,15-13.33,4.37-7.13,6.4-15.05,8-23.13.59-2.71,1.19-5.41,1.78-8.11,3.34-8.2,4.7-17.14,9.58-24.77,4.26-6.68,9.41-9.95,16.47-9.95m0-3h0c-7.92,0-14.13,3.71-19,11.33-3.34,5.23-5.11,10.93-6.82,16.45-.95,3.07-1.85,6-3,8.81l-.09.24-.06.25-.81,3.69-1,4.41v.07c-1.47,7.45-3.41,15.3-7.61,22.14l-.07.13-.07.14c-2.79,5.8-8.39,9-13.81,12-7.62,4.31-16.07,7.35-24.23,10.29-4.78,1.73-9.72,3.51-14.51,5.54-14.46,6.13-30.83,14.4-42.57,29.23-8.72,11-11.69,23.19-8.81,36.18.56,2.53,1.5,6.78,5.48,6.78,1.65,0,3.32-.84,5.42-2.71a88.08,88.08,0,0,1,8.23-6.28c1.28-.91,2.61-1.84,3.9-2.8l0,0,0,0,15.93-12.51,12.51-9.83,0,0,0,0c2.53-2.12,5-4.41,7.37-6.63,5.25-4.89,10.22-9.52,16-12.63,21.18-11.44,45.12-18.52,71.15-21.07h.12a12.93,12.93,0,0,1,1.88-.14A8,8,0,0,1,245,365a29.11,29.11,0,0,0,12,2.71c8,0,15.54-3.72,21.76-10.74,1.32-1.5,2.8-3.52,2.44-5.84s-2.43-3.65-4.24-4.72a28.6,28.6,0,0,1-10.37-10.17c-2.06-3.56-2.59-7.22-1.49-10.29a10.2,10.2,0,0,1,6.39-6l1.89-.7.06-2,.18-5.53.05-1.3v-.28l0-.28a33.92,33.92,0,0,1,.28-12.88c2.27-9.88-4.07-14.38-9-16.9a81.92,81.92,0,0,0-24.08-8.27,30.56,30.56,0,0,0-4.82-.41Z" transform="translate(-16.76 -15.15)" style="fill:#271f20"/><ellipse cx="320.07" cy="307.52" rx="59.05" ry="46.81" transform="translate(-66.26 538.2) rotate(-77.49)" style="fill:#ffeeeb"/><path d="M341.07,306.06a18,18,0,1,1-31.93.18,27.13,27.13,0,1,0,31.93-.18Zm-12.16,44.73a6.55,6.55,0,1,1,6.55-6.55A6.55,6.55,0,0,1,328.91,350.79Z" transform="translate(-16.76 -15.15)" style="fill:#271f20"/><path d="M199.15,293.69a13,13,0,1,0,13,13A13,13,0,0,0,199.15,293.69Zm2.26,23.18a4.95,4.95,0,1,1,4.94-4.94A4.94,4.94,0,0,1,201.41,316.87Z" transform="translate(-16.76 -15.15)" style="fill:#271f20"/><path d="M495.63,396.93s6.81-15.86,15.47-4.14c0,0,9.15,96.3,11.53,101.65s13.44,13.23,4.78,38.09-10.3,157.6-10.3,157.6-2.22,11.89,7.42,3.73,16.64-13.71,24.79-13.68,14.6,12,3.73,10.35-35.69,13.33-38.56,18.9-5.48,24.08-9.28,39.06-11.86,29.58-11.86,29.58.62,10.62-1.69,10.65-13.73-5.91-9.51-17.68,21.54-56.86,21.54-56.86a212.53,212.53,0,0,0-49.05,46.47s-3.12,10.78-9.77,12.81-5.54-28.83,15.06-38.11S500,710.09,500,710.09s2.45-3.74-16.44.2-38.95,9.49-48,16.2c0,0-9.08-5.21,4.44-16.32l55.11-8.7s11.39,1.69,13.44-18,6.51-112.72,5.8-166S495.63,396.93,495.63,396.93Z" transform="translate(-16.76 -15.15)" style="fill:#ef532f"/><path d="M504.59,388.48c2,0,4.17,1.15,6.51,4.31,0,0,9.15,96.29,11.53,101.65s13.44,13.23,4.78,38.09-10.3,157.6-10.3,157.6-1.23,6.59,2.12,6.59c1.15,0,2.84-.77,5.3-2.86,9.61-8.14,16.61-13.68,24.74-13.68h.05c7.62,0,13.75,10.51,5.64,10.51a12.48,12.48,0,0,1-1.91-.16,12.84,12.84,0,0,0-1.81-.13c-11.58,0-34,13.75-36.75,19-2.88,5.56-5.48,24.08-9.28,39.06s-11.86,29.58-11.86,29.58.62,10.62-1.69,10.65h0c-2.35,0-13.7-5.94-9.49-17.68s21.54-56.86,21.54-56.86a212.53,212.53,0,0,0-49.05,46.47s-3.12,10.78-9.77,12.81a2.21,2.21,0,0,1-.6.1c-5.95,0-4.29-29.22,15.66-38.21,20.6-9.29,40.09-25.26,40.09-25.26s1.05-1.6-3.54-1.6a68.3,68.3,0,0,0-12.9,1.8c-18.89,3.93-38.95,9.49-48,16.2,0,0-9.08-5.21,4.44-16.32l55.11-8.7a4.45,4.45,0,0,0,.66,0c2.46,0,11-1.23,12.78-18.06,2.06-19.7,6.51-112.72,5.8-166s-18.73-120.5-18.73-120.5,3.63-8.45,9-8.45m0-3h0c-7.1,0-11.26,9.22-11.71,10.27l-.41,1,.26,1c.18.67,17.93,67.46,18.63,119.76.72,54.45-3.79,146.55-5.78,165.67-1.49,14.26-7.88,15.37-9.8,15.37h-.25l-.48-.09-.4.1-55.11,8.69-.81.13-.63.52c-6,4.93-8.85,9.69-8.48,14.14a9.36,9.36,0,0,0,4.46,7.1l1.7,1,1.58-1.17c7.28-5.39,23.47-10.81,46.84-15.68,3.9-.81,6.74-1.26,8.8-1.5-7.06,5.28-20.51,14.68-34.31,20.89-17.12,7.72-22.07,28.55-20,38,1.15,5.32,4.3,5.9,5.61,5.9a5.07,5.07,0,0,0,1.48-.23c7.26-2.22,10.76-11.67,11.6-14.29a216.66,216.66,0,0,1,40-39.63c-5.31,13.87-15,39.26-18,47.62-2.43,6.76-.42,11.76,1.69,14.76,3.18,4.52,8.21,6.93,10.62,6.93h.05a3.86,3.86,0,0,0,2.76-1.25c1.09-1.17,2.28-4.15,1.94-11.72,1.73-3.25,8.34-16.13,11.73-29.53,1.53-6,2.83-12.43,4.08-18.63,1.75-8.64,3.41-16.81,4.95-19.79,2-3.91,23.24-17.4,34.09-17.4a9.32,9.32,0,0,1,1.36.1,15.47,15.47,0,0,0,2.36.19c5,0,6.83-3.09,6.84-5.74,0-4.83-5.75-10.75-12.47-10.77h-.06c-9,0-16.41,5.7-26.68,14.39a14.39,14.39,0,0,1-2.66,1.88,11.22,11.22,0,0,1,.13-2.77l.05-.26v-.26c0-1.32,1.73-132.52,10.13-156.64,7.58-21.75.87-31.61-3.14-37.5a20.38,20.38,0,0,1-1.73-2.79c-1.67-4.49-7.81-64.17-11.28-100.72l-.08-.83-.5-.67c-2.71-3.67-5.71-5.53-8.92-5.53Z" transform="translate(-16.76 -15.15)" style="fill:#271f20"/><path d="M232.75,233.28a83.92,83.92,0,0,1,14.77-7.8l-26.18-85.07S154,86.73,102.53,19.93c0,0-19.82,23.45,8.21,60.33a24.22,24.22,0,0,0,3,3.28l45.44,41.13s-10.93,2.52-19.46-4.6c-5.5-4.6-25-23.09-38.19-35.63C92.23,87.87,82.2,96,97.11,114.68l40.72,36.5a31.15,31.15,0,0,0,6.94,4.72L186,176.44s-7.7,2.73-20.7-2.18c-4.15-1.57-15.55-7-29.13-13.61-4.22,7.85-7.19,21.56,11.08,35.1,27.88,20.66,75.53,21.77,75.53,21.77Z" transform="translate(-16.76 -15.15)" style="fill:#271f20"/><path d="M102.53,19.93C154,86.73,221.34,140.41,221.34,140.41l26.18,85.07a83.92,83.92,0,0,0-14.77,7.8l-9.94-15.76s-47.65-1.11-75.53-21.77C129,182.21,132,168.5,136.2,160.65c13.58,6.63,25,12,29.13,13.61A41.53,41.53,0,0,0,180,177.2a19.71,19.71,0,0,0,6.05-.76L144.77,155.9a31.15,31.15,0,0,1-6.94-4.72l-40.72-36.5C82.2,96,92.23,87.87,101.57,84.44c13.17,12.54,32.69,31,38.19,35.63a22.88,22.88,0,0,0,14.77,5,23.17,23.17,0,0,0,4.69-.43L113.78,83.54a23.6,23.6,0,0,1-3-3.28c-28-36.88-8.21-60.33-8.21-60.33m.1-4.78L100.24,18c-.23.27-5.54,6.66-7.09,17.86-1.4,10.12.1,26.36,15.2,46.23a27.2,27.2,0,0,0,3.42,3.68l40,36.18a19,19,0,0,1-10-4.18c-4.13-3.45-17.64-16.05-38-35.49L102.29,81l-1.75.64c-7.32,2.69-12,7-13.49,12.35-1.78,6.34.82,13.93,7.72,22.58l.15.19.19.17,40.71,36.51a34.93,34.93,0,0,0,7.62,5.17l29.95,14.92a45.3,45.3,0,0,1-7-2.06c-3.6-1.36-13.32-5.9-28.88-13.5l-2.59-1.26-1.37,2.54c-4.31,8-8.5,23.77,11.94,38.93,25.73,19.07,66.84,21.91,75.63,22.3l9.1,14.42,1.63,2.59,2.56-1.69a80.37,80.37,0,0,1,14.24-7.52l2.54-1-.81-2.62L224.2,139.52l-.27-.88-.72-.58c-.67-.53-67.62-54.23-118.31-120l-2.27-2.94Z" transform="translate(-16.76 -15.15)" style="fill:#e52e29"/><polygon points="240.98 257.74 249.52 271.28 244.23 254.09 240.98 257.74" style="fill:#271f20"/><path d="M211.41,661.53c.47-.11,1.14-.78,1.36-.37a16,16,0,0,0,4,4.39c3.1,2.7,5.81,5.87,9.62,7.62.37.17,1.11.22,1.23.56.86,2.38,3.34,3.16,4.89,4.9,2.43,2.76,5.21,5.52,9.05,6.51.31.08.78-.06.88.3.73,2.66,4,3.08,4.87,5.62a1.29,1.29,0,0,0,1.29.94,2.46,2.46,0,0,1,1.77,1.24c1.11,3.18,4.31,3.14,6.61,4.4a3.48,3.48,0,0,1,1.58,1.89c.59,1.28,1.44,2.09,3,1.81a14.91,14.91,0,0,0,1.06,2.49c.33.52.37,2,1.66.95,1.12,2.64,3.94,3.69,6,4.61a7.5,7.5,0,0,1,4.27,4c2.19-1.11,2.47,1.27,3.19,2.11,2.23,2.6,5.84,2.54,8.12,4.63,1.53,1.4,3.38,2.55,4.55,4.31s3.34,2.94,4.7,4.88c.83,1.19,3.19,1.86,4.84,2.86a17.22,17.22,0,0,1,6.23,6c.62.89.71,2.56,2.52,1.77,1.12,1.43,2.34,2.59,4.36,2.73,1.82.12,2.58,2.51,3.2,4.35,1,2.87-1.38,4.1-2,6.13s-1.51,3.9-2.28,5.83c-.68-.48-1.51-.75-1.62-1.83-.09-.8-.79-1.09-1.57-1-3.73.48-7.12-1-10.65-1.71-2.78-.53-5.29-1.87-8.13-2.26a6.06,6.06,0,0,0-4.73,1.62c-1.31,1,.32,2.13.59,3.2a10.7,10.7,0,0,1,.19,1.48,51.63,51.63,0,0,0,1,7.67c.59,2.4.45,4.82.74,7.21.35,2.85-.33,5.58-.87,8.35-.41,2.09,0,4.39-2.39,5.66-.72.38-.28,1.06-.08,1.62l-.86.45q-.47-.21-.45.3h0c-1.34.68-2.67,1.41-4,2-1,.47-1.46,1.08-.85,2.16l.1.09-2.74,1.37c-1,.73-3.24.4-2.24,2.74a2.82,2.82,0,0,0-1.69,2,9.23,9.23,0,0,1-1.52,4.08c-1.82,2.21-3.18,4.7-4.82,7-1.37,1.9-1.77,4.12-3.1,6-2.34,3.28-5.26,6.21-6.48,10.22a6.08,6.08,0,0,1-1.47,2.63,27.81,27.81,0,0,0-4.77,7c-2.33,4.75-5.44,9-8.07,13.46-.27.46-.57.88-.36,1.42s.67.55,1.24.53c3.13-.09,6.25-.09,9.38-.12,1.62,2.36-.81,2.35-1.84,3.17h0c-.87-1.81-1.61-1-2.35.1l-6.74.27a4,4,0,0,0-1.48-.26,36.63,36.63,0,0,1-9,.95c-1.11,0-2.16-1-3.32,0-1.4,1.21-2.95,0-4.29-.18s1-1.36.3-2.29a2.55,2.55,0,0,1-.2-.48l2.58-1.61,2.75-1.34c1.44-.71,2.87-1.46,4.33-2.13a1.26,1.26,0,0,0,.65-2l-.1-.1,2.76-1.37c1-.72,3.26-.31,2.31-2.69l-.12-.08L240.7,841c1.43-.73,2.84-1.48,4.28-2.16a1.25,1.25,0,0,0,.66-2c.84-.51,1.89-.83,1.85-2.12a43.19,43.19,0,0,1,2.43-4.6c1.12-1.71,2.8-3.11,3.38-5.5a19,19,0,0,1,3.39-6.08c2.66-3.58,5.52-7,6.79-11.4a3,3,0,0,1,.69-1.08,42.27,42.27,0,0,0,6.5-9.78c.68-1.4,1-3,2.26-4.18,2.94-2.67,3.68-6.35,4.54-10,1.59-.56,1.17-2.22,1.57-3.31.29-.82-.73-1.69-1.93-.94-1.84-.48-2.93,1.21-4.47,1.56-1.76.4-1.19,1.23-.52,2.15l-.17,1.12-1.86,1c-1.58-.4-6.71,3.76-6.6,5.36a.8.8,0,0,0,.11.23c-2.61,1-3.2,4.46-6.2,4.93-3.84.71-5.4,4.56-8.57,6.22-.51.27-.1,1,.06,1.43l-2.68,1.46c-1,.74-3.14.48-2.21,2.74l-.82.62-3.1,1.61c-1,.69-3.24.36-2.3,2.71h0c-2.34,1.3-5.2,2-6.19,4.94h0c-.92.77-3.23.37-2.26,2.7l-1.23.86-2.71,1.38c-1,.7-3.18.43-2.26,2.73l.11.07-2.72,1.42c-1,.9-3.54.38-2.72,2.95l-.84.52c-1.43.72-2.84,1.48-4.28,2.16-1,.47-1.12,1.14-.64,2h0c-1.09.67-2.71.74-2.85,2.5-1.2,2.46-1.37,5.37-3.26,7.53-1.91.65-2.3,1.8-1.13,3.45-.27.2-.54.4-.82.59-.8-2.09-2.19-3-4.53-3.29s-4.77-2.4-7.16-2.43c-3.21,0-6.29-.93-9.32-1.4-5.18-.8-8.71,1.87-12.75,3.74a1.26,1.26,0,0,0-.61.76c-.8,3.55-1.27,7.29-.41,10.71s2.3,6.59,3.18,10c.37,1.4-.5,2.69.2,4,2.23,4.3,1,8-2.27,11.16-.6.57-.28,1.08-.07,1.64-.77.42-1.42.92-1.35,1.92-.34.25-1,.5-1,.76,0,4.41-2.46,8.18-3.32,12.37a93.08,93.08,0,0,1-2.46,9.11c-.75,2.37-1.32,5.05-2.65,7.4-1,1.86-2.35,3.92-1.76,6.35-.55.25-1.24.43-.84,1.27.28.62.81.57,1.31.31,1.7-.87,3.39-1.76,5.07-2.65.87-.47.54-1.14.28-1.8l-.12-.07,2.8-1.38c1.43-.72,2.85-1.47,4.31-2.14a1.26,1.26,0,0,0,.67-2l2.69-1.46c1.43-.71,2.84-1.46,4.3-2.13a1.27,1.27,0,0,0,.67-2l1.33-.75c1.73.2,2.46-1.62,4-1.94,1-.23,1.93-1.58,3-1,1.22.68-1,1.44-.28,2.36a2.4,2.4,0,0,1,.21.46l-1.23.81c-2.47.8-3.16,2.78-3.38,5.07a1.3,1.3,0,0,0-.57,1.27,15.11,15.11,0,0,1-1.67,6.94c-1.63.43-2.49,2.37-3.85,2.67-4.77,1-8.64,3.91-13,5.85-2.09.93-4.24.4-6.35.68-2.52.34-5.05.73-7.71-.21-1.12-.39-2.9,1.23-4.42,1.84-1.84.74-2,2-1.15,3.54,1.2,2.39,2.43,4.78,3.59,7.19.49,1,1.09,1.85.5,3.32s.71,3,1.79,4c.47.46,2,.5,2.34-.09,1.08-1.75,2.83-1.78,4.45-2.21.62,1.27-.53,1.37-1.19,1.75-1.58.91-3.29,1.38-4.09,3.52-.7,1.89-6.65,3.53-8.72,2.94-.22-.07-.63-.09-.64-.19-.41-2.55-3.07-3-4.38-4.69-.65-.63,0-2.84-2.1-1.76a3.84,3.84,0,0,1-1.59-1.23c-1.89-2.93-3.79-5.9-7.6-6.66-.41-2.37-2.84-2.74-4-4.2-.5-.63-.85-1.89-1.6-2.75a10.89,10.89,0,0,0-5.4-3.46c-.57-.94-.47-2.78-2.45-1.82-1-2.13-3.1-3.31-4.54-5.06-.59-.95-.49-2.8-2.49-1.91a1,1,0,0,1-.28-.3c-1-1.09-.59-3.69-3.22-3.15-.18-.25-.35-.5-.53-.74-.7-1.31-1-2.91-2.47-3.68-2.07-1.83-5-2.66-6.24-5.5-.25-.57-1.21-.83-1.84-1.23-.87-1-.23-3.63-2.9-2.79-2.16-3.4-5.77-5.49-8.07-8.71-2.15-3-5.43-4.72-7.81-7.42-.09-1.57.12-3.4-2.45-2.8-1.29-1.55-2-3.8-4.71-3.63-.84,0-1.36-.94-1.67-1.8A3.31,3.31,0,0,0,61.77,876c0-2.15,2.14-1.16,3-2.06,2,1.6,3.37,3.76,5.54,5.16,3.23,2.08,4.94,5.74,8.11,7.91a11.42,11.42,0,0,1,4.47,5.1c.08.2.4.3.62.43a27.8,27.8,0,0,1,8.68,8.34c1.45,2.16,3.53,3.37,5.09,5.25,1.33,1.59,3.45,2.51,5,4,1.89,1.82,3.6,3.81,5.44,5.69s4.94,2.27,5.52,5.33c.28.74.67,1.73,1.55,1.24s2.24-1,1.29-2.56c.93-6.63,3.63-12.89,4.07-19.62.84-3.14-1.11-7-4-7.95L111,882a4.4,4.4,0,0,1,2.9-.9c2.48,3.9,4.68,7.94,7.29,11.8,3.27,4.82,5.82,10,10.78,13.46.74,1,.49,3.1,2.72,2.21l.8,1.22c.73,1,.52,3.14,2.77,2.17a3.3,3.3,0,0,0,.59.85c4.06,3.09,8.38,5.84,11.84,9.69,1.28,1.42,2.14-.16,2.51-.93a9.75,9.75,0,0,0,.8-2.25c1.3-7.57,4.59-14.58,6.19-22,.72-3.35,2.82-6,3.64-9.28A8.58,8.58,0,0,0,162.1,880c-2-2.49-4.63-4.23-6.87-6.38-1.67-1.59-2.76-4.24-5.45-4.75-.52-.93-.59-2.17-1.84-2.57l-1.41-.58c-.72-1-.76-2.4-2.1-2.9-2.36-.9-4-2.75-5.65-4.51-2.85-3.08-5.75-5.84-10.09-6.79a93.2,93.2,0,0,1-9.08-2.94c.14-1-.66-2.41,1-2.94,2-.22,3.66,1.31,5.66,1.36,1.26,0,2.77-.59,3.65,1s1.72,1,2.78.4,1-1.23.41-2.07c-1.05-1.2,0-2.48-.09-3.74-.41-4.69-.43-9.41-.89-14.09-.22-2.15,1-4.74-.85-6.39s-3.25-4.1-5.7-5.19c-.66-.29-1.3-.57-1.49-1.29-.45-1.65-1.8-2.19-3.19-2.7-.18-1.54.09-3.47-2.53-2.85a27.42,27.42,0,0,1-6.75-6.36,4.11,4.11,0,0,0-2.35-1.42c-.74-.94-.75-2.41-2.12-2.88l-1.39-.58c-.81-.84-.63-3-2.77-2l-.77-1.24c-.74-1-.49-3.27-2.81-2.08-1.69-.71-1.21-3.48-3.47-3.65-.8-.85-.6-3.06-2.78-2.06v0c-.65-1-.77-2.38-2.05-3l-2.31-1.21a1.33,1.33,0,0,0-.24-1.42c-1.22-1.7-.42-2.56,1.23-3.11a23.62,23.62,0,0,1,4.1,3.25c1.7,2,4.1,3.33,6.1,4.94,2.82,2.28,5,5.35,8.16,7.1,1.93,1.06,2.73,3.26,4.44,4.23,4,2.3,7.28,5.55,10.51,8.66,1.93,1.85,4,3.37,5.93,5.16,1.43,1.34,3.76,1.83,4.33,4.07,1.38,2.14,2.53.16,3.77-.21,1-.72,3.18-.37,2.31-2.68l1.25-.85,2.68-1.4c.95-.75,3.3-.35,2.24-2.74l-.09-.06,2.76-1.4c.95-.73,3.17-.36,2.31-2.67l1.25-.85,2.69-1.4c1-.73,3.26-.38,2.24-2.73l-.09,0,2.79-1.39c.92-.77,3.17-.42,2.26-2.71l1.26-.83c.94-1.08,3.48-.29,3.22-2.76a10,10,0,0,0,1.16-5.29,19.3,19.3,0,0,1,.89-6.84c.85-2.82.45-5.72,1.17-8.56.34-1.35,1-3.64,0-5.47-1.68-3.29-4.4-5.61-7.16-7.9-1.65-1.36-3.66-2.54-4.71-4.28-1.31-2.16-3.45-3.37-5-5.21-2-2.34-5.19-3.68-6.55-6.81-.22-.5-.83-.54-1.35-.6-.72-1-.82-2.44-2.2-2.93-2.34-1.33-4.58-2.36-7.56-2.11-3.6.29-7.35-1-10.91-.55-4.17.5-8.1-.9-12.16-.61a1.38,1.38,0,0,0-2.13-.7c0-.76.46-1.52,0-2.27,2-.91,4.13-.07,6.16-.42,2.77-.49,5.43.63,8.23.32a50.57,50.57,0,0,1,8.43.13c2.66.15,5.3.48,8,.74.37,1.24,1.16,1.46,2.13.71s3.12-.53,2-2.74l-.08,0,2.77-1.4c.95-.74,3.19-.39,2.29-2.7l1.29-.76c.9-.78,3.23-.41,2.19-2.74l-.08-.06,2.82-1.4c1.37-.71,2.73-1.47,4.13-2.13a1.34,1.34,0,0,0,.75-2.06l1.28-.76c.89-.79,3.29-.34,2.22-2.73l-.09-.06c1.23-.66,2.75-.89,3.43-2.35,1.53-.19,3.48.12,2.9-2.5a2.33,2.33,0,0,0,.21-1.94c-1-4.93-2.16-9.8-3.32-14.69-1-4.48-1.56-9.09-3.18-13.44,1.95-1.72.3-2.66-.8-3.72-2.21-.36-2.68-2.61-4.1-3.76-1.86-1.52-3.24-3.5-5.13-5-.62-1.08-.72-2.53-2.15-3.05-.29-.49-.79-.51-1.27-.57-.77-1-.81-2.44-2.2-2.92-.65-.82-2.2-.4-2.46-1.63-.52-2.47-3.6-2.48-4.4-4.7-.13-.34-.94-.32-1.45-.09-2.13-.61-3.62,0-4.34,2.2-1.07,1.81-3.21,2-4.73,3.11-1.47.73-3,1.39-4.39,2.2-1,.61-2.63.71-2.68,2.44l-.81.53-5.38,3.32c-.66.32-1.54.36-1.72,1.32-2.45,0-3.65,1.53-4.57,3.49-1.85.49-2.9,2.06-4,3.35-1.59,1.86-4.54,1.81-5.56,4.29-2.28-.42-3.2.23-3,2.2-4.26,2.06-7.26,6-11.73,7.78L83,691.52c-1.15.6-2.72.71-2.89,2.46l-.83.53-4,2.54c-1.82.93-3.63,1.88-5.48,2.77-1,.52-1.43,1.16-.69,2.19-.08.54-.25,1.08.15,1.57-.88,2-.29,2.81,1.82,2.6l.75,1.27c.71,1,.41,3.18,2.7,2.27a43.66,43.66,0,0,0,3.33,3.62c2,2.33,3.53,5.22,6.59,6.48-.82,1.85,0,3.07,2.32,3.51.17,1,1.39.7,1.8,1.41-1.39,1,0,1.82.29,2.65.41,1.05,1.19.74,1.92.29,1.77.24,1.8,2.4,3.26,3-.92,1.34-2.84,1.72-3.85,1.85-4,.51-8.12-.61-12.29-.33-4,.25-7.79.45-11.33,2.46-1.58.9-3.25,1.64-4.87,2.46-4.46,2.24-5.32,4.53-5.29,9.71,0,1.72.36,3.45.21,5.23-.28,3.37-.93,6.87.75,10.13a3.11,3.11,0,0,1,.5,1.45c-.13,3.52,0,7,1.85,10.14a1.59,1.59,0,0,1,.28,1c-.91,3.67,1.42,6.76,2.13,10.08.85,4,3.61,7.62,5.49,11.42.5,1,1,1.58,2.19,1,2.33,4.6,4.76,9.15,7,13.82a12.07,12.07,0,0,0,6,5.87c-1.24.9-.35,1.67.2,2.38.81,1.05,1.81.71,2.79.22,1.39,2.36,3.86,3.72,5.44,5.9.72,1,.44,3.28,2.79,2.11,2.16,1.41,3.8,3.42,5.84,5,2.42,1.88,4.05,4.68,6.73,6.32.82.83.6,3,2.73,2.1.41,1,1.42,1.25,2.28,1.67-1.36.85-.26,1.71,0,2.56l-1.45.48c-1.11-2.38-3.19-.48-4.66-.71-3.59-.57-7.28-.4-10.87-1.52-.89-.27-2.49-.41-3.33.54s-.12,2.27.42,3.35c2.18,4.32,4.27,8.7,6.58,12.95.95,1.75,0,3.4.09,5.06,0,1-1.55-1.22-2.54-.22,0,.06-.16.07-.23.11-1.09-1.75-3.27-2.74-4.17-4.17-1.92-3.06-5.64-3.84-7.36-6.86,0-1.69-.27-3.16-2.54-2.8-1.65-1.68-3.59-3.06-5-5-1.63-2.28-4.67-3-6.12-5.62-.26-.47-1.46-.7-2.14-.59a18.21,18.21,0,0,1-8.46-.64c-1.44-2.54,1.22-2,2.09-2.76,1.33-.84,2.62-.38,4,0,3,.82,6-1.18,5.43-3.88-.75-3.37,1-6.32,1-9.57a29.25,29.25,0,0,1,1-7.92,7.8,7.8,0,0,0-.67-5.76c-4.19-8.17-8.28-16.39-12.42-24.59-.35-.69-.65-1.7-1.23-1.94-3-1.24-4.08-4.33-6.31-6.32-2.85-2.55-5.48-5.41-8.09-8.25-1.23-1.33-2.31-3.12-3.77-4-2.8-1.67-3.76-4.95-6.48-6.54-.74-1-.48-3.17-2.75-2.18-.59-1-1.07-2-2.6-1.87a9.65,9.65,0,0,1-.78,5.69c-.85,2.2-.37,4.48-.24,6.72-1.94,1.11-.3,2.5-.3,3.76.58,1.38-.41,2.48-.67,3.72a9.61,9.61,0,0,0-.61,2.75,38.41,38.41,0,0,1-.45,8.5,69.16,69.16,0,0,0-.79,7c-.07,3.27.32,6.74-1.58,9.82a3.31,3.31,0,0,0,.82,4.79c5.27,3.78,9.85,8.34,14.73,12.55,2,1.7,3.32,4.16,6,5.07.73,1,.49,3.12,2.73,2.19.84,2.31,3.24,2.61,4.93,3.83-.71,2-.1,2.85,2.13,3l.87,1.81c-.78,1.12-1.28,2.88-3.19,1.33-.13-.1-.53,0-.73.14-3.12,2-5.86.15-8.52-1-1.48-.68-2.66-.72-3.69.32A3,3,0,0,0,39,840c1.29,2.14,2.29,4.45,3.41,6.69.3.61.88,1.28.53,1.93-.81,1.51.06,2.64.66,3.84,1.08,2.17,2.22,4.3,3.25,6.49.45,1,1.44,1.81.91,3.08l-1.34-.18c-.5-1-.44-2.34-1.76-2.82-1-.6-2-1-2.48-2.31-1.08-2.8-3.58-4.1-6.14-5.27-.49-1-1-2-1.47-3s-1.08-1-1.85-.43c-.33-.5-.65-1-1-1.51-.43-.82-.88-1.63-1.28-2.47s-.87-1.51-1.91-.75c-2.89-1.51-4.69-4.17-6.87-6.43-.95-1-2.88-.91-3-2.78,1.29-.45,1-1.25.57-2.19s-1.08-1.21-2-.56a8,8,0,0,1,1.23-7.69c.38-.42.86-1.37.7-1.56-1.54-1.81-1.09-4.43-.67-5.82.57-1.87-1.28-3.7.77-5.76,1.44-1.44,1.39-4.84.88-7.3A10,10,0,0,1,21,796c1.42-2.43.61-4.87.75-7.21.21-3.34.23-6.61,1.83-9.62.26-.5,0-.78-.11-1.16-.81-2.87-.33-5.88-.44-8.77-.07-1.92,1.52-4.22,1.8-6.52.06-.42.3-.9.17-1.23-1.19-3.06-.45-6.05.9-8.67,1.2-2.32.16-4.54.51-6.79a25.63,25.63,0,0,0,.28-3.14c.06-2.92,1-5.72,1.2-8.63.13-1.5-1.3-3.44.46-4.83.11-.08.08-.55,0-.71-1.94-2.35.35-2.74,1.64-3.59.91-.75,3.24-.29,2.22-2.65l5.68-3.1A6.12,6.12,0,0,0,40.34,718c.64-.91,3.41,0,2.15-2.51L44,714.43a13.48,13.48,0,0,0,4.08-2c.52-1,3.35,0,2.16-2.46,3-1.83,6.23-3.39,9-5.56a72.28,72.28,0,0,1,7.27-5c.84-.52,3.15-.23,2.25-2.52,0,0,1.42-.95,1.74-.75,3.6,2.24,2.16-1.8,3.2-2.66.67-.56.34-1,1-.65,1.3.56,1.39.57,1.51-.91.08-1,.64-1,1.34-.91,1.34,2,2.24-.17,3.31-.42s1.46-.89.57-1.84a1.06,1.06,0,0,1,.18-.33c1.19-.58,2.72-.67,3.24-2.23,2,0,3.69-.38,4.4-2.64.31-1,1.12-1.45,2.25-1.92,1.81-.75,4.46-.85,4.86-3.71.06-.42.87-.91,1.41-1.05,4.06-1.1,6.7-4.26,9.67-6.84,1-.84,2.1-.85,3.07-1.34,1.81-.92,1.93-3.28,3.92-3.79,3-.77,4.65-3.42,7-5,1.18,1.37,2.35,1,3.29-.94a1.53,1.53,0,0,0,.76-1.42c1.34-.46,2.67-.94,3.39-2.31,1.45-.32,3.54.59,3.82-2,1.08-2.24,3.46-3,5.34-4,1.32-.71,2.71-.74,2.91-2.61.06-.55.76-.6,1.24-.75.47,1.33,1.28,1,2.22.54s1.06-1.18.47-2c1.44-1.09,3.57-1.09,4.11-3.67.2-1,2.88-2.37,4.63-2.05s1.66-.6,2-1.51c.92-.44,1.84-.92,2.78-1.34s1.21-.92.41-1.72a2.7,2.7,0,0,1,2.2-1.18c2.53.48,2.71-1.2,2.89-2.86a1,1,0,0,1,1-1c2.12-.26,4.35-.89,6.36-.48a6.1,6.1,0,0,1,3.93,3.11c1.22,3,3.9,3.52,6.26,4.56a5.23,5.23,0,0,1,2,1.25c1.85,2.1,3.43,4.47,6.21,5.58.51.2.74,1.11,1.11,1.69.51.8.36,2.64,2.19,1.42,1.36,1.89,4.21,1.41,5.49,3.43.73,1.19.47,3.42,2.94,2.81,1.71,2.91,4.67,4.66,6.73,7.25-1.59,1-2.44-.09-3.52-1.09-2.15-2-4.19-4.3-7.55-4.21-2.07.06-4.16-.14-6.2.1-4,.47-7.92-.35-11.87-.42-3.14-.06-6,.12-8.57,2-.47.33-1.25.45-1.22,1.19a66.8,66.8,0,0,0,.47,8.47c.35,2.14,1.42,4.57,0,6.54a2.73,2.73,0,0,0-.18,3.45c-.33.39-.14.78,0,1.17-.47.38-.94.5-1.1,1.41-.48,2.81,1.16,5.25,1.08,7.94-1,.41-1.15,1.08-.65,2s1,1.92,1.49,2.88a12.74,12.74,0,0,1,1.15,2.82c.72,3.72,1.54,7.43,2.32,11.15a1.25,1.25,0,0,0-.69,2c.48,1,1,1.52,2.11.87.35,1.3,1.76,1.9,2.56,2.27,2.34,1.07,3.14,3.54,5.3,4.84a23.8,23.8,0,0,1,7,6.4c1.35,1.9,3.28,2.77,4.8,4.27,1.85,1.83,3.81,3.56,5.54,5.52a11.54,11.54,0,0,0,6.1,3.72c.9.22,1.91-.91,2.91,0-2.27,2.15-4.17,4.28-8.11,3.72-3.76-.52-7.66.17-11.51-1-1.33-.39-3.22-1.27-4.79.18-.54.5-1.14.27-1.8-.27-2.5-2-5.14-1-7.73-.1-.88.31-.95,1.07-1.18,1.83a8,8,0,0,0,1.12,7.12,16.15,16.15,0,0,1,2.93,9.64,41.49,41.49,0,0,1-.25,6.2c-.67.91-3.08.48-2.06,2.68-.72,1.09-2.95.69-2.72,2.73-.22.64-.7,1.33-.6,1.91.51,3-.51,5.8-.9,8.64-.29,2.08-.07,4.15-.39,6.23-.5,3.33,0,6.81-1.38,10-1.76.59-1,1.67-.48,2.65s.81,2.57,2.56,1.44c2.28.71,2.76,3.34,4.89,4.46,1,.54,2.7.93,3.3,2.57.82,2.25,3.17,3.46,4.77,4.95,1.28,1.17,1.93,3.1,3.56,3.71,2.17.82,2.93,3.09,4.88,4.23a9.62,9.62,0,0,1,3.11,2.36c2.32,3.34,5.09,6.09,9,7.52-1.41,1.2.09,2,.48,2.86s1.15.39,1.76,0a.94.94,0,0,0,1.27-.71c1.13-.87,3.25-.56,3.24-2.76a4.09,4.09,0,0,1,2.35-2.33c1.44-.28,3.59.28,2.94-2.48a1,1,0,0,1,.33-.35c1.22-.4,2.46-.78,3-2.11,2,.16,3-.67,2.83-2.52l-.08,0,2.79-1.38c.91-.77,3.14-.46,2.24-2.72l1.29-.78c.87-.79,3.2-.41,2.18-2.72,1.66-1.15,3.12-2.63,5.09-3.25,1-.32.73-1.18,1-1.79l2.81-1.37c.89-.78,3.21-.42,2.18-2.74l1.25-.82,2.7-1.42c1-.7,3.27-.35,2.27-2.71l-.08-.06c1.07-.7,2.75-.61,3-2.35a1.18,1.18,0,0,0,.65-1.06l2.64-1.54c.83-.82,3.18-.41,2.17-2.71h0q2.06-1.06,4.09-2.15c1-.73,3.21-.43,2.21-2.74l-.09-.06,2.78-1.39c.92-.76,3.19-.44,2.2-2.74l1.24-.83,2.72-1.4c.93-.76,3.41-.3,2.17-2.76h0c1.42-.5,1.15-1.46.57-2.39s-.69-2.71-2.59-1.78l-2.05-.8c-.78-.92-.73-2.45-2.13-2.92-2.88-.77-4.15-3.54-6-5.39-1.65-1.62-3.38-3.7-5-5.05-3.25-2.66-6.07-5.69-9.13-8.5L246,745l-.56-.84c-.42-1.54-2.14-1.59-3-2.6-1.74-.34-2.46-2.62-4.13-2.63-2.63,0-5.26-.06-7.89,0-3.3.08-6.58.29-9.84-.44-.59-1-1-2.07-.43-3.26,1.81-1.07,4-.6,5.63-.33a60.6,60.6,0,0,0,13.39.2,1.9,1.9,0,0,0,1.67.94c.88,1.74,1.92.52,2.92.16s1.45-1,.82-2.11l-.08,0,2.81-1.4c.86-.79,3.24-.38,2.19-2.72l1.23-.84,2.79-1.37c.93-.76,3.26-.39,2.22-2.74l-.1-.06,2.79-1.39c.86-.8,3.27-.35,2.22-2.72l1.23-.84,2.79-1.37c.94-.74,3.19-.39,2.24-2.7.83-1.52,2.51-2.71-.62-4.19a16.33,16.33,0,0,1-6-4.62c-2.21-3-5.46-4.52-8.19-6.75-2.1-1.73-4.82-2.91-6.45-5-2.4-3.06-5.77-4.67-8.54-7.1-1.15-1-2.95-1.42-3.49-2.7-1-2.36-3.29-3-4.93-4.51-2.45-2.21-5.13-4.15-7.71-6.21-.63-2.16-1.3-4.35-3.22-5.73-.56-.41-1.14-.69-1.43-1.35-.95-2.21-3.53-2.59-4.94-4.38C210.57,662.48,210.17,662.79,211.41,661.53Z" transform="translate(-16.76 -15.15)" style="fill:#040202"/><path d="M284.46,789.11c-.2-.56-.64-1.24.08-1.62,2.36-1.27,2-3.57,2.39-5.66.54-2.77,1.22-5.5.87-8.35-.29-2.39-.15-4.81-.74-7.21a51.63,51.63,0,0,1-1-7.67,10.7,10.7,0,0,0-.19-1.48c-.27-1.07-1.9-2.17-.59-3.2A6.06,6.06,0,0,1,290,752.3c2.84.39,5.35,1.73,8.13,2.26,3.53.68,6.92,2.19,10.65,1.71.78-.11,1.48.18,1.57,1,.11,1.08.94,1.35,1.62,1.83-.11.39-.22.77-.34,1.15-.92-.88-1,.19-1.05.58-.19.86.42.33.73.32-2.57,2.26-2.2,5.94-4,8.5-1.94,2.74-2.72,6-4.62,8.8-1.69,2.49-2.21,5.77-3.33,8.67-.62,1.59-.88,3.4-2.37,4.53-.49.38-.3.75-.1,1.11a1.52,1.52,0,0,1,0,1.73c-2.48,2.91-2.8,6.78-4.48,10.06a15.81,15.81,0,0,0-1.27,3.81c-.82,3.77-3.46,6.83-4,10.71-.09.65-1.33,1-1.2,2.06-2.9.77-1.45-1.22-1.36-2.23.13-1.45,1.65-2.74.48-4.34a.9.9,0,0,1,.48-1.42c1.9-1,2.3-2.52,1.81-4.44a1.8,1.8,0,0,1-.16-1.66c.78-2,3.09-3.6,2.58-5.81-1.11-4.77,3.3-7.34,4.13-11.39.48-2.31,2-4.75,3.08-7.09,1.63-.51.91-2.29,1.72-3.28.17-.2-.27-.8-.76-.83-.92-.07-3.13,2.51-3,3.51-3.87.9-5.55,4.86-8.95,6.41Z" transform="translate(-16.76 -15.15)" style="fill:#442a10"/><path d="M156.45,945.38c-1.62.43-3.37.46-4.45,2.21-.36.59-1.87.55-2.34.09-1.08-1.07-2.35-2.64-1.79-4s0-2.29-.5-3.32c-1.16-2.41-2.39-4.8-3.59-7.19-.8-1.57-.69-2.8,1.15-3.54,1.52-.61,3.3-2.23,4.42-1.84,2.66.94,5.19.55,7.71.21,2.11-.28,4.26.25,6.35-.68,4.31-1.94,8.18-4.8,13-5.85,1.36-.3,2.22-2.24,3.85-2.67,1.18,2.48,2.38,0,3.57,0,1,2.16-1.11,2.16-2.1,2.75-1.92,1.14-3.24,2.5-2.82,4.92l0,.13-.09.08c-.9.74-2.82.24-2.68,2.23-3,4-8.37,5.5-10.86,9.85-1.46,2.55-3.85,3.13-5.91,4.47-.69-1-1.52-.91-2.47-.38s-.66,1.23-.24,1.94Z" transform="translate(-16.76 -15.15)" style="fill:#442a10"/><path d="M211.41,661.53c-1.24,1.26-.84,1-.09,1.9,1.41,1.79,4,2.17,4.94,4.38.29.66.87.94,1.43,1.35,1.92,1.38,2.59,3.57,3.22,5.73-.64-.21-1.64-.23-1.85-.65-1.39-2.7-4.16-3.75-6.18-5.63-1.36-1.26-3.7-1.64-4.06-3.92-1.41-1.11-2.29-2.93-4.33-3.18-.91-.72-.78-3-2.87-2-1.92-1.9-4-3.26-6.82-1.82-1.68.87-3.35,1.79-5.07,2.6-1,.47-1.28,1.08-.77,2.05l-1.29.75-2.79,1.42c-.86.81-3.21.44-2.19,2.75l-2.63,1.48-2.78,1.5c-.89.75-3.16.38-2.17,2.67h0l-2.76,1.44-2.86,1.34a2.73,2.73,0,0,1,.18-3.45c1.42-2,.35-4.4,0-6.54a66.8,66.8,0,0,1-.47-8.47c0-.74.75-.86,1.22-1.19,2.59-1.84,5.43-2,8.57-2,3.95.07,7.88.89,11.87.42,2-.24,4.13,0,6.2-.1,3.36-.09,5.4,2.22,7.55,4.21,1.08,1,1.93,2,3.52,1.09C209.42,660,211.05,659.61,211.41,661.53Z" transform="translate(-16.76 -15.15)" style="fill:#442a10"/><path d="M64.77,873.89c-.86.9-3-.09-3,2.06-2.17-.09-1.81-2.39-2.94-3.38-.53-.78-.39-2.61-2.2-1.42a3.76,3.76,0,0,0-2.84-2.3c-.7-.08-.9-.45-1-1.16a2.38,2.38,0,0,0-1.92-2.15c-1.73-.46-1.68-2.67-3.13-3.47.53-1.27-.46-2.12-.91-3.08-1-2.19-2.17-4.32-3.25-6.49-.6-1.2-1.47-2.33-.66-3.84.35-.65-.23-1.32-.53-1.93-1.12-2.24-2.12-4.55-3.41-6.69a3,3,0,0,1,.61-4.11c1-1,2.21-1,3.69-.32,2.66,1.2,5.4,3,8.52,1,.2-.13.6-.24.73-.14,1.91,1.55,2.41-.21,3.19-1.33.6.82,1.32.6,2.05.24,1.81-.9,2.9.4,4.12,1.33-.87.78-3.53.22-2.09,2.76a1.86,1.86,0,0,1-1.87.17,3.2,3.2,0,0,0-4.1,1.94c-2.29,4.81-2.12,10.36-4.47,15.15-.14.28-.19.82,0,1,2.39,2.4,4.94,4.65,6.38,7.83.05.11.33.07.46.16,1.82,1.27,4,2.08,5,4.3.25.52.43,1.35,1.1,1.32C64.21,871.25,64.15,872.86,64.77,873.89Z" transform="translate(-16.76 -15.15)" style="fill:#442a10"/><path d="M249.87,855.62c1-.82,3.46-.81,1.84-3.17.79-.8,1-2.16,2.27-2.5l1.52-.57c.25.65.53,1.25-.27,1.82-.54.38-1.92.45-1.27,1.46s1.58.1,2.32-.27c4-2,7.88-4,11.82-5.93C271,845,271,845,271.71,848.12v0a1,1,0,0,0-.18,1.71c.83.77,1.76.34,2.64,0,.6.73.93,1.48.09,2.24-.57.52-2,.59-.86,1.94.14.17-.76.67-1,.52-2.61-1.82-4.21.2-6,1.52a7.61,7.61,0,0,1-2.55,1.3c-1.57.75-3.2,1.44-3.93,3.22-1.67,1.71-3,3.81-5.48,4.57-1.53,1.41-3.47,2.14-5.25,3.13-.45-.62-.58-1.54-1.56-1.65a4.63,4.63,0,0,1,.61-1.35A8,8,0,0,0,249.87,855.62Z" transform="translate(-16.76 -15.15)" style="fill:#442a10"/><path d="M274.18,849.76c-.88.38-1.81.81-2.64,0a1,1,0,0,1,.18-1.71l.23,0h-.24C271,845,271,845,268.1,846.46c-3.94,2-7.87,4-11.82,5.93-.74.37-1.75,1.15-2.32.27s.73-1.08,1.27-1.46c.8-.57.52-1.17.27-1.82l2.66-1.47c2.28-1.15,4.55-2.33,6.85-3.43,1-.48,1.55-1,.91-2.15l-.11-.08,5.53-2.8c1-.69,3.1-.49,2.26-2.72,1-2.51,2.91-4.49,3.62-7.18.87-3.26,3.49-5.73,4.24-9.11a9.64,9.64,0,0,1,3.64-5.9c1.17,1.6-.35,2.89-.48,4.34-.09,1-1.54,3,1.36,2.23-.43,1.4-.79,2.84-1.32,4.2-.34.87-.48,2.07-1.87,2-1,.51-2.13,1.32-2.14,2.35,0,1.69-1,2.26-2.22,2.72-1.36.52-1.25,1.62-.9,2.53.48,1.28,1.48.75,2.34.29.68,2.14-1.39,6.77-3.64,8.18-1.28-1.19-2-.59-2.67.73a3.59,3.59,0,0,0,.73,4.26Z" transform="translate(-16.76 -15.15)" style="fill:#040202"/><path d="M247.7,866.55c1,.11,1.11,1,1.56,1.65l.59,1.18c-1.66,1.56-4.42,1.79-5.29,4.33,0,.14-.31.34-.36.32-3.36-2-2.43,1.78-3.27,2.74-1.69,1.93-3.94,2.64-6,3.8-.44.26-1.24.38-1.33.82-.51,2.43-2.66,2.9-4.38,3.93-.87.52-2.57.46-1.87,2.38.17.48-.94.43-1.13.71-.68,1-2.84.45-2.4,2.72.24,1.24-1.79.64-2.71,1.63s-2.6,2-3.68,3.18a12.12,12.12,0,0,1-5.19,3.2l-.06-.18c-.57-1-.19-1.63.79-2s1.21-1.11.71-2.05h0c1.11-.89,3.21-.68,3.18-2.85.58-1.31,2.06-1.33,3-2.08s3.13-.48,2.21-2.73l1.25-.78c1.25-.87,3.56-.66,3.2-3.16,3.37-1.07,4.69-4.81,7.92-6.06,1.61-1.11,4.14-.93,4.78-3.39l.8-1.67c1.49-.23,3.49.14,2.93-2.49C244.49,868.52,246.68,868.41,247.7,866.55Z" transform="translate(-16.76 -15.15)" style="fill:#040202"/><path d="M178.86,926.45c-.42-2.42.9-3.78,2.82-4.92,1-.59,3.06-.59,2.1-2.75l1.28-.85c1.27-.71,3.06-.76,3.36-2.68l.25-.65c1.12-.61,2.27-1.19,3.37-1.84s2.56-.76,2.66-2.43c2.23-1.34,3.37-3.81,5.49-5.27l3.7-1.86c1.41-1.61,2.57-3.51,4.82-4.13.92-.44,1.75-.59,2.16.65-.66.51-1.69.9-.6,1.95a11.85,11.85,0,0,0-3.51,3.38c-.9,1.38-3.59,1.28-5,2.85-.75.81-2.08.77-2.25,2.51-.13,1.21-2.24,1.34-3.32,2.19-.91.66-2.64.37-2.55,2.19-1.11,1.22-3.56,1.33-3.13,3.83,0,.13-.36.49-.48.46-2.5-.66-3,2.39-4.93,2.66-.87.81-3.27.12-2.52,2.54C181.58,925.47,180.07,925.71,178.86,926.45Z" transform="translate(-16.76 -15.15)" style="fill:#040202"/><path d="M279.87,835.24c-.86.46-1.86,1-2.34-.29-.35-.91-.46-2,.9-2.53,1.21-.46,2.2-1,2.22-2.72,0-1,1.11-1.84,2.14-2.35.4,1.1.91,2.06-.08,3.28A37.71,37.71,0,0,0,279.87,835.24Z" transform="translate(-16.76 -15.15)" style="fill:#442a10"/><path d="M274.29,848.41a3.59,3.59,0,0,1-.73-4.26c.65-1.32,1.39-1.92,2.67-.73A13.2,13.2,0,0,1,274.29,848.41Z" transform="translate(-16.76 -15.15)" style="fill:#a3672a"/><path d="M249.85,869.38l-.59-1.18c1.78-1,3.72-1.72,5.25-3.13.35,1,1.28,2-1,2.18C252.26,867.35,251.08,868.63,249.85,869.38Z" transform="translate(-16.76 -15.15)" style="fill:#a3672a"/><path d="M32.71,848c.77-.53,1.41-.55,1.85.43s1,2,1.47,3c-.64.43-1.28,1-1.79-.18S33.22,849.13,32.71,848Z" transform="translate(-16.76 -15.15)" style="fill:#442a10"/><path d="M260,860.5c.73-1.78,2.36-2.47,3.93-3.22.31,2.36-2.66,2.24-3.07,4.06Z" transform="translate(-16.76 -15.15)" style="fill:#9a6028"/><path d="M158.88,634.1c.8.8.51,1.31-.41,1.72s-1.86.9-2.78,1.34C155.39,634.72,157.52,634.81,158.88,634.1Z" transform="translate(-16.76 -15.15)" style="fill:#a3672a"/><path d="M99.15,912c1.5.77,1.77,2.37,2.47,3.68C99.28,915.2,98.3,913.75,99.15,912Z" transform="translate(-16.76 -15.15)" style="fill:#9a6028"/><path d="M264.22,704.78c-1.29,1-1.33-.43-1.66-.95a14.91,14.91,0,0,1-1.06-2.49c.19-.34.79-.45.81-.35C262.53,702.47,264.17,703.23,264.22,704.78Z" transform="translate(-16.76 -15.15)" style="fill:#e7933d"/><path d="M102.15,916.41c2.63-.54,2.19,2.06,3.22,3.15A4.48,4.48,0,0,1,102.15,916.41Z" transform="translate(-16.76 -15.15)" style="fill:#9a6028"/><path d="M132.76,653.26c-.28,2.57-2.37,1.66-3.82,2l0-.21A4,4,0,0,1,132.76,653.26Z" transform="translate(-16.76 -15.15)" style="fill:#e7933d"/><path d="M88.17,902.47c2.67-.84,2,1.76,2.9,2.79C89,905.49,89,903.59,88.17,902.47Z" transform="translate(-16.76 -15.15)" style="fill:#a3672a"/><path d="M81.46,688.79c.89,1,.39,1.61-.57,1.84s-2,2.37-3.31.42C79.17,690.81,80.11,689.45,81.46,688.79Z" transform="translate(-16.76 -15.15)" style="fill:#9a6028"/><path d="M28.55,843.31c1-.76,1.5-.11,1.91.75s.85,1.65,1.28,2.47C29.76,846.36,29.07,844.92,28.55,843.31Z" transform="translate(-16.76 -15.15)" style="fill:#9a6028"/><path d="M48.1,712.43a13.48,13.48,0,0,1-4.08,2c-.58-.7-.79-1.73.32-1.56,1.62.24,2.22-.86,3.18-1.56C47.71,711.68,47.91,712.05,48.1,712.43Z" transform="translate(-16.76 -15.15)" style="fill:#a3672a"/><path d="M128.92,655l0,.21c-.72,1.37-2,1.85-3.39,2.31C125.42,655,127.23,655.12,128.92,655Z" transform="translate(-16.76 -15.15)" style="fill:#a3672a"/><path d="M84.88,686.23c-.52,1.56-2,1.65-3.24,2.23C81.19,686.74,82.52,685.83,84.88,686.23Z" transform="translate(-16.76 -15.15)" style="fill:#9a6028"/><path d="M182.53,924.28c-.75-2.42,1.65-1.73,2.52-2.54C186.06,924.42,183,923.09,182.53,924.28Z" transform="translate(-16.76 -15.15)" style="fill:#a3672a"/><path d="M44.65,859.07c1.32.48,1.26,1.82,1.76,2.82-.5.39-1.16.84-1.43,0S43.14,860.17,44.65,859.07Z" transform="translate(-16.76 -15.15)" style="fill:#a3672a"/><path d="M201.41,652.46c-2.47.61-2.21-1.62-2.94-2.81C200.05,650,200.77,651.17,201.41,652.46Z" transform="translate(-16.76 -15.15)" style="fill:#9a6028"/><path d="M69.84,883.54c2.57-.6,2.36,1.23,2.45,2.8C70.43,886.32,70.52,884.6,69.84,883.54Z" transform="translate(-16.76 -15.15)" style="fill:#442a10"/><path d="M176.13,928.89c-.14-2,1.78-1.49,2.68-2.23C179.55,929.37,177.43,928.63,176.13,928.89Z" transform="translate(-16.76 -15.15)" style="fill:#9a6028"/><path d="M124.79,659c-.94,2-2.11,2.31-3.29.94C122.6,659.61,123.39,658.23,124.79,659Z" transform="translate(-16.76 -15.15)" style="fill:#a3672a"/><path d="M144.94,644.39c.59.85.59,1.51-.47,2s-1.75.79-2.22-.54Z" transform="translate(-16.76 -15.15)" style="fill:#442a10"/><path d="M42.49,715.52c1.26,2.53-1.51,1.6-2.15,2.51a1,1,0,0,1-.57-1.09A7.17,7.17,0,0,1,42.49,715.52Z" transform="translate(-16.76 -15.15)" style="fill:#9a6028"/><path d="M193.59,914.79c-.09-1.82,1.64-1.53,2.55-2.19C196.8,915.09,194.83,914.51,193.59,914.79Z" transform="translate(-16.76 -15.15)" style="fill:#a3672a"/><path d="M105.65,919.86c2-.89,1.9,1,2.49,1.91C105.9,923,106.37,920.65,105.65,919.86Z" transform="translate(-16.76 -15.15)" style="fill:#9a6028"/><path d="M17.26,831.35c.9-.65,1.5-.42,2,.56s.72,1.74-.57,2.19Z" transform="translate(-16.76 -15.15)" style="fill:#442a10"/><path d="M32.15,722.47c1,2.36-1.31,1.9-2.22,2.65C29,722.82,31.31,723.27,32.15,722.47Z" transform="translate(-16.76 -15.15)" style="fill:#442a10"/><path d="M308.64,740c-1.81.79-1.9-.88-2.52-1.77C308.3,737,307.89,739.33,308.64,740Z" transform="translate(-16.76 -15.15)" style="fill:#9a6028"/><path d="M48.1,712.43c-.19-.38-.39-.75-.58-1.12A5.4,5.4,0,0,1,50.26,710C51.45,712.47,48.62,711.43,48.1,712.43Z" transform="translate(-16.76 -15.15)" style="fill:#9a6028"/><path d="M135.33,947c2.11-1.08,1.45,1.13,2.1,1.76C135.28,949.85,135.84,947.76,135.33,947Z" transform="translate(-16.76 -15.15)" style="fill:#e7933d"/><path d="M210.27,901.67c-1.09-1-.06-1.44.6-1.95l1.33-.76.06.18C212.91,901,211.38,901.18,210.27,901.67Z" transform="translate(-16.76 -15.15)" style="fill:#a3672a"/><path d="M156.65,944.77c-.42-.71-.75-1.39.24-1.94s1.78-.65,2.47.38Z" transform="translate(-16.76 -15.15)" style="fill:#040202"/><path d="M112.68,926.83c2-1,1.88.88,2.45,1.82C113.4,929.28,113.19,927.85,112.68,926.83Z" transform="translate(-16.76 -15.15)" style="fill:#9a6028"/><path d="M39.77,716.94a1,1,0,0,0,.57,1.09,6.12,6.12,0,0,1-2.51,1.34C36.67,717.11,39.27,717.87,39.77,716.94Z" transform="translate(-16.76 -15.15)" style="fill:#a3672a"/><path d="M56.63,871.15c1.81-1.19,1.67.64,2.2,1.42C57.26,873.4,57,872.13,56.63,871.15Z" transform="translate(-16.76 -15.15)" style="fill:#a3672a"/><path d="M193,646.22c-1.83,1.22-1.68-.62-2.19-1.42C192.44,643.85,192.57,645.25,193,646.22Z" transform="translate(-16.76 -15.15)" style="fill:#a3672a"/><path d="M311.28,761.13c-.31,0-.92.54-.73-.32.08-.39.13-1.46,1.05-.58C311.5,760.53,311.39,760.83,311.28,761.13Z" transform="translate(-16.76 -15.15)" style="fill:#040202"/><path d="M244.67,800.41l-1.25.82-2.73,1.39c-.92.78-3.25.36-2.26,2.72-.3.61,0,1.47-1,1.79-2,.62-3.43,2.1-5.09,3.25l-2.7,1.4c-1,.73-3.21.38-2.31,2.71l-1.24.77c-.94.75-3.25.36-2.25,2.72l.08,0c-1.14.55-2.85.24-3.12,2.09-.86.28-1.74.54-2.6.84-1.29.44-.43,1.1-.15,1.7a1,1,0,0,0-.33.35c-1,.83-3,.38-2.94,2.48a4.09,4.09,0,0,0-2.35,2.33c-1.4.54-3.91-.22-3.24,2.76a.94.94,0,0,1-1.27.71c-.87-.88-.76-2.5-2.24-2.91-3.9-1.43-6.67-4.18-9-7.52a9.62,9.62,0,0,0-3.11-2.36c-2-1.14-2.71-3.41-4.88-4.23-1.63-.61-2.28-2.54-3.56-3.71-1.6-1.49-4-2.7-4.77-4.95-.6-1.64-2.29-2-3.3-2.57-2.13-1.12-2.61-3.75-4.89-4.46-.69-1.37-1.39-2.73-2.08-4.09,1.4-3.23.88-6.71,1.38-10,.32-2.08.1-4.15.39-6.23.39-2.84,1.41-5.67.9-8.64-.1-.58.38-1.27.6-1.91,1.41.29,2.41-.56,3.47-1.25s3.16-.45,2.12-2.72h0c.9-.78,3.16-.42,2.27-2.7l1.29-.78,2.72-1.45c1.27-.65,3-.92,2.5-3h0c1.75-.88,3.49-1.78,5.25-2.62,1-.49,1.11-1.16.56-2v0c.92-.77,3.22-.37,2.28-2.7l1.29-.77,2.76-1.43c.87-.8,3.15-.5,2.13-2.76h0c1.23-.68,2.76-.92,3.43-2.4a8.12,8.12,0,0,0,5.62-2.83c3.15.83,6.37-.06,9.53.39,3.26.73,6.54.52,9.84.44,2.63-.07,5.26,0,7.89,0,1.67,0,2.39,2.29,4.13,2.63-2,1,0,1.83.28,2.52.7,1.68,1.8.31,2.75.08l.56.84c-1.42,1.09-.17,2,.32,2.78.82,1.31,1.75,0,2.63-.15,3.06,2.81,5.88,5.84,9.13,8.5,1.66,1.35,3.39,3.43,5,5.05,1.87,1.85,3.14,4.62,6,5.39-1.35,1-.15,1.81.21,2.64.44,1,1.2.67,1.92.28l2.05.8q1,2.08,2,4.17h0l-2.69,1.44c-.86.81-3.25.38-2.2,2.72l-1.24.83-2.75,1.39c-.95.74-3.23.4-2.23,2.74l.09.06-2.78,1.4a5.34,5.34,0,0,0-3.52,3.49h0l-2.8,1.43c-.8.85-3.34.46-2,2.82a1.18,1.18,0,0,1-.65,1.06c-1.76-.19-3.51-.37-3,2.35l.08.06-2.78,1.4C246,798.47,243.65,798.1,244.67,800.41Z" transform="translate(-16.76 -15.15)" style="fill:#e7933d"/><path d="M144.66,740.73c.52.06,1.13.1,1.35.6,1.36,3.13,4.56,4.47,6.55,6.81,1.56,1.84,3.7,3.05,5,5.21,1.05,1.74,3.06,2.92,4.71,4.28,2.76,2.29,5.48,4.61,7.16,7.9.93,1.83.32,4.12,0,5.47-.72,2.84-.32,5.74-1.17,8.56a19.3,19.3,0,0,0-.89,6.84,10,10,0,0,1-1.16,5.29c-1.51-.09-2.65.76-3.85,1.48-.89.77-3.1.49-2.18,2.71l-1.26.77c-.94.75-3.26.37-2.24,2.73l.09,0-2.8,1.4-2.77,1.44c-.87.79-3.11.5-2.17,2.73l-1.28.76c-.92.76-3.25.37-2.23,2.72l.09.06L142.82,810l-2.76,1.46c-.91.76-3.1.49-2.18,2.71l-1.28.77-3.25,1.53c-.57-2.24-2.9-2.73-4.33-4.07-1.89-1.79-4-3.31-5.93-5.16-3.23-3.11-6.48-6.36-10.51-8.66-1.71-1-2.51-3.17-4.44-4.23-3.19-1.75-5.34-4.82-8.16-7.1-2-1.61-4.4-2.93-6.1-4.94a23.62,23.62,0,0,0-4.1-3.25,8.9,8.9,0,0,0-1.07-2c-2.88-3.09-6.7-5-9.74-8-2.76-2.64-5.9-4.87-8.17-8a3.29,3.29,0,0,0-2.21-1.18c-.42-.87-.85-1.75-1.28-2.62l1.21-.79L71.33,755c.85-.81,3.2-.46,2.13-2.75h0l2.78-1.41c1.17-1.15,4-.68,3.48-3.51h0l2.78-1.42c.84-.83,3.18-.47,2.16-2.75l2.6-1.49c.92-.43,1.82-.89,2.75-1.3s1.52-1.05.87-2.15h0l2.78-1.42c1.73-.55,3-1.77,5.34-1.39,1.56.26,4.13,1.07,5.83-.73v0c1.15,2.21,2.32.28,3.48,0h0c1.25,2.17,2.37.33,3.54-.12,4.06-.29,8,1.11,12.16.61,3.56-.43,7.31.84,10.91.55,3-.25,5.22.78,7.56,2.11-1.4,1,0,1.8.31,2.62C143.16,741.46,143.93,741.2,144.66,740.73Z" transform="translate(-16.76 -15.15)" style="fill:#e7933d"/><path d="M131.08,658.43c1.52-1.12,3.66-1.3,4.73-3.11a4.72,4.72,0,0,0,4.34-2.2c.51-.23,1.32-.25,1.45.09.8,2.22,3.88,2.23,4.4,4.7.26,1.23,1.81.81,2.46,1.63-1.41,1,0,1.82.29,2.64.4,1.06,1.19.73,1.91.28.48.06,1,.08,1.27.57-.74,2,.13,3.26,2.15,3.05,1.89,1.47,3.27,3.45,5.13,5,1.42,1.15,1.89,3.4,4.1,3.76-1.25,1.56.4,2.51.8,3.72,1.62,4.35,2.13,9,3.18,13.44,1.16,4.89,2.35,9.76,3.32,14.69a2.33,2.33,0,0,1-.21,1.94c-1.11.59-2.58.63-3.16,2.06-1.45.48-3.86-.12-3.17,2.79l.09.06-2.77,1.4c-.92.76-3.18.4-2.27,2.71l-3.9,2.24c-1,.7-3.29.34-2.26,2.73l.08.06-2.72,1.4c-1,.71-3.18.41-2.31,2.7l-1.31.76c-.87.8-3.23.4-2.2,2.74l.08,0-4.15,2c-2.65-.26-5.29-.59-8-.74a50.57,50.57,0,0,0-8.43-.13c-2.8.31-5.46-.81-8.23-.32-2,.35-4.15-.49-6.16.42-.38-.19-.77-.55-1.14-.53a81.34,81.34,0,0,1-9.51-.6c-1.49-.1-3.36-.81-4.92.24-1.46-.59-1.49-2.75-3.26-3-.82-.92-.8-2.47-2.21-2.94-.41-.71-1.63-.39-1.8-1.41-.66-1.24-.84-2.8-2.32-3.51-3.06-1.26-4.64-4.15-6.59-6.48a43.66,43.66,0,0,1-3.33-3.62c-.68-1-.5-3.06-2.7-2.27l-.75-1.27c-.5-.95-.61-2.16-1.82-2.6-.4-.49-.23-1-.15-1.57l6.74-3.61a25.89,25.89,0,0,1,2.5-1.18c1.49-.54,1.67-1.44.92-2.71l.83-.53c1.4.27,2.41-.62,3.53-1.17,1.24-1.08,4-.65,3.52-3.46,4.47-1.76,7.47-5.72,11.73-7.78,1.07-.66,2.71-.53,3-2.2,1-2.48,4-2.43,5.56-4.29,1.09-1.29,2.14-2.86,4-3.35,1.57-1.11,4.14-.89,4.57-3.49.18-1,1.06-1,1.72-1.32,2,2.31,3.21-.56,4.81-.87s1-1.48.57-2.45l.81-.53c2.65,0,4.54-1.9,6.8-2.87C131.71,659.82,131.32,659.07,131.08,658.43Z" transform="translate(-16.76 -15.15)" style="fill:#e7933d"/><path d="M208.82,664.69c.36,2.28,2.7,2.66,4.06,3.92,2,1.88,4.79,2.93,6.18,5.63.21.42,1.21.44,1.85.65,2.58,2.06,5.26,4,7.71,6.21,1.64,1.48,3.93,2.15,4.93,4.51.54,1.28,2.34,1.7,3.49,2.7,2.77,2.43,6.14,4,8.54,7.1,1.63,2.06,4.35,3.24,6.45,5,2.73,2.23,6,3.71,8.19,6.75a16.33,16.33,0,0,0,6,4.62c3.13,1.48,1.45,2.67.62,4.19l-2.81,1.36c-.9.77-3.16.43-2.22,2.71l-1.23.84-2.74,1.39c-.93.76-3.3.33-2.27,2.72l.1.06c-.82.66-2.33,0-2.74,1.42-.93.75-3.23.35-2.27,2.69l-1.23.84-2.74,1.39c-.88.81-3.32.32-2.26,2.73l.08,0-1.41.6c-1.56-2.1-2.68.14-4,.41a60.6,60.6,0,0,1-13.39-.2c-1.68-.27-3.82-.74-5.63.33-3.53-.91-7.11-.17-10.66-.37-1-.88-2,.25-2.91,0a11.54,11.54,0,0,1-6.1-3.72c-1.73-2-3.69-3.69-5.54-5.52-1.52-1.5-3.45-2.37-4.8-4.27a23.8,23.8,0,0,0-7-6.4c-2.16-1.3-3-3.77-5.3-4.84-.8-.37-2.21-1-2.56-2.27l-1.42-2.85c-.78-3.72-1.6-7.43-2.32-11.15a12.74,12.74,0,0,0-1.15-2.82c1.51-1.94-.18-3.32-.84-4.87.08-2.69-1.56-5.13-1.08-7.94.16-.91.63-1,1.1-1.41,1.4.25,2.42-.56,3.5-1.23a14.72,14.72,0,0,1,2.09-1c1.85-.57.46-1.15.05-1.73h0l2.79-1.42c.83-.83,3.18-.46,2.16-2.75l2.63-1.48,2.82-1.45c.92-.75,3.2-.42,2.16-2.72l1.29-.75c1.51-.75,3-1.46,4.52-2.26.9-.49,1.75-1.12,1.32-2.39,2.82-1.44,4.9-.08,6.82,1.82l1.2,2.34.66.24a2.77,2.77,0,0,0,.46-.22C205.32,663.23,205.6,666.5,208.82,664.69Z" transform="translate(-16.76 -15.15)" style="fill:#e7933d"/><path d="M110.12,845.66l1.45-.48c.15.79.73,1.1,1.42,1.31l6.62,2.06a93.2,93.2,0,0,0,9.08,2.94c4.34,1,7.24,3.71,10.09,6.79,1.63,1.76,3.29,3.61,5.65,4.51-1.32,1-.13,1.76.23,2.58.43,1,1.15.75,1.87.32l1.41.58c-.81,1.94-.25,2.72,1.84,2.57,2.69.51,3.78,3.16,5.45,4.75,2.24,2.15,4.9,3.89,6.87,6.38a8.58,8.58,0,0,1,1.76,8.07c-.82,3.27-2.92,5.93-3.64,9.28-1.6,7.45-4.89,14.46-6.19,22a9.75,9.75,0,0,1-.8,2.25c-.37.77-1.23,2.35-2.51.93-3.46-3.85-7.78-6.6-11.84-9.69a3.3,3.3,0,0,1-.59-.85c-.74-1-.56-3.09-2.77-2.17-.26-.41-.53-.81-.8-1.22-.68-1-.49-3.1-2.72-2.21-5-3.43-7.51-8.64-10.78-13.46-2.61-3.86-4.81-7.9-7.29-11.8-2.13-4.26-4.34-8.48-6.36-12.78-.93-2-2.61-3.67-2.4-6.09a19.17,19.17,0,0,1,1.28-5.63c.81-1.89.32-4.21,2.07-5.83.64-.6,1.35-2.13.65-3.11C108.1,846.16,109.6,846.22,110.12,845.66Z" transform="translate(-16.76 -15.15)" style="fill:#9a6028"/><path d="M95.94,789.78c2.26.17,1.78,2.94,3.47,3.65.82.85.66,3,2.81,2.08l.77,1.24c.74.92.46,3.25,2.77,2l1.39.58c-1.34,1-.09,1.77.25,2.58.42,1,1.15.74,1.87.3a4.11,4.11,0,0,1,2.35,1.42,27.42,27.42,0,0,0,6.75,6.36c.6,1.16.78,2.71,2.53,2.85,1.39.51,2.74,1,3.19,2.7.19.72.83,1,1.49,1.29,2.45,1.09,3.79,3.47,5.7,5.19s.63,4.24.85,6.39c.46,4.68.48,9.4.89,14.09.12,1.26-1,2.54.09,3.74L129.92,848c-.88-1.57-2.39-1-3.65-1-2-.05-3.62-1.58-5.66-1.36-.26-.44-.44-.94-1-1.08l-8-1.91c-.86-.42-1.87-.63-2.28-1.67-.7-1-.39-3.26-2.73-2.1-2.68-1.64-4.31-4.44-6.73-6.32-2-1.59-3.68-3.6-5.84-5-.82-.86-.65-3-2.79-2.11-1.58-2.18-4-3.54-5.44-5.9-.47-1.46-2.09-1.62-3-2.6a12.07,12.07,0,0,1-6-5.87c-2.19-4.67-4.62-9.22-7-13.82-2.12-4.26-4.26-8.51-6.37-12.78a3.74,3.74,0,0,1-.72-2.67,80.77,80.77,0,0,0,1.44-11.48c.16-1.89.05-3.81.93-5.57.29-.56,0-1.53,1-1.61.78-.06.76.86,1.2,1.17,2,1.41,3.14,4.44,5.4,4.73,3.29.44,4.4,3.26,6.07,4.92,3,3,6.47,5.66,8.82,9.32.16.25.79.2,1.2.29l2.31,1.21c-1.39.94-.18,1.75.16,2.58.42,1,1.16.74,1.89.37v0C93.89,788.67,93.67,790.91,95.94,789.78Z" transform="translate(-16.76 -15.15)" style="fill:#9a6028"/><path d="M64.77,873.89c-.62-1-.56-2.64-2.45-2.52-.67,0-.85-.8-1.1-1.32-1-2.22-3.22-3-5-4.3-.13-.09-.41,0-.46-.16-1.44-3.18-4-5.43-6.38-7.83-.16-.16-.11-.7,0-1,2.35-4.79,2.18-10.34,4.47-15.15a3.2,3.2,0,0,1,4.1-1.94,1.86,1.86,0,0,0,1.87-.17,18.21,18.21,0,0,0,8.46.64c.68-.11,1.88.12,2.14.59,1.45,2.58,4.49,3.34,6.12,5.62,1.39,2,3.33,3.34,5,5,.62,1.14.72,2.75,2.54,2.8,1.72,3,5.44,3.8,7.36,6.86.9,1.43,3.08,2.42,4.16,4.17,0,2.31,2.79,2,3.53,3.69.64,1.45,1.29,2.94,3.38,1.72.65-.38,1.17.1,1.41.71,1.62,4.07,5.91,6.36,7.14,10.69l5.13,10.16,4,7.95c-.44,6.73-3.14,13-4.07,19.62l-2.84,1.32c-.58-3.06-3.73-3.5-5.52-5.33s-3.55-3.87-5.44-5.69c-1.53-1.47-3.65-2.39-5-4-1.56-1.88-3.64-3.09-5.09-5.25a27.8,27.8,0,0,0-8.68-8.34c-.22-.13-.54-.23-.62-.43a11.42,11.42,0,0,0-4.47-5.1c-3.17-2.17-4.88-5.83-8.11-7.91C68.14,877.65,66.72,875.49,64.77,873.89Z" transform="translate(-16.76 -15.15)" style="fill:#9a6028"/><path d="M61.9,836.76c-1.22-.93-2.31-2.23-4.12-1.33-.73.36-1.45.58-2.05-.24l-.87-1.81c-.57-1.12-.73-2.52-2.13-3-1.69-1.22-4.09-1.52-4.93-3.83-.68-1-.52-3.08-2.73-2.19-2.64-.91-4-3.37-6-5.07-4.88-4.21-9.46-8.77-14.73-12.55a3.31,3.31,0,0,1-.82-4.79c1.9-3.08,1.51-6.55,1.58-9.82a69.16,69.16,0,0,1,.79-7,38.41,38.41,0,0,0,.45-8.5,9.61,9.61,0,0,1,.61-2.75c.26-1.24,1.25-2.34.67-3.72,2.37-1.08,1-2.44.3-3.76-.13-2.24-.61-4.52.24-6.72A9.65,9.65,0,0,0,29,754c1.53-.17,2,.92,2.6,1.87s.53,3.09,2.75,2.18c2.72,1.59,3.68,4.87,6.48,6.54,1.46.86,2.54,2.65,3.77,4,2.61,2.84,5.24,5.7,8.09,8.25,2.23,2,3.31,5.08,6.31,6.32.58.24.88,1.25,1.23,1.94,4.14,8.2,8.23,16.42,12.42,24.59a7.8,7.8,0,0,1,.67,5.76,29.25,29.25,0,0,0-1,7.92c0,3.25-1.77,6.2-1,9.57.6,2.7-2.42,4.7-5.43,3.88C64.52,836.38,63.23,835.92,61.9,836.76Z" transform="translate(-16.76 -15.15)" style="fill:#9a6028"/><path d="M257.4,794.17c3-.47,3.59-4,6.2-4.93,2.79-1.14,5.43-2.45,6.49-5.59l1.86-1c1.33.39,2.21-.64,3.25-1.1s1.75-.72,2.27.52c-.86,3.62-1.6,7.3-4.54,10-1.24,1.13-1.58,2.78-2.26,4.18a42.27,42.27,0,0,1-6.5,9.78,3,3,0,0,0-.69,1.08c-1.27,4.39-4.13,7.82-6.79,11.4a19,19,0,0,0-3.39,6.08c-.58,2.39-2.26,3.79-3.38,5.5a43.19,43.19,0,0,0-2.43,4.6c-1.26.73-4-.35-3.35,2.72l-4,2.19c-.94.78-3.27.43-2.24,2.78l.12.08-2.89,1.36c-.86.79-3.07.49-2.18,2.7l.1.1-5.58,2.81c-.81.82-3.11.46-2.15,2.69l-2.58,1.61-2.84,1.32c-1.08.63-2.82.73-2.22,2.73l-1.4.78-4.06,2c-3-1.88-6.45-2.06-9.89-2.09L201,855.88c.71-3.12,2.78-5.79,3-9.08l.81-.59a2.56,2.56,0,0,0,1.13-3.45c1.89-2.16,2.06-5.07,3.26-7.53,1.55-.16,3.45.1,2.85-2.5h0c1.38-.72,2.73-1.5,4.14-2.14a1.34,1.34,0,0,0,.78-2.05l.84-.52,3.27-1.61c.88-.79,3.17-.49,2.17-2.76l-.11-.07L226,822.2c1.1-.6,2.45-1,2.13-2.73l1.23-.86c1-.72,3.16-.42,2.26-2.7h0c1.75-.91,3.49-1.86,5.26-2.74,1-.49,1.56-1.06.93-2.2h0l2.84-1.39c1.21-.66,2.87-.94,2.56-2.93L244,806l2.78-1.36c1.27-.64,3-.9,2.67-2.95,3.46-.87,4.51-4.92,7.89-6C258.09,795.52,257.53,794.71,257.4,794.17Z" transform="translate(-16.76 -15.15)" style="fill:#a3672a"/><path d="M219.91,855.06l2.84-1.32a2.55,2.55,0,0,0,.2.48c.7.93-1.52,2.12-.3,2.29s2.89,1.39,4.29.18c1.16-1,2.21-.06,3.32,0a36.63,36.63,0,0,0,9-.95,4,4,0,0,1,1.48.26c-.08.28-.16.56-.23.83l-7.38,3.85c-1.42.71-2.83,1.47-4.28,2.12-1,.47-1.08,1.14-.59,2l-1.41.76c-1,.9-3.5.45-2.65,3L219.7,871c-.91,1-3.57.36-2.63,3l-2.27,1.2c-.92,1-3.53.45-2.67,3l-1.3.7c-1.12.57-2.22,1.19-3.36,1.71s-2.28,1.14-2,2.74c-2.44.29-2.2,3.41-4.3,4.07-1.09.59-2.83.69-2.07,2.69-1.71.21-.62,2.51-2.14,2.86-1,.72-3.11.53-2.11,2.76-1.63.24-.58,2.47-2.08,2.81-.93.76-3.08.6-2.1,2.79-1.55.77-1.29,3.44-3.59,3.41a2.4,2.4,0,0,0-.21-.46c-.73-.92,1.5-1.68.28-2.36-1-.58-1.95.77-3,1-1.5.32-2.23,2.14-4,1.94-.34-1.13.2-1.75,1.17-2.25,2.71-1.4,5.77-2.37,7.17-5.49.93-.76,3.11-.55,2.15-2.77l1.31-.77c2.12-.8,2.37-3.55,4.49-4.39,0,0-.22-.75-.33-1.15,1.2-2.23,3.88-3.31,4.64-5.9,1.12-.64,2.71-.75,2.84-2.51a6.28,6.28,0,0,1,3.64-4.29c1.06-.62,2.32-1.1,2.09-2.71a20.17,20.17,0,0,0,2.11-6.31c1-.37,1.33-.92.78-2s-1.08-1.52-2.16-.79c-3.35-.28-6.51-1.44-9.76-2.14-.86-1.73-2.1-.87-2.94-.19-1,.85-3.66.44-2.78,3.06l-4.09,2.08c-1.75.15-2.75.89-2.2,2.83l-5.39,2.91c-1,.73-3.11.46-2.22,2.71-3.61,1.24-5.16,5.38-8.94,6.39l-1.54.57c-.2-.56-.52-1.07.08-1.64,3.27-3.2,4.5-6.86,2.27-11.16-.7-1.34.17-2.63-.2-4-.88-3.42-2.34-6.65-3.18-10s-.39-7.16.41-10.71a1.26,1.26,0,0,1,.61-.76c4-1.87,7.57-4.54,12.75-3.74,3,.47,6.11,1.36,9.32,1.4,2.39,0,4.7,2.07,7.16,2.43s3.73,1.2,4.53,3.29c-.2,3.29-2.27,6-3,9.08-1,.35-1.28.9-.77,1.91s1.05,1.5,2.11.74c3.44,0,6.85.21,9.89,2.09.39,1.24,1.2,1.35,2.11.65s3-.57,1.95-2.7l1.4-.78C218.67,857.07,220.78,857.27,219.91,855.06Z" transform="translate(-16.76 -15.15)" style="fill:#442a10"/><path d="M285.1,814.54a9.64,9.64,0,0,0-3.64,5.9c-.75,3.38-3.37,5.85-4.24,9.11-.71,2.69-2.66,4.67-3.62,7.18l-2.44,1.14c-1.46.74-2.9,1.52-4.38,2.22-1,.46-1.62,1-1,2.16l.11.08-8.3,4.2c-1.26,1.09-4,.6-3.64,3.42-1.3.34-1.48,1.7-2.27,2.5-3.13,0-6.25,0-9.38.12-.57,0-1,.08-1.24-.53s.09-1,.36-1.42c2.63-4.51,5.74-8.71,8.07-13.46a27.81,27.81,0,0,1,4.77-7,6.08,6.08,0,0,0,1.47-2.63c1.22-4,4.14-6.94,6.48-10.22,1.33-1.86,1.73-4.08,3.1-6,1.64-2.28,3-4.77,4.82-7a9.23,9.23,0,0,0,1.52-4.08,2.82,2.82,0,0,1,1.69-2l2.82-1.4c.85-.8,3.08-.5,2.16-2.71l-.1-.09,5.51-2.81c.88-.79,3.17-.42,2.23-2.71,3.4-1.55,5.08-5.51,8.95-6.41.9-.52,1.66-.54,2.08.6-1.1,2.34-2.6,4.78-3.08,7.09-.83,4-5.24,6.62-4.13,11.39.51,2.21-1.8,3.81-2.58,5.81a1.8,1.8,0,0,0,.16,1.66c-1.53,1.1-2.43,2.46-1.81,4.44A.9.9,0,0,0,285.1,814.54Z" transform="translate(-16.76 -15.15)" style="fill:#a3672a"/><path d="M188.53,897.06c-1.4,3.12-4.46,4.09-7.17,5.49-1,.5-1.51,1.12-1.17,2.25l-1.33.75-5.54,2.77c-1.12.79-3.25.66-2.69,3l-5,2.66c-.92.78-3.21.44-2.24,2.76l.12.07-5.82,2.87c-.59-2.43.71-4.49,1.76-6.35,1.33-2.35,1.9-5,2.65-7.4a93.08,93.08,0,0,0,2.46-9.11c.86-4.19,3.29-8,3.32-12.37,0-.26.64-.51,1-.76,1.45-.27,3.5.17,2.88-2.49,3.78-1,5.33-5.15,8.94-6.39.87-.79,3.16-.43,2.22-2.71l5.39-2.91c.94-.78,3.32-.45,2.2-2.83l4.09-2.08,5.72-2.87c3.25.7,6.41,1.86,9.76,2.14l1.38,2.75a20,20,0,0,1-2.11,6.3c-.83.81-3.08.52-2.09,2.72a6.28,6.28,0,0,0-3.64,4.29c-1.44.28-3.51-.14-2.84,2.51-.76,2.59-3.44,3.67-4.64,5.9-2.4,1.09-4.18,2.64-4.16,5.54l-1.31.77C189.61,894.94,187.86,895.06,188.53,897.06Z" transform="translate(-16.76 -15.15)" style="fill:#a3672a"/><path d="M196.94,892.91c1.52-.35.43-2.65,2.13-2.86.81-.81,3.05-.52,2.08-2.69,2.1-.66,1.86-3.78,4.3-4.07,1.38-.69,2.75-1.4,4.14-2.07,1-.49,1.77-1.09,1.24-2.38l1.3-.7c.93-1,3.61-.37,2.67-3l2.27-1.2c.88-1,3.52-.4,2.63-3l4.53-2.42c.91-1,3.58-.39,2.65-3l1.41-.76c1.38-.7,2.74-1.44,4.14-2.1,1-.45,1.29-1.06.73-2l7.38-3.85c1.91,1.37,5.27,1,7.23-.71a2.64,2.64,0,0,0,2.09-.49h0a8,8,0,0,1-1.56,9.58,4.63,4.63,0,0,0-.61,1.35c-1,1.86-3.21,2-4.69,3.14-1.17.6-2.77.69-2.93,2.49l-.8,1.67a20.2,20.2,0,0,1-3.58,1.25c-1,.14-2,.76-1.2,2.14-3.23,1.25-4.55,5-7.92,6.06-1.13,1-3.85.37-3.2,3.16l-1.25.78c-.93.76-3.11.5-2.21,2.73-1,.75-2.46.77-3,2.08-1.4.57-3.87,0-3.18,2.85h0c-1.44.72-2.87,1.47-4.33,2.14a1.26,1.26,0,0,0-.66,2c-2.25.62-3.41,2.52-4.82,4.13-1.71-1.42-2.49-1-3.7,1.86-2.12,1.46-3.26,3.93-5.49,5.27-1.94.22-3.57,1.23-5.28,2-1.08.52-1.46,1.16-.75,2.23l-.25.65c-1.45.48-3.87-.25-3.36,2.68l-1.28.85c-1.19,0-2.39,2.47-3.57,0a15.11,15.11,0,0,0,1.67-6.94,1.3,1.3,0,0,1,.57-1.27c2.34-.88,3.92-2.27,3.38-5.07l1.23-.81c2.3,0,2-2.64,3.59-3.41.87-.8,3.19-.52,2.1-2.79,1.5-.34.45-2.57,2.08-2.81C195.68,894.86,198,895.16,196.94,892.91Z" transform="translate(-16.76 -15.15)" style="fill:#a3672a"/><path d="M88.79,783.54c-.41-.09-1,0-1.2-.29-2.35-3.66-5.82-6.34-8.82-9.32C77.1,772.27,76,769.45,72.7,769c-2.26-.29-3.39-3.32-5.4-4.73-.44-.31-.42-1.23-1.2-1.17-1,.08-.67,1-1,1.61-.88,1.76-.77,3.68-.93,5.57a80.77,80.77,0,0,1-1.44,11.48,3.74,3.74,0,0,0,.72,2.67c2.11,4.27,4.25,8.52,6.37,12.78-1.14.6-1.69,0-2.19-1-1.88-3.8-4.64-7.41-5.49-11.42-.71-3.32-3-6.41-2.13-10.08a1.59,1.59,0,0,0-.28-1c-1.81-3.17-2-6.62-1.85-10.14a3.11,3.11,0,0,0-.5-1.45c-1.68-3.26-1-6.76-.75-10.13.15-1.78-.21-3.51-.21-5.23,0-5.18.83-7.47,5.29-9.71,1.62-.82,3.29-1.56,4.87-2.46,3.54-2,7.36-2.21,11.33-2.46,4.17-.28,8.24.84,12.29.33,1-.13,2.93-.51,3.85-1.85,1.56-1,3.43-.34,4.92-.24a81.34,81.34,0,0,0,9.51.6c.37,0,.76.34,1.14.53.5.75,0,1.51,0,2.27l-1.41.82h0c-1.15-2.14-2.32-.3-3.48,0v0c-.19-.29-.33-.79-.57-.84a19.8,19.8,0,0,0-7.51-.14c-1.16.21-3,.2-3.69,1.86-.9.74-3.17.36-2.18,2.66h0c-.9.44-1.79.9-2.7,1.33s-1.57,1-.92,2.12l-2.6,1.49-2.8,1.45c-.86.79-3.2.41-2.14,2.72h0l-4.1,2.24c-1,.67-3.12.43-2.16,2.68h0l-2.78,1.45c-.88.78-3.13.47-2.16,2.73l-1.21.79c-1,.29-1.34.86-.86,1.9s1.09,1.49,2.14.72A3.29,3.29,0,0,1,70.8,761c2.27,3.13,5.41,5.36,8.17,8,3,2.93,6.86,4.87,9.74,8a8.9,8.9,0,0,1,1.07,2c-1.65.55-2.45,1.41-1.23,3.11A1.33,1.33,0,0,1,88.79,783.54Z" transform="translate(-16.76 -15.15)" style="fill:#442a10"/><path d="M209.44,734.9c3.55.2,7.13-.54,10.66.37-.61,1.19-.16,2.23.43,3.26-3.16-.45-6.38.44-9.53-.39-2.52-.6-4.25.74-5.87,2.37-1.32.66-3.88,0-3.18,2.86h0l-2.78,1.45c-.9.76-3.16.48-2.11,2.74l-1.29.77c-1,.7-3.24.35-2.28,2.7v0c-1,.5-2,1-2.95,1.53-1.23.77-3.06,1-2.86,3.13h0l-3.13,1.75c-.89.77-3.11.52-2.09,2.74l-1.29.78-2.83,1.36-.24-.09a41.49,41.49,0,0,0,.25-6.2,16.15,16.15,0,0,0-2.93-9.64,8,8,0,0,1-1.12-7.12c.23-.76.3-1.52,1.18-1.83,2.59-.93,5.23-1.91,7.73.1.66.54,1.26.77,1.8.27,1.57-1.45,3.46-.57,4.79-.18,3.85,1.13,7.75.44,11.51,1C205.27,739.18,207.17,737.05,209.44,734.9Z" transform="translate(-16.76 -15.15)" style="fill:#442a10"/><path d="M111,882c-1.23-4.33-5.52-6.62-7.14-10.69-.24-.61-.76-1.09-1.41-.71-2.09,1.22-2.74-.27-3.38-1.72-.74-1.67-3.49-1.38-3.53-3.69.08,0,.19-.05.24-.11,1-1,2.58,1.22,2.54.22-.06-1.66.86-3.31-.09-5.06-2.31-4.25-4.4-8.63-6.58-12.95-.54-1.08-1.39-2.25-.42-3.35s2.44-.81,3.33-.54c3.59,1.12,7.28,1,10.87,1.52,1.47.23,3.55-1.67,4.66.71-.52.56-2,.5-1,2,.7,1,0,2.51-.65,3.11-1.75,1.62-1.26,3.94-2.07,5.83a19.17,19.17,0,0,0-1.28,5.63c-.21,2.42,1.47,4.12,2.4,6.09,2,4.3,4.23,8.52,6.36,12.78A4.4,4.4,0,0,0,111,882Z" transform="translate(-16.76 -15.15)" style="fill:#442a10"/><path d="M111.59,842.62l8,1.91c.59.14.77.64,1,1.08-1.66.53-.86,1.89-1,2.94L113,846.49c-.69-.21-1.27-.52-1.42-1.31S110.23,843.47,111.59,842.62Z" transform="translate(-16.76 -15.15)" style="fill:#442a10"/><path d="M257.4,794.17c.13.54.69,1.35-.06,1.58-3.38,1-4.43,5.09-7.89,6l-.56.11c-.16-.48-.57-1.16-.06-1.43C252,798.73,253.56,794.88,257.4,794.17Z" transform="translate(-16.76 -15.15)" style="fill:#442a10"/><path d="M277.47,782.11c-.52-1.24-1.3-1-2.27-.52s-1.92,1.49-3.25,1.1c.06-.37.11-.75.17-1.12a27.87,27.87,0,0,0,2.95-1.6c.8-.56,2.47-.36,2-2.11,1.2-.75,2.22.12,1.93.94C278.64,779.89,279.06,781.55,277.47,782.11Z" transform="translate(-16.76 -15.15)" style="fill:#9a6028"/><path d="M270.09,783.65c-1.06,3.14-3.7,4.45-6.49,5.59a.8.8,0,0,1-.11-.23C263.38,787.41,268.51,783.25,270.09,783.65Z" transform="translate(-16.76 -15.15)" style="fill:#442a10"/><path d="M131.08,658.43c.24.64.63,1.39-.27,1.77-2.26,1-4.15,2.83-6.8,2.87,0-1.73,1.63-1.83,2.68-2.44C128.11,659.82,129.61,659.16,131.08,658.43Z" transform="translate(-16.76 -15.15)" style="fill:#a3672a"/><path d="M157.72,919.64l5.82-2.87c.26.66.59,1.33-.28,1.8-1.68.89-3.37,1.78-5.07,2.65-.5.26-1,.31-1.31-.31C156.48,920.07,157.17,919.89,157.72,919.64Z" transform="translate(-16.76 -15.15)" style="fill:#442a10"/><path d="M75.9,698.4,69.16,702c-.74-1-.36-1.67.69-2.19,1.85-.89,3.66-1.84,5.48-2.77Z" transform="translate(-16.76 -15.15)" style="fill:#442a10"/><path d="M120.13,900.14l-4-7.95C119,893.09,121,897,120.13,900.14Z" transform="translate(-16.76 -15.15)" style="fill:#442a10"/><path d="M247.77,856.11c-2,1.74-5.32,2.08-7.23.71.07-.27.15-.55.23-.83l6.74-.27A3.77,3.77,0,0,0,247.77,856.11Z" transform="translate(-16.76 -15.15)" style="fill:#9a6028"/><path d="M123.2,663.6c.43,1,1,2.15-.57,2.45s-2.77,3.18-4.81.87Z" transform="translate(-16.76 -15.15)" style="fill:#a3672a"/><path d="M237.77,811c.63,1.14,0,1.71-.93,2.2-1.77.88-3.51,1.83-5.26,2.74C232.57,812.93,235.43,812.27,237.77,811Z" transform="translate(-16.76 -15.15)" style="fill:#442a10"/><path d="M185.83,905.49c.54,2.8-1,4.19-3.38,5.07C182.67,908.27,183.36,906.29,185.83,905.49Z" transform="translate(-16.76 -15.15)" style="fill:#442a10"/><path d="M277.11,777.86c.43,1.75-1.24,1.55-2,2.11a27.87,27.87,0,0,1-2.95,1.6c-.67-.92-1.24-1.75.52-2.15C274.18,779.07,275.27,777.38,277.11,777.86Z" transform="translate(-16.76 -15.15)" style="fill:#442a10"/><path d="M173.32,908.32l5.54-2.77a1.27,1.27,0,0,1-.67,2c-1.46.67-2.87,1.42-4.3,2.13Z" transform="translate(-16.76 -15.15)" style="fill:#442a10"/><path d="M165.66,913.94l5-2.66.57-.12a1.26,1.26,0,0,1-.67,2c-1.46.67-2.88,1.42-4.31,2.14Z" transform="translate(-16.76 -15.15)" style="fill:#442a10"/><path d="M283.76,791.25l-5.51,2.81c-.61-1.08-.17-1.69.85-2.16,1.38-.63,2.71-1.36,4-2C283.36,790.32,283.56,790.79,283.76,791.25Z" transform="translate(-16.76 -15.15)" style="fill:#442a10"/><path d="M240.15,839.61l4-2.19,1.49-.6a1.25,1.25,0,0,1-.66,2c-1.44.68-2.85,1.43-4.28,2.16Z" transform="translate(-16.76 -15.15)" style="fill:#442a10"/><path d="M227.48,849.44l5.58-2.81a1.26,1.26,0,0,1-.65,2c-1.46.67-2.89,1.42-4.33,2.14Z" transform="translate(-16.76 -15.15)" style="fill:#442a10"/><path d="M155.22,719.86l3.9-2.24,1.54-.62a1.34,1.34,0,0,1-.75,2.06c-1.4.66-2.76,1.42-4.13,2.13C155.59,720.75,155.41,720.3,155.22,719.86Z" transform="translate(-16.76 -15.15)" style="fill:#442a10"/><path d="M217,828.54a1.34,1.34,0,0,1-.78,2.05c-1.41.64-2.76,1.42-4.14,2.14-.48-.89-.38-1.56.64-2C214.12,830,215.53,829.26,217,828.54Z" transform="translate(-16.76 -15.15)" style="fill:#442a10"/><path d="M75.9,698.4l-.57-1.35,4-2.54c.75,1.27.57,2.17-.92,2.71A25.89,25.89,0,0,0,75.9,698.4Z" transform="translate(-16.76 -15.15)" style="fill:#a3672a"/><path d="M245.42,744.19c-.95.23-2,1.6-2.75-.08-.3-.69-2.31-1.5-.28-2.52C243.28,742.6,245,742.65,245.42,744.19Z" transform="translate(-16.76 -15.15)" style="fill:#a3672a"/><path d="M275.32,774.49q-1-2.09-2-4.17c1.9-.93,2,.83,2.59,1.78S276.74,774,275.32,774.49Z" transform="translate(-16.76 -15.15)" style="fill:#442a10"/><path d="M170.07,794.49c.69,1.36,1.39,2.72,2.08,4.09-1.75,1.13-2-.46-2.56-1.44S168.31,795.08,170.07,794.49Z" transform="translate(-16.76 -15.15)" style="fill:#442a10"/><path d="M140.43,732.33l4.15-2c1.1,2.21-1.12,2-2,2.74S140.8,733.57,140.43,732.33Z" transform="translate(-16.76 -15.15)" style="fill:#442a10"/><path d="M169.46,686.22c.66,1.55,2.35,2.93.84,4.87-.5-1-1-1.93-1.49-2.88S168.46,686.63,169.46,686.22Z" transform="translate(-16.76 -15.15)" style="fill:#442a10"/><path d="M87.2,689.35c.46,2.81-2.28,2.38-3.52,3.46L83,691.52Z" transform="translate(-16.76 -15.15)" style="fill:#a3672a"/><path d="M248.93,747.66c-.88.16-1.81,1.46-2.63.15-.49-.78-1.74-1.69-.32-2.78Z" transform="translate(-16.76 -15.15)" style="fill:#a3672a"/><path d="M116.1,668.24c-.43,2.6-3,2.38-4.57,3.49C112.45,669.77,113.65,668.2,116.1,668.24Z" transform="translate(-16.76 -15.15)" style="fill:#442a10"/><path d="M82.79,816.91c.9,1,2.52,1.14,3,2.6-1,.49-2,.83-2.79-.22C82.44,818.58,81.55,817.81,82.79,816.91Z" transform="translate(-16.76 -15.15)" style="fill:#442a10"/><path d="M243.12,734.73l1.41-.6c.63,1.06.27,1.73-.82,2.11s-2,1.58-2.92-.16Z" transform="translate(-16.76 -15.15)" style="fill:#442a10"/><path d="M220.77,820.12c.27-1.85,2-1.54,3.12-2.09.14,1.85-.79,2.68-2.83,2.52Z" transform="translate(-16.76 -15.15)" style="fill:#442a10"/><path d="M140.15,653.12a4.72,4.72,0,0,1-4.34,2.2C136.53,653.16,138,652.51,140.15,653.12Z" transform="translate(-16.76 -15.15)" style="fill:#9a6028"/><path d="M162.35,793.17c1.2-.72,2.34-1.57,3.85-1.48.26,2.47-2.28,1.68-3.22,2.76Z" transform="translate(-16.76 -15.15)" style="fill:#9a6028"/><path d="M84.5,719.82c1.48.71,1.66,2.27,2.32,3.51C84.49,722.89,83.68,721.67,84.5,719.82Z" transform="translate(-16.76 -15.15)" style="fill:#9a6028"/><path d="M164.07,713.45c-.69-2.91,1.72-2.31,3.17-2.79a.94.94,0,0,1,.26.44C166.82,712.56,165.3,712.79,164.07,713.45Z" transform="translate(-16.76 -15.15)" style="fill:#a3672a"/><path d="M209.16,830.58c-.67-3,1.84-2.22,3.24-2.76C212.41,830,210.29,829.71,209.16,830.58Z" transform="translate(-16.76 -15.15)" style="fill:#9a6028"/><path d="M154.08,666.08c-2,.21-2.89-1-2.15-3.05C153.36,663.55,153.46,665,154.08,666.08Z" transform="translate(-16.76 -15.15)" style="fill:#9a6028"/><path d="M146.53,865.69c-.72.43-1.44.68-1.87-.32-.36-.82-1.55-1.6-.23-2.58C145.77,863.29,145.81,864.74,146.53,865.69Z" transform="translate(-16.76 -15.15)" style="fill:#442a10"/><path d="M249.56,796.22c-.51-2.72,1.24-2.54,3-2.35C252.31,795.61,250.63,795.52,249.56,796.22Z" transform="translate(-16.76 -15.15)" style="fill:#9a6028"/><path d="M258,788.56a5.34,5.34,0,0,1,3.52-3.49l.57,1.34Q260.05,787.49,258,788.56Z" transform="translate(-16.76 -15.15)" style="fill:#a3672a"/><path d="M271.25,769.52c-.72.39-1.48.77-1.92-.28-.36-.83-1.56-1.66-.21-2.64C270.52,767.07,270.47,768.6,271.25,769.52Z" transform="translate(-16.76 -15.15)" style="fill:#a3672a"/><path d="M205.65,828.38c1.48.41,1.37,2,2.24,2.91-.61.34-1.37.84-1.76,0S204.24,829.58,205.65,828.38Z" transform="translate(-16.76 -15.15)" style="fill:#442a10"/><path d="M109.27,802.25c-.72.44-1.45.71-1.87-.3-.34-.81-1.59-1.59-.25-2.58C108.52,799.84,108.53,801.31,109.27,802.25Z" transform="translate(-16.76 -15.15)" style="fill:#442a10"/><path d="M93.15,787.7c-.73.37-1.47.65-1.89-.37-.34-.83-1.55-1.64-.16-2.58C92.38,785.32,92.5,786.69,93.15,787.7Z" transform="translate(-16.76 -15.15)" style="fill:#442a10"/><path d="M144.66,740.73c-.73.47-1.5.73-1.89-.31-.31-.82-1.71-1.58-.31-2.62C143.84,738.29,143.94,739.75,144.66,740.73Z" transform="translate(-16.76 -15.15)" style="fill:#9a6028"/><path d="M221.07,826.41,217.8,828c-.82-2.57,1.72-2,2.72-2.95C220.71,825.52,220.89,826,221.07,826.41Z" transform="translate(-16.76 -15.15)" style="fill:#442a10"/><path d="M245.64,836.82l-1.49.6c-.65-3.07,2.08-2,3.34-2.72C247.53,836,246.48,836.31,245.64,836.82Z" transform="translate(-16.76 -15.15)" style="fill:#9a6028"/><path d="M88.62,724.74c1.41.47,1.39,2,2.21,2.94-.73.45-1.51.76-1.92-.29C88.59,726.56,87.23,725.78,88.62,724.74Z" transform="translate(-16.76 -15.15)" style="fill:#442a10"/><path d="M164.11,678.53c-.4-1.21-2.05-2.16-.8-3.72C164.41,675.87,166.06,676.81,164.11,678.53Z" transform="translate(-16.76 -15.15)" style="fill:#442a10"/><path d="M102,679.37c-.34,1.67-2,1.54-3,2.2C98.78,679.6,99.7,679,102,679.37Z" transform="translate(-16.76 -15.15)" style="fill:#9a6028"/><path d="M150.66,662.46c-.72.45-1.51.78-1.91-.28-.31-.82-1.7-1.61-.29-2.64C149.85,660,149.89,661.51,150.66,662.46Z" transform="translate(-16.76 -15.15)" style="fill:#9a6028"/><path d="M28,766.36c.68,1.32,2.07,2.68-.3,3.76C27.66,768.86,26,767.47,28,766.36Z" transform="translate(-16.76 -15.15)" style="fill:#442a10"/><path d="M176.81,766.42c-1.06.69-2.06,1.54-3.47,1.25-.23-2,2-1.64,2.72-2.73a1,1,0,0,0,.12.23Z" transform="translate(-16.76 -15.15)" style="fill:#9a6028"/><path d="M253,726.44c.41-1.44,1.92-.76,2.74-1.42,1,2.35-1.29,2-2.22,2.74Z" transform="translate(-16.76 -15.15)" style="fill:#442a10"/><path d="M173,675.64c-1.08.67-2.1,1.48-3.5,1.23-.12-.39-.31-.78,0-1.17l2.86-1.34C172.56,674.79,172.77,675.21,173,675.64Z" transform="translate(-16.76 -15.15)" style="fill:#9a6028"/><path d="M243.12,734.73l-2.33,1.35a1.9,1.9,0,0,1-1.67-.94C240.44,734.87,241.56,732.63,243.12,734.73Z" transform="translate(-16.76 -15.15)" style="fill:#a3672a"/><path d="M167.5,711.1a.94.94,0,0,0-.26-.44c.58-1.43,2-1.47,3.16-2.06C171,711.22,169,710.91,167.5,711.1Z" transform="translate(-16.76 -15.15)" style="fill:#442a10"/><path d="M52.73,830.33c1.4.53,1.56,1.93,2.13,3C52.63,833.18,52,832.31,52.73,830.33Z" transform="translate(-16.76 -15.15)" style="fill:#442a10"/><path d="M133.35,816.42l3.25-1.53c.18.44.35.88.52,1.32C135.88,816.58,134.73,818.56,133.35,816.42Z" transform="translate(-16.76 -15.15)" style="fill:#9a6028"/><path d="M214.75,825.49c-.1-2.1,2-1.65,2.94-2.48C218.34,825.77,216.19,825.21,214.75,825.49Z" transform="translate(-16.76 -15.15)" style="fill:#442a10"/><path d="M129.92,848l3.19-1.67c.59.84.65,1.52-.41,2.07S130.66,849.38,129.92,848Z" transform="translate(-16.76 -15.15)" style="fill:#442a10"/><path d="M171.2,911.16l-.57.12c-.56-2.3,1.57-2.17,2.69-3l.57,1.38Z" transform="translate(-16.76 -15.15)" style="fill:#9a6028"/><path d="M113.22,921.08l2.84-1.32c1,1.52-.48,2.1-1.29,2.56S113.5,921.82,113.22,921.08Z" transform="translate(-16.76 -15.15)" style="fill:#442a10"/><path d="M220.77,820.12l.29.43c-.58,1.33-1.82,1.71-3,2.11-.28-.6-1.14-1.26.15-1.7C219,820.66,219.91,820.4,220.77,820.12Z" transform="translate(-16.76 -15.15)" style="fill:#a3672a"/><path d="M205.93,842.76a2.56,2.56,0,0,1-1.13,3.45C203.63,844.56,204,843.41,205.93,842.76Z" transform="translate(-16.76 -15.15)" style="fill:#442a10"/><path d="M83,691.52l.64,1.29c-1.12.55-2.13,1.44-3.53,1.17C80.32,692.23,81.89,692.12,83,691.52Z" transform="translate(-16.76 -15.15)" style="fill:#9a6028"/><path d="M120.9,812.88c-1.75-.14-1.93-1.69-2.53-2.85C121,809.41,120.72,811.34,120.9,812.88Z" transform="translate(-16.76 -15.15)" style="fill:#442a10"/><path d="M243.18,806.64c.31,2-1.35,2.27-2.56,2.93l-.54-1.32Z" transform="translate(-16.76 -15.15)" style="fill:#9a6028"/><path d="M84.05,854.19c-1.82-.05-1.92-1.66-2.54-2.8C83.78,851,84,852.5,84.05,854.19Z" transform="translate(-16.76 -15.15)" style="fill:#442a10"/><path d="M171.77,881.16c.62,2.66-1.43,2.22-2.88,2.49-.07-1,.58-1.5,1.35-1.92Z" transform="translate(-16.76 -15.15)" style="fill:#9a6028"/><path d="M248.89,801.82l.56-.11c.29,2-1.4,2.31-2.67,2.95l-.57-1.38Z" transform="translate(-16.76 -15.15)" style="fill:#9a6028"/><path d="M212,832.73c.6,2.6-1.3,2.34-2.85,2.5C209.33,833.47,211,833.4,212,832.73Z" transform="translate(-16.76 -15.15)" style="fill:#442a10"/><path d="M246.71,731.36l2.74-1.39c1.05,2.34-1.33,1.93-2.19,2.72Z" transform="translate(-16.76 -15.15)" style="fill:#442a10"/><path d="M246.71,731.36l.55,1.33-2.81,1.4C243.39,731.68,245.83,732.17,246.71,731.36Z" transform="translate(-16.76 -15.15)" style="fill:#9a6028"/><path d="M135.52,909.82c2.21-.92,2,1.21,2.77,2.17C136,913,136.25,910.79,135.52,909.82Z" transform="translate(-16.76 -15.15)" style="fill:#442a10"/><path d="M132,906.39c2.23-.89,2,1.2,2.72,2.21C132.49,909.49,132.74,907.34,132,906.39Z" transform="translate(-16.76 -15.15)" style="fill:#442a10"/><path d="M253,726.44l.52,1.32-2.79,1.37C249.72,726.79,252,727.19,253,726.44Z" transform="translate(-16.76 -15.15)" style="fill:#9a6028"/><path d="M257.86,722.24l2.74-1.39c1,2.37-1.36,1.92-2.22,2.72Z" transform="translate(-16.76 -15.15)" style="fill:#442a10"/><path d="M257.86,722.24l.52,1.33L255.59,725C254.56,722.57,256.93,723,257.86,722.24Z" transform="translate(-16.76 -15.15)" style="fill:#a3672a"/><path d="M176.06,764.94c-1-2.2,1.39-1.77,2.06-2.68l.24.09c.19.45.38.89.56,1.34h0l-2.75,1.47A1,1,0,0,1,176.06,764.94Z" transform="translate(-16.76 -15.15)" style="fill:#442a10"/><path d="M264.05,717.3l2.81-1.36c.95,2.31-1.3,2-2.24,2.7Z" transform="translate(-16.76 -15.15)" style="fill:#442a10"/><path d="M264.05,717.3l.57,1.34L261.83,720C260.89,717.73,263.15,718.07,264.05,717.3Z" transform="translate(-16.76 -15.15)" style="fill:#9a6028"/><path d="M235.14,843.83l2.89-1.36c.95,2.38-1.34,2-2.31,2.69Z" transform="translate(-16.76 -15.15)" style="fill:#442a10"/><path d="M105.76,798.79c-2.31,1.21-2-1.12-2.77-2C105.13,795.77,105,798,105.76,798.79Z" transform="translate(-16.76 -15.15)" style="fill:#442a10"/><path d="M235.14,843.83l.58,1.33L233,846.53C232.07,844.32,234.28,844.62,235.14,843.83Z" transform="translate(-16.76 -15.15)" style="fill:#9a6028"/><path d="M45.07,824.31c2.21-.89,2,1.17,2.73,2.19C45.56,827.43,45.8,825.26,45.07,824.31Z" transform="translate(-16.76 -15.15)" style="fill:#442a10"/><path d="M102.22,795.51c-2.15,1-2-1.23-2.81-2.08C101.73,792.24,101.48,794.55,102.22,795.51Z" transform="translate(-16.76 -15.15)" style="fill:#442a10"/><path d="M240.15,839.61l.55,1.39-2.79,1.39C236.88,840,239.21,840.39,240.15,839.61Z" transform="translate(-16.76 -15.15)" style="fill:#9a6028"/><path d="M149.78,868.84c-2.09.15-2.65-.63-1.84-2.57C149.19,866.67,149.26,867.91,149.78,868.84Z" transform="translate(-16.76 -15.15)" style="fill:#442a10"/><path d="M95.94,789.78c-2.27,1.13-2-1.11-2.78-2.06C95.34,786.72,95.14,788.93,95.94,789.78Z" transform="translate(-16.76 -15.15)" style="fill:#442a10"/><path d="M221.07,826.41c-.18-.45-.36-.89-.55-1.34l2.72-1.42C224.24,825.92,222,825.62,221.07,826.41Z" transform="translate(-16.76 -15.15)" style="fill:#9a6028"/><path d="M278.35,794.15c.92,2.21-1.31,1.91-2.16,2.71-.19-.45-.38-.89-.58-1.34Z" transform="translate(-16.76 -15.15)" style="fill:#9a6028"/><path d="M275.61,795.52c.2.45.39.89.58,1.34l-2.82,1.4C272.37,795.92,274.65,796.25,275.61,795.52Z" transform="translate(-16.76 -15.15)" style="fill:#442a10"/><path d="M226,822.2l-2.84,1.38c-.92-2.3,1.25-2,2.26-2.73Z" transform="translate(-16.76 -15.15)" style="fill:#442a10"/><path d="M283.76,791.25c-.2-.46-.4-.93-.61-1.39h0l.45-.3.86-.45,1.53-.57C286.93,790.83,284.64,790.46,283.76,791.25Z" transform="translate(-16.76 -15.15)" style="fill:#9a6028"/><path d="M144.5,730.25c-1-2.34,1.33-1.94,2.2-2.74l.56,1.34Z" transform="translate(-16.76 -15.15)" style="fill:#9a6028"/><path d="M231.59,815.91c.9,2.28-1.3,2-2.26,2.7C228.36,816.28,230.67,816.68,231.59,815.91Z" transform="translate(-16.76 -15.15)" style="fill:#442a10"/><path d="M150.32,724.05l2.72-1.4c1,2.33-1.29,2-2.19,2.74Z" transform="translate(-16.76 -15.15)" style="fill:#442a10"/><path d="M150.32,724.05l.53,1.34-1.29.76-1.55.6C147.14,724.46,149.32,724.76,150.32,724.05Z" transform="translate(-16.76 -15.15)" style="fill:#a3672a"/><path d="M240.08,808.25l.54,1.32L237.78,811C236.84,808.61,239.06,808.94,240.08,808.25Z" transform="translate(-16.76 -15.15)" style="fill:#442a10"/><path d="M155.22,719.86c.19.44.37.89.56,1.33l-2.82,1.4C151.93,720.2,154.22,720.56,155.22,719.86Z" transform="translate(-16.76 -15.15)" style="fill:#a3672a"/><path d="M161.39,714.91l2.77-1.4c1.07,2.39-1.33,1.94-2.22,2.73Z" transform="translate(-16.76 -15.15)" style="fill:#442a10"/><path d="M161.39,714.91l.55,1.33-1.28.76-1.54.62C158.21,715.31,160.47,715.67,161.39,714.91Z" transform="translate(-16.76 -15.15)" style="fill:#a3672a"/><path d="M173.77,705.06l1.42,2.85c-1.1.65-1.63.1-2.11-.87A1.25,1.25,0,0,1,173.77,705.06Z" transform="translate(-16.76 -15.15)" style="fill:#442a10"/><path d="M226.06,815.26c.42-.25.83-.51,1.24-.77l1.54-.61c.9,2.26-1.33,2-2.24,2.72Z" transform="translate(-16.76 -15.15)" style="fill:#442a10"/><path d="M226.06,815.26l.54,1.34L223.81,818C222.81,815.62,225.12,816,226.06,815.26Z" transform="translate(-16.76 -15.15)" style="fill:#9a6028"/><path d="M108.29,734.65l1.41-.82a1.38,1.38,0,0,1,2.13.7C110.66,735,109.54,736.82,108.29,734.65Z" transform="translate(-16.76 -15.15)" style="fill:#9a6028"/><path d="M246.21,803.28l.57,1.38L244,806C243.07,803.76,245.25,804,246.21,803.28Z" transform="translate(-16.76 -15.15)" style="fill:#442a10"/><path d="M229.61,811.78l2.7-1.4c1,2.31-1.31,1.93-2.18,2.72Z" transform="translate(-16.76 -15.15)" style="fill:#442a10"/><path d="M229.61,811.78l.52,1.32-1.29.78-1.54.61C226.4,812.16,228.64,812.51,229.61,811.78Z" transform="translate(-16.76 -15.15)" style="fill:#a3672a"/><path d="M240.69,802.62l2.73-1.39c1,2.32-1.29,2-2.18,2.74C241.05,803.52,240.87,803.07,240.69,802.62Z" transform="translate(-16.76 -15.15)" style="fill:#442a10"/><path d="M240.69,802.62c.18.45.36.9.55,1.35l-2.81,1.37C237.44,803,239.77,803.4,240.69,802.62Z" transform="translate(-16.76 -15.15)" style="fill:#a3672a"/><path d="M34.33,758c-2.22.91-2-1.21-2.75-2.18C33.85,754.83,33.59,757,34.33,758Z" transform="translate(-16.76 -15.15)" style="fill:#442a10"/><path d="M246.86,797.68l2.78-1.4c1,2.36-1.26,2-2.27,2.71Z" transform="translate(-16.76 -15.15)" style="fill:#442a10"/><path d="M246.86,797.68l.51,1.31-2.7,1.42C243.65,798.1,246,798.47,246.86,797.68Z" transform="translate(-16.76 -15.15)" style="fill:#9a6028"/><path d="M255.22,790l2.8-1.43c1,2.3-1.34,1.89-2.17,2.71Z" transform="translate(-16.76 -15.15)" style="fill:#9a6028"/><path d="M255.22,790l.63,1.28-2.64,1.54C251.88,790.45,254.42,790.84,255.22,790Z" transform="translate(-16.76 -15.15)" style="fill:#a3672a"/><path d="M262.09,786.41l-.57-1.34,2.78-1.4C265.3,786,263.05,785.68,262.09,786.41Z" transform="translate(-16.76 -15.15)" style="fill:#442a10"/><path d="M148,726.75l1.55-.6c.9,2.31-1.34,2-2.29,2.7l-.57-1.34Z" transform="translate(-16.76 -15.15)" style="fill:#442a10"/><path d="M266.44,780.87l2.75-1.39c1,2.3-1.28,2-2.2,2.74C266.81,781.77,266.63,781.32,266.44,780.87Z" transform="translate(-16.76 -15.15)" style="fill:#442a10"/><path d="M266.44,780.87c.19.45.37.9.55,1.35l-2.78,1.39C263.21,781.27,265.49,781.61,266.44,780.87Z" transform="translate(-16.76 -15.15)" style="fill:#a3672a"/><path d="M272.63,775.93l2.69-1.44c1.24,2.46-1.24,2-2.17,2.76Z" transform="translate(-16.76 -15.15)" style="fill:#442a10"/><path d="M272.63,775.93l.52,1.32-2.72,1.4C269.38,776.31,271.77,776.74,272.63,775.93Z" transform="translate(-16.76 -15.15)" style="fill:#9a6028"/><path d="M71.88,707.45c2.2-.79,2,1.25,2.7,2.27C72.29,710.63,72.59,708.44,71.88,707.45Z" transform="translate(-16.76 -15.15)" style="fill:#442a10"/><path d="M227.48,849.44l.6,1.36-2.75,1.33C224.37,849.9,226.67,850.26,227.48,849.44Z" transform="translate(-16.76 -15.15)" style="fill:#9a6028"/><path d="M69.31,703.58c1.21.44,1.32,1.65,1.82,2.6C69,706.39,68.43,705.54,69.31,703.58Z" transform="translate(-16.76 -15.15)" style="fill:#442a10"/><path d="M106.58,838.85c2.34-1.16,2,1.13,2.73,2.1C107.18,841.85,107.4,839.68,106.58,838.85Z" transform="translate(-16.76 -15.15)" style="fill:#442a10"/><path d="M137.12,816.21c-.17-.44-.34-.88-.52-1.32l1.28-.77,1.55-.59C140.3,815.84,138.09,815.49,137.12,816.21Z" transform="translate(-16.76 -15.15)" style="fill:#442a10"/><path d="M142.82,810l2.78-1.41c1.06,2.39-1.29,2-2.24,2.74Z" transform="translate(-16.76 -15.15)" style="fill:#442a10"/><path d="M142.82,810l.54,1.33-2.68,1.4-.62-1.27Z" transform="translate(-16.76 -15.15)" style="fill:#9a6028"/><path d="M140.06,811.41l.62,1.27-1.25.85-1.55.59C137,811.9,139.15,812.17,140.06,811.41Z" transform="translate(-16.76 -15.15)" style="fill:#a3672a"/><path d="M147.74,805.76,149,805l1.56-.59c.86,2.31-1.36,1.94-2.31,2.67Z" transform="translate(-16.76 -15.15)" style="fill:#442a10"/><path d="M147.74,805.76l.53,1.32-2.76,1.4C144.49,806.13,146.82,806.52,147.74,805.76Z" transform="translate(-16.76 -15.15)" style="fill:#9a6028"/><path d="M154,800.83l2.8-1.4c1,2.35-1.27,2-2.24,2.74C154.34,801.72,154.15,801.27,154,800.83Z" transform="translate(-16.76 -15.15)" style="fill:#442a10"/><path d="M154,800.83c.19.44.38.89.56,1.34-.9.46-1.8.92-2.69,1.39l-.64-1.29Z" transform="translate(-16.76 -15.15)" style="fill:#9a6028"/><path d="M151.19,802.27l.64,1.29-1.25.85L149,805C148.08,802.77,150.32,803.06,151.19,802.27Z" transform="translate(-16.76 -15.15)" style="fill:#a3672a"/><path d="M158.91,796.65l1.26-.77,1.55-.6c.91,2.29-1.34,1.94-2.26,2.71C159.28,797.54,159.09,797.09,158.91,796.65Z" transform="translate(-16.76 -15.15)" style="fill:#442a10"/><path d="M158.91,796.65c.18.44.37.89.55,1.34l-2.79,1.39C155.65,797,158,797.4,158.91,796.65Z" transform="translate(-16.76 -15.15)" style="fill:#9a6028"/><path d="M161.72,795.28l-1.55.6c-.92-2.22,1.29-1.94,2.18-2.71l.63,1.28Z" transform="translate(-16.76 -15.15)" style="fill:#a3672a"/><path d="M91.22,825.41c2.14-.9,2,1.25,2.79,2.11C91.66,828.69,91.94,826.4,91.22,825.41Z" transform="translate(-16.76 -15.15)" style="fill:#442a10"/><path d="M165.66,913.94l.56,1.38-2.8,1.38C162.45,914.38,164.74,914.72,165.66,913.94Z" transform="translate(-16.76 -15.15)" style="fill:#9a6028"/><path d="M226,822.2l-.58-1.35,2.71-1.38C228.42,821.18,227.07,821.6,226,822.2Z" transform="translate(-16.76 -15.15)" style="fill:#9a6028"/><path d="M247.77,856.11a3.77,3.77,0,0,1-.26-.39c.74-1.08,1.48-1.91,2.35-.1A2.64,2.64,0,0,1,247.77,856.11Z" transform="translate(-16.76 -15.15)" style="fill:#442a10"/><path d="M283.6,789.56l-.45.3Q283.14,789.35,283.6,789.56Z" transform="translate(-16.76 -15.15)" style="fill:#442a10"/><path d="M297,782.73c-.42-1.14-1.18-1.12-2.08-.6-.09-1,2.12-3.58,3-3.51.49,0,.93.63.76.83C297.93,780.44,298.65,782.22,297,782.73Z" transform="translate(-16.76 -15.15)" style="fill:#9a6028"/><path d="M285.58,813.12c-.62-2,.28-3.34,1.81-4.44C287.88,810.6,287.48,812.17,285.58,813.12Z" transform="translate(-16.76 -15.15)" style="fill:#040202"/><path d="M194.8,657.69c.43,1.27-.42,1.9-1.32,2.39-1.48.8-3,1.51-4.52,2.26-.51-1-.21-1.58.77-2.05C191.45,659.48,193.12,658.56,194.8,657.69Z" transform="translate(-16.76 -15.15)" style="fill:#9a6028"/><path d="M208.82,664.69c-3.22,1.81-3.5-1.46-4.88-2.82l.55-.36C206.53,661.76,207.41,663.58,208.82,664.69Z" transform="translate(-16.76 -15.15)" style="fill:#a3672a"/><path d="M173,675.64c-.21-.43-.42-.85-.62-1.28l2.76-1.44c.41.58,1.8,1.16-.05,1.73A14.72,14.72,0,0,0,173,675.64Z" transform="translate(-16.76 -15.15)" style="fill:#a3672a"/><path d="M177.9,671.49l-2.79,1.42c-1-2.29,1.28-1.92,2.17-2.67C177.49,670.65,177.69,671.07,177.9,671.49Z" transform="translate(-16.76 -15.15)" style="fill:#9a6028"/><path d="M187.67,663.09c1,2.3-1.24,2-2.15,2.72-.22-.43-.43-.87-.64-1.3Z" transform="translate(-16.76 -15.15)" style="fill:#a3672a"/><path d="M184.88,664.51c.21.43.42.87.64,1.3l-2.83,1.45C181.67,665,184,665.32,184.88,664.51Z" transform="translate(-16.76 -15.15)" style="fill:#9a6028"/><path d="M177.9,671.49c-.21-.42-.41-.84-.62-1.25l2.78-1.5C181.08,671,178.73,670.66,177.9,671.49Z" transform="translate(-16.76 -15.15)" style="fill:#a3672a"/><path d="M204.49,661.51l-.55.36a2.77,2.77,0,0,1-.46.22l-.66-.24-1.2-2.34C203.71,658.55,203.58,660.79,204.49,661.51Z" transform="translate(-16.76 -15.15)" style="fill:#9a6028"/><path d="M254,850c-.37-2.82,2.38-2.33,3.64-3.42l.54,1.38-2.66,1.47Z" transform="translate(-16.76 -15.15)" style="fill:#9a6028"/><path d="M258.16,847.91l-.54-1.38,8.3-4.2c.64,1.12.1,1.67-.91,2.15C262.71,845.58,260.44,846.76,258.16,847.91Z" transform="translate(-16.76 -15.15)" style="fill:#442a10"/><path d="M265.81,842.25c-.65-1.15,0-1.7,1-2.16,1.48-.7,2.92-1.48,4.38-2.22l.18,1.58Z" transform="translate(-16.76 -15.15)" style="fill:#9a6028"/><path d="M271.34,839.45l-.18-1.58,2.44-1.14C274.44,839,272.35,838.76,271.34,839.45Z" transform="translate(-16.76 -15.15)" style="fill:#442a10"/><path d="M271.71,848.12H272l-.23,0Z" transform="translate(-16.76 -15.15)" style="fill:#442a10"/><path d="M208.71,899.07a1.26,1.26,0,0,1,.66-2c1.46-.67,2.89-1.42,4.33-2.14.5.94.34,1.64-.71,2.05s-1.36,1-.79,2l-1.33.76C210.46,898.48,209.63,898.63,208.71,899.07Z" transform="translate(-16.76 -15.15)" style="fill:#442a10"/><path d="M234.5,877.24c-.79-1.38.23-2,1.2-2.14a20.2,20.2,0,0,0,3.58-1.25C238.64,876.31,236.11,876.13,234.5,877.24Z" transform="translate(-16.76 -15.15)" style="fill:#9a6028"/><path d="M223.38,886.46c-.65-2.79,2.07-2.17,3.2-3.16C226.94,885.8,224.63,885.59,223.38,886.46Z" transform="translate(-16.76 -15.15)" style="fill:#442a10"/><path d="M213.7,894.9c-.69-2.9,1.78-2.28,3.18-2.85C216.91,894.22,214.81,894,213.7,894.9Z" transform="translate(-16.76 -15.15)" style="fill:#442a10"/><path d="M240.08,872.18c.16-1.8,1.76-1.89,2.93-2.49C243.57,872.32,241.57,872,240.08,872.18Z" transform="translate(-16.76 -15.15)" style="fill:#442a10"/><path d="M219.92,890c-.9-2.23,1.28-2,2.21-2.73C223.05,889.49,220.87,889.24,219.92,890Z" transform="translate(-16.76 -15.15)" style="fill:#442a10"/><path d="M188.67,914.6c-.71-1.07-.33-1.71.75-2.23,1.71-.81,3.34-1.82,5.28-2-.1,1.67-1.61,1.82-2.66,2.43S189.79,914,188.67,914.6Z" transform="translate(-16.76 -15.15)" style="fill:#9a6028"/><path d="M185.06,917.93c-.51-2.93,1.91-2.2,3.36-2.68C188.12,917.17,186.33,917.22,185.06,917.93Z" transform="translate(-16.76 -15.15)" style="fill:#9a6028"/><path d="M200.19,905.06c1.21-2.89,2-3.28,3.7-1.86Z" transform="translate(-16.76 -15.15)" style="fill:#9a6028"/><path d="M187.69,755.72c-.2-2.1,1.63-2.36,2.86-3.13.94-.58,2-1,2.95-1.53.55.88.47,1.55-.56,2C191.18,753.94,189.44,754.84,187.69,755.72Z" transform="translate(-16.76 -15.15)" style="fill:#a3672a"/><path d="M205.13,740.51c1.62-1.63,3.35-3,5.87-2.37a8.12,8.12,0,0,1-5.62,2.83C205.3,740.81,205.22,740.66,205.13,740.51Z" transform="translate(-16.76 -15.15)" style="fill:#a3672a"/><path d="M205.13,740.51c.09.15.17.3.25.46-.67,1.48-2.2,1.72-3.43,2.4C201.25,740.46,203.81,741.17,205.13,740.51Z" transform="translate(-16.76 -15.15)" style="fill:#9a6028"/><path d="M184.57,757.47l3.13-1.75c.51,2.12-1.23,2.39-2.5,3Z" transform="translate(-16.76 -15.15)" style="fill:#a3672a"/><path d="M176.18,765.17l2.75-1.47c1,2.27-1.18,2-2.12,2.72Z" transform="translate(-16.76 -15.15)" style="fill:#a3672a"/><path d="M178.92,763.69c-.18-.45-.37-.89-.56-1.34l2.83-1.36C182.08,763.27,179.82,762.91,178.92,763.69Z" transform="translate(-16.76 -15.15)" style="fill:#9a6028"/><path d="M184.57,757.47l.63,1.29-2.72,1.45C181.46,758,183.68,758.24,184.57,757.47Z" transform="translate(-16.76 -15.15)" style="fill:#9a6028"/><path d="M193.5,751c-1-2.35,1.29-2,2.28-2.7C196.72,750.67,194.42,750.27,193.5,751Z" transform="translate(-16.76 -15.15)" style="fill:#9a6028"/><path d="M199.18,744.83l2.78-1.45c1,2.26-1.26,2-2.13,2.76C199.61,745.7,199.4,745.26,199.18,744.83Z" transform="translate(-16.76 -15.15)" style="fill:#a3672a"/><path d="M199.18,744.83c.22.43.43.87.65,1.31l-2.76,1.43C196,745.31,198.28,745.59,199.18,744.83Z" transform="translate(-16.76 -15.15)" style="fill:#9a6028"/><path d="M93,735.54c.67-1.66,2.53-1.65,3.69-1.86a19.8,19.8,0,0,1,7.51.14c.24,0,.38.55.57.84-1.7,1.8-4.27,1-5.83.73-2.33-.38-3.61.84-5.34,1.39Z" transform="translate(-16.76 -15.15)" style="fill:#a3672a"/><path d="M87.24,741.66c-.65-1.12,0-1.67.92-2.12s1.8-.89,2.7-1.33c.65,1.1.14,1.71-.87,2.15S88.16,741.23,87.24,741.66Z" transform="translate(-16.76 -15.15)" style="fill:#a3672a"/><path d="M75.61,749.56l4.1-2.24c.51,2.83-2.31,2.36-3.48,3.51Z" transform="translate(-16.76 -15.15)" style="fill:#a3672a"/><path d="M68.59,759.84c-1,.77-1.65.34-2.14-.72s-.19-1.61.86-1.9C67.74,758.09,68.17,759,68.59,759.84Z" transform="translate(-16.76 -15.15)" style="fill:#9a6028"/><path d="M70.68,753.7l2.78-1.45c1.07,2.29-1.28,1.94-2.13,2.76Z" transform="translate(-16.76 -15.15)" style="fill:#a3672a"/><path d="M70.68,753.7l.65,1.31c-.94.47-1.88.94-2.81,1.42C67.55,754.17,69.8,754.48,70.68,753.7Z" transform="translate(-16.76 -15.15)" style="fill:#9a6028"/><path d="M104.81,734.64c1.16-.29,2.33-2.13,3.48,0C107.13,734.92,106,736.85,104.81,734.64Z" transform="translate(-16.76 -15.15)" style="fill:#9a6028"/><path d="M75.61,749.56l.62,1.27-2.78,1.41C72.49,750,74.61,750.23,75.61,749.56Z" transform="translate(-16.76 -15.15)" style="fill:#9a6028"/><path d="M81.84,744.6l2.8-1.45c1,2.28-1.32,1.92-2.16,2.75Z" transform="translate(-16.76 -15.15)" style="fill:#a3672a"/><path d="M81.84,744.6l.64,1.3-2.78,1.42C78.64,745,81,745.39,81.84,744.6Z" transform="translate(-16.76 -15.15)" style="fill:#9a6028"/><path d="M93,735.54l.6,1.24-2.78,1.42C89.86,735.9,92.13,736.28,93,735.54Z" transform="translate(-16.76 -15.15)" style="fill:#9a6028"/><path d="M202.82,661.85l.66.24Z" transform="translate(-16.76 -15.15)" style="fill:#a3672a"/><path d="M216.29,858.57c1.07,2.13-1.06,2-1.95,2.7s-1.72.59-2.11-.65Z" transform="translate(-16.76 -15.15)" style="fill:#9a6028"/><path d="M202.34,858.53c-1.06.76-1.61.24-2.11-.74s-.21-1.56.77-1.91Z" transform="translate(-16.76 -15.15)" style="fill:#9a6028"/><path d="M219.91,855.06c.87,2.21-1.24,2-2.22,2.73C217.09,855.79,218.83,855.69,219.91,855.06Z" transform="translate(-16.76 -15.15)" style="fill:#9a6028"/><path d="M210.83,878.84c.53,1.29-.22,1.89-1.24,2.38-1.39.67-2.76,1.38-4.14,2.07-.26-1.6.81-2.19,2-2.74S209.71,879.41,210.83,878.84Z" transform="translate(-16.76 -15.15)" style="fill:#9a6028"/><path d="M233.16,860.67c.56,1,.24,1.58-.73,2-1.4.66-2.76,1.4-4.14,2.1-.49-.87-.45-1.54.59-2C230.33,862.14,231.74,861.38,233.16,860.67Z" transform="translate(-16.76 -15.15)" style="fill:#9a6028"/><path d="M200.33,861.37l-5.72,2.87c-.88-2.62,1.73-2.21,2.78-3.06C198.23,860.5,199.47,859.64,200.33,861.37Z" transform="translate(-16.76 -15.15)" style="fill:#9a6028"/><path d="M192,893.52c0-2.9,1.76-4.45,4.16-5.54.11.4.36,1.14.33,1.15C194.36,890,194.11,892.72,192,893.52Z" transform="translate(-16.76 -15.15)" style="fill:#9a6028"/><path d="M190.52,866.32c1.12,2.38-1.26,2-2.2,2.83C187.77,867.21,188.77,866.47,190.52,866.32Z" transform="translate(-16.76 -15.15)" style="fill:#9a6028"/><path d="M226.88,865.56c.93,2.6-1.74,2-2.65,3C223.38,866,225.89,866.46,226.88,865.56Z" transform="translate(-16.76 -15.15)" style="fill:#9a6028"/><path d="M219.7,871c.89,2.56-1.75,2-2.63,3C216.13,871.33,218.79,871.93,219.7,871Z" transform="translate(-16.76 -15.15)" style="fill:#9a6028"/><path d="M214.8,875.13c.94,2.64-1.74,2-2.67,3C211.27,875.58,213.88,876.12,214.8,875.13Z" transform="translate(-16.76 -15.15)" style="fill:#9a6028"/><path d="M200.79,882.08c-.67-2.65,1.4-2.23,2.84-2.51C203.5,881.33,201.91,881.44,200.79,882.08Z" transform="translate(-16.76 -15.15)" style="fill:#9a6028"/><path d="M192.75,898.48c1.09,2.27-1.23,2-2.1,2.79C189.67,899.08,191.82,899.24,192.75,898.48Z" transform="translate(-16.76 -15.15)" style="fill:#9a6028"/><path d="M196.94,892.91c1,2.25-1.26,2-2.11,2.76C193.83,893.44,196,893.63,196.94,892.91Z" transform="translate(-16.76 -15.15)" style="fill:#9a6028"/><path d="M211.47,866.26l-1.38-2.75c1.08-.73,1.65-.19,2.16.79S212.45,865.89,211.47,866.26Z" transform="translate(-16.76 -15.15)" style="fill:#9a6028"/><path d="M182.93,872.06c.94,2.28-1.35,1.92-2.22,2.71C179.82,872.52,182,872.79,182.93,872.06Z" transform="translate(-16.76 -15.15)" style="fill:#9a6028"/><path d="M188.53,897.06c-.67-2,1.08-2.12,2.15-2.77C191.64,896.51,189.46,896.3,188.53,897.06Z" transform="translate(-16.76 -15.15)" style="fill:#9a6028"/><path d="M201.15,887.36c1,2.17-1.27,1.88-2.08,2.69C198.32,888.05,200.06,888,201.15,887.36Z" transform="translate(-16.76 -15.15)" style="fill:#9a6028"/><path d="M207.27,875.28c-1-2.2,1.26-1.91,2.09-2.72C209.59,874.18,208.33,874.66,207.27,875.28Z" transform="translate(-16.76 -15.15)" style="fill:#9a6028"/></svg>