<svg id="Camada_1" data-name="Camada 1" xmlns="http://www.w3.org/2000/svg" viewBox="0 0 633.7 259.82"><title>logo-ibis80-respostas</title><circle cx="305.83" cy="129.91" r="127.91" style="fill:#e52e29"/><path d="M314.62,12.18A125.91,125.91,0,1,1,188.71,138.09,125.91,125.91,0,0,1,314.62,12.18m0-4A129.91,129.91,0,0,0,222.76,230,129.91,129.91,0,1,0,406.48,46.23a129.05,129.05,0,0,0-91.86-38Z" transform="translate(-8.79 -8.18)" style="fill:#271f20"/><path d="M314.62,43.88A93.87,93.87,0,1,1,278,51.28a93.67,93.67,0,0,1,36.67-7.4m0-6.37A100.58,100.58,0,1,0,415.2,138.09,100.58,100.58,0,0,0,314.62,37.51Z" transform="translate(-8.79 -8.18)" style="fill:#271f20"/><path d="M372.66,103.71S366.31,93,354.51,99.53c0,0-9.16,4.82-2.74,23.46,0,0,4.06,27.16-10.28,25.07-13.73-2-3.85-25.32-3.85-25.32s10.74-25.17-14.78-28.35c-27.23.51-118.6,0-118.6,0l5.82,8.23h64a2.49,2.49,0,0,1,2.15,1.57l1.93,5.15a1,1,0,0,1-1,1.56H215.93l5.64,8h57.16a2.52,2.52,0,0,1,2.15,1.57l1.93,5.15c.32.86-.11,1.56-1,1.56H227.42l5.63,8h50.32a2.5,2.5,0,0,1,2.14,1.56l1.94,5.15a1,1,0,0,1-1,1.56H238.91l5.63,8H288a2.51,2.51,0,0,1,2.15,1.56l1.93,5.15c.32.86-.11,1.56-1,1.56H250.39l6.59,9.32-25.06,18,4.5,4.82,26.67-18s34.38,6.43,57.52,2.25c0,0,1.82,1.82,1.17,3.64,0,0-1.17,1.72,2.15,1.61s13.71,0,13.71,0,2.89,0,0-2.14c-1-.74-2.24-1.06-3.15-2a9.39,9.39,0,0,1-2.11-3.5c15-3.49,22.49-7.6,26.14-15.95,4.5-10.28,7.07-13.81,7.07-32.77,0,0-1.28-12.85,19.6-11.89l61.3-1.16S382.62,107.25,372.66,103.71Z" transform="translate(-8.79 -8.18)" style="fill:#271f20"/><path d="M372.66,103.71S366.31,93,354.51,99.53c0,0-9.16,4.82-2.74,23.46,0,0,4.06,27.16-10.28,25.07-13.73-2-3.85-25.32-3.85-25.32s10.74-25.17-14.78-28.35c-27.23.51-118.6,0-118.6,0l5.82,8.23h64a2.49,2.49,0,0,1,2.15,1.57l1.93,5.15a1,1,0,0,1-1,1.56H215.93l5.64,8h57.16a2.52,2.52,0,0,1,2.15,1.57l1.93,5.15c.32.86-.11,1.56-1,1.56H227.42l5.63,8h50.32a2.5,2.5,0,0,1,2.14,1.56l1.94,5.15a1,1,0,0,1-1,1.56H238.91l5.63,8H288a2.51,2.51,0,0,1,2.15,1.56l1.93,5.15c.32.86-.11,1.56-1,1.56H250.39l6.59,9.32-25.06,18,4.5,4.82,26.67-18s34.38,6.43,57.52,2.25c0,0,1.82,1.82,1.17,3.64,0,0-1.17,1.72,2.15,1.61s13.71,0,13.71,0,2.89,0,0-2.14c-1-.74-2.24-1.06-3.15-2a9.39,9.39,0,0,1-2.11-3.5c15-3.49,22.49-7.6,26.14-15.95,4.5-10.28,7.07-13.81,7.07-32.77,0,0-1.28-12.85,19.6-11.89l61.3-1.16S382.62,107.25,372.66,103.71Z" transform="translate(-8.79 -8.18)" style="fill:#271f20"/><text transform="translate(445.78 149.31)" style="font-size:56.859073638916016px;fill:#271f20;font-family:Longhaul">8<tspan x="33.94" y="0" style="letter-spacing:0.19998731991682134em">0</tspan><tspan x="79.77" y="-4.94" style="font-size:45.46052169799805px">anos</tspan></text><text transform="translate(10.42 141.21) scale(1.22 1)" style="font-size:74.30712127685547px;fill:#271f20;font-family:Longhaul">IBIS</text><text transform="translate(10.42 173.95)" style="font-size:27.282066345214844px;fill:#271f20;font-family:Longhaul">SPORT CLUB</text><polygon points="29.3 82.79 48.22 82.79 56.74 75.2 38.07 75.2 29.3 82.79" style="fill:#271f20"/></svg>