<?xml version="1.0" encoding="utf-8"?>
<!-- Generator: Adobe Illustrator 23.0.1, SVG Export Plug-In . SVG Version: 6.00 Build 0)  -->
<svg version="1.1" id="Camada_1" xmlns="http://www.w3.org/2000/svg" xmlns:xlink="http://www.w3.org/1999/xlink" x="0px" y="0px"
	 viewBox="0 0 869.5 969" style="enable-background:new 0 0 869.5 969;" xml:space="preserve">
<style type="text/css">
	.st0{fill:#E6302A;}
	.st1{fill:#271F20;}
	.st2{fill:#FFFFFF;}
</style>
<g>
	<g>
		<circle class="st0" cx="423.3" cy="545.7" r="423.3"/>
		<path class="st1" d="M423.3,229c42.8,0,84.2,8.4,123.3,24.9c37.7,16,71.6,38.8,100.7,67.9s51.9,63,67.9,100.7
			c16.5,39,24.9,80.5,24.9,123.3c0,42.8-8.4,84.2-24.9,123.3c-16,37.7-38.8,71.6-67.9,100.7c-29.1,29.1-63,51.9-100.7,67.9
			c-39,16.5-80.5,24.9-123.3,24.9s-84.2-8.4-123.3-24.9c-37.7-15.9-71.6-38.8-100.7-67.9s-51.9-63-67.9-100.7
			c-16.5-39-24.9-80.5-24.9-123.3s8.4-84.2,24.9-123.3c15.9-37.7,38.8-71.6,67.9-100.7s63-51.9,100.7-67.9
			C339.1,237.4,380.5,229,423.3,229 M423.3,207.6C236.5,207.6,85.2,359,85.2,545.7s151.4,338.1,338.1,338.1s338.1-151.4,338.1-338.1
			S610,207.6,423.3,207.6L423.3,207.6z"/>
		<g>
			<g>
				<path class="st1" d="M618.4,430.1c0,0-21.3-35.9-61-14c0,0-30.8,16.2-9.2,78.9c0,0,13.7,91.3-34.6,84.3
					c-46.2-6.8-13-85.1-13-85.1s36.1-84.6-49.7-95.3c-91.5,1.7-398.7,0-398.7,0l19.6,27.7h215.2c2.9,0,6.1,2.3,7.2,5.3l6.5,17.3
					c1.1,2.9-0.4,5.3-3.3,5.3h-206l18.9,26.8h192.2c2.9,0,6.1,2.3,7.2,5.3l6.5,17.3c1.1,2.9-0.4,5.3-3.3,5.3H130.2l18.9,26.8h169.1
					c2.9,0,6.1,2.3,7.2,5.3l6.5,17.3c1.1,2.9-0.4,5.3-3.3,5.3H168.8l18.9,26.8h146.1c2.9,0,6.1,2.3,7.2,5.3l6.5,17.3
					c1.1,2.9-0.4,5.3-3.3,5.3H207.4l22.2,31.3l-84.3,60.5l15.1,16.2l89.7-60.5c0,0,115.6,21.6,193.4,7.6c0,0,6.1,6.1,4,12.2
					c0,0-4,5.8,7.2,5.4s46.1,0,46.1,0s9.7,0,0-7.2c-3.3-2.5-7.5-3.6-10.6-6.7c-3-3-5.4-6.9-7.1-11.8c50.6-11.7,75.6-25.5,87.9-53.6
					c15.1-34.6,23.8-46.4,23.8-110.2c0,0-4.3-43.2,65.9-40l206.1-3.9C866.6,457.6,651.9,442,618.4,430.1z"/>
			</g>
			<g>
				<path class="st1" d="M618.4,430.1c0,0-21.3-35.9-61-14c0,0-30.8,16.2-9.2,78.9c0,0,13.7,91.3-34.6,84.3
					c-46.2-6.8-13-85.1-13-85.1s36.1-84.6-49.7-95.3c-91.5,1.7-398.7,0-398.7,0l19.6,27.7h215.2c2.9,0,6.1,2.3,7.2,5.3l6.5,17.3
					c1.1,2.9-0.4,5.3-3.3,5.3h-206l18.9,26.8h192.2c2.9,0,6.1,2.3,7.2,5.3l6.5,17.3c1.1,2.9-0.4,5.3-3.3,5.3H130.2l18.9,26.8h169.1
					c2.9,0,6.1,2.3,7.2,5.3l6.5,17.3c1.1,2.9-0.4,5.3-3.3,5.3H168.8l18.9,26.8h146.1c2.9,0,6.1,2.3,7.2,5.3l6.5,17.3
					c1.1,2.9-0.4,5.3-3.3,5.3H207.4l22.2,31.3l-84.3,60.5l15.1,16.2l89.7-60.5c0,0,115.6,21.6,193.4,7.6c0,0,6.1,6.1,4,12.2
					c0,0-4,5.8,7.2,5.4s46.1,0,46.1,0s9.7,0,0-7.2c-3.3-2.5-7.5-3.6-10.6-6.7c-3-3-5.4-6.9-7.1-11.8c50.6-11.7,75.6-25.5,87.9-53.6
					c15.1-34.6,23.8-46.4,23.8-110.2c0,0-4.3-43.2,65.9-40l206.1-3.9C866.6,457.6,651.9,442,618.4,430.1z"/>
			</g>
		</g>
	</g>
	<g>
		<path class="st2" d="M287.1,699.1c4.8,0,8.9,0.7,12.3,2.2c3.4,1.4,5.9,3.6,7.7,6.4c1.7,2.8,2.6,6.2,2.5,10.3
			c0,4.1-1.1,8.7-3.1,13.9l-0.8,1.8c-1,2.3-2,4.4-2.9,6.3s-1.9,3.5-2.9,5c0.1,4.3-0.9,9.2-3,14.6l-0.9,2.5c-1.3,3.4-2.8,6.4-4.6,8.8
			c-1.8,2.4-3.9,4.4-6.3,5.9s-5.1,2.6-8.2,3.3s-6.5,1-10.3,1h-10.9c-3.1,0-6-0.4-8.9-1.3s-5.1-2.4-6.8-4.6c-1.7-2.2-2.7-5-2.9-8.6
			s0.8-8,2.9-13.3l1.2-3.2c1.2-3.2,2.7-6.1,4.5-8.6c-0.1-3.7,0.8-8.1,2.8-13.2l2.2-5.8c1.4-3.4,3.1-6.6,5.1-9.4s4.4-5.3,7-7.3
			s5.6-3.6,8.9-4.7c3.2-1.1,6.8-1.7,10.6-1.7L287.1,699.1L287.1,699.1z M274.5,751.1c0.6-1.3,0.6-2.4,0-3.3
			c-0.6-0.9-1.5-1.4-2.7-1.4c-1.8,0-3.1,0.3-3.9,1c-0.8,0.7-1.5,2-2.3,3.8l-2.3,5.8c-1.1,2.7-1.5,4.5-1,5.3s1.4,1.2,2.8,1.2
			c1.6,0,2.9-0.3,3.9-1c1-0.7,1.9-1.9,2.6-3.7L274.5,751.1z M284,723.5c0.6-1.3,0.6-2.4,0-3.3c-0.5-0.9-1.5-1.4-2.8-1.4h-0.4h-0.2
			h-0.3c-0.1,0-0.2,0-0.2,0.1h-0.3c-0.2,0-0.4,0-0.5,0.1h-0.1h-0.1c-0.1,0-0.1,0-0.1,0.1c0,0,0,0.1-0.1,0.1
			c-0.9,0.3-1.6,0.8-2.1,1.5s-1.1,1.7-1.6,3l-0.8,1.7c-1.1,2.7-1.4,4.5-1,5.3s1.3,1.2,2.7,1.2c1.6,0,2.9-0.3,3.9-1
			c1-0.7,1.9-1.9,2.7-3.7L284,723.5z"/>
		<path class="st2" d="M351.7,699.1c4.8,0,8.9,0.7,12.3,2.2c3.4,1.4,5.9,3.6,7.7,6.4c1.7,2.8,2.6,6.2,2.5,10.3
			c0,4.1-1.1,8.7-3.1,13.9c-1.9,5-3.7,9.7-5.6,14.1c-1.8,4.3-3.6,8.6-5.5,12.8c-2,4.9-4,8.8-6,11.8c-2,2.9-4.1,5.2-6.5,6.7
			c-2.3,1.6-5,2.6-7.9,3c-2.9,0.5-6.3,0.7-10.1,0.7h-10.9c-3.1,0-6-0.4-8.9-1.3s-5.1-2.4-6.8-4.6c-1.7-2.2-2.7-5-2.9-8.6
			c-0.2-3.6,0.7-8,2.8-13.3l4.1-10.3c1.2-3,2.5-6.3,4-9.9c1.4-3.6,2.9-7.2,4.3-10.7c1.4-3.4,3.1-6.6,5.1-9.4s4.4-5.3,7-7.3
			s5.6-3.6,8.9-4.7c3.2-1.1,6.8-1.7,10.6-1.7L351.7,699.1L351.7,699.1z M348.6,723.5c0.6-1.3,0.6-2.4,0-3.3
			c-0.5-0.9-1.5-1.4-2.8-1.4c-1.8,0-3.1,0.3-3.9,1s-1.5,2-2.3,3.8L326.2,757c-1.1,2.7-1.4,4.5-0.9,5.3s1.4,1.2,2.8,1.2
			c1.6,0,2.9-0.3,3.9-1s1.9-1.9,2.6-3.7L348.6,723.5z"/>
		<path class="st2" d="M441.7,770.3h-23.8c-2.5,0-4.8-0.4-7.1-1.1c-2.2-0.7-4-1.9-5.4-3.7c-1.4-1.7-2.1-4-2.3-6.9
			c-0.2-2.9,0.6-6.4,2.3-10.7c0.3-0.9,0.7-2,1.3-3.5c0.5-1.2,1.1-2.8,1.8-4.8s1.7-4.3,2.8-7.1c2.2-5.6,5.4-10.1,9.7-13.4
			c4.3-3.4,9.4-5.1,15.5-5.1h0.6c3.2,0,6.1,0.7,8.6,2.1c0.6-0.6,1.3-1.1,2-1.5s1.7-0.6,2.8-0.6h13.8L441.7,770.3z M424,751.2
			c-0.9,2.2-1.2,3.6-0.8,4.2c0.4,0.6,1.1,0.9,2.2,0.9c1.8,0,3.3-0.6,4.2-1.9l5.4-13.4l2.8-7.5c0.5-1,0.5-1.9,0-2.6s-1.2-1.1-2.2-1.1
			c-1.4,0-2.5,0.3-3.1,0.8c-0.6,0.6-1.2,1.5-1.8,3L424,751.2z"/>
		<path class="st2" d="M499.8,715.2c2.5,0.7,4.4,1.6,5.9,2.8s2.4,2.5,2.9,4.1c0.5,1.6,0.7,3.3,0.5,5.1c0,1.6-0.3,3.1-0.8,4.6
			l-15.2,38.7h-18.4l13.8-37.1c0.4-1,0.4-1.8,0-2.6s-1-1.1-2-1.1c-1,0-2,0.4-3,1.1c-1,0.8-1.7,1.6-2.2,2.6l-15.1,37.1h-18.8
			l22.6-56.2h20.4C494.2,714.1,497.3,714.5,499.8,715.2z"/>
		<path class="st2" d="M542,713.1c3.8,0,7.1,0.6,9.8,1.7c2.7,1.2,4.8,2.8,6.1,5.1s2.1,5,2,8.2c0,3.3-0.8,6.9-2.5,11.1
			c-0.8,2-1.4,3.6-1.8,4.7s-0.8,2.1-1.2,3c-0.3,0.9-0.7,1.8-1.1,2.7c-0.4,0.9-0.9,2.2-1.6,3.9c-1.7,3.9-3.3,7.1-4.9,9.4
			c-1.6,2.4-3.3,4.2-5.2,5.4c-1.9,1.2-4,2-6.3,2.4c-2.3,0.4-5,0.6-8.1,0.6h-8.6c-2.5,0-4.8-0.4-7.1-1.1s-4.1-1.9-5.5-3.7
			c-1.4-1.7-2.2-4-2.3-6.9c-0.2-2.8,0.6-6.4,2.3-10.7c0.5-1.3,1.1-2.8,1.7-4.6c0.6-1.5,1.3-3.3,2.1-5.4c0.8-2.1,1.8-4.6,2.9-7.4
			c2.2-5.6,5.5-10.1,9.7-13.4c4.2-3.4,9.4-5.1,15.5-5.1L542,713.1L542,713.1z M539.5,732.5c0.5-1,0.5-1.9,0-2.6s-1.2-1.1-2.2-1.1
			c-1.4,0-2.5,0.3-3.1,0.8c-0.6,0.6-1.3,1.6-1.9,3.1l-7.6,19.5c-0.9,2.2-1.1,3.6-0.8,4.2c0.3,0.6,1.1,0.9,2.2,0.9
			c1.3,0,2.3-0.3,3.2-0.8c0.8-0.6,1.5-1.5,2.1-3L539.5,732.5z"/>
		<path class="st2" d="M591.7,713.1c4.1,0,7.7,0.6,10.7,1.7s5.3,2.7,7,4.8c1.6,2,2.5,4.5,2.7,7.4c0.2,2.9-0.5,6.1-1.9,9.7h-15.3
			c-1.1,0-2-0.2-2.8-0.7s-1-1.3-0.7-2.5c0.1-0.2,0.2-0.6,0.4-1.1c0.1-0.5,0.2-0.8,0.3-0.9c0.3-1.3,0.5-2.3,0.3-3.2s-0.8-1.3-1.9-1.3
			c-1.4,0-2.5,0.3-3.2,0.9s-1.2,1.3-1.5,2c-0.8,1.6-0.7,3,0.1,4.1c0.8,1.2,2.1,2.2,3.7,3.3s3.4,2.1,5.3,3.2c1.9,1.1,3.6,2.3,5,3.8
			c1.4,1.4,2.4,3.2,3,5.1s0.2,4.4-1,7.2c-1.2,2.8-2.5,5.1-3.9,6.9s-3.2,3.4-5.2,4.5c-2,1.2-4.4,2-7,2.5c-2.7,0.5-5.8,0.7-9.5,0.7
			c-4.1,0-7.7-0.6-10.7-1.6s-5.3-2.7-7-4.7c-1.6-2-2.6-4.5-2.8-7.4s0.5-6.2,1.9-9.8h15.2c1.3,0,2.2,0.3,2.8,0.9
			c0.6,0.6,0.7,1.8,0.2,3.6c-0.1,0.5-0.2,0.8-0.3,1c-0.3,1.2-0.4,2.1-0.2,2.9c0.1,0.8,0.8,1.2,1.9,1.2c2.1,0,3.6-0.9,4.3-2.7
			c0.7-1.6,0.6-2.9-0.2-4.1c-0.8-1.2-2-2.2-3.6-3.3s-3.3-2.1-5.2-3.2s-3.5-2.4-4.9-3.8s-2.4-3.2-2.9-5.2c-0.5-2-0.2-4.5,1-7.3
			c1.1-2.8,2.4-5.1,3.8-6.9c1.5-1.9,3.2-3.4,5.3-4.5c2-1.2,4.4-2,7.1-2.5C584.9,713.4,588,713.1,591.7,713.1z"/>
	</g>
	<g>
		<g>
			<path class="st2" d="M200.4,230.8h-67L227,42.2h67L200.4,230.8z"/>
			<path class="st2" d="M416.4,42.4c8.6,0.3,16.2,1.8,22.9,4.2c6.7,2.5,12,5.9,16,10.3c4,4.4,6.2,9.6,6.7,15.8
				c0.5,6.2-1.1,13.1-4.8,20.8c-4,8.2-8.4,15.2-13.3,20.9c-4.9,5.7-9.7,10.4-14.3,14c-5.4,4.3-10.8,7.8-16,10.5
				c2.9,2.6,5.1,5.8,6.6,9.8c1.3,3.4,1.8,7.7,1.7,12.8c-0.1,5.1-1.6,11.5-4.5,19c-4,9.4-9,17.3-15,23.7
				c-6.1,6.4-12.8,11.6-20.4,15.5c-7.5,3.9-15.6,6.8-24.3,8.5c-8.7,1.7-17.4,2.6-26.1,2.6H220.1l92.1-188.6h104.3V42.4z
				 M321.2,192.3c3.5,0,7.1-1.1,10.8-3.2s6.3-4.8,8-8.1l7.8-16.7c1.7-3.1,1.7-5.7,0.2-7.8c-1.6-2.1-4.2-3.2-8-3.2h-12.2l-19.4,39
				L321.2,192.3L321.2,192.3z M347.2,113h12.5c3.5,0,7.2-1.1,11-3.2c3.8-2.1,6.4-4.8,7.8-7.8l2.2-4.9c1.7-3.1,1.7-5.7,0.2-8
				c-1.6-2.2-4.2-3.3-8-3.3h-12.2L347.2,113z"/>
			<path class="st2" d="M473.7,230.8h-67l93.6-188.6h67L473.7,230.8z"/>
			<path class="st2" d="M659.1,39.1c15,0,28,1.7,38.8,5c10.8,3.3,19.3,8,25.2,14c6,6,9.3,13.4,10,22c0.7,8.6-1.5,18.2-6.7,28.8
				h-55.7c-4,0-7.3-0.7-9.9-2s-3.4-3.8-2.3-7.4c0.2-0.7,0.4-1.3,0.6-1.8c0.2-0.5,0.4-1.1,0.6-1.8c0.6-0.7,0.9-1.5,0.9-2.3
				c1.3-3.8,1.7-6.9,1.3-9.4s-2.7-3.7-6.9-3.7c-5.2,0-9.4,1.3-12.5,3.9c-3.1,2.6-6.2,6.8-9.1,12.8c-1.7,3.6-0.8,6.9,2.5,10
				s7.8,6.4,13.5,9.9c5.6,3.5,11.6,7.4,18,11.6c6.4,4.2,11.8,9.2,16.3,14.9c4.5,5.7,7.3,12.4,8.3,19.9c1,7.5-0.9,16.4-6,26.5
				c-4,8.2-8.6,15.1-13.8,20.7c-5.2,5.6-11.5,10.1-18.9,13.5c-7.4,3.4-16,5.9-25.8,7.3s-21.3,2.2-34.4,2.2c-15,0-28-1.6-38.8-4.9
				c-10.9-3.3-19.3-7.9-25.2-14c-6-6.1-9.3-13.4-10-22.1c-0.7-8.6,1.5-18.3,6.7-29.1h55.4c4.6,0,8.2,1,11,3c2.7,2,2.7,5.4,0,10.4
				c-0.4,0.7-0.7,1.3-0.8,1.8c-0.1,0.5-0.2,0.9-0.2,1.3c-1,3.4-1.3,6.3-0.8,8.7c0.5,2.4,2.8,3.6,6.7,3.6c5.2,0,9.4-1.3,12.5-3.8
				s6.2-6.8,9.1-12.8c1.7-3.4,0.8-6.7-2.5-9.9c-3.3-3.2-7.8-6.5-13.5-10c-5.6-3.5-11.6-7.4-18-11.7c-6.4-4.3-11.8-9.2-16.3-14.9
				c-4.5-5.7-7.3-12.3-8.3-19.9s0.9-16.5,6-26.6c4-8.2,8.6-15.1,13.8-20.7c5.2-5.6,11.5-10,18.9-13.5s16-5.9,25.8-7.3
				C634.5,39.8,645.9,39.1,659.1,39.1z"/>
			<path class="st2" d="M208.5,273.5c4.5,0,8.4,0.6,11.7,1.8c3.3,1.2,5.8,2.9,7.6,5.2c1.8,2.2,2.8,4.9,3,8.1c0.2,3.2-0.5,6.7-2,10.6
				H212c-1.2,0-2.2-0.3-3-0.8s-1-1.4-0.7-2.7c0.1-0.3,0.1-0.5,0.2-0.7s0.1-0.4,0.2-0.7c0.2-0.3,0.3-0.5,0.3-0.8
				c0.4-1.4,0.5-2.5,0.4-3.4c-0.1-0.9-0.8-1.4-2.1-1.4c-1.6,0-2.8,0.5-3.8,1.4c-0.9,0.9-1.9,2.5-2.7,4.7c-0.5,1.3-0.3,2.5,0.8,3.7
				s2.4,2.3,4,3.6c1.7,1.3,3.5,2.7,5.4,4.3s3.5,3.4,4.9,5.5c1.4,2.1,2.2,4.5,2.5,7.3c0.3,2.8-0.3,6-1.8,9.7c-1.2,3-2.6,5.5-4.1,7.6
				c-1.6,2-3.5,3.7-5.7,5c-2.2,1.3-4.8,2.2-7.8,2.7c-3,0.5-6.4,0.8-10.4,0.8c-4.5,0-8.4-0.6-11.7-1.8c-3.3-1.2-5.8-2.9-7.6-5.1
				c-1.8-2.2-2.8-4.9-3-8.1c-0.2-3.2,0.5-6.7,2-10.7H185c1.4,0,2.5,0.4,3.3,1.1c0.8,0.7,0.8,2,0,3.8c-0.1,0.3-0.2,0.5-0.2,0.7
				c0,0.2,0,0.3,0,0.5c-0.3,1.3-0.4,2.3-0.2,3.2c0.2,0.9,0.8,1.3,2,1.3c1.6,0,2.8-0.5,3.8-1.4s1.9-2.5,2.7-4.7
				c0.5-1.3,0.3-2.5-0.8-3.6c-1-1.2-2.4-2.4-4-3.7c-1.7-1.3-3.5-2.7-5.4-4.3s-3.5-3.4-4.9-5.5c-1.4-2.1-2.2-4.5-2.5-7.3
				c-0.3-2.8,0.3-6,1.8-9.8c1.2-3,2.6-5.5,4.1-7.6c1.6-2,3.5-3.7,5.7-5s4.8-2.2,7.8-2.7C201.1,273.8,204.5,273.5,208.5,273.5z"/>
			<path class="st2" d="M274.2,274.6c2.6,0,4.9,0.5,6.8,1.4c1.9,0.9,3.4,2.2,4.5,3.8c1.1,1.6,1.7,3.5,1.8,5.6s-0.3,4.4-1.3,6.9
				l-5.3,13.7c-1.5,3.7-4,7.3-7.6,10.7c-1.9,1.8-3.8,3.3-5.8,4.3c-2,1.1-4,1.9-6.1,2.5s-4.3,0.9-6.5,1.1c-2.2,0.2-4.6,0.2-7,0.2h-4
				l-7.9,19.1H215l27.8-69.3H274.2z M263.4,294.8c0.5-1.1,0.5-2.1,0-2.9s-1.3-1.2-2.4-1.2h-3.7l-6.8,16.6h3.8c1.1,0,2.3-0.4,3.4-1.2
				s1.9-1.8,2.4-2.9L263.4,294.8z"/>
			<path class="st2" d="M323.2,273.5c4.2,0,7.8,0.6,10.7,1.9c3,1.3,5.2,3.1,6.7,5.6s2.3,5.5,2.2,9c0,3.5-0.9,7.6-2.7,12.1
				c-1.6,4.4-3.3,8.5-4.9,12.3s-3.2,7.5-4.8,11.2c-1.8,4.3-3.5,7.7-5.2,10.3c-1.7,2.6-3.6,4.5-5.6,5.9c-2,1.3-4.3,2.2-6.9,2.6
				c-2.5,0.4-5.5,0.6-8.8,0.6h-9.5c-2.7,0-5.3-0.4-7.7-1.2s-4.4-2.1-5.9-4s-2.4-4.4-2.5-7.5c-0.2-3.1,0.6-7,2.5-11.6l3.6-9
				c1.1-2.6,2.2-5.5,3.5-8.7c1.3-3.1,2.5-6.3,3.8-9.3c1.2-3,2.7-5.8,4.4-8.3c1.8-2.5,3.8-4.6,6.1-6.4c2.3-1.8,4.9-3.1,7.7-4.1
				c2.8-1,5.9-1.5,9.2-1.5H323.2z M320.4,294.8c0.5-1.1,0.5-2.1,0-2.9s-1.3-1.2-2.4-1.2c-1.6,0-2.7,0.3-3.4,0.9
				c-0.7,0.6-1.4,1.7-2,3.3l-11.8,29.2c-0.9,2.4-1.2,3.9-0.8,4.6s1.2,1,2.4,1c1.4,0,2.5-0.3,3.4-0.9c0.9-0.6,1.6-1.7,2.3-3.3
				L320.4,294.8z"/>
			<path class="st2" d="M386.1,274.7c3.6,0.3,6.4,1.2,8.6,2.5c2.1,1.4,3.7,3.1,4.7,5.1c1,2,1.4,4.3,1.3,6.7
				c-0.1,2.4-0.7,4.8-1.6,7.2c-1,2.5-2.2,4.7-3.6,6.5c-1.4,1.8-2.8,3.3-4.4,4.7c-1.5,1.3-3.1,2.4-4.8,3.3s-3.2,1.6-4.7,2.2
				c2.9,0.9,4.7,3,5.4,6s0.2,6.7-1.4,10.7l-5.8,14.2h-17.6c-0.8,0-1.6-0.3-2.4-1c-0.8-0.7-0.9-1.7-0.4-3l6.3-15.5
				c0.4-1.1,0.4-2.1-0.2-2.9s-1.4-1.2-2.5-1.2h-4l-9.5,23.7h-20.8l27.8-69.3h29.6L386.1,274.7L386.1,274.7z M377.3,294.8
				c0.4-1.1,0.4-2.1,0-2.9s-1.2-1.2-2.3-1.2h-3.8l-4.4,10.8h3.9c1.1,0,2.1-0.4,3.3-1.2s1.9-1.8,2.4-2.9L377.3,294.8z"/>
			<path class="st2" d="M453.8,290.7h-16.9l-21.7,53.2h-20.2l21.7-53.2h-16.4l6.5-16h53.4L453.8,290.7z"/>
			<path class="st2" d="M532.6,279.3c3.3,3.9,4.2,9.5,2.5,16.7c0,0.1,0,0.4-0.1,0.7c-0.1,0.3-0.2,0.6-0.2,0.7
				c-0.5,1.5-1.4,2.5-2.7,3.1s-2.8,0.8-4.3,0.8H511l2.6-6.6c0.5-1.1,0.5-2.1,0-2.9c-0.5-0.8-1.3-1.2-2.4-1.2c-1.6,0-2.7,0.3-3.4,0.9
				c-0.7,0.6-1.3,1.7-2,3.3l-11.8,29.2c-0.9,2.4-1.2,3.9-0.8,4.6c0.4,0.7,1.2,1,2.4,1c1.4,0,2.5-0.3,3.4-0.9
				c0.9-0.6,1.6-1.7,2.3-3.3l2.7-6.8h17.2c1.4,0,2.5,0.3,3.3,0.8c0.8,0.6,0.8,1.6,0.3,3c-0.2,0.5-0.4,1-0.6,1.4s-0.4,0.9-0.6,1.4
				c-1.8,4.3-3.5,7.7-5.2,10.3c-1.7,2.6-3.6,4.5-5.7,5.9c-2,1.3-4.3,2.2-6.9,2.6c-2.5,0.4-5.5,0.6-8.8,0.6h-9.5
				c-2.7,0-5.3-0.4-7.7-1.2c-2.5-0.8-4.4-2.1-5.9-4s-2.4-4.4-2.5-7.5c-0.2-3.1,0.6-7,2.5-11.6l3.6-9c1.1-2.6,2.2-5.5,3.5-8.7
				c1.3-3.1,2.5-6.3,3.8-9.3c1.2-3,2.7-5.8,4.4-8.3c1.8-2.5,3.8-4.6,6.1-6.4c2.3-1.8,4.9-3.1,7.7-4.1c2.8-1,5.9-1.5,9.2-1.5h4.2
				C523.9,273.5,529.3,275.4,532.6,279.3z"/>
			<path class="st2" d="M569.3,327.9l-6.5,16h-40.9l28.2-69.3h20.2l-21.6,53.2H569.3z"/>
			<path class="st2" d="M645.3,274.6l-22.9,56.6c-0.4,1.1-0.9,2.1-1.5,3c-0.5,0.9-1.1,1.8-1.7,2.6c-0.9,1.3-2.1,2.4-3.4,3.4
				c-1.3,1-2.9,1.8-4.8,2.5c-1.9,0.7-4.2,1.2-6.9,1.5c-2.7,0.3-5.9,0.5-9.6,0.5c-4.2,0-7.6-0.4-10.3-1.1c-2.7-0.8-4.9-1.8-6.5-3.1
				s-2.7-2.8-3.3-4.5c-0.6-1.7-0.8-3.6-0.6-5.6c0-0.9,0.1-1.7,0.2-2.6c0.2-0.8,0.4-1.7,0.7-2.5l20.6-50.9h20.3l-19.1,49
				c-0.5,1.1-0.5,2.1-0.1,2.9c0.4,0.8,1.2,1.2,2.3,1.2c1.1,0,2.3-0.4,3.3-1.2c1.1-0.8,1.9-1.8,2.4-2.9l20-49L645.3,274.6
				L645.3,274.6z"/>
			<path class="st2" d="M683.1,274.7c2.6,0.1,4.9,0.7,6.9,1.6s3.6,2.2,4.8,3.8c1.2,1.6,1.9,3.5,2,5.8c0.2,2.3-0.3,4.8-1.5,7.6
				c-1.2,3-2.5,5.6-4,7.7c-1.5,2.1-2.9,3.8-4.3,5.1c-1.6,1.6-3.2,2.9-4.8,3.9c0.9,0.9,1.5,2.1,2,3.6c0.4,1.3,0.5,2.8,0.5,4.7
				c0,1.9-0.5,4.2-1.4,7c-1.2,3.5-2.7,6.4-4.5,8.7s-3.9,4.3-6.1,5.7c-2.3,1.5-4.7,2.5-7.3,3.1c-2.6,0.6-5.2,0.9-7.9,0.9H624
				l27.7-69.3L683.1,274.7L683.1,274.7L683.1,274.7z M654.5,329.8c1.1,0,2.2-0.4,3.3-1.2c1.1-0.8,1.9-1.8,2.4-3l2.4-6.1
				c0.5-1.1,0.5-2.1,0-2.9c-0.5-0.8-1.3-1.2-2.4-1.2h-3.7l-5.8,14.3L654.5,329.8L654.5,329.8z M662.3,300.6h3.8
				c1.1,0,2.2-0.4,3.3-1.2c1.1-0.8,1.9-1.7,2.4-2.9l0.7-1.8c0.5-1.1,0.5-2.1,0-2.9c-0.5-0.8-1.3-1.2-2.4-1.2h-3.7L662.3,300.6z"/>
		</g>
		<polygon class="st2" points="233.5,26.4 299.7,26.4 324.1,0.6 264.2,0.6 		"/>
	</g>
</g>
</svg>
