<svg id="Camada_1" data-name="Camada 1" xmlns="http://www.w3.org/2000/svg" viewBox="0 0 707.05 804.5"><title>shampoo</title><path d="M193.2,488,264,781.28S497.45,846.55,610.87,665L446.48,386.4Z" transform="translate(-29.73 -10.4)" style="fill:#271f20"/><path d="M330.26,593.56,260.6,551.83l50,208.64S351,773,380,767.15Z" transform="translate(-29.73 -10.4)" style="fill:#c30d0e"/><path d="M424.85,576.59l32.48-74.42L537.81,701s-25.68,33.66-52.61,45.75Z" transform="translate(-29.73 -10.4)" style="fill:#c30d0e"/><polygon points="171.38 52.04 154.52 28.03 114.23 55.63 89.31 78.31 91.82 86.16 59.18 113.91 64.2 129.6 67.72 140.58 39.47 149.63 34.58 166.76 0 226.27 15.79 335.05 42.64 386.49 48.49 437.19 73.83 451.5 101.21 455.97 108.75 501.13 146.98 528.68 158.47 569.98 146.71 598.1 95.26 583.29 145.98 612.04 182.8 586.54 233.86 583.91 246.09 519.44 442.11 467.07 466.82 495.62 498.21 485.57 541.42 485.45 519.32 502.9 566.4 487.83 531.37 454.07 576.75 449.92 541.16 419.8 531.27 383.51 510.52 367.32 530.46 305.32 512.97 288.5 498.15 290.84 490.74 278.51 507.56 266.2 475.17 197.44 480.31 148.64 451.12 149.33 433.33 115.38 468.75 112.55 411.63 96.23 422.18 129.18 373.9 70.25 339.94 77.66 311.25 36.67 287.06 39.23 251.43 28.14 279.02 14.12 292.11 25.5 274.5 0 248.92 20.3 221.05 6.73 197.06 24.79 172.75 22.19 171.38 52.04" style="fill:#271f20"/><path d="M538.48,438.81l-24.11,1.74,1.94,11.73-6.26-14.76,8.81-5-6,6.44S531.71,435.32,538.48,438.81Z" transform="translate(-29.73 -10.4)" style="fill:#fff"/><path d="M78.65,227.71l-24.1,1.74,1.93,11.73-6.26-14.76,8.82-5-6,6.44S71.89,224.22,78.65,227.71Z" transform="translate(-29.73 -10.4)" style="fill:#fff"/><path d="M491.2,192.44l-24.1,1.73L469,205.9l-6.26-14.76,8.82-4.95-6,6.43S484.44,188.94,491.2,192.44Z" transform="translate(-29.73 -10.4)" style="fill:#fff"/><path d="M113.9,413.69l-7.84,13,23.47,3.5-26.66-.55s-4.71-3.06-1.45-4.52,4.43-15.9,4.43-15.9l.62,11S107.19,422.46,113.9,413.69Z" transform="translate(-29.73 -10.4)" style="fill:#fff"/><path d="M210.86,551.57,224,533.33,194,534.84s25.35-2.78,25.29,1.12-17.67,19-17.67,19Z" transform="translate(-29.73 -10.4)" style="fill:#fff"/><path d="M107.48,300.2,90.92,315.38,120.54,320S95.16,317.56,96,313.75s21.18-15,21.18-15Z" transform="translate(-29.73 -10.4)" style="fill:#fff"/><path d="M251.14,112.75l-22.2-3.46,14.87,26S229.88,114,233.38,112.25s25,7.17,25,7.17Z" transform="translate(-29.73 -10.4)" style="fill:#fff"/><path d="M422.55,279.51,432,299.88,445.37,273s-10,23.46-13.37,21.5-7.92-24.73-7.92-24.73Z" transform="translate(-29.73 -10.4)" style="fill:#fff"/><path d="M509.69,325.73l-16.56,15.19,29.62,4.62s-25.38-2.44-24.53-6.25,21.18-15,21.18-15Z" transform="translate(-29.73 -10.4)" style="fill:#fff"/><polygon points="248.41 526.71 246.09 519.44 212.42 414.26 375.43 380.29 411.96 475.13 359.62 590.36 248.41 526.71" style="fill:#1d1d1b"/><path d="M324.36,467a50.79,50.79,0,0,1-9.92-.93c-18.05-3.61-40-12.48-55.28-19.28-14.31-6.38-24.76-11.85-24.87-11.91l-.16-.08-.12-.14c-1.23-1.39-30.11-34.27-26.73-51.2,1.66-8.3-2.46-18.53-6.21-25.64A61.44,61.44,0,0,1,194,327.28c.67-20.64-3.5-52.2-27.19-85.34-5.78-8.1-7.44-15.46-4.92-21.87,5.12-13,25.45-17.31,26.31-17.49l.18,0,.17,0A162.71,162.71,0,0,0,211.2,204c25.79,0,73.63-5.28,104.18-40.65C324.18,153.17,332,148,338.47,148a12.65,12.65,0,0,1,9.19,4.12c13.49,13.72,13.23,57.75,13.17,61.7l35.28,80.29,0,.09c.59,2.65,14.55,64.9,12.8,81-1.39,12.77-9.8,45.68-13.35,59.24a16.36,16.36,0,0,1-7.2,9.79C377.42,451.08,349.24,467,324.36,467Z" transform="translate(-29.73 -10.4)" style="fill:#e27d22"/><path d="M338.47,149c22.47,0,21.36,65,21.36,65l35.32,80.39S409.69,359,407.93,375.1c-1.38,12.72-9.81,45.71-13.31,59.1a15.46,15.46,0,0,1-6.77,9.19c-11.31,7.06-39,22.61-63.49,22.61a49.69,49.69,0,0,1-9.73-.91c-17.58-3.52-38.88-12-55.07-19.22-14.44-6.44-24.8-11.87-24.8-11.87s-29.82-33.71-26.5-50.34c1.67-8.32-2.11-18.35-6.3-26.31a60.18,60.18,0,0,1-7-30c.61-18.79-2.83-51.6-27.37-86-20.93-29.27,20.77-37.79,20.77-37.79A160.17,160.17,0,0,0,211.19,205c27.73,0,74.57-5.83,105-41,9.27-10.73,16.57-15,22.33-15m0-2c-6.92,0-14.72,5.13-23.85,15.7-30.28,35.06-77.8,40.3-103.43,40.3a161.56,161.56,0,0,1-22.48-1.41l-.36-.06-.35.07c-.89.19-21.72,4.58-27,18.1-2.65,6.75-1,14.43,5,22.82,23.52,32.92,27.66,64.24,27,84.73a62.37,62.37,0,0,0,7.19,31c5.27,10,7.38,18.64,6.11,25-3.48,17.41,25.72,50.65,27,52.05l.24.28.33.17c.1.05,10.59,5.54,24.92,11.93,15.3,6.83,37.35,15.72,55.49,19.35a52.06,52.06,0,0,0,10.12.95c25.14,0,53.52-16,64.55-22.91a17.36,17.36,0,0,0,7.64-10.39c3.56-13.58,12-46.56,13.37-59.38C411.69,359,397.7,296.63,397.1,294l0-.18-.08-.18-35.14-80c.05-5.17.09-48.42-13.47-62.2a13.59,13.59,0,0,0-9.9-4.42Z" transform="translate(-29.73 -10.4)" style="fill:#1d1d1b"/><polygon points="281.9 253.47 288.56 263.01 324.52 245.66 341.39 249.7 339.05 242.38 312.59 236.06 281.9 253.47" style="fill:#271f20"/><path d="M245.33,303.16l-15,17,3.61-1.12,12.59-10.55L246,316s-.46,8.52,9.59,3.27,2.59-12.93,2.59-12.93l11.33-5Z" transform="translate(-29.73 -10.4)" style="fill:#271f20"/><path d="M341.59,269.55l22.11,5.14-3.59,1.18-16.37-1.27,4.79,5.74s5.32,6.66-5.91,8.23-9.62-9-9.62-9l-12.12,2.52Z" transform="translate(-29.73 -10.4)" style="fill:#271f20"/><path d="M289.77,339.4l-10.76-5-4.62,9.89,19.4,7.63,9.91-3.18,5.23,7.85,18.53-5.94-3.26-10.2,9.67-7.73,7.81,5.6L343,318.05l-13.87.36L349.24,316l34.9,44.19,1.79,24.51-8.25,14.75L380,385.78l-1.84-25.36L347.3,318.1l-3.62,23.8a8.7,8.7,0,0,0-11.42-.53L330.14,355l-21.92,7.89-8.44-6.82-4.48.57-22.67-11.77,6.09-14.06Z" transform="translate(-29.73 -10.4)" style="fill:#271f20"/><path d="M258.57,394.66s31.58-17.32,66.88-28.62,45.25-9.29,45.25-9.29a26,26,0,0,1-8.18,25.1c-12.11,10.8-62.41,24.31-77.34,24.76S258.57,394.66,258.57,394.66Z" transform="translate(-29.73 -10.4)" style="fill:#271f20"/><path d="M280.34,391.48s1.29,2.79,6.17,5.44,6.15-2,6.15-2,4.31,1.9,7.17,1.45,9.32-6.73,9.32-6.73a109.87,109.87,0,0,0,15.87-1.3c6.66-1.24,5.31-5.48,5.31-5.48l5.88,2s11.67-1.26,14.6-4.67c0,0,13-3.52,12-9a28.1,28.1,0,0,0-2.74-8.57S311,367.73,280.34,391.48Z" transform="translate(-29.73 -10.4)" style="fill:#fff"/><polygon points="234.73 331.48 221.94 371.04 229.27 414.97 225.99 370.18 238.27 334.24 234.73 331.48" style="fill:#271f20"/><polygon points="341.71 375.37 331.67 386.2 261.46 406.67 246.04 403.5 265.64 411.7 336.66 392.7 341.71 375.37" style="fill:#271f20"/><polygon points="238.73 266.49 193.34 278.22 184.53 298.82 207.17 285.32 256.95 276.73 238.73 266.49" style="fill:#271f20"/><path d="M299.38,335.28,290.66,317l-7-31.57c.15-3.94,2,33.82,2,33.82Z" transform="translate(-29.73 -10.4)" style="fill:#271f20"/><path d="M327.18,554.5l-10.7-66.12-6.41,2.05L320.23,556l-38.46-28.71L258,443.88l58.94,31.56,56-10.74.3.77c.64,1.6,15.4,39.37-3.94,47.36l-.21.09-33.77-1.61,2,13.76,18-5.77,11.32,61.28Z" transform="translate(-29.73 -10.4)" style="fill:#e27d22"/><path d="M259.56,445.87l57.18,30.62,55.5-10.65s15.25,38.36-3.4,46.07l-34.77-1.65,2.35,16.12,18.06-5.78,10.69,57.84L328.1,553.91l-10.82-66.83L309,489.74l9.91,64-36.22-27-23.08-80.85m-3.21-4,1.29,4.54,23.07,80.85.19.65.54.4,36.23,27,3.92,2.93-.75-4.84-9.65-62.33,4.49-1.44,10.45,64.54.14.87.73.48,37.07,24.53,3.92,2.6-.85-4.63-10.69-57.85L356,518l-2.17.69-15.82,5.07-1.65-11.39,32.34,1.54.45,0,.41-.17c20.24-8.37,5.15-47,4.49-48.66l-.61-1.54-1.62.32-54.8,10.51-56.55-30.28-4.16-2.23Z" transform="translate(-29.73 -10.4)" style="fill:#1d1d1b"/><polygon points="347.77 445.87 360.86 437.15 378.62 384.77 401.82 473.17 362.03 477.21 347.77 445.87" style="fill:#e27d22"/><path d="M408.22,398.65l22.07,84.05-37.92,3.85-13.6-29.91,12.66-8.45,16.79-49.54m.25-6.95-2.14,6.3-16.58,48.9L377.66,455l-1.42.94.71,1.55,13.6,29.92.6,1.3,1.42-.14,37.92-3.85,2.33-.24-.6-2.26-22.06-84.05-1.69-6.44Z" transform="translate(-29.73 -10.4)" style="fill:#1d1d1b"/><polygon points="343.4 518.11 361.95 475.21 402.11 471.13 356.98 582 343.4 518.11" style="fill:#e27d22"/><path d="M430.29,482.7,387,589l-12.84-60.4,18.19-42.06,37.92-3.85m3.1-2.33-3.3.34-37.92,3.85-1.17.12-.46,1.07-18.19,42.07-.26.58.14.63,12.83,60.39,1.35,6.37,2.46-6,43.27-106.31,1.25-3.08Z" transform="translate(-29.73 -10.4)" style="fill:#1d1d1b"/><path d="M183.15,374.57s4.61,19.33,9.95,21.24,5-19.06,5-19.06Z" transform="translate(-29.73 -10.4)" style="fill:#e27d22;stroke:#1d1d1b;stroke-miterlimit:10;stroke-width:2px"/><path d="M188.59,249.59s8.9,11.34,13,11.87S340.12,222.7,340.12,222.7l4.41-23,3.5,26.07s-109.36,23.82-147.2,41.55Z" transform="translate(-29.73 -10.4)" style="fill:#271f20"/><path d="M327.16,650.42c-1.57.62-1.64,1.89-1.58,3.46.32,7.5.73,15,.63,22.53-.39,29.15-10.32,54-33.37,72.82A26.1,26.1,0,0,1,284,754.3a148.88,148.88,0,0,0,9.54-26.23c3.51-14.16,3.31-27.9-2.11-41.9-3-7.86-8.26-12.8-14.15-18s-13.28-9-16.8-16.74c-2.23-4.88-1.19-7,4.19-7.22,16-.63,27.3-9,36.11-21.64a6,6,0,0,0,.45-6.49c-1.78-3.78-3.08-4.08-5.9-.85-12.53,14.33-28.32,16.38-45.73,12.23-4.42-1-7.78-4.19-11.44-6.68a2.86,2.86,0,0,1-1.46-2.2c-.62-6.16-2.78-11.94-4.9-17.64-2.46-6.61-7.4-11.68-12-16.88a35.86,35.86,0,0,0-20.54-11.59c-16.66-3.27-27.69-15.07-39.41-25.85-2-1.85-3.81-4-6.74-4.64-2.2-.51-4.48-1.42-5.77,1s.61,4.28,2.09,5.74c4.23,4.2,8.68,8.18,13.06,12.22,2.36,2.18,4.89,4.18,7.11,6.5s2.5,4.39-.9,6.3c-11.75,6.59-24.15,8.33-37.6,7.72-16.77-.77-33.64-.06-50.18,4-2.13.52-3.18,1.8-4.41,3-1.78,1.74-1.16,3.49,1.15,4.19a12.59,12.59,0,0,0,5.43.71,297.58,297.58,0,0,1,34.22-3.23c8.27-.39,16.48.77,24.66,2.16,8.63,1.47,13.73,7.94,19.53,13.28,5.62,5.16,11.56,10.13,15.67,16.75a2.22,2.22,0,0,0,3.15,1c1.75-.74,1.13-2.43.81-3.15a63.55,63.55,0,0,0-5.38-10.4,129.1,129.1,0,0,0-10-12.62c-1.38-1.55-1.38-2.52-.54-4.2,2.4-4.76,6.67-7.41,11.25-9.12,15.06-5.61,23.74-6.06,36.71,6.11,4.33,4.06,6.52,9.59,8.74,14.8,2.35,5.52,5.2,11.19,4.33,17.61-2,14.86-9.08,27.28-18.78,38.37-3.17,3.62-6.64,7-10,10.52-1.8-2.42.08-4.75.19-7,.28-5.76-1.89-10.56-4.78-15.17-1.11-1.77-2.91-2.09-4.91-1.24s-1.56,2.66-1.11,3.93c2.48,7,1.31,13.67-1,20.36-1.12,3.24-3.22,5.53-6.77,5-10-1.43-20-2.44-29.67-6.11-5.95-2.26-12.95-1.81-19.49-2.4-12.94-1.18-26-.54-38.86-2.58a65.45,65.45,0,0,1-22.29-7.65c-3.51-2-5.8-5.23-7.74-8.38-7.76-12.6-13.92-25.89-13.87-41.15,0-10.7,3.87-19.22,13.78-24.7a246.44,246.44,0,0,0,44.64-31.33c4.7-4.17,10-7.73,15-11.5,2.54-1.89,4.73-2.26,7,.94a60.33,60.33,0,0,0,7.52,8.08c1.1,1.07,2.28,2.61,4.31,1.08,1.64-1.24,1.32-2.4.71-4a238,238,0,0,0-10.45-23.39c2.17-1.73,3.28,1,5,1.07,2.34.11,4.93.62,6.1-1.9a4.18,4.18,0,0,0-2.08-5.86c-16.3-8.13-27.56-22-38.15-35.87-16.82-22.13-27.73-46.69-24.42-75.66A45.64,45.64,0,0,1,93.2,374.52c7.17-5.78,15.72-5.39,26.16,2.52,10.09,7.65,13.94,18.4,17.56,29.6,4.11,12.71,8.42,25.36,12.51,38.08,4.23,13.13,13.16,23.16,21.71,33.49,4.38,5.29,7,11.84,12.67,16.31,8.11,6.44,15,14.59,25,18.28,7.45,2.74,15,5.36,22.58,7.54,17.36,5,30.68,15.46,42.14,29a143.48,143.48,0,0,1,20,31.32,174.46,174.46,0,0,1,10.21,25.81,20.05,20.05,0,0,0,1.7,3.82c.82,1.56,2.08,1.64,3.57.89s2.27-1.61,1.64-3.33C307.07,598,304,588,300.22,578.15a526.93,526.93,0,0,0-37-53.7,30.56,30.56,0,0,0-7.74-5.87c-11-5.73-22-11.22-34.08-14.48-10.74-2.91-19.88-8.74-28.18-16.13-8.8-7.84-15.88-17.11-22.68-26.58-2.68-3.74-6.32-7.13-7.45-11.74-3.57-14.65-7.64-29.16-12.42-43.46-3-8.84-5.63-17.89-10.48-25.82-4.95-8.1-12.19-14.29-19.93-19.88-9.3-6.72-19.1-6.18-28.52-1.5-10.84,5.4-17.72,14.87-21.67,26.16-4.84,13.8-5.83,28.12-4.67,42.66C67,447.72,74,465.46,87,480.6c10.54,12.29,18.79,26.09,27.6,39.55,2.86,4.37,1.59,7-2.35,9.39a16.26,16.26,0,0,0-1.73,1.51c-9,7.5-17.59,15.45-27,22.38-10.57,7.81-21.13,15.7-32.61,22.27-3.66,2.09-7.28,4.76-9.48,8.64a63.94,63.94,0,0,0-7.72,25.59c-2.19,22.25,5.72,41.19,20,57.81A15,15,0,0,1,57.3,675a94.47,94.47,0,0,0,5,17.71c5.52,13.8,13.48,25.61,24.89,35.21,2.65,2.23,6.25,3.54,7.32,7.68a70.73,70.73,0,0,0,17.29,30.82c13.8,14.82,29.64,27.11,46.66,38,14.49,9.25,30.07,12.46,46.93,9.24,13.48-2.57,25.45-8.85,37.08-15.78,7.82-4.66,15.25-9.84,21.52-16.62,3.28-3.55,6.76-6.95,12.05-8,9.07-1.89,16.91-6.44,24.41-11.92,19.09-13.94,29.83-32.85,34.05-55.72a5.76,5.76,0,0,1,.76-2.2l-5-51.7C329.27,650.91,328.55,649.88,327.16,650.42ZM75.94,695.54a136,136,0,0,1-5.79-15.14c-1.4-4.62,1.26-7.06,6-6.33,31.26,4.88,62.35,10.83,93.78,14.66,3.78.47,7.58.84,11.38,1.28,11.12,1.27,19.42-4.18,27.12-11.23,12.53-11.48,19.52-26.44,26-41.63,1.73-4,3.14-2.25,4.69-.43,9.8,11.43,15,24.27,12,39.63-3.41,17.69-12.36,32.53-23.65,46.11-4,4.77-7,10.36-12.32,14.49-1.56-8-2.74-15.49-6.87-22-.09-.13-.14-.28-.23-.41-1.86-2.8-3.76-7.22-7.26-6s-.73,5.29-.43,8.2c.68,6.68,2.2,13.29.94,20.14s-4,10.25-10.73,10.35a198.44,198.44,0,0,1-44.33-4,131.09,131.09,0,0,1-33.58-11.53C96.76,723.47,83.34,712.49,75.94,695.54Zm160.57,89.2c-13,10.08-27.48,17.87-44.77,18.16-6.87.12-12.87-2.08-18.8-5.28-15.21-8.19-30.53-16.19-42.76-28.78-5.58-5.74-10.62-11.84-11-21.1,11.79,3.53,23.26,7.1,34.8,10.4,10.42,3,21.14,4.51,31.81,6.34,12.56,2.16,22.27-3.79,31.84-10s16.88-14.63,23.58-23.54c6-7.95,10-17.15,14.26-26.16,4.65-9.87,7.46-20.28,9.74-31.34,11.93,9,20,19.84,21.11,34.27.76,9.66-2.74,18.65-6.95,27.43C269.53,755.59,254,771.17,236.51,784.74Z" transform="translate(-29.73 -10.4)" style="fill:#271f20"/><path d="M283.12,753.89a147.33,147.33,0,0,0,9.48-26.06c3.66-14.76,3-28.26-2.07-41.29-2.91-7.5-7.79-12.25-13.88-17.67-1.59-1.42-3.34-2.76-5-4.06-4.6-3.54-9.36-7.2-12-13-1.33-2.91-1.54-4.94-.65-6.38s2.68-2.13,5.71-2.25c14.2-.56,25.76-7.5,35.33-21.22a5,5,0,0,0,.37-5.48c-1-2.07-1.56-2.5-1.89-2.5s-1,.32-2.36,1.87c-8.51,9.74-18.86,14.48-31.65,14.48a65.39,65.39,0,0,1-15.06-1.93c-3.59-.85-6.48-3-9.28-5-.83-.61-1.65-1.22-2.5-1.79a3.82,3.82,0,0,1-1.88-2.93c-.61-6-2.75-11.77-4.83-17.34-2.15-5.79-6.33-10.46-10.37-15l-1.47-1.64a35,35,0,0,0-20-11.27c-15.14-3-25.8-12.93-36.11-22.57l-3.79-3.52-1-.9c-1.61-1.54-3.13-3-5.33-3.51l-.73-.18a9.74,9.74,0,0,0-2.2-.39,1.74,1.74,0,0,0-1.73,1.11c-.77,1.47.07,2.74,1.91,4.56,3.25,3.22,6.69,6.38,10,9.42l3,2.78c.83.76,1.68,1.51,2.53,2.25,1.56,1.36,3.16,2.76,4.62,4.29s2.1,3,1.9,4.31-1.2,2.52-3,3.55c-9.68,5.43-20.22,8-33.19,8-1.59,0-3.25,0-4.94-.11-3.94-.18-7.78-.28-11.41-.28a161.69,161.69,0,0,0-38.49,4.21,7.07,7.07,0,0,0-3.5,2.3l-.45.45a1.74,1.74,0,0,0-.71,1.45c.11.42.65.82,1.45,1.06a14.85,14.85,0,0,0,4,.76,5.73,5.73,0,0,0,1-.07,301.82,301.82,0,0,1,34.33-3.25c1.1-.05,2.24-.07,3.39-.07a126.82,126.82,0,0,1,21.49,2.25c7.4,1.26,12.29,6,17,10.62,1,1,2,2,3,2.9l2.17,2c4.92,4.47,10,9.1,13.67,15,.48.78.86.78,1,.78a2.46,2.46,0,0,0,.87-.21c.42-.18.49-.38.52-.44a1.9,1.9,0,0,0-.23-1.39A63,63,0,0,0,175,610.25,128.24,128.24,0,0,0,165,597.73c-1.59-1.79-1.77-3.18-.69-5.32,2.18-4.32,6-7.46,11.8-9.61,7.33-2.73,12.15-3.85,16.64-3.85,7.19,0,13.5,3,21.1,10.17,4.24,4,6.46,9.23,8.61,14.3l.36.84.69,1.61c2.23,5.14,4.53,10.45,3.71,16.52-1.86,13.67-8.08,26.4-19,38.9-2.19,2.5-4.56,4.92-6.86,7.26-1.07,1.09-2.14,2.18-3.2,3.29l-.82.85-.7-.94c-1.53-2-.93-4.07-.45-5.7a8.79,8.79,0,0,0,.44-2c.29-5.91-2.18-10.69-4.63-14.59a2.31,2.31,0,0,0-2.06-1.22,4.14,4.14,0,0,0-1.62.37c-1,.43-1.14,1-.55,2.68,2.82,7.91.95,15.39-1,21-1.3,3.77-3.64,5.77-6.76,5.77a8.23,8.23,0,0,1-1.09-.08l-3.91-.55c-8.58-1.17-17.45-2.39-26-5.62-4.14-1.57-9-1.79-13.64-2-1.84-.09-3.74-.17-5.58-.34-5.2-.47-10.51-.65-15.65-.83a190.84,190.84,0,0,1-23.27-1.75,66.71,66.71,0,0,1-22.64-7.77c-3.67-2.09-6.06-5.43-8.09-8.73-7-11.31-14.08-25.11-14-41.67,0-11.92,4.73-20.28,14.3-25.58A246.68,246.68,0,0,0,104.89,552c3.53-3.13,7.41-6,11.17-8.69,1.3-.95,2.61-1.9,3.9-2.86a6.83,6.83,0,0,1,4-1.65c1.62,0,3.06.92,4.38,2.81a49.51,49.51,0,0,0,6.28,6.86l1.12,1.08.31.31c.56.56,1.13,1.13,1.68,1.13a1.77,1.77,0,0,0,1-.43c1-.78,1-1.25.38-2.9a237.84,237.84,0,0,0-10.41-23.29l-.36-.73.63-.5a3.22,3.22,0,0,1,2-.79,4.21,4.21,0,0,1,2.43,1,2.7,2.7,0,0,0,1.23.64l.86,0c.48,0,1,.07,1.43.07,1.6,0,2.37-.39,2.86-1.44a3.2,3.2,0,0,0-1.61-4.55c-16.36-8.15-27.55-21.76-38.5-36.16-19.78-26-27.6-50.27-24.62-76.37a46.33,46.33,0,0,1,17.48-31.82,17.39,17.39,0,0,1,11.1-4.16c5,0,10.45,2.24,16.28,6.66,10,7.61,14,18.12,17.91,30.08,2,6.19,4.08,12.47,6.1,18.54,2.12,6.4,4.31,13,6.41,19.54,3.84,11.91,11.8,21.47,19.5,30.71l2,2.45a67,67,0,0,1,4.46,6.32c2.39,3.67,4.64,7.13,8.06,9.85,2.28,1.81,4.49,3.78,6.63,5.68,5.44,4.84,11.06,9.84,18.14,12.44,6.13,2.26,14.23,5.15,22.51,7.51,16,4.6,29.59,13.92,42.62,29.36a145.1,145.1,0,0,1,20.15,31.53,172.43,172.43,0,0,1,10.27,26,19.33,19.33,0,0,0,1.62,3.63c.38.72.75.82,1.05.82a2.76,2.76,0,0,0,1.19-.36c1.38-.7,1.47-1.21,1.15-2.08-1.64-4.46-3.19-9-4.7-13.43-1.83-5.36-3.72-10.91-5.77-16.29l1.79-.87c16.78,28.25,26.95,53.11,30.21,73.9l.39,2.45-2-1.5c-.22-.16-.42-.34-.62-.51-.52-.44-.85-.71-1.18-.71a1.18,1.18,0,0,0-.38.08c-.83.33-1,.79-.94,2.48l.16,3.6c.27,6.22.55,12.65.47,19-.42,31.28-11.45,55.35-33.74,73.58a27.09,27.09,0,0,1-9.14,5.26l-2.15.67Z" transform="translate(-29.73 -10.4)" style="fill:#e27d22"/><path d="M103.68,370.59c4.7,0,9.9,2.07,15.68,6.45,10.09,7.65,13.94,18.4,17.56,29.6,4.11,12.71,8.42,25.36,12.51,38.08,4.23,13.13,13.16,23.16,21.71,33.49,4.38,5.29,7,11.84,12.67,16.31,8.11,6.44,15,14.59,25,18.28,7.45,2.74,15,5.36,22.58,7.54,17.36,5,30.68,15.46,42.14,29a143.48,143.48,0,0,1,20,31.32,174.46,174.46,0,0,1,10.21,25.81,20.05,20.05,0,0,0,1.7,3.82,2.14,2.14,0,0,0,1.93,1.35,3.79,3.79,0,0,0,1.64-.46c1.41-.72,2.27-1.61,1.64-3.33C307.07,598,304,588,300.22,578.15c14,23.55,26.36,49.82,30.08,73.54-.83-.62-1.46-1.42-2.4-1.42a2.12,2.12,0,0,0-.74.15c-1.57.62-1.64,1.89-1.58,3.46.32,7.5.73,15,.63,22.53-.39,29.15-10.32,54-33.37,72.82A26.1,26.1,0,0,1,284,754.3a148.88,148.88,0,0,0,9.54-26.23c3.51-14.16,3.31-27.9-2.11-41.9-3-7.86-8.26-12.8-14.15-18s-13.28-9-16.8-16.74c-2.23-4.88-1.19-7,4.19-7.22,16-.63,27.3-9,36.11-21.64a6,6,0,0,0,.45-6.49c-1-2-1.79-3.07-2.79-3.07-.84,0-1.82.74-3.11,2.22-8.86,10.14-19.36,14.13-30.9,14.13a63.83,63.83,0,0,1-14.83-1.9c-4.42-1-7.78-4.19-11.44-6.68a2.86,2.86,0,0,1-1.46-2.2c-.62-6.16-2.78-11.94-4.9-17.64-2.46-6.61-7.4-11.68-12-16.88a35.86,35.86,0,0,0-20.54-11.59c-16.66-3.27-27.69-15.07-39.41-25.85-2-1.85-3.81-4-6.74-4.64a15.1,15.1,0,0,0-3.16-.6,2.73,2.73,0,0,0-2.61,1.64c-1.23,2.34.61,4.28,2.09,5.74,4.23,4.2,8.68,8.18,13.06,12.22,2.36,2.18,4.89,4.18,7.11,6.5s2.5,4.39-.9,6.3c-10.31,5.78-21.12,7.83-32.7,7.83-1.62,0-3.25,0-4.9-.11-3.81-.18-7.63-.28-11.45-.28a163.63,163.63,0,0,0-38.73,4.24c-2.13.52-3.18,1.8-4.41,3-1.78,1.74-1.16,3.49,1.15,4.19a15.62,15.62,0,0,0,4.32.8,6.74,6.74,0,0,0,1.11-.09,297.58,297.58,0,0,1,34.22-3.23c1.11-.05,2.23-.07,3.34-.07A127.9,127.9,0,0,1,142,592.24c8.63,1.47,13.73,7.94,19.53,13.28,5.62,5.16,11.56,10.13,15.67,16.75a2.17,2.17,0,0,0,1.89,1.25,3.43,3.43,0,0,0,1.26-.29c1.75-.74,1.13-2.43.81-3.15a63.55,63.55,0,0,0-5.38-10.4,129.1,129.1,0,0,0-10-12.62c-1.38-1.55-1.38-2.52-.54-4.2,2.4-4.76,6.67-7.41,11.25-9.12,6.29-2.35,11.46-3.79,16.3-3.79,6.76,0,12.86,2.81,20.41,9.9,4.33,4.06,6.52,9.59,8.74,14.8,2.35,5.52,5.2,11.19,4.33,17.61-2,14.86-9.08,27.28-18.78,38.37-3.17,3.62-6.64,7-10,10.52-1.8-2.42.08-4.75.19-7,.28-5.76-1.89-10.56-4.78-15.17a3.33,3.33,0,0,0-2.91-1.69,5.05,5.05,0,0,0-2,.45c-2.09.88-1.56,2.66-1.11,3.93,2.48,7,1.31,13.67-1,20.36-1,2.94-2.84,5.1-5.82,5.1a8,8,0,0,1-.95-.07c-10-1.43-20-2.44-29.67-6.11-5.95-2.26-12.95-1.81-19.49-2.4-12.94-1.18-26-.54-38.86-2.58a65.45,65.45,0,0,1-22.29-7.65c-3.51-2-5.8-5.23-7.74-8.38-7.76-12.6-13.92-25.89-13.87-41.15,0-10.7,3.87-19.22,13.78-24.7a246.44,246.44,0,0,0,44.64-31.33c4.7-4.17,10-7.73,15-11.5a6,6,0,0,1,3.41-1.45c1.21,0,2.38.7,3.56,2.39a60.33,60.33,0,0,0,7.52,8.08c.77.75,1.58,1.72,2.69,1.72a2.72,2.72,0,0,0,1.62-.64c1.64-1.24,1.32-2.4.71-4a238,238,0,0,0-10.45-23.39,2.22,2.22,0,0,1,1.4-.58c1.34,0,2.3,1.59,3.62,1.65.77,0,1.57.12,2.33.12,1.56,0,3-.33,3.77-2a4.18,4.18,0,0,0-2.08-5.86c-16.3-8.13-27.56-22-38.15-35.87-16.82-22.13-27.73-46.69-24.42-75.66A45.64,45.64,0,0,1,93.2,374.52a16.4,16.4,0,0,1,10.48-3.93m0-2v0A18.38,18.38,0,0,0,92,373a47.32,47.32,0,0,0-17.84,32.49,90.45,90.45,0,0,0,4.76,41.28c4.17,11.84,10.73,23.55,20,35.81,11,14.5,22.3,28.19,38.85,36.45a2.21,2.21,0,0,1,1.15,3.23c-.24.52-.5.86-1.95.86-.43,0-.88,0-1.37-.06l-.87,0a7.16,7.16,0,0,1-.7-.46,5.13,5.13,0,0,0-3-1.2,4.22,4.22,0,0,0-2.65,1l-1.27,1,.73,1.44A240.35,240.35,0,0,1,138.2,548c.49,1.35.49,1.35,0,1.76a1.5,1.5,0,0,1-.42.24,5.81,5.81,0,0,1-1-.84c-.11-.11-.21-.22-.32-.32l-1.12-1.09a47.9,47.9,0,0,1-6.16-6.71c-1.5-2.15-3.25-3.24-5.2-3.24a7.74,7.74,0,0,0-4.61,1.85c-1.29,1-2.58,1.9-3.88,2.85-3.78,2.75-7.69,5.59-11.26,8.76A246.1,246.1,0,0,1,60,582.31c-9.92,5.48-14.77,14.13-14.82,26.44-.06,16.92,7.54,31.44,14.17,42.21,2.1,3.41,4.58,6.87,8.45,9.07a67.71,67.71,0,0,0,23,7.89,191.41,191.41,0,0,0,23.39,1.76c5.13.18,10.43.36,15.6.83,1.86.17,3.77.25,5.62.34,4.81.22,9.34.42,13.34,1.94,8.63,3.27,17.56,4.49,26.19,5.67l3.91.55a8.59,8.59,0,0,0,1.23.09c3.54,0,6.27-2.29,7.71-6.44,2-5.79,3.91-13.48,1-21.69a3,3,0,0,1-.29-1.27h0a2.77,2.77,0,0,1,.28-.15,3.29,3.29,0,0,1,1.23-.29,1.31,1.31,0,0,1,1.21.75c2.37,3.77,4.75,8.38,4.48,14a8.14,8.14,0,0,1-.39,1.75c-.52,1.74-1.23,4.13.6,6.57l1.41,1.9,1.63-1.71q1.59-1.66,3.2-3.28c2.3-2.35,4.69-4.78,6.89-7.3,11.07-12.66,17.37-25.55,19.26-39.42.86-6.35-1.5-11.79-3.78-17.06l-.69-1.6-.36-.85c-2.19-5.16-4.45-10.5-8.85-14.62-7.8-7.33-14.31-10.45-21.78-10.45-4.61,0-9.54,1.13-17,3.91-6,2.24-10,5.55-12.34,10.1a5.05,5.05,0,0,0,.83,6.43,128.81,128.81,0,0,1,9.88,12.42,62.28,62.28,0,0,1,5.18,10.05,3,3,0,0,1,.19.55,1.69,1.69,0,0,1-.38.11,1.13,1.13,0,0,1-.23-.3c-3.73-6-8.87-10.68-13.85-15.2l-2.17-2c-1-.92-2-1.91-3-2.87-4.83-4.71-9.83-9.59-17.54-10.9A127.54,127.54,0,0,0,120.67,588c-1.16,0-2.32,0-3.44.08a300.07,300.07,0,0,0-34.45,3.25,4.67,4.67,0,0,1-.78.06,13.63,13.63,0,0,1-3.74-.72.46.46,0,1,1-.33-.84l.46-.46a6.08,6.08,0,0,1,3-2,160.32,160.32,0,0,1,38.26-4.19c3.62,0,7.44.1,11.36.28,1.71.07,3.38.11,5,.11,13.14,0,23.84-2.57,33.68-8.09,2.09-1.18,3.28-2.61,3.52-4.28s-.45-3.37-2.16-5.15c-1.49-1.55-3.11-3-4.68-4.34-.83-.73-1.69-1.48-2.51-2.24l-3-2.78c-3.32-3-6.75-6.18-10-9.39-1.76-1.75-2.17-2.54-1.72-3.39.28-.54.48-.57.84-.57a9.58,9.58,0,0,1,2,.36l.74.19c1.94.45,3.3,1.75,4.87,3.25l1,.92c1.27,1.16,2.53,2.34,3.79,3.51,10.41,9.73,21.17,19.8,36.6,22.82a34,34,0,0,1,19.42,11l1.47,1.65c4.17,4.65,8.1,9,10.17,14.6l0,.06c2.05,5.51,4.17,11.21,4.76,17.09a4.84,4.84,0,0,0,2.32,3.65c.82.56,1.62,1.15,2.47,1.77,2.88,2.12,5.85,4.31,9.64,5.21a66.73,66.73,0,0,0,15.29,1.95c13.09,0,23.69-4.85,32.41-14.82a7.58,7.58,0,0,1,1.51-1.44,8,8,0,0,1,1.08,1.83,4,4,0,0,1-.29,4.49c-9.38,13.45-20.68,20.25-34.55,20.79-2.13.09-5.13.46-6.52,2.73s-.34,5.28.59,7.32c2.76,6,7.62,9.78,12.32,13.39,1.76,1.35,3.41,2.62,5,4,6,5.34,10.79,10,13.62,17.29,5,12.83,5.64,26.14,2,40.69a146.15,146.15,0,0,1-9.42,25.88l-1.88,4.09,4.3-1.35a28,28,0,0,0,9.47-5.44,89.91,89.91,0,0,0,25.75-33.28c5.35-12,8.16-25.86,8.36-41,.08-6.38-.2-12.83-.47-19.07-.06-1.19-.11-2.38-.16-3.58a3.19,3.19,0,0,1,.09-1.39.74.74,0,0,1,.2-.11c.14.1.39.31.56.45s.43.37.67.55l3.95,3-.77-4.9c-3.28-20.91-13.49-45.89-30.34-74.25l-3.59,1.74c2,5.36,3.94,10.9,5.77,16.25,1.5,4.42,3.06,9,4.7,13.45a1.2,1.2,0,0,1,.09.35,2.58,2.58,0,0,1-.76.5,1.89,1.89,0,0,1-.7.25,1.26,1.26,0,0,1-.2-.28,19.09,19.09,0,0,1-1.54-3.44,173.52,173.52,0,0,0-10.32-26.12,146.87,146.87,0,0,0-20.29-31.75c-13.17-15.59-26.87-25-43.12-29.67-8.24-2.36-16.32-5.24-22.44-7.49-6.9-2.53-12.2-7.25-17.81-12.25-2.15-1.91-4.37-3.89-6.68-5.72-3.29-2.61-5.5-6-7.84-9.61a67.36,67.36,0,0,0-4.53-6.41l-2-2.45c-8-9.59-15.53-18.65-19.3-30.38-2.1-6.52-4.3-13.13-6.42-19.52-2-6.08-4.1-12.36-6.1-18.56-3.91-12.12-8-22.79-18.25-30.57-6-4.55-11.69-6.86-16.89-6.86Z" transform="translate(-29.73 -10.4)" style="fill:#1d1d1b"/><path d="M186.84,748.28a195.19,195.19,0,0,1-40.79-4c-13-2.77-24.1-6.57-33.83-11.62-18.69-9.71-30.51-21.37-37.2-36.69a136.25,136.25,0,0,1-5.83-15.25c-.88-2.92-.19-4.71.54-5.69a5.71,5.71,0,0,1,4.83-2.06,11.73,11.73,0,0,1,1.73.14c10.54,1.65,21.22,3.44,31.56,5.18,20.34,3.41,41.37,6.94,62.19,9.48q3.38.4,6.75.76l4.62.51a27.07,27.07,0,0,0,3.09.18c9.76,0,17.23-5.64,23.24-11.15,12.31-11.27,19.22-26,25.79-41.29.56-1.3,1.49-3,3.08-3,1.28,0,2.24,1.13,3.18,2.23l.11.13c11,12.84,15,26.08,12.22,40.47-3.05,15.87-10.64,30.66-23.86,46.56-1.22,1.47-2.34,3-3.51,4.61-2.56,3.49-5.21,7.11-9,10l-1.29,1-.67-3.47c-1.37-7.17-2.66-13.95-6.37-19.81l-.15-.27-.06-.12c-.3-.45-.6-.94-.91-1.45-1.23-2-2.62-4.28-4.33-4.28a2.45,2.45,0,0,0-.85.16c-1.36.49-1.31,1.47-.45,4.35a14.68,14.68,0,0,1,.67,2.81c.16,1.52.36,3,.56,4.56.67,5.12,1.37,10.43.37,15.86-1.41,7.73-4.91,11.07-11.7,11.17l-3.75,0Z" transform="translate(-29.73 -10.4)" style="fill:#e27d22"/><path d="M236.61,634.71c.85,0,1.67,1,2.53,2,9.8,11.43,15,24.27,12,39.63-3.41,17.69-12.36,32.53-23.65,46.11-4,4.77-7,10.36-12.32,14.49-1.56-8-2.74-15.49-6.87-22-.09-.13-.14-.28-.23-.41-1.64-2.46-3.31-6.18-6.07-6.18a3.55,3.55,0,0,0-1.19.22c-3.43,1.24-.73,5.29-.43,8.2.68,6.68,2.2,13.29.94,20.14s-4,10.25-10.73,10.35c-1.25,0-2.49,0-3.74,0a195.46,195.46,0,0,1-40.59-4,131.09,131.09,0,0,1-33.58-11.53c-15.92-8.27-29.34-19.25-36.74-36.2a136,136,0,0,1-5.79-15.14c-1.23-4.07.69-6.46,4.4-6.46a11.34,11.34,0,0,1,1.59.13c31.26,4.88,62.35,10.83,93.78,14.66,3.78.47,7.58.84,11.38,1.28a29.28,29.28,0,0,0,3.2.18c9.55,0,17-5.05,23.92-11.41,12.53-11.48,19.52-26.44,26-41.63.77-1.8,1.48-2.44,2.16-2.44m0-2h0c-2.43,0-3.57,2.65-4,3.65-6.52,15.22-13.38,29.8-25.54,40.94-5.88,5.39-13.15,10.89-22.57,10.89a27.49,27.49,0,0,1-3-.17l-4.59-.51c-2.22-.24-4.52-.49-6.77-.76-20.8-2.54-41.82-6.07-62.14-9.48-10.34-1.73-21-3.53-31.57-5.17a12.71,12.71,0,0,0-1.9-.16,6.75,6.75,0,0,0-5.62,2.46c-.87,1.17-1.7,3.26-.7,6.58a137.92,137.92,0,0,0,5.87,15.36c6.79,15.55,18.76,27.36,37.66,37.18,9.81,5.09,21,8.92,34.09,11.7a195.84,195.84,0,0,0,41,4.06c1.26,0,2.51,0,3.77,0,9.3-.14,11.66-6.48,12.67-12s.31-11-.37-16.17c-.2-1.49-.4-3-.55-4.53a16.55,16.55,0,0,0-.71-3c-.86-2.87-.62-3-.17-3.12a1.48,1.48,0,0,1,.51-.1c1.15,0,2.44,2.11,3.47,3.8.3.49.61,1,.91,1.46l0,0c.06.12.13.24.2.36,3.6,5.7,4.88,12.38,6.23,19.46l.36,1.87.62,3.2,2.57-2c3.87-3,6.56-6.68,9.16-10.23,1.17-1.6,2.28-3.11,3.48-4.56,13.33-16,21-31,24.07-47,2.84-14.71-1.23-28.23-12.44-41.31l-.11-.13c-1-1.21-2.2-2.58-3.94-2.58Z" transform="translate(-29.73 -10.4)" style="fill:#1d1d1b"/><path d="M191.22,803.91c-6,0-11.81-1.67-18.75-5.41l-1.86-1c-14.41-7.75-29.31-15.77-41.15-28-5.48-5.65-10.88-12-11.3-21.76l-.06-1.41,1.35.41L130.16,750c8.26,2.51,16.06,4.88,24.08,7.17a236.2,236.2,0,0,0,26.16,5.38l5.54.94a30,30,0,0,0,5.05.43c9.49,0,17.1-4.47,26.07-10.32,10.09-6.58,17.77-15.91,23.33-23.3,5.25-7,9.05-15.08,12.71-22.93l1.44-3.06c4-8.48,7-18.08,9.67-31.11l.32-1.55,1.26,1c13.43,10.13,20.46,21.57,21.51,35,.78,10-2.93,19.33-7.05,27.93-8.6,18-22.31,33.83-43.12,50-15.82,12.28-30.23,18.12-45.38,18.37Z" transform="translate(-29.73 -10.4)" style="fill:#e27d22"/><path d="M265.19,673.41c11.93,9,20,19.84,21.11,34.27.76,9.66-2.74,18.65-6.95,27.43-9.82,20.48-25.36,36.06-42.84,49.63-13,10.08-27.48,17.87-44.77,18.16h-.52c-6.65,0-12.5-2.17-18.28-5.29-15.21-8.19-30.53-16.19-42.76-28.78-5.58-5.74-10.62-11.84-11-21.1,11.79,3.53,23.26,7.1,34.8,10.4,10.42,3,21.14,4.51,31.81,6.34a30.61,30.61,0,0,0,5.22.45c10.12,0,18.42-5.13,26.62-10.48,9.43-6.15,16.88-14.63,23.58-23.54,6-7.95,10-17.15,14.26-26.16,4.65-9.87,7.46-20.28,9.74-31.34m-1.32-3.5-.64,3.1c-2.67,13-5.63,22.48-9.59,30.88-.49,1-1,2.05-1.44,3.08-3.65,7.79-7.42,15.85-12.61,22.74-5.51,7.33-13.12,16.57-23.07,23.06-8.83,5.76-16.32,10.16-25.53,10.16a28.89,28.89,0,0,1-4.88-.42l-5.56-.94a235.36,235.36,0,0,1-26-5.35c-8-2.29-15.81-4.66-24.06-7.16l-10.72-3.24L117,745l.12,2.81c.44,10.13,6,16.63,11.58,22.41,11.95,12.31,26.92,20.36,41.4,28.15l1.85,1c7.09,3.82,13,5.53,19.23,5.53h.55c15.37-.26,30-6.16,46-18.58,20.94-16.26,34.74-32.25,43.41-50.34,4.19-8.73,8-18.22,7.15-28.45-1.07-13.73-8.24-25.41-21.91-35.71l-2.52-1.91Z" transform="translate(-29.73 -10.4)" style="fill:#1d1d1b"/><path d="M463,583.6,487,634.52a6.35,6.35,0,0,1,1.92,1.62c16.62,19,37.12,30.64,62.63,33,10,1,19.86.84,29.35-2.43,5.54-1.91,10.68-.67,15.69.81,9.61,2.85,19.41,3.55,29.28,3.55,14.68,0,29.32-.78,43.31-5.85,17.49-6.35,30.23-18,38.59-34.65,9.83-19.58,17.77-39.81,22.42-61.27a76.8,76.8,0,0,0-1-38.3c-1.31-4.46,1.33-7.68,2.56-11.22,5.3-15.27,6.18-30.69,3.67-46.62a102.43,102.43,0,0,0-5.16-19.28,16.33,16.33,0,0,1-.65-8.82c4.06-23.38.92-45.41-13.46-64.94a69.27,69.27,0,0,0-21.39-19.56c-4.19-2.39-9-2.87-13.63-2.79-14.33.25-28.54-1.24-42.73-2.66-12.59-1.25-25-3.87-37.55-5.89a16.43,16.43,0,0,0-2.45-.45c-5,0-7.64-1.79-7.4-7.44.75-17.43.78-34.87,3.78-52.16,3.7-21.32.4-41.73-9.16-61.17-7-14.18-15.85-27-28-37.16-10-8.31-21.61-13.33-34.7-12.35-11.39.86-20.81,5.8-25.75,17.22-4.11,9.5-7.42,19.29-7.55,29.58-.12,10.08,2.42,20,4.56,29.86,3.48,16,7.74,31.75,12.53,47.4,1.51,4.91,0,10.09-.43,15.07-1.09,12.59-2.53,25.15-6.39,37.34-3.63,11.49-8.91,22-17.32,30.66-9.42,9.72-16.68,21-23.72,32.39a33.32,33.32,0,0,0-3.95,9.76,569.88,569.88,0,0,0-4.71,70.58c1.95,11.22,4.64,22.31,6.72,33.51.37,2,1.66,2.3,3.38,2.19s2.93-.9,2.84-2.81a23.35,23.35,0,0,0-.54-4.5,188.58,188.58,0,0,1-4.81-29.72,155.78,155.78,0,0,1,1.28-40.27c3.15-19,9.74-36.18,23.16-50.43,5.89-6.26,11.44-12.86,16.86-19.54,7.32-9,9.2-20.43,13.2-30.93,2.77-7.3,1.6-14.86,2.75-22.22,2.24-14.37,5-28.66,1.65-43.25-3.23-14.12-6.23-28.3-9.46-42.42-2.84-12.44-5.21-24.59-.05-37.32,5.34-13.16,13.08-18.27,23-16.85a49.47,49.47,0,0,1,33.23,19.54c19.15,25.16,22.61,54.09,19.2,84-2.14,18.84-5,38-15.65,54.58a4.54,4.54,0,0,0,1.32,6.62c2.49,1.7,4.62-.22,6.74-1.61,1.57-1,1.1-4.2,4.09-3.79a253.82,253.82,0,0,0,3.23,27.59c.34,1.87.69,3.13,2.91,3.38,2.73.3,3-1.8,3.4-3.4,1-3.86,2.23-7.76,2.53-11.7.31-4.23,2.56-5.1,6-4.74,6.8.7,13.67,1.11,20.36,2.39a267.65,267.65,0,0,0,59,4.43c12.27-.39,20.56,5.42,26.54,15.38,8.51,14.18,10.14,30,9.9,46-.06,4-.4,8.3-2.56,12.1a71.27,71.27,0,0,1-16.53,19.5c-10.85,9-23.38,15.68-34.78,23.94-5.77,4.18-12.53,7.65-16.83,13.05-7,8.79-15.73,15.28-24.26,22.15-3,2.44-6.25,1.47-9.09-.93-5.86-5-10.66-10.56-12.22-18.42-.28-1.44-.78-3.39-3.21-3s-3.84,1.61-3.89,3.88c-.14,5.9.51,11.57,4,16.79,1.37,2.06,4.42,3.19,4.08,6.44-5.12-1.42-10.22-2.62-15.18-4.24-15.19-4.95-28.65-12.61-38.78-25.34-4.38-5.49-4.86-12.36-5.74-18.8-.82-6.09-1.84-12.46-.06-18.64,5.33-18.54,13.67-22.94,30.81-26.05,5.22-.95,10.66-.85,15.54,2.26,1.72,1.09,2.26,2,1.83,4.21a140.75,140.75,0,0,0-2.35,17.32,69.12,69.12,0,0,0,.76,12.67c.1.86.47,2.77,2.51,2.48a2.39,2.39,0,0,0,2.4-2.63c.16-8.45,2.93-16.38,5.3-24.31,2.45-8.19,3.61-17,10.84-23.19,6.85-5.84,13.85-11.48,21.78-15.7a322.82,322.82,0,0,1,33.68-16,13.71,13.71,0,0,0,4.66-3.68c1.76-1.94,1.37-3.91-1.25-4.54-1.81-.44-3.5-1.05-5.77-.35-17.64,5.43-33.76,14.12-49,24.14-12.19,8-24.71,13.29-39.32,13.66-4.22.1-5.1-2-4.33-5.37s2-6.66,3-10c1.84-6.2,3.79-12.37,5.4-18.63.56-2.19,1.21-5-1.24-6.51s-4.19.53-6,2.23c-2.36,2.26-2.86,5.23-3.71,8.06-4.94,16.55-8.67,33.66-22.39,45.95a38.91,38.91,0,0,0-12.71,22.19c-1.41,7.4-3.2,14.86-1.83,22.39,1.19,6.49,2.39,13.07,5.22,19.15a3.08,3.08,0,0,1-.13,2.86c-2,4.36-3.42,9.14-7,12.58-13.92,13.52-29.77,20.37-49.4,14-4.41-1.45-5.46-.44-5,4.07a6.46,6.46,0,0,0,4,5.79c15.21,6.88,30.39,8.43,45.65.14,5.13-2.79,7.27-1.38,7.9,4.4,1,9.14-3.8,16.78-6.37,24.92s-4.69,15.65-3.17,24.67c2.71,16,10.15,29,21.27,40.21A163,163,0,0,0,563,653.54a28.09,28.09,0,0,1-11,.15c-31.94-4.78-55-22.39-71.48-49.34-4.26-6.94-8-14.17-11.91-21.34-.81-1.49-1.58-2.64-3.39-2.35C463.59,580.93,463.48,582.3,463,583.6Zm247.17-46.11c-6.81,11-15.36,20.55-24.9,29.35a214.67,214.67,0,0,1-39.09,28.3c-6.37,3.66-10.84,1.92-15.74-3.69s-7.23-12.68-10.29-19.29c-1.34-2.88-1.07-8.15-5-7.4s-3.28,5.94-3.46,9.58c0,.17,0,.34,0,.51-.22,8.37,2.81,16,5.82,24.33-7.24-.9-13.19-4.42-19.52-6.67-18.06-6.39-34.63-15.26-47.61-29.85-11.28-12.67-13.59-27.49-10.81-43.58.45-2.55.76-5,4.61-2.2,14.5,10.54,29.31,20.6,47.35,24.35,11.08,2.3,21.84,2.77,31.5-4.58,3.29-2.51,6.62-5,9.9-7.5,27.15-21,52.82-43.79,79.24-65.67,4-3.31,7.83-2.5,9.1,2.57a148.55,148.55,0,0,1,3,17.32C726.79,503.27,720.38,521,710.13,537.49ZM556.7,633.06c-8.79-5.85-17-12.28-21.69-21.7-7-14.08-5.46-28.64.66-43.64,8.26,9,16.65,17.18,26.46,23.79,9,6,17.81,12.39,27.8,16.48,11.18,4.58,22.83,8.35,35,8.84,12.38.51,24.73.68,35.24-8.3,8.92-7.63,18.06-15,26.12-23.55,8.92-9.48,17.63-19.17,26.65-29,4.77,8.85,3.45,17.33,1.44,25.78-4.41,18.51-14.25,34.46-23.88,50.53-3.75,6.27-8.12,11.65-14.58,15.34-16.28,9.32-34.11,10.11-51.8,7.92C600.33,652.6,577.21,646.69,556.7,633.06Z" transform="translate(-29.73 -10.4)" style="fill:#271f20"/><path d="M557.51,655.16a37.56,37.56,0,0,1-5.69-.48c-30.86-4.62-54.47-20.91-72.19-49.8-3.6-5.87-6.91-12-10.11-18l-1.83-3.4c-.79-1.45-1.23-1.87-2-1.87l-.38,0c-.63.1-.8.4-1.17,1.51q-.14.4-.3.81l-.93,2.3L462,584c-8.48-21.17-12.8-50-12.83-85.58l2-.18c1.07,6.16,2.39,12.38,3.66,18.39,1,4.94,2.12,10.06,3.07,15.11.19,1.06.64,1.39,1.84,1.39h.48c1.65-.11,2-.76,1.91-1.76a21.75,21.75,0,0,0-.51-4.3,185.35,185.35,0,0,1-4.83-29.87,158,158,0,0,1,1.28-40.54c3.59-21.59,11-37.78,23.42-50.94,6.4-6.8,12.34-14,16.81-19.49,5.16-6.36,7.63-14.15,10-21.68.94-3,1.91-6,3-9,1.69-4.45,1.87-9.14,2-13.68a74.43,74.43,0,0,1,.65-8.35l.54-3.41c2-12.89,4.16-26.21,1.13-39.46-1.66-7.24-3.29-14.61-4.85-21.74-1.5-6.78-3-13.8-4.61-20.68-3-13.27-5.12-25.28,0-37.91C511,198.56,518,192.6,527.05,192.6a23,23,0,0,1,3.25.24,50.21,50.21,0,0,1,33.88,19.93c17.24,22.65,23.4,49.58,19.4,84.75-2.22,19.49-5.1,38.36-15.81,55a3.54,3.54,0,0,0,1.05,5.24,2.53,2.53,0,0,0,1.45.49,6.82,6.82,0,0,0,3.4-1.59l.77-.52a3.12,3.12,0,0,0,.83-1.31c.47-1.07,1.18-2.68,3.3-2.68a5,5,0,0,1,.64.05l.8.11.06.81a259.32,259.32,0,0,0,3.22,27.48c.35,1.9.59,2.4,2,2.56a2.61,2.61,0,0,0,.39,0c1.15,0,1.41-.61,1.82-2.22l.12-.46.44-1.62a53.62,53.62,0,0,0,2-9.9c.29-3.86,2.15-5.73,5.7-5.73a13.71,13.71,0,0,1,1.38.07c1.74.18,3.48.34,5.22.5,5,.47,10.2.94,15.23,1.91a263.48,263.48,0,0,0,49.4,4.56c3.08,0,6.22-.05,9.34-.15l1.19,0c11.25,0,19.83,5.2,26.24,15.88,9.24,15.39,10.27,32.17,10,46.56-.06,4.19-.43,8.62-2.69,12.58a72.23,72.23,0,0,1-16.76,19.77,207.71,207.71,0,0,1-20.7,14.54c-4.7,3-9.55,6.13-14.13,9.45-1.62,1.18-3.35,2.31-5,3.41-4.24,2.79-8.63,5.68-11.62,9.45-6.15,7.74-13.74,13.78-21.08,19.63l-3.34,2.68a6.9,6.9,0,0,1-4.37,1.63,9.4,9.4,0,0,1-6-2.57c-4.92-4.17-10.8-10.09-12.56-19-.34-1.73-.75-2.28-1.7-2.28l-.39,0c-2,.27-3,1.25-3,2.91-.12,5,.24,10.85,3.8,16.21a9.38,9.38,0,0,0,1.51,1.62c1.34,1.24,3,2.78,2.72,5.48l-.12,1.18L597.3,529l-4.82-1.29c-3.43-.9-7-1.84-10.4-3-17.11-5.58-30-14-39.25-25.66-4.13-5.18-4.93-11.4-5.7-17.42-.08-.63-.16-1.25-.25-1.88l-.13-1c-.81-5.91-1.64-12,.09-18.06,5.46-19,14.16-23.6,31.6-26.77a31.55,31.55,0,0,1,5.59-.54,19.26,19.26,0,0,1,10.67,2.94c2.16,1.38,2.75,2.75,2.27,5.25a140.78,140.78,0,0,0-2.33,17.2,68.6,68.6,0,0,0,.75,12.45c.2,1.66.84,1.66,1.12,1.66a1.18,1.18,0,0,0,.26,0c1.16-.16,1.52-.55,1.54-1.66.14-7.5,2.32-14.63,4.42-21.53l.93-3c.43-1.44.83-2.93,1.21-4.38,1.84-6.9,3.75-14,9.93-19.3s13.62-11.37,22-15.81a326.58,326.58,0,0,1,33.78-16,12.69,12.69,0,0,0,4.29-3.42,2.15,2.15,0,0,0,.78-1.87c-.14-.45-.68-.81-1.53-1l-.66-.17a11.32,11.32,0,0,0-2.8-.47,5.8,5.8,0,0,0-1.78.28c-15.68,4.82-31.16,12.45-48.7,24-13.8,9.09-26.45,13.49-39.84,13.83H570c-2.1,0-3.54-.54-4.42-1.64s-1.09-2.75-.58-5,1.23-4.42,1.92-6.55c.38-1.16.76-2.33,1.11-3.5.43-1.42.86-2.85,1.28-4.27,1.41-4.68,2.87-9.53,4.11-14.33.6-2.33,1-4.34-.79-5.41a2.42,2.42,0,0,0-1.23-.41c-1,0-1.93.95-2.93,1.94l-.58.57c-1.78,1.72-2.4,3.92-3.05,6.26-.12.46-.25.92-.39,1.37-.53,1.79-1,3.59-1.58,5.39-4.26,14.68-8.66,29.86-21.1,41a38.07,38.07,0,0,0-12.4,21.63l-.45,2.35c-1.26,6.46-2.57,13.13-1.37,19.68s2.37,13,5.14,18.91a4.06,4.06,0,0,1-.14,3.7c-.47,1-.9,2-1.33,3.06-1.46,3.46-3,7-5.83,9.81-11.55,11.22-23.2,16.67-35.61,16.67a47.82,47.82,0,0,1-14.8-2.47,9.24,9.24,0,0,0-2.63-.57c-.59,0-.74.18-.8.24-.37.4-.47,1.53-.29,3.35a5.51,5.51,0,0,0,3.44,5c8.46,3.83,16.2,5.69,23.65,5.69a43.26,43.26,0,0,0,21.11-5.52,10.17,10.17,0,0,1,4.63-1.5c3.6,0,4.44,3.81,4.75,6.67.75,6.88-1.65,12.92-4,18.76-.85,2.15-1.74,4.37-2.44,6.57-2.66,8.44-4.59,15.58-3.13,24.2,2.52,15,9.39,27.94,21,39.67a159.52,159.52,0,0,0,23.31,19l1.85,1.28-2.19.52A24.38,24.38,0,0,1,557.51,655.16Z" transform="translate(-29.73 -10.4)" style="fill:#e27d22"/><path d="M527.05,193.6a22.1,22.1,0,0,1,3.1.23,49.47,49.47,0,0,1,33.23,19.54c19.15,25.16,22.61,54.09,19.2,84-2.14,18.84-5,38-15.65,54.58a4.54,4.54,0,0,0,1.32,6.62,3.56,3.56,0,0,0,2,.66c1.66,0,3.19-1.27,4.72-2.27s1.15-3.83,3.58-3.83a4.75,4.75,0,0,1,.51,0,256.32,256.32,0,0,0,3.23,27.59c.34,1.87.69,3.13,2.91,3.38l.5,0c2.26,0,2.5-1.92,2.9-3.42,1-3.86,2.23-7.76,2.53-11.7.27-3.68,2-4.81,4.7-4.81a11.48,11.48,0,0,1,1.28.07c6.8.7,13.67,1.11,20.36,2.39a263.37,263.37,0,0,0,49.59,4.58q4.68,0,9.38-.15l1.15,0c11.65,0,19.6,5.76,25.39,15.4,8.51,14.18,10.14,30,9.9,46-.06,4-.4,8.3-2.56,12.1a71.27,71.27,0,0,1-16.53,19.5c-10.85,9-23.38,15.68-34.78,23.94-5.77,4.18-12.53,7.65-16.83,13.05-7,8.79-15.73,15.28-24.26,22.15a5.82,5.82,0,0,1-3.74,1.41,8.53,8.53,0,0,1-5.35-2.34c-5.86-5-10.66-10.56-12.22-18.42-.26-1.33-.7-3.09-2.68-3.09a3.4,3.4,0,0,0-.53,0c-2.33.32-3.84,1.61-3.89,3.88-.14,5.9.51,11.57,4,16.79,1.37,2.06,4.42,3.19,4.08,6.44-5.12-1.42-10.22-2.62-15.18-4.24-15.19-4.95-28.65-12.61-38.78-25.34-4.38-5.49-4.86-12.36-5.74-18.8-.82-6.09-1.84-12.46-.06-18.64,5.33-18.54,13.67-22.94,30.81-26.05a29.88,29.88,0,0,1,5.41-.53,18.37,18.37,0,0,1,10.13,2.79c1.72,1.09,2.26,2,1.83,4.21a140.75,140.75,0,0,0-2.35,17.32,69.12,69.12,0,0,0,.76,12.67c.09.8.42,2.51,2.11,2.51l.4,0a2.39,2.39,0,0,0,2.4-2.63c.16-8.45,2.93-16.38,5.3-24.31,2.45-8.19,3.61-17,10.84-23.19,6.85-5.84,13.85-11.48,21.78-15.7a322.82,322.82,0,0,1,33.68-16,13.71,13.71,0,0,0,4.66-3.68c1.76-1.94,1.37-3.91-1.25-4.54a15.6,15.6,0,0,0-3.7-.67,6.87,6.87,0,0,0-2.07.32c-17.64,5.43-33.76,14.12-49,24.14-12.19,8-24.71,13.29-39.32,13.66H570c-4,0-4.78-2.1-4-5.37s2-6.66,3-10c1.84-6.2,3.79-12.37,5.4-18.63.56-2.19,1.21-5-1.24-6.51a3.34,3.34,0,0,0-1.75-.56c-1.63,0-2.88,1.51-4.2,2.79-2.36,2.26-2.86,5.23-3.71,8.06-4.94,16.55-8.67,33.66-22.39,45.95a38.91,38.91,0,0,0-12.71,22.19c-1.41,7.4-3.2,14.86-1.83,22.39,1.19,6.49,2.39,13.07,5.22,19.15a3.08,3.08,0,0,1-.13,2.86c-2,4.36-3.42,9.14-7,12.58-10.32,10-21.71,16.38-34.91,16.38a46.64,46.64,0,0,1-14.49-2.42,10.09,10.09,0,0,0-2.94-.62c-1.94,0-2.4,1.43-2.08,4.69a6.46,6.46,0,0,0,4,5.79c8,3.63,16,5.78,24.06,5.78a44.48,44.48,0,0,0,21.59-5.64,9.26,9.26,0,0,1,4.15-1.38c2.23,0,3.33,1.91,3.75,5.78,1,9.14-3.8,16.78-6.37,24.92s-4.69,15.65-3.17,24.67c2.71,16,10.15,29,21.27,40.21A163,163,0,0,0,563,653.54a23.81,23.81,0,0,1-5.48.62,37.57,37.57,0,0,1-5.55-.47c-31.94-4.78-55-22.39-71.48-49.34-4.26-6.94-8-14.17-11.91-21.34-.72-1.33-1.42-2.39-2.84-2.39a3.65,3.65,0,0,0-.55,0c-1.59.27-1.69,1.64-2.22,2.94-9.69-24.18-12.74-55.51-12.76-85.21,1.95,11.22,4.64,22.31,6.72,33.51a2.47,2.47,0,0,0,2.83,2.2h.55c1.8-.12,2.93-.9,2.84-2.81a23.35,23.35,0,0,0-.54-4.5,188.58,188.58,0,0,1-4.81-29.72,155.78,155.78,0,0,1,1.28-40.27c3.15-19,9.74-36.18,23.16-50.43,5.89-6.26,11.44-12.86,16.86-19.54,7.32-9,9.2-20.43,13.2-30.93,2.77-7.3,1.6-14.86,2.75-22.22,2.24-14.37,5-28.66,1.65-43.25-3.23-14.12-6.23-28.3-9.46-42.42-2.84-12.44-5.21-24.59-.05-37.32,4.77-11.75,11.45-17.08,19.87-17.08m0-2c-9.48,0-16.79,6.17-21.72,18.33-5.23,12.9-3.12,25.08-.05,38.52,1.57,6.88,3.12,13.89,4.61,20.67,1.57,7.13,3.19,14.5,4.85,21.75,3,13.05,1,25.69-1.14,39.08-.18,1.13-.36,2.27-.53,3.41a72.23,72.23,0,0,0-.67,8.47c-.18,4.66-.35,9.06-2,13.35-1.14,3-2.11,6.05-3.05,9-2.46,7.79-4.79,15.14-9.83,21.36-4.46,5.49-10.39,12.66-16.77,19.43-12.53,13.32-20.06,29.67-23.67,51.47a158.55,158.55,0,0,0-1.3,40.79,187.11,187.11,0,0,0,4.86,30,20.15,20.15,0,0,1,.48,4.1,1.39,1.39,0,0,1-.05.49,1.87,1.87,0,0,1-.93.22h-.41a1.6,1.6,0,0,1-.7-.09,1.31,1.31,0,0,1-.16-.48c-.95-5.07-2-10.19-3.07-15.14-1.27-6-2.58-12.21-3.65-18.35l-4,.35c0,35.75,4.37,64.66,12.9,86l1.84,4.6,1.87-4.59c.12-.29.22-.58.31-.87a7.52,7.52,0,0,1,.33-.83h.06a.86.86,0,0,1,.22,0c.19,0,.4.1,1.08,1.34s1.22,2.28,1.84,3.42c3.2,6,6.52,12.13,10.13,18,8.6,14,18.86,25.32,30.5,33.57a97.53,97.53,0,0,0,42.39,16.7,38.33,38.33,0,0,0,5.84.49,25.28,25.28,0,0,0,5.94-.68l4.38-1-3.7-2.56A159.44,159.44,0,0,1,541,633c-11.45-11.58-18.23-24.38-20.72-39.13-1.41-8.4.48-15.43,3.11-23.74.68-2.17,1.56-4.37,2.41-6.5,2.37-6,4.82-12.11,4-19.24-.2-1.87-.82-7.56-5.74-7.56a10.89,10.89,0,0,0-5.1,1.62,42.35,42.35,0,0,1-20.64,5.4c-7.31,0-14.91-1.83-23.24-5.6a4.48,4.48,0,0,1-2.85-4.16,7.46,7.46,0,0,1,0-2.49h.08a8.54,8.54,0,0,1,2.32.52,48.92,48.92,0,0,0,15.11,2.52c12.68,0,24.56-5.54,36.3-17,3-2.92,4.56-6.59,6.06-10.14.42-1,.86-2,1.32-3a5.07,5.07,0,0,0,.13-4.55c-2.71-5.83-3.9-12.33-5-18.61v-.06c-1.16-6.36.07-12.65,1.37-19.31.15-.78.31-1.57.46-2.35a37.05,37.05,0,0,1,12.07-21.07c12.66-11.34,17.11-26.67,21.41-41.49q.78-2.69,1.57-5.37c.14-.46.27-.93.4-1.39.63-2.3,1.19-4.28,2.77-5.81.2-.19.4-.38.59-.58.78-.77,1.66-1.65,2.23-1.65a1.41,1.41,0,0,1,.71.27c.95.58,1,1.62.34,4.3-1.23,4.78-2.69,9.62-4.1,14.3-.42,1.42-.85,2.84-1.28,4.26-.34,1.16-.73,2.34-1.1,3.48-.7,2.15-1.42,4.37-2,6.64-.58,2.52-.33,4.42.78,5.81s2.81,2,5.2,2h.36c13.58-.35,26.4-4.79,40.36-14,17.46-11.51,32.86-19.1,48.44-23.9a5.19,5.19,0,0,1,1.49-.23,10.59,10.59,0,0,1,2.55.44l.68.17a2,2,0,0,1,.8.35,2.09,2.09,0,0,1-.56.9,12,12,0,0,1-3.91,3.16,328.82,328.82,0,0,0-33.89,16.07c-8.43,4.48-15.84,10.57-22.14,15.93S595.79,435,593.9,442c-.38,1.44-.78,2.93-1.2,4.35l-.93,3.05c-2.12,6.95-4.32,14.15-4.46,21.79a1.57,1.57,0,0,1-.08.53h0a1.79,1.79,0,0,1-.6.16h-.07a2.43,2.43,0,0,1-.18-.75,68.29,68.29,0,0,1-.74-12.3A138.62,138.62,0,0,1,588,441.8c.56-2.92-.2-4.68-2.71-6.28a20.21,20.21,0,0,0-11.21-3.1,31.74,31.74,0,0,0-5.77.56c-17.86,3.25-26.77,8-32.38,27.47-1.79,6.25-.94,12.46-.12,18.47l.13,1c.09.62.17,1.25.25,1.87.79,6.15,1.61,12.51,5.9,17.91,9.43,11.85,22.43,20.35,39.73,26,3.45,1.13,7,2.07,10.46,3,1.6.42,3.2.84,4.8,1.29l2.28.63.25-2.35c.33-3.21-1.62-5-3-6.32a9.34,9.34,0,0,1-1.36-1.44c-3.41-5.14-3.75-10.79-3.63-15.64,0-.53,0-1.65,2.17-1.94a1.14,1.14,0,0,1,.25,0c.21,0,.43,0,.72,1.48,1.82,9.21,7.85,15.29,12.89,19.56a10.37,10.37,0,0,0,6.64,2.81,7.85,7.85,0,0,0,5-1.85l3.34-2.68c7.38-5.88,15-12,21.23-19.79,2.9-3.64,7-6.36,11.39-9.24,1.67-1.1,3.4-2.24,5.05-3.43,4.55-3.31,9.4-6.42,14.08-9.42a208.72,208.72,0,0,0,20.8-14.61,73.38,73.38,0,0,0,17-20c2.37-4.17,2.75-8.74,2.82-13.06.22-14.53-.82-31.49-10.19-47.09-6.61-11-15.47-16.37-27.1-16.37l-1.22,0c-3.11.1-6.24.15-9.31.15a262.37,262.37,0,0,1-49.21-4.55c-5.08-1-10.29-1.45-15.33-1.91-1.74-.16-3.47-.32-5.2-.5a13.21,13.21,0,0,0-1.49-.08c-4.06,0-6.37,2.3-6.7,6.66a52.34,52.34,0,0,1-2,9.7c-.14.54-.29,1.09-.44,1.63l-.12.48c-.37,1.46-.45,1.46-.85,1.46h-.29c-.81-.09-.85-.1-1.16-1.75a259.32,259.32,0,0,1-3.2-27.38l-.12-1.61-1.6-.22a5.32,5.32,0,0,0-.78-.06c-2.77,0-3.71,2.13-4.22,3.27a4.13,4.13,0,0,1-.47.89l-.77.52a6.53,6.53,0,0,1-2.84,1.42,1.49,1.49,0,0,1-.89-.32,2.54,2.54,0,0,1-.76-3.87c10.82-16.84,13.72-35.84,16-55.44,1.89-16.58,1.51-31.12-1.17-44.44a98,98,0,0,0-18.43-41,51.18,51.18,0,0,0-34.53-20.31,25,25,0,0,0-3.39-.25Z" transform="translate(-29.73 -10.4)" style="fill:#1d1d1b"/><path d="M617.4,600.17c-5.11-.64-9.57-2.54-13.9-4.37-1.9-.81-3.87-1.65-5.83-2.34-21.12-7.48-36.38-17.05-48-30.13-10.55-11.86-14.16-26.39-11-44.42l0-.18c.31-1.82.7-4.1,2.86-4.1a6,6,0,0,1,3.29,1.44c14.63,10.64,29.22,20.5,47,24.18a60.92,60.92,0,0,0,12.43,1.48,29,29,0,0,0,18.26-5.88l4-3c2-1.49,4-3,5.91-4.49C650.32,514.45,668,499.5,685,485c8.67-7.35,17.63-14.95,26.54-22.32a8.39,8.39,0,0,1,5.19-2.22c2.66,0,4.67,1.94,5.51,5.32a149.83,149.83,0,0,1,3,17.44c2.26,18-2.28,35.37-14.3,54.76-6.26,10.1-14.46,19.77-25.07,29.57A215.36,215.36,0,0,1,646.64,596a13.5,13.5,0,0,1-6.7,2.06c-3.52,0-6.69-1.84-10.29-6-3.94-4.5-6.22-9.82-8.44-15-.64-1.5-1.31-3-2-4.56a16.89,16.89,0,0,1-.93-3c-.61-2.44-1.08-3.92-2.4-3.92a3.26,3.26,0,0,0-.52,0c-2.36.46-2.57,3-2.61,6.8,0,.64,0,1.26,0,1.85,0,.05,0,.1,0,.15s0,.22,0,.33c-.2,7.54,2.35,14.57,5,22l1.26,3.48Z" transform="translate(-29.73 -10.4)" style="fill:#e27d22"/><path d="M716.75,461.49c2.09,0,3.78,1.51,4.54,4.56a148.55,148.55,0,0,1,3,17.32c2.5,19.9-3.91,37.58-14.16,54.12-6.81,11-15.36,20.55-24.9,29.35a214.67,214.67,0,0,1-39.09,28.3,12.45,12.45,0,0,1-6.2,1.93c-3.41,0-6.39-2-9.54-5.62-5-5.69-7.23-12.68-10.29-19.29-1.25-2.69-1.1-7.47-4.24-7.47a3.63,3.63,0,0,0-.71.07c-4,.76-3.28,5.94-3.46,9.58,0,.17,0,.34,0,.51-.22,8.37,2.81,16,5.82,24.33-7.24-.9-13.19-4.42-19.52-6.67-18.06-6.39-34.63-15.25-47.61-29.85-11.28-12.67-13.59-27.49-10.81-43.58.31-1.75.55-3.45,1.91-3.45a5.11,5.11,0,0,1,2.7,1.25c14.5,10.54,29.31,20.6,47.35,24.35a62.32,62.32,0,0,0,12.63,1.5,29.94,29.94,0,0,0,18.87-6.08c3.29-2.51,6.62-5,9.9-7.5,27.15-21,52.82-43.79,79.24-65.67a7.46,7.46,0,0,1,4.56-2m0-2h0a9.38,9.38,0,0,0-5.83,2.45c-8.91,7.38-17.88,15-26.55,22.33-17,14.45-34.67,29.4-52.65,43.3-1.94,1.5-4,3-5.89,4.47-1.33,1-2.67,2-4,3a27.73,27.73,0,0,1-17.66,5.67A59.52,59.52,0,0,1,592,539.27c-17.55-3.64-32.05-13.44-46.58-24a6.86,6.86,0,0,0-3.88-1.63c-3,0-3.53,3.09-3.85,4.93l0,.18c-3.17,18.35.52,33.16,11.28,45.25,11.76,13.21,27.15,22.87,48.44,30.41,1.93.68,3.79,1.48,5.77,2.32,4.39,1.86,8.92,3.79,14.17,4.44l3.23.41-1.1-3.07-.71-2c-2.67-7.36-5.19-14.31-5-21.65,0-.14,0-.28,0-.43v-.07c0-.57,0-1.22,0-1.85,0-3.8.31-5.54,1.8-5.83l.33,0c.59,0,1,1.37,1.43,3.16a17.51,17.51,0,0,0,1,3.15c.69,1.49,1.35,3,2,4.54,2.25,5.21,4.57,10.61,8.6,15.22,3.81,4.36,7.22,6.31,11.05,6.31a14.46,14.46,0,0,0,7.2-2.19,216.07,216.07,0,0,0,39.45-28.57c10.68-9.86,18.94-19.6,25.24-29.77,12.15-19.6,16.74-37.21,14.44-55.42a148.27,148.27,0,0,0-3-17.55c-1-3.86-3.32-6.08-6.48-6.08Z" transform="translate(-29.73 -10.4)" style="fill:#1d1d1b"/><path d="M639.51,657.57a125.58,125.58,0,0,1-15.49-1c-28.35-3.51-49.91-10.71-67.87-22.65-8.61-5.72-17.23-12.36-22-22.09-6.45-13.06-6.24-27.6.64-44.46l.6-1.46,1.06,1.16c9.74,10.66,17.84,18,26.28,23.64l3,2.06c7.77,5.28,15.8,10.73,24.57,14.32,9.29,3.81,21.63,8.24,34.68,8.78,2.82.11,5.18.19,7.53.19,8.58,0,18.5-1,27-8.26,1.55-1.33,3.1-2.64,4.66-4,7.25-6.14,14.76-12.49,21.38-19.52,6.21-6.59,12.17-13.13,18.49-20.06,2.7-3,5.41-5.94,8.16-8.93l.95-1,.67,1.24c5,9.32,3.5,18.19,1.53,26.49-4.27,17.91-13.71,33.64-22.83,48.86l-1.17,1.95c-4.5,7.52-9.11,12.36-15,15.7C665.78,654.6,653.7,657.57,639.51,657.57Z" transform="translate(-29.73 -10.4)" style="fill:#e27d22"/><path d="M713,556c4.77,8.85,3.45,17.33,1.44,25.78-4.41,18.51-14.25,34.46-23.88,50.53-3.75,6.27-8.12,11.65-14.58,15.34-11.56,6.62-23.91,8.94-36.43,8.94a126.2,126.2,0,0,1-15.37-1c-23.81-2.95-46.93-8.86-67.44-22.49-8.79-5.85-17-12.28-21.69-21.7-7-14.08-5.46-28.64.66-43.64,8.26,9,16.65,17.18,26.46,23.79,9,6,17.81,12.39,27.8,16.48,11.18,4.58,22.83,8.35,35,8.84,2.53.11,5.06.2,7.57.2,9.78,0,19.31-1.36,27.67-8.5,8.92-7.63,18.06-15,26.12-23.55,8.92-9.48,17.63-19.17,26.65-29m.43-3.43-1.9,2.07q-4.12,4.5-8.18,9c-6.31,6.92-12.26,13.45-18.46,20-6.58,7-14.07,13.32-21.3,19.44-1.56,1.32-3.11,2.63-4.66,4-8.25,7-17.55,8-26.37,8-2.34,0-4.68-.08-7.49-.19-12.9-.53-25.13-4.93-34.34-8.7-8.67-3.55-16.66-9-24.39-14.23l-3-2.06c-8.37-5.64-16.42-12.88-26.1-23.48L535,564l-1.2,2.93c-7,17.14-7.19,31.95-.61,45.29,4.91,9.94,13.66,16.67,22.39,22.48,18.09,12,39.79,19.27,68.3,22.8a125.48,125.48,0,0,0,15.61,1c14.37,0,26.61-3,37.42-9.2,6-3.43,10.71-8.38,15.3-16l1.18-2c9.16-15.28,18.64-31.08,22.94-49.14,2-8.48,3.55-17.57-1.62-27.19l-1.34-2.48Z" transform="translate(-29.73 -10.4)" style="fill:#1d1d1b"/></svg>